<svg fill="#ccc" xmlns="http://www.w3.org/2000/svg" class="iconic-pen injected-svg iconic iconic-lg iconic-main" width="128" height="128">
    <g class="iconic-pen-lg iconic-container iconic-lg" data-width="128" data-height="128">
        <path class="iconic-pen-button iconic-property-accent iconic-property-fill" d="m112.011199 26.012195-9.998394-9.998394L118.010094.016512l9.998394 9.998394z"/>
        <path class="iconic-pen-body iconic-pen-body-bottom iconic-property-fill" d="M38 100 28 90l-16 16v6l-6 6 4 4 6-6h6z"/>
        <path class="iconic-pen-body iconic-pen-body-middle iconic-property-fill" d="m100.008585 44.004411-61.990467 61.990467-15.997289-15.997289 61.990467-61.990467z"/>
        <path class="iconic-pen-body-top iconic-property-accent iconic-property-fill" d="M118.011893 25.991103 106.013396 37.9896 90.016107 21.992311l11.998497-11.998497z"/>
        <path class="iconic-pen-clip iconic-property-accent iconic-property-fill" d="M88 16 50 54v4l34-34 20 20 6-6z"/>
        <path class="iconic-pen-head iconic-property-accent iconic-property-fill" d="m8 124-4-4-4 4v4l3.997-.003z"/>
    </g>
</svg>