<svg xmlns="http://www.w3.org/2000/svg"><defs><font id="Pe-icon-social" horiz-adv-x="1024"><font-face ascent="960" descent="-64" units-per-em="1024"/><glyph horiz-adv-x="512"/><glyph d="M339.2 454.4c8 19.2 16 35.2 28.8 49.6 27.2 32 62.4 49.6 105.6 52.8 59.2 4.8 107.2-17.6 150.4-56 17.6-16 33.6-33.6 48-52.8 3.2-3.2 4.8-4.8 8 0 19.2 24 40 46.4 64 65.6 27.2 22.4 59.2 38.4 94.4 41.6 88 9.6 161.6-38.4 180.8-129.6 8-38.4 4.8-76.8-8-113.6-24-68.8-81.6-107.2-153.6-107.2-44.8 0-81.6 17.6-116.8 43.2-22.4 17.6-41.6 36.8-60.8 59.2-3.2 3.2-4.8 4.8-8 0-19.2-19.2-36.8-40-57.6-57.6-27.2-22.4-56-38.4-91.2-43.2-62.4-8-115.2 8-156.8 56-9.6 11.2-16 24-22.4 36.8 0 1.6-3.2 4.8-3.2 4.8-8-17.6-17.6-33.6-32-48-33.6-35.2-73.6-54.4-123.2-56-35.2-1.6-68.8 3.2-100.8 17.6C32 243.2 1.6 284.8-1.6 344c0 4.8 1.6 6.4 4.8 6.4h86.4c4.8 0 4.8-1.6 6.4-4.8 4.8-32 22.4-56 56-64 46.4-11.2 88 14.4 100.8 62.4 8 32 4.8 62.4-16 89.6-14.4 17.6-33.6 25.6-56 27.2-32 1.6-59.2-8-78.4-35.2-1.6-3.2-3.2-3.2-6.4-3.2H17.6c-1.6 4.8-3.2 6.4-1.6 9.6 12.8 75.2 27.2 148.8 40 224 1.6 9.6 3.2 20.8 4.8 30.4 0 3.2 1.6 4.8 4.8 4.8h257.6c4.8 0 4.8-1.6 4.8-4.8v-68.8c0-4.8-1.6-6.4-6.4-6.4h-184c-4.8 0-8 0-8-6.4-4.8-32-11.2-65.6-17.6-97.6 0-1.6-1.6-3.2 0-4.8s3.2 1.6 3.2 1.6c28.8 27.2 62.4 35.2 100.8 33.6 36.8-1.6 67.2-16 92.8-41.6 11.2-11.2 19.2-24 25.6-36.8 3.2-1.6 4.8-3.2 4.8-4.8zM934.4 384c0 3.2 0 8-1.6 12.8-4.8 43.2-41.6 72-84.8 65.6-22.4-3.2-41.6-14.4-59.2-27.2-19.2-16-36.8-35.2-52.8-52.8-1.6-1.6-1.6-3.2 0-4.8 11.2-12.8 24-27.2 38.4-38.4 24-19.2 48-33.6 78.4-35.2 35.2-3.2 62.4 12.8 75.2 44.8 4.8 9.6 6.4 20.8 6.4 35.2zm-516.8-4.8v-9.6c3.2-33.6 25.6-59.2 57.6-65.6 17.6-3.2 35.2-1.6 52.8 6.4 36.8 14.4 64 40 88 67.2 1.6 1.6 1.6 3.2 0 4.8-17.6 19.2-36.8 36.8-57.6 52.8-14.4 11.2-30.4 20.8-48 24-27.2 6.4-51.2 3.2-72-19.2-12.8-16-20.8-36.8-20.8-60.8z" unicode=""/><glyph d="M600 659.2c83.2 0 150.4 67.2 150.4 150.4S683.2 960 600 960s-150.4-67.2-150.4-150.4S516.8 659.2 600 659.2zm-48-233.6c240-14.4 344 27.2 344 27.2l-22.4 142.4s-280-92.8-408 67.2c-6.4 1.6-16-6.4-16-6.4C316.8 540.8 382.4 222.4 0 203.2c4.8-67.2 19.2-168 19.2-168s300.8 33.6 424 200C600 99.2 691.2-64 691.2-64L830.4 9.6S745.6 248 552 425.6z" horiz-adv-x="896" unicode=""/><glyph d="M571.2 660.8C460.8 657.6 184 625.6 184 392c0-249.6 315.2-260.8 419.2-99.2 3.2-6.4 8-12.8 14.4-19.2 38.4-40 89.6-88 89.6-88l129.6 128s-73.6 57.6-73.6 120v336c0 57.6-56 188.8-256 188.8-201.6 1.6-308.8-123.2-308.8-236.8l168-14.4s36.8 113.6 124.8 113.6 81.6-70.4 81.6-84.8c-1.6-6.4-1.6-35.2-1.6-75.2zm0-198.4c0-184-192-155.2-192-40 0 107.2 115.2 129.6 192 131.2v-91.2zm299.2-345.6c-422.4-200-683.2-32-851.2 68.8C9.6 192-9.6 184 6.4 166.4 62.4 99.2 244.8-64 483.2-64S864 67.2 881.6 89.6c19.2 22.4 6.4 35.2-11.2 27.2zm118.4 65.6c-11.2 14.4-68.8 17.6-105.6 12.8s-91.2-27.2-86.4-40c1.6-4.8 8-3.2 32 0 25.6 3.2 94.4 11.2 110.4-8 14.4-19.2-22.4-110.4-28.8-124.8s3.2-19.2 14.4-8c12.8 9.6 33.6 35.2 48 72 16 33.6 24 84.8 16 96z" horiz-adv-x="992" unicode=""/><glyph d="m569.6 865.6 44.8 80c3.2 4.8 1.6 9.6-3.2 12.8-3.2 3.2-9.6 1.6-11.2-3.2l-46.4-81.6c-36.8 16-78.4 24-121.6 24s-84.8-8-121.6-24L264 955.2c-1.6 4.8-8 6.4-12.8 3.2s-6.4-8-3.2-12.8l44.8-80c-88-43.2-147.2-128-147.2-224v-4.8h569.6v4.8c1.6 97.6-57.6 180.8-145.6 224zM300.8 739.2c-14.4 0-25.6 11.2-25.6 25.6s11.2 25.6 25.6 25.6c14.4 0 25.6-11.2 25.6-25.6 1.6-14.4-11.2-25.6-25.6-25.6zm262.4 0c-14.4 0-25.6 11.2-25.6 25.6s11.2 25.6 25.6 25.6c14.4 0 25.6-11.2 25.6-25.6s-11.2-25.6-25.6-25.6zM147.2 360V203.2c0-36.8 28.8-65.6 65.6-65.6h49.6V0c0-35.2 28.8-62.4 62.4-62.4S387.2-33.6 387.2 0v137.6h88V0c0-35.2 28.8-62.4 62.4-62.4C572.8-62.4 600-33.6 600 0v137.6h49.6c36.8 0 65.6 28.8 65.6 65.6V616h-568V360zm656 268.8c-35.2 0-62.4-28.8-62.4-62.4V300.8c0-35.2 28.8-62.4 62.4-62.4 35.2 0 62.4 28.8 62.4 62.4v264c0 35.2-28.8 64-62.4 64zm-742.4 0c-35.2 0-62.4-28.8-62.4-62.4V300.8c0-35.2 28.8-62.4 62.4-62.4 35.2 0 62.4 28.8 62.4 62.4v264c0 35.2-27.2 64-62.4 64z" horiz-adv-x="864" unicode=""/><glyph d="M420.8 465.6 507.2 616c6.4 11.2 3.2 25.6-8 32l-62.4 35.2c-11.2 6.4-25.6 3.2-32-8l-94.4-164.8-104-180.8-86.4-152c-6.4-11.2-3.2-25.6 8-32l62.4-35.2c11.2-6.4 25.6-3.2 32 8L344 329.6l76.8 136zm582.4 44.8h-208c24-46.4 48-89.6 64-120 11.2-20.8 19.2-38.4 22.4-43.2 3.2-6.4 4.8-12.8 6.4-17.6h115.2c11.2 0 20.8 9.6 20.8 20.8v139.2c0 11.2-9.6 20.8-20.8 20.8zm-507.2 0L392 329.6h283.2c-20.8 40-48 99.2-84.8 180.8H496zm-235.2 0h-240C9.6 510.4 0 500.8 0 489.6V350.4c0-11.2 9.6-20.8 20.8-20.8h136l104 180.8zM169.6 83.2l-62.4 35.2c-11.2 6.4-22.4 1.6-24-11.2L72 14.4C70.4 1.6 78.4-3.2 89.6 4.8l80 54.4c11.2 6.4 11.2 17.6 0 24zM843.2 328l-1.6 1.6c-6.4 11.2-20.8 38.4-38.4 73.6v1.6c-1.6 3.2-3.2 4.8-4.8 8-1.6 1.6-1.6 4.8-3.2 6.4s-1.6 3.2-3.2 4.8-3.2 6.4-4.8 9.6c0 1.6-1.6 1.6-1.6 3.2-1.6 3.2-3.2 8-6.4 11.2 0 1.6-1.6 1.6-1.6 3.2-43.2 81.6-97.6 184-131.2 236.8-59.2 92.8-137.6 248-160 236.8-30.4-16 64-212.8 96-286.4S737.6 280 761.6 268.8c24-12.8 33.6-4.8 51.2 1.6 16 6.4 44.8 28.8 30.4 57.6zm70.4-147.2-28.8 56c-6.4 12.8-22.4 17.6-35.2 11.2l-35.2-17.6c-12.8-6.4-16-20.8-8-33.6l36.8-59.2c8-12.8 24-16 35.2-9.6l25.6 14.4c11.2 9.6 16 25.6 9.6 38.4zM904 99.2c-9.6-6.4-32-28.8-4.8-65.6s86.4-38.4 94.4-64c0 0 17.6 190.4-89.6 129.6z" unicode=""/><glyph d="M696 416c-1.6 129.6 105.6 192 110.4 195.2-60.8 88-153.6 100.8-187.2 100.8-80 8-155.2-46.4-196.8-46.4-40 0-102.4 46.4-169.6 44.8-86.4-1.6-166.4-51.2-211.2-128C-48 425.6 19.2 192 107.2 65.6 150.4 3.2 201.6-67.2 268.8-64c65.6 3.2 89.6 41.6 168 41.6s100.8-41.6 169.6-40C676.8-60.8 720 1.6 763.2 64c49.6 72 70.4 142.4 70.4 145.6-1.6 0-136 51.2-137.6 206.4zM566.4 796.8c35.2 43.2 59.2 104 52.8 163.2-51.2-1.6-113.6-33.6-150.4-76.8-33.6-38.4-62.4-99.2-54.4-158.4 57.6-4.8 116.8 28.8 152 72z" horiz-adv-x="832" unicode=""/><glyph d="M424 470.4c54.4 27.2 78.4 70.4 78.4 132.8 0 118.4-88 163.2-208 163.2H0V131.2h296c113.6 0 225.6 56 225.6 184 0 73.6-27.2 131.2-97.6 155.2zM147.2 657.6h129.6c49.6 0 97.6-12.8 97.6-73.6 0-49.6-36.8-68.8-84.8-68.8H147.2v142.4zM288 240H147.2v169.6h144c59.2 0 97.6-22.4 97.6-88 0-60.8-46.4-81.6-100.8-81.6zm516.8 377.6c-158.4 0-233.6-105.6-233.6-243.2 0-156.8 94.4-241.6 233.6-241.6 104 0 179.2 41.6 214.4 148.8H896c-8-28.8-48-52.8-86.4-52.8-70.4 0-113.6 38.4-116.8 115.2H1024c8 142.4-57.6 273.6-219.2 273.6zM694.4 422.4c1.6 35.2 22.4 96 102.4 96 60.8 0 91.2-32 104-96H694.4zm-27.2 318.4h257.6v-64H667.2v64z" unicode=""/><glyph d="M880 846.4c-6.4 9.6-14.4 17.6-24 24-19.2 16-41.6 25.6-65.6 35.2-49.6 19.2-100.8 32-152 40C576 955.2 512 960 446.4 960c-59.2 0-123.2-4.8-185.6-14.4-44.8-6.4-88-16-129.6-30.4-28.8-9.6-56-20.8-80-36.8-11.2-8-22.4-17.6-32-28.8-11.2-14.4-16-30.4-12.8-48 6.4-35.2 11.2-70.4 16-105.6 8-52.8 17.6-104 25.6-156.8 9.6-57.6 20.8-115.2 30.4-172.8 1.6-12.8 8-24 17.6-35.2 6.4-6.4 11.2-12.8 19.2-17.6 24-19.2 51.2-32 78.4-43.2 67.2-27.2 137.6-38.4 209.6-43.2 52.8-3.2 104-1.6 156.8 6.4 44.8 6.4 88 16 129.6 30.4 32 11.2 60.8 25.6 88 44.8 11.2 8 22.4 17.6 30.4 28.8 6.4 8 9.6 16 11.2 25.6 12.8 75.2 25.6 152 38.4 227.2l33.6 211.2c1.6 16-1.6 30.4-11.2 44.8zM448 324.8c-76.8 0-140.8 64-139.2 140.8 0 78.4 64 140.8 140.8 140.8 78.4 0 140.8-64 140.8-142.4-1.6-76.8-65.6-139.2-142.4-139.2zm280 492.8c-4.8-4.8-9.6-8-14.4-11.2-14.4-8-30.4-12.8-46.4-17.6-30.4-8-62.4-12.8-94.4-16-41.6-4.8-83.2-6.4-123.2-6.4-48 0-94.4 1.6-139.2 8-35.2 4.8-68.8 9.6-102.4 20.8-9.6 3.2-19.2 8-28.8 12.8-4.8 1.6-9.6 6.4-12.8 9.6-6.4 6.4-6.4 14.4 0 20.8 3.2 3.2 8 8 12.8 9.6 14.4 8 28.8 12.8 43.2 16 32 8 64 12.8 97.6 16 52.8 4.8 107.2 6.4 160 4.8 49.6-1.6 97.6-4.8 147.2-14.4 22.4-4.8 44.8-9.6 67.2-17.6 8-3.2 14.4-6.4 22.4-11.2 3.2-1.6 6.4-4.8 9.6-8 6.4-3.2 8-9.6 1.6-16zM782.4 224v-9.6c-9.6-51.2-19.2-104-28.8-155.2-3.2-17.6-11.2-32-24-44.8-12.8-14.4-30.4-24-46.4-33.6-32-16-65.6-25.6-99.2-33.6-44.8-9.6-89.6-12.8-115.2-12.8-78.4 0-136 6.4-190.4 22.4-25.6 8-51.2 17.6-73.6 30.4-12.8 6.4-24 16-33.6 25.6-12.8 12.8-20.8 27.2-24 44.8-9.6 51.2-19.2 104-28.8 155.2v8c0 12.8 11.2 19.2 24 12.8 1.6 0 1.6-1.6 3.2-1.6 38.4-27.2 80-46.4 124.8-59.2 40-12.8 83.2-20.8 124.8-24 49.6-4.8 97.6-3.2 147.2 3.2 64 9.6 126.4 27.2 184 59.2 11.2 6.4 22.4 14.4 33.6 20.8 1.6 1.6 3.2 3.2 4.8 3.2 6.4 6.4 16 1.6 17.6-11.2zm-264 241.6c0-38.4-32-70.4-70.4-70.4s-70.4 32-70.4 70.4c0 38.4 32 70.4 70.4 70.4 40 0 70.4-30.4 70.4-70.4z" horiz-adv-x="896" unicode=""/><glyph d="M958.4 576h-57.6c-35.2 0-65.6 30.4-68.8 64 0 182.4-147.2 320-331.2 320h-168C148.8 960 0 812.8 0 628.8V265.6C0 83.2 148.8-64 332.8-64h358.4c184 0 332.8 147.2 332.8 331.2v233.6c0 36.8-28.8 75.2-65.6 75.2zM320 704h192c35.2 0 64-28.8 64-64s-28.8-64-64-64H320c-35.2 0-64 28.8-64 64s28.8 64 64 64zm384-512H320c-35.2 0-64 28.8-64 64s28.8 64 64 64h384c35.2 0 64-28.8 64-64s-28.8-64-64-64z" unicode=""/><glyph d="M515.2 403.2h-104V240h104c86.4 0 91.2 60.8 91.2 83.2 1.6 19.2-6.4 80-91.2 80zM886.4 960H137.6C60.8 960 0 899.2 0 822.4V73.6C0-3.2 60.8-64 137.6-64h748.8C961.6-64 1024-3.2 1024 73.6v748.8c0 76.8-60.8 137.6-137.6 137.6zM553.6 128H246.4v640h299.2C715.2 768 752 648 752 600c0-96-54.4-120-81.6-131.2 41.6-11.2 108.8-46.4 108.8-169.6-1.6-33.6-6.4-171.2-225.6-171.2zm24 456c0 19.2-12.8 62.4-73.6 62.4h-92.8v-128h91.2c67.2 0 75.2 43.2 75.2 65.6z" unicode=""/><glyph d="M512 185.6c-51.2 0-99.2 14.4-142.4 41.6-43.2 28.8-75.2 64-96 108.8L64 704C19.2 625.6 0 537.6 0 448c0-128 41.6-240 124.8-334.4C208 17.6 312-38.4 435.2-57.6L584 200c-14.4-4.8-40-14.4-72-14.4zM350.4 654.4c48 36.8 100.8 49.6 161.6 49.6h440c-44.8 76.8-107.2 142.4-185.6 188.8C689.6 937.6 604.8 960 512 960c-80 0-155.2-17.6-224-51.2s-132.8-83.2-180.8-147.2L256 512c14.4 57.6 48 105.6 94.4 142.4zM985.6 640H688c51.2-51.2 86.4-118.4 86.4-192 0-54.4-16-104-46.4-150.4L518.4-64c140.8 1.6 259.2 51.2 358.4 152C974.4 188.8 1024 307.2 1024 448c0 65.6-11.2 134.4-38.4 192zM704 448c0-106.039-85.961-192-192-192s-192 85.961-192 192 85.961 192 192 192 192-85.961 192-192z" unicode=""/><glyph d="M529.6 947.2c-27.2 17.6-64 17.6-91.2-1.6L32 662.4C9.6 648-3.2 622.4-3.2 596.8V291.2c0-27.2 14.4-52.8 36.8-67.2L448-51.2c27.2-17.6 62.4-17.6 89.6 0L960 227.2c22.4 14.4 36.8 40 36.8 67.2v300.8c0 27.2-14.4 52.8-36.8 67.2L529.6 947.2zM844.8 616 689.6 512 542.4 617.6v209.6L844.8 616zm-408 209.6V620.8l-150.4-104-148.8 100.8 299.2 208zM96 516.8l96-65.6L96 384v132.8zM438.4 80 137.6 281.6 288 387.2l150.4-100.8V80zm-57.6 372.8 97.6 68.8L592 446.4l-100.8-67.2-110.4 73.6zM545.6 80v206.4l144 96L844.8 280 545.6 80zM888 380.8 785.6 448 888 516.8v-136z" horiz-adv-x="992" unicode=""/><glyph d="m152 896-33.6-172.8h699.2l-22.4-110.4H96L62.4 440h699.2l-38.4-196.8-281.6-92.8-244.8 92.8 16 84.8H41.6L0 123.2 404.8-32l465.6 155.2L1024 896H152z" unicode=""/><glyph d="M852.8 960H171.2C76.8 960 0 883.2 0 788.8V105.6C0 12.8 76.8-64 171.2-64h683.2c92.8 0 169.6 76.8 169.6 171.2v681.6c0 94.4-76.8 171.2-171.2 171.2zM960 107.2c0-28.8-11.2-54.4-32-75.2S881.6 0 852.8 0H512v448H64v340.8c0 28.8 11.2 56 32 75.2 20.8 20.8 46.4 32 75.2 32H512V448h448V107.2z" unicode=""/><glyph d="M561.6 507.2H428.8l121.6-212.8C760 352 966.4 409.6 1024 425.6 908.8 580.8 646.4 640 348.8 587.2l-46.4 89.6-115.2-25.6 46.4-92.8C19.2 483.2-49.6 315.2 35.2 153.6c0 0 233.6 64 475.2 131.2L377.6 539.2c131.2 20.8 326.4 16 424-89.6-28.8-8-92.8-24-171.2-43.2l-68.8 100.8zm-395.2-216c-11.2 94.4 27.2 166.4 96 208l80-164.8c-99.2-24-176-43.2-176-43.2z" unicode=""/><glyph d="M636.8 774.4V960H451.2L432 940.8l-88-166.4-27.2-19.2H3.2v-256H176l14.4-17.6-187.2-360V-64h185.6L208-44.8l88 166.4 27.2 19.2h313.6v256H464l-14.4 17.6z" horiz-adv-x="640" unicode=""/><glyph d="M156.8 606.4H0V292.8h260.8v449.6h-104v-136zm-3.2-217.6h-52.8v129.6h52.8V388.8zM460.8 288h152v-40h-152v-94.4h256v451.2h-256V288zm97.6 217.6h51.2V376h-51.2v129.6zM768 604.8V288h152v-40H768v-94.4h256v451.2H768zM916.8 376h-51.2v129.6h51.2V376zM307.2 740.8h104v-88h-104v88zm0-136h104V289.6h-104v315.2z" unicode=""/><glyph d="M512 960C228.8 960 0 731.2 0 448S228.8-64 512-64s512 228.8 512 512-228.8 512-512 512zm336-248c54.4-70.4 88-156.8 91.2-252.8C824 480 724.8 480 640 467.2c-11.2 25.6-22.4 49.6-33.6 72C697.6 577.6 780.8 632 848 712zM512 875.2c105.6 0 203.2-38.4 276.8-102.4-60.8-73.6-136-123.2-222.4-158.4C512 716.8 456 801.6 411.2 864c32 8 65.6 11.2 100.8 11.2zm-184-41.6c43.2-57.6 100.8-142.4 158.4-244.8-120-33.6-254.4-41.6-390.4-41.6 30.4 126.4 116.8 232 232 286.4zM84.8 448v14.4h1.6c152 0 304 9.6 440 49.6 9.6-20.8 20.8-41.6 30.4-64-179.2-52.8-289.6-169.6-366.4-281.6C124.8 241.6 84.8 340.8 84.8 448zM512 20.8c-97.6 0-187.2 33.6-259.2 88 72 108.8 172.8 216 336 260.8 38.4-97.6 68.8-204.8 86.4-316.8C624 32 569.6 20.8 512 20.8zM753.6 96c-17.6 102.4-46.4 200-80 291.2 75.2 9.6 161.6 8 260.8-11.2-20.8-116.8-88-216-180.8-280z" unicode=""/><glyph d="M713.6 153.6 512 305.6l-198.4-152-115.2 67.2v-73.6L512-59.2l313.6 204.8v73.6zM1024 731.2l-302.4 192L512 750.4 825.6 568zM0 400l310.4-182.4L512 371.2 214.4 561.6zm310.4 523.2L0 721.6l214.4-160L512 750.4zm201.6-552 204.8-153.6L1024 400 825.6 568z" unicode=""/><glyph d="M672 769.6c-52.8 32-102.4 44.8-152 78.4-30.4 20.8-73.6 70.4-108.8 112-6.4-68.8-27.2-96-51.2-115.2-51.2-40-81.6-51.2-126.4-75.2C196.8 750.4-1.6 632-1.6 377.6S212.8-64 451.2-64 896 108.8 896 369.6c1.6 262.4-192 380.8-224 400zm3.2-734.4c-4.8-4.8-51.2-36.8-104-41.6s-126.4-8-169.6 32c-6.4 6.4-4.8 16 0 20.8s9.6 6.4 14.4 6.4c6.4 0 4.8 0 8-1.6 19.2-16 49.6-28.8 112-28.8 64 0 107.2 17.6 128 32 9.6 6.4 12.8 1.6 14.4-3.2 1.6-3.2 4.8-9.6-3.2-16zM504 118.4c11.2 9.6 28.8 25.6 46.4 32s25.6 6.4 41.6 6.4 32-1.6 44.8-9.6c11.2-8 19.2-25.6 22.4-35.2 4.8-9.6 0-16-8-19.2-6.4-3.2-8-1.6-14.4 11.2s-12.8 25.6-48 25.6-44.8-11.2-62.4-25.6-22.4-19.2-28.8-11.2c-6.4 8-4.8 16 6.4 25.6zm356.8 188.8c0-30.4-9.6-86.4-33.6-120-24-35.2-38.4-48-65.6-44.8-35.2 3.2-107.2 113.6-152 115.2-57.6 1.6-182.4-120-280-120-59.2 0-76.8 9.6-97.6 22.4-30.4 20.8-44.8 52.8-43.2 96 1.6 76.8 73.6 148.8 164.8 150.4C468.8 408 550.4 292.8 608 292.8c49.6 1.6 144 97.6 190.4 97.6 49.6-1.6 62.4-52.8 62.4-83.2z" horiz-adv-x="896" unicode=""/><glyph d="m969.6 537.6-86.4-174.4-88 174.4h-60.8l16-28.8c-20.8 30.4-60.8 38.4-97.6 38.4-108.8 0-115.2-59.2-115.2-68.8H592s3.2 35.2 57.6 35.2c35.2 0 64-16 64-48v-11.2h-64c-70.4 0-113.6-17.6-124.8-51.2 1.6 8 1.6 16 1.6 24 0 67.2-44.8 120-121.6 120-72 0-92.8-38.4-92.8-38.4v128h-52.8V441.6c0 43.2-28.8 105.6-124.8 105.6-72 0-132.8-30.4-132.8-123.2 0-73.6 40-120 134.4-120 110.4 0 116.8 72 116.8 72H200s-11.2-38.4-67.2-38.4c-44.8 0-78.4 30.4-78.4 73.6h204.8V352c0-16-1.6-38.4-1.6-38.4h51.2s1.6 16 1.6 32c0 0 25.6-40 94.4-40 59.2 0 102.4 33.6 116.8 83.2v-8c0-49.6 41.6-75.2 96-75.2 75.2 0 100.8 41.6 100.8 41.6 0-16 1.6-33.6 1.6-33.6h48s-1.6 20.8-1.6 33.6v112c0 14.4-3.2 27.2-6.4 38.4l97.6-182.4-46.4-86.4h57.6L1024 537.6h-54.4zM54.4 446.4c0 41.6 38.4 65.6 76.8 65.6 43.2 0 72-27.2 72-65.6H54.4zm336-107.2c-52.8 0-80 41.6-80 86.4 0 41.6 25.6 86.4 80 86.4 49.6 0 80-36.8 80-84.8 0-52.8-36.8-88-80-88zm320 67.2c0-19.2-12.8-67.2-83.2-67.2-38.4 0-56 19.2-56 41.6 0 40 56 41.6 137.6 41.6v-16z" unicode=""/><glyph d="M305.6 484.8V848c0 25.6 0 25.6 27.2 25.6 102.4 0 203.2-1.6 304 0 41.6 0 68.8-17.6 86.4-52.8 8-16 14.4-32 19.2-48 8-28.8 14.4-57.6 24-86.4 1.6-6.4 8-14.4 14.4-16 16-1.6 30.4 0 48 0C836.8 768 841.6 864 848 960c-284.8-24-566.4-12.8-849.6-8 0-17.6-1.6-35.2 0-51.2C0 896 8 889.6 12.8 888c20.8-4.8 43.2-8 64-12.8 51.2-9.6 64-25.6 65.6-76.8 1.6-91.2 3.2-182.4 3.2-275.2 0-147.2-1.6-294.4-3.2-441.6 0-8-1.6-16-3.2-24-1.6-17.6-12.8-28.8-27.2-35.2-9.6-4.8-20.8-8-32-9.6C52.8 6.4 27.2 1.6 1.6-3.2V-64H32c70.4 1.6 140.8 6.4 212.8 6.4 196.8-1.6 395.2-4.8 592-6.4 25.6 0 25.6 0 27.2 24 8 67.2 16 136 24 203.2 3.2 25.6 6.4 49.6 9.6 76.8-11.2 0-20.8-1.6-28.8 0-19.2 3.2-28.8-4.8-36.8-24-16-40-33.6-80-52.8-120-24-48-60.8-80-116.8-81.6-91.2-3.2-182.4-4.8-275.2-1.6-59.2 1.6-81.6 30.4-81.6 89.6v286.4c0 8 0 14.4 1.6 22.4 3.2 1.6 4.8 1.6 6.4 1.6 64-1.6 128-1.6 192-3.2 33.6-1.6 60.8-14.4 70.4-51.2 4.8-16 8-32 11.2-48 11.2-43.2 11.2-43.2 56-43.2 16 0 19.2 6.4 19.2 19.2 0 107.2 1.6 214.4 3.2 321.6v27.2c-17.6 0-32-1.6-46.4 0-11.2 1.6-16-4.8-19.2-14.4l-19.2-81.6c-9.6-36.8-22.4-48-60.8-49.6-27.2-1.6-54.4-4.8-83.2-4.8H305.6z" horiz-adv-x="896" unicode=""/><glyph d="M89.6 761.6h96c4.8 0 9.6 4.8 9.6 9.6 0 0-1.6 81.6-1.6 105.6 0 19.2 3.2 35.2 11.2 49.6l3.2 6.4h-1.6L20.8 747.2v-1.6l9.6 4.8c16 8 35.2 11.2 59.2 11.2zm747.2 20.8c-8 41.6-32 60.8-54.4 68.8-24 8-72 17.6-132.8 24-48 6.4-105.6 4.8-140.8 4.8-4.8 28.8-24 54.4-46.4 64-59.2 24-150.4 17.6-174.4 11.2-19.2-4.8-40-16-51.2-32-8-11.2-12.8-25.6-12.8-44.8V772.8s-17.6-38.4-38.4-38.4h-96c-20.8 0-36.8-3.2-48-9.6-8-4.8-16-12.8-22.4-20.8-12.8-17.6-14.4-38.4-14.4-60.8 0 0 0-17.6 4.8-52.8 3.2-27.2 32-212.8 59.2-268.8 11.2-22.4 17.6-30.4 38.4-40 46.4-19.2 152-41.6 201.6-48s80-19.2 99.2 19.2l8 24c16 49.6 17.6 92.8 17.6 123.2 0 3.2 4.8 3.2 4.8 0 0-22.4-4.8-100.8 54.4-121.6 24-8 72-16 121.6-20.8 44.8-4.8 76.8-22.4 76.8-137.6 0-68.8-14.4-78.4-91.2-78.4-62.4 0-84.8-1.6-84.8 48 0 40 40 35.2 68.8 35.2 12.8 0 3.2 9.6 3.2 33.6s16 38.4 1.6 38.4c-100.8 3.2-160 0-160-126.4 0-113.6 43.2-136 187.2-136 112 0 152 3.2 198.4 147.2 9.6 28.8 32 115.2 44.8 259.2 8 94.4-9.6 371.2-22.4 441.6zM641.6 475.2c-14.4 0-27.2 0-40-1.6 3.2 28.8 14.4 62.4 56 60.8 46.4-1.6 52.8-44.8 52.8-73.6-19.2 8-43.2 14.4-68.8 14.4z" horiz-adv-x="864" unicode=""/><glyph d="M380.8 764.8H512V960H356.8C169.6 952 131.2 846.4 128 736v-97.6H0V448h128V-64h192v512h158.4l30.4 190.4H320v59.2c0 36.8 25.6 67.2 60.8 67.2z" horiz-adv-x="512" unicode=""/><glyph d="M883.2 196.8c28.8 52.8 67.2 84.8 88 120 27.2 48 80 185.6 40 296 17.6-68.8 12.8-139.2-44.8-174.4 17.6 48 30.4 156.8 11.2 252.8-12.8 62.4-51.2 118.4-76.8 136 24-17.6 43.2-81.6 41.6-110.4-51.2 84.8-131.2 163.2-252.8 196.8 94.4-62.4 129.6-115.2 152-161.6-25.6 25.6-68.8 52.8-97.6 54.4 43.2-32 116.8-129.6 108.8-275.2-11.2 24-32 60.8-46.4 73.6 16-144 1.6-174.4-8-212.8-1.6 17.6-8 30.4-11.2 38.4 0 0-1.6-44.8-30.4-108.8-22.4-48-44.8-64-54.4-62.4s-3.2 9.6-4.8 19.2c0 0-14.4-8-30.4-22.4-14.4-14.4-27.2-32-33.6-27.2 4.8 4.8 8 11.2 12.8 17.6-4.8-3.2-19.2-14.4-51.2-19.2-12.8-1.6-68.8-11.2-142.4 25.6 11.2 1.6 27.2 4.8 40-1.6-12.8 12.8-41.6 11.2-64 17.6-19.2 6.4-43.2 32-57.6 44.8 57.6-14.4 116.8-3.2 152 20.8s56 41.6 75.2 38.4c19.2-4.8 32 14.4 16 32-14.4 16-49.6 40-97.6 27.2-41.6-9.6-75.2-46.4-139.2-8-54.4 32-54.4 59.2-54.4 75.2 0 11.2 6.4 27.2 20.8 35.2 6.4-3.2 11.2-4.8 11.2-4.8s-3.2 4.8-4.8 8h1.6c6.4-1.6 19.2-6.4 25.6-9.6 9.6-4.8 11.2-9.6 11.2-9.6s1.6 1.6 0 6.4c-1.6 1.6-4.8 8-12.8 12.8 4.8-1.6 9.6-4.8 14.4-8 1.6 8 4.8 16 3.2 30.4-1.6 9.6-1.6 12.8-3.2 16s0 4.8 3.2 1.6c-1.6 1.6-1.6 4.8-3.2 8 3.2 12.8 76.8 51.2 81.6 54.4 8 4.8 16 14.4 20.8 24 3.2 6.4 6.4 16 4.8 28.8 0 9.6-6.4 14.4-84.8 14.4-20.8 0-35.2 12.8-44.8 24-1.6 3.2-3.2 4.8-4.8 8s-3.2 6.4-4.8 8c9.6 33.6 28.8 64 57.6 88 1.6 1.6-6.4-1.6-4.8 0s14.4 8 16 9.6c3.2 1.6-12.8 6.4-27.2 3.2s-17.6-4.8-24-8c3.2 3.2 12.8 8 9.6 8-16-3.2-33.6-14.4-49.6-24v4.8c-8-3.2-25.6-17.6-28.8-27.2v6.4c-4.8-4.8-9.6-9.6-14.4-16-46.4 11.2-84.8 8-118.4-1.6-8 4.8-20.8 14.4-40 44.8 0-3.2 0-9.6-1.6-6.4-8 12.8-14.4 36.8-14.4 54.4 0 0-12.8-8-20.8-33.6-1.6-4.8-3.2-8-3.2-9.6v8c-1.6-4.8-6.4-9.6-8-16-1.6-3.2-3.2-6.4-3.2-11.2v4.8c-4.8-9.6-8-20.8-11.2-33.6-4.8-19.2-8-46.4-4.8-81.6v-8c-12.8-17.6-20.8-32-24-38.4C28.8 635.2 12.8 588.8 0 518.4c0 0 8 27.2 25.6 56-12.8-38.4-22.4-96-16-185.6 0 3.2 3.2 25.6 9.6 54.4C22.4 384 36.8 312 81.6 233.6 116.8 174.4 208 35.2 438.4-16c-25.6 8-41.6 22.4-41.6 22.4s86.4-27.2 148.8-25.6c-19.2 3.2-24 12.8-24 12.8S744-19.2 822.4 86.4c-27.2-30.4-92.8-40-118.4-40 38.4 35.2 123.2 35.2 216 124.8 51.2 49.6 56 88 60.8 123.2-8-44.8-52.8-73.6-97.6-97.6z" unicode=""/><glyph d="M368 960C124.8 960 0 819.2 0 558.4V9.6L238.4 248v278.4c0 108.8 28.8 177.6 124.8 193.6 33.6 6.4 104 4.8 148.8 4.8V555.2c1.6-6.4 8-11.2 14.4-11.2 4.8 0 8 1.6 11.2 6.4L952 960H368zm417.6-312V369.6c0-108.8-28.8-177.6-124.8-193.6-33.6-6.4-104-4.8-148.8-4.8v171.2c-1.6 6.4-8 11.2-14.4 11.2-4.8 0-8-1.6-11.2-6.4L72-64h584c243.2 0 368 140.8 368 401.6v548.8L785.6 648z" unicode=""/><glyph d="M225.6 672C100.8 672 0 571.2 0 448s100.8-224 225.6-224 225.6 100.8 225.6 224c-1.6 123.2-102.4 224-225.6 224zm574.4 0c-123.2 0-224-100.8-224-224s100.8-224 224-224 224 100.8 224 224-100.8 224-224 224z" unicode=""/><glyph d="M512-64h448L480 960 0-64h449.6v166.4l-107.2 80 19.2 75.2 88-64v188.8H512v-96l84.8 54.4 17.6-64-102.4-64v-72l164.8 81.6 14.4-78.4L512 56z" horiz-adv-x="960" unicode=""/><glyph d="M644.8 960H99.2C24 960 1.6 904 1.6 867.2V0c0-40 22.4-54.4 33.6-60.8 12.8-4.8 46.4-9.6 65.6 14.4 0 0 257.6 299.2 262.4 304 6.4 6.4 6.4 6.4 12.8 6.4h166.4c70.4 0 81.6 49.6 88 80 6.4 24 75.2 374.4 97.6 486.4 19.2 83.2-3.2 129.6-83.2 129.6zM632 344c6.4 24 75.2 374.4 97.6 486.4zm-19.2 468.8-22.4-120c-3.2-12.8-19.2-27.2-33.6-27.2H344c-24 0-41.6-16-41.6-40V600c0-24 17.6-41.6 41.6-41.6h180.8c17.6 0 33.6-19.2 30.4-36.8-3.2-17.6-20.8-107.2-22.4-116.8s-12.8-27.2-33.6-27.2H352c-27.2 0-35.2-3.2-52.8-25.6S120 136 120 136c-1.6-1.6-3.2-1.6-3.2 0v678.4c0 16 12.8 33.6 33.6 33.6h438.4c12.8-1.6 27.2-16 24-35.2z" horiz-adv-x="736" unicode=""/><glyph d="M203.2 712c-51.2 0-94.4-17.6-131.2-51.2-38.4-35.2-57.6-80-57.6-134.4 0-35.2 9.6-68.8 32-100.8 19.2-28.8 38.4-48 64-56V368c-25.6-11.2-36.8-36.8-36.8-78.4 0-32 11.2-56 36.8-72V216C40 193.6 8 150.4 8 86.4 8 32 32-8 78.4-33.6 113.6-54.4 160-64 217.6-64c137.6 0 208 57.6 208 174.4 0 72-52.8 116.8-160 132.8-24 3.2-43.2 12.8-56 27.2-9.6 9.6-14.4 19.2-14.4 28.8 0 27.2 14.4 43.2 44.8 48 44.8 6.4 83.2 27.2 112 64 28.8 35.2 43.2 76.8 43.2 124.8 0 14.4-4.8 30.4-11.2 48 19.2 4.8 33.6 8 43.2 12.8V712c-44.8-17.6-86.4-27.2-123.2-27.2-32 17.6-64 27.2-100.8 27.2zM216 152c62.4 0 94.4-19.2 94.4-57.6 0-40-28.8-60.8-86.4-60.8-65.6 0-99.2 19.2-99.2 57.6 0 41.6 30.4 60.8 91.2 60.8zm-8 296c-46.4 0-70.4 25.6-70.4 76.8 0 56 24 83.2 70.4 83.2 22.4 0 40-8 52.8-25.6 11.2-16 16-33.6 16-56 0-52.8-24-78.4-68.8-78.4zm340.8 512c-22.4 0-40-8-56-24s-22.4-36.8-22.4-59.2c0-22.4 8-41.6 22.4-57.6 16-16 33.6-24 56-24 20.8 0 38.4 8 54.4 24s22.4 35.2 22.4 57.6-8 43.2-22.4 59.2c-16 16-33.6 24-54.4 24zm62.4-256H484.8c1.6-14.4 0-36.8 0-70.4V284.8c0-35.2 1.6-64 0-76.8h126.4c-1.6 16-4.8 44.8-4.8 83.2v344c0 32 3.2 54.4 4.8 68.8zm278.4-388.8c-33.6 0-49.6 25.6-49.6 75.2v206.4h96V704h-96v48c0 17.6 3.2 33.6 4.8 44.8H715.2c1.6-9.6 1.6-25.6 1.6-46.4V704h-56V596.8c16 1.6 28.8 3.2 38.4 3.2l17.6-1.6V396.8c0-62.4 8-108.8 24-137.6 20.8-38.4 57.6-57.6 112-57.6 38.4 0 73.6 8 99.2 22.4v112c-19.2-14.4-38.4-20.8-62.4-20.8z" horiz-adv-x="960" unicode=""/><glyph d="M512 947.2c-283.2 0-512-228.8-512-512C0 209.6 147.2 17.6 350.4-51.2c25.6-4.8 35.2 11.2 35.2 24v96c-142.4-30.4-172.8 60.8-172.8 60.8-24 59.2-57.6 75.2-57.6 75.2-46.4 32 3.2 30.4 3.2 30.4 51.2-3.2 78.4-52.8 78.4-52.8 46.4-78.4 120-56 148.8-43.2 4.8 33.6 17.6 56 32 68.8C304 220.8 184 265.6 184 460.8c0 56 19.2 100.8 52.8 137.6-4.8 12.8-22.4 65.6 4.8 136 0 0 43.2 14.4 140.8-52.8 41.6 11.2 84.8 17.6 128 17.6s88-6.4 128-17.6c97.6 65.6 140.8 52.8 140.8 52.8 27.2-70.4 9.6-123.2 4.8-136 33.6-35.2 52.8-81.6 52.8-137.6 0-196.8-120-240-233.6-252.8 17.6-16 35.2-46.4 35.2-94.4V-27.2c0-14.4 9.6-28.8 35.2-24C876.8 17.6 1024 209.6 1024 435.2c0 283.2-228.8 512-512 512zM193.6 212.8c-1.6-3.2-4.8-3.2-8-1.6s-6.4 4.8-4.8 8c1.6 3.2 4.8 3.2 9.6 1.6 3.2-3.2 4.8-6.4 3.2-8zm20.8-24c-3.2-1.6-8-1.6-11.2 1.6s-3.2 8-1.6 11.2c3.2 1.6 6.4 1.6 11.2-1.6 3.2-3.2 4.8-8 1.6-11.2zm20.8-28.8c-3.2-1.6-8 0-11.2 4.8s-3.2 9.6 0 12.8c3.2 1.6 8 0 11.2-4.8s3.2-11.2 0-12.8zm27.2-28.8c-3.2-3.2-8-1.6-12.8 1.6-4.8 4.8-6.4 9.6-3.2 12.8s9.6 1.6 12.8-1.6c4.8-3.2 6.4-9.6 3.2-12.8zm38.4-16c-1.6-4.8-6.4-6.4-12.8-4.8s-9.6 6.4-8 11.2c1.6 4.8 6.4 6.4 12.8 4.8 4.8-3.2 9.6-8 8-11.2zm41.6-3.2c0-4.8-4.8-8-11.2-8s-11.2 3.2-11.2 8 4.8 8 11.2 8c6.4-1.6 11.2-4.8 11.2-8zm38.4 6.4c0-4.8-3.2-8-9.6-9.6s-11.2 1.6-12.8 4.8c0 4.8 3.2 8 9.6 9.6 8 1.6 12.8-1.6 12.8-4.8z" unicode=""/><glyph d="M459.2 300.8 288 4.8h564.8l171.2 296H459.2zM976 384 683.2 891.2H340.8L633.6 384H976zM292.8 808 0 300.8l171.2-296L464 512 292.8 808z" unicode=""/><glyph d="M547.2 368c-104 73.6-144 108.8-76.8 168s120 107.2 120 216-91.2 164.8-91.2 164.8 65.6-9.6 100.8 9.6 49.6 32 49.6 32H316.8C251.2 960 65.6 884.8 65.6 707.2S257.6 492.8 328 496c-38.4-48-6.4-91.2 16-113.6 20.8-22.4 16-28.8-8-28.8C308.8 352 0 348.8 0 128S411.2-108.8 545.6 9.6c136 120 105.6 283.2 1.6 358.4zM348.8 539.2c-164.8 0-240 387.2-44.8 387.2 152 4.8 265.6-387.2 44.8-387.2zM329.6-3.2C192-3.2 118.4 65.6 118.4 168s100.8 153.6 288 153.6c51.2-40 142.4-86.4 142.4-182.4S467.2-3.2 329.6-3.2zM835.2 832v124.8h-65.6V832h-128v-65.6h128V640h65.6v126.4H960V832H835.2z" horiz-adv-x="960" unicode=""/><glyph d="M534.4-64H488c-20.8 1.6-40 3.2-60.8 6.4-52.8 8-104 25.6-150.4 49.6-78.4 41.6-144 99.2-192 174.4-51.2 78.4-78.4 163.2-83.2 256V472c0 9.6 1.6 17.6 1.6 27.2 3.2 38.4 11.2 76.8 24 113.6C60.8 712 120 795.2 204.8 857.6 288 920 382.4 953.6 488 960h48c20.8-1.6 40-3.2 60.8-6.4 52.8-9.6 104-25.6 150.4-51.2 80-41.6 144-99.2 193.6-174.4 51.2-76.8 78.4-161.6 81.6-254.4V424c-1.6-20.8-3.2-40-6.4-60.8-8-52.8-25.6-104-49.6-150.4-41.6-78.4-99.2-144-174.4-192-78.4-51.2-163.2-78.4-256-83.2 0-1.6 0-1.6-1.6-1.6zM512 854.4h-16c-30.4-1.6-59.2-4.8-88-12.8-68.8-19.2-129.6-54.4-180.8-104-51.2-51.2-86.4-110.4-105.6-180.8-11.2-38.4-14.4-78.4-14.4-118.4 0-11.2 1.6-22.4 3.2-33.6 6.4-24 20.8-38.4 46.4-43.2 16-3.2 32 1.6 48 8 24 9.6 43.2 25.6 60.8 43.2 22.4 24 40 49.6 49.6 80 14.4 40 19.2 80 19.2 121.6 0 20.8-1.6 41.6-3.2 64-1.6 19.2-4.8 40-6.4 59.2-1.6 8 1.6 11.2 9.6 8 6.4-1.6 12.8-3.2 19.2-6.4 43.2-12.8 83.2-30.4 121.6-57.6 51.2-35.2 94.4-76.8 136-123.2 38.4-41.6 72-86.4 104-132.8 16-22.4 33.6-41.6 54.4-59.2 20.8-16 43.2-28.8 68.8-33.6 24-4.8 44.8 4.8 57.6 25.6 8 12.8 12.8 27.2 14.4 41.6 4.8 28.8 4.8 57.6 1.6 86.4-3.2 32-9.6 64-20.8 94.4-25.6 72-67.2 132.8-126.4 180.8-72 62.4-156.8 92.8-252.8 92.8z" unicode=""/><glyph d="M753.6 776 600 923.2c-25.6 22.4-35.2 36.8-62.4 36.8H30.4c-25.6 0-25.6-25.6-25.6-25.6V147.2c0-25.6 25.6-52.8 25.6-52.8L163.2-36.8c25.6-25.6 25.6-25.6 52.8-25.6h513.6c3.2 0 8 0 11.2 1.6C753.6-56 760-44.8 760-32v785.6c3.2 8 0 16-6.4 22.4zm-696-577.6v683.2c0 25.6 0 25.6 27.2 25.6h153.6c27.2 0 27.2 0 27.2-25.6V672c0-25.6 6.4-25.6 33.6-25.6s33.6 0 33.6 25.6v209.6c0 25.6 0 25.6 27.2 25.6h153.6c27.2 0 27.2 0 27.2-25.6V198.4c0-25.6 0-25.6-27.2-25.6H360c-27.2 0-27.2 0-27.2 25.6V408c0 25.6-6.4 25.6-33.6 25.6s-33.6 0-33.6-25.6V198.4c0-25.6 0-25.6-27.2-25.6H84.8c-27.2 0-27.2 0-27.2 25.6zM390.4-11.2h-160c-12.8 0-12.8 0-27.2 12.8L96 107.2C83.2 120 83.2 120 96 120h160c12.8 0 12.8 0 27.2-12.8L388.8 1.6c14.4-12.8 14.4-12.8 1.6-12.8zm265.6 0H496c-12.8 0-12.8 0-27.2 12.8L361.6 107.2c-12.8 12.8-12.8 12.8 0 12.8h160c12.8 0 12.8 0 27.2-12.8l56-54.4 60.8-62.4c0-1.6-3.2-1.6-9.6-1.6zM708.8 40 590.4 160v686.4l118.4-112V40z" horiz-adv-x="768" unicode=""/><glyph d="M0 960V-64h1024V960H0zm556.8-590.4V118.4h-91.2v251.2l-224 443.2h105.6L512 478.4l169.6 334.4h99.2l-224-443.2z" unicode=""/><glyph d="M12.8 960 96 40 464-64 832 40l83.2 920H12.8zM736 659.2H304l9.6-115.2h412.8l-32-348.8-230.4-64h-3.2l-232 64-14.4 177.6h112l8-89.6 124.8-33.6 126.4 33.6L600 428.8H211.2l-30.4 342.4h566.4l-11.2-112z" horiz-adv-x="928" unicode=""/><glyph d="M772.8 369.6h248c1.6 17.6 3.2 35.2 3.2 52.8 0 84.8-22.4 163.2-62.4 232 41.6 108.8 40 201.6-16 256-52.8 51.2-192 43.2-350.4-27.2-11.2 1.6-24 1.6-35.2 1.6-216 0-398.4-148.8-448-350.4 68.8 86.4 139.2 150.4 235.2 196.8L280 664C27.2 411.2-52.8 81.6 33.6-3.2 99.2-68.8 216-57.6 352 9.6 414.4-22.4 486.4-40 561.6-40c203.2 0 376 131.2 438.4 313.6H748.8c-35.2-64-102.4-107.2-179.2-107.2s-144 43.2-179.2 107.2c-16 28.8-24 62.4-24 96h406.4zM366.4 491.2c6.4 102.4 91.2 184 195.2 184s188.8-81.6 195.2-184H366.4zM944 857.6c35.2-35.2 35.2-100.8 4.8-182.4-52.8 78.4-128 140.8-216 176 94.4 41.6 172.8 46.4 211.2 6.4zM97.6 12.8c-44.8 44.8-32 139.2 27.2 252.8C161.6 164.8 232 80 321.6 24c-99.2-44.8-182.4-52.8-224-11.2z" unicode=""/><glyph d="M131.2 960h761.6c72 0 131.2-52.8 131.2-131.2V67.2C1024-11.2 964.8-64 892.8-64H131.2C59.2-64 0-11.2 0 67.2v761.6C0 907.2 59.2 960 131.2 960zm614.4-113.6c-25.6 0-46.4-20.8-46.4-46.4V689.6c0-25.6 20.8-46.4 46.4-46.4h115.2c25.6 0 46.4 20.8 46.4 46.4V800c0 25.6-20.8 46.4-46.4 46.4H745.6zm163.2-320h-89.6c8-27.2 12.8-57.6 12.8-88 0-169.6-142.4-308.8-318.4-308.8S195.2 267.2 195.2 438.4c0 30.4 4.8 60.8 12.8 88h-94.4v-432c0-22.4 17.6-40 40-40h713.6c22.4 0 40 17.6 40 40l1.6 432zM513.6 649.6c-113.6 0-206.4-89.6-206.4-200S400 251.2 513.6 251.2c113.6 0 206.4 89.6 206.4 200s-92.8 198.4-206.4 198.4z" unicode=""/><glyph d="M265.6 683.2c33.6 33.6 86.4 33.6 118.4 0l8-8L492.8 776l-6.4 8c-57.6 57.6-139.2 78.4-212.8 60.8-11.2 65.6-67.2 115.2-136 115.2-75.2 0-136-60.8-136-137.6 0-65.6 44.8-120 107.2-134.4-22.4-76.8-4.8-164.8 57.6-225.6l227.2-227.2L494.4 336 265.6 564.8c-32 32-32 84.8 0 118.4zm756.8 139.2c0 75.2-60.8 137.6-137.6 137.6-68.8 0-126.4-51.2-136-118.4-75.2 22.4-163.2 3.2-224-57.6L297.6 556.8 398.4 456l227.2 227.2c33.6 33.6 86.4 33.6 118.4 0s32-86.4 0-118.4l-8-8L836.8 456l8 8c60.8 60.8 80 147.2 57.6 224 68.8 8 120 65.6 120 134.4zM905.6 209.6c17.6 75.2-1.6 156.8-60.8 214.4L619.2 651.2 518.4 550.4l227.2-228.8c33.6-33.6 33.6-86.4 0-118.4-32-33.6-86.4-33.6-118.4 0l-8 8-100.8-100.8 8-8c60.8-62.4 150.4-80 227.2-56C766.4-16 820.8-64 888-64c75.2 0 137.6 60.8 137.6 137.6-1.6 68.8-52.8 126.4-120 136zM612.8 432 385.6 203.2c-32-32-86.4-33.6-118.4 0-33.6 33.6-33.6 86.4 0 118.4l8 8L172.8 432l-8-8c-59.2-59.2-78.4-142.4-59.2-217.6C44.8 192 0 137.6 0 73.6 0-3.2 60.8-64 137.6-64c65.6 0 120 44.8 132.8 105.6 75.2-19.2 156.8 1.6 216 59.2L713.6 328 612.8 432z" unicode=""/><glyph d="M899.2 480c0 6.4 1.6 11.2 1.6 17.6 0 166.4-136 299.2-304 299.2-121.6 0-225.6-70.4-275.2-171.2-24 17.6-52.8 28.8-86.4 28.8-78.4 0-140.8-62.4-140.8-137.6 0-14.4 1.6-28.8 6.4-41.6C40 441.6 0 376 0 302.4 0 192 91.2 100.8 203.2 99.2H824c112 0 201.6 89.6 201.6 198.4-1.6 81.6-52.8 152-126.4 182.4zm-624-228.8c-20.8 19.2-33.6 41.6-38.4 67.2-1.6 9.6-3.2 17.6-3.2 27.2 0 38.4 14.4 68.8 41.6 92.8s62.4 36.8 104 36.8c43.2 0 84.8-16 121.6-49.6 9.6-8 17.6-17.6 25.6-27.2l46.4-54.4c8-11.2 16-20.8 25.6-28.8 24-20.8 49.6-32 72-32 19.2 0 33.6 6.4 46.4 17.6 11.2 11.2 17.6 22.4 19.2 36.8v6.4c0 6.4-1.6 12.8-3.2 17.6-3.2 9.6-8 17.6-16 25.6-12.8 11.2-28.8 17.6-46.4 17.6-24 0-46.4-8-72-32l-41.6 48-4.8 6.4c36.8 35.2 72 48 120 48 43.2 0 78.4-12.8 104-36.8 27.2-24 40-56 40-94.4 0-9.6-1.6-19.2-3.2-27.2-4.8-25.6-17.6-48-38.4-67.2s-44.8-30.4-73.6-35.2c-9.6-1.6-19.2-1.6-30.4-1.6-44.8 0-86.4 16-121.6 48-9.6 8-19.2 17.6-27.2 28.8l-41.6 56c-8 11.2-16 20.8-25.6 28.8-24 20.8-49.6 32-72 32-6.4 0-12.8-1.6-19.2-3.2-9.6-3.2-19.2-8-27.2-14.4-9.6-9.6-16-19.2-17.6-30.4 0-3.2-1.6-8-1.6-12.8 0-16 6.4-30.4 17.6-43.2l1.6-1.6c12.8-11.2 28.8-17.6 48-17.6 24 0 46.4 8 72 32l41.6-48 4.8-4.8c-36.8-35.2-73.6-49.6-120-49.6-44.8 1.6-80 14.4-107.2 38.4z" unicode=""/><glyph d="M851.2 960H172.8C76.8 960 0 883.2 0 787.2v-680C0 12.8 76.8-64 172.8-64h680c94.4 0 171.2 76.8 171.2 172.8v678.4c0 96-76.8 172.8-172.8 172.8zm-8-808c-113.6-36.8-334.4-110.4-376-120S384 4.8 358.4 73.6c0 0-203.2 603.2-222.4 656-17.6 52.8-35.2 84.8 6.4 102.4 97.6 38.4 198.4 88 217.6 32 16-51.2 195.2-608 195.2-608s209.6 73.6 267.2 89.6 76.8 27.2 92.8-51.2c12.8-80 41.6-104-72-142.4z" unicode=""/><glyph d="M827.2 502.4c-80 24-108.8 36.8-108.8 64 0 44.8 64 54.4 70.4 56 40 6.4 107.2-4.8 124.8-59.2l108.8 33.6c-33.6 108.8-152 150.4-251.2 136-100.8-14.4-168-81.6-168-166.4 0-113.6 110.4-147.2 190.4-169.6 84.8-25.6 113.6-40 113.6-70.4 0-25.6-20.8-38.4-62.4-49.6-81.6-20.8-192 0-220.8 49.6-17.6 28.8-33.6 70.4-49.6 112-48 128-115.2 302.4-307.2 302.4C168 739.2 0 699.2 0 425.6 0 312 81.6 156.8 264 156.8c153.6 0 179.2 62.4 185.6 73.6L400 328c-1.6-1.6-48-59.2-136-59.2-144 0-150.4 155.2-150.4 156.8 0 142.4 46.4 201.6 153.6 201.6 105.6 0 147.2-91.2 200-228.8 17.6-48 35.2-92.8 57.6-129.6 48-78.4 156.8-112 260.8-112 32 0 62.4 3.2 89.6 11.2 91.2 24 147.2 80 147.2 156.8 0 118.4-112 152-195.2 177.6z" unicode=""/><glyph d="M1024 473.6c0 41.6-46.4 60.8-60.8 60.8H649.6s30.4 132.8 32 179.2c1.6 46.4-44.8 145.6-54.4 153.6s-59.2 17.6-81.6-8c1.6-35.2 6.4-144 6.4-144S478.4 584 436.8 518.4c-43.2-65.6-96-97.6-96-97.6V89.6h28.8c9.6 0 46.4-33.6 73.6-33.6h390.4c33.6 0 89.6 3.2 89.6 57.6 0 20.8-12.8 41.6-22.4 44.8v6.4s54.4 17.6 54.4 65.6c0 27.2-22.4 40-22.4 40l3.2 12.8s51.2 19.2 51.2 67.2c0 30.4-20.8 35.2-20.8 35.2l3.2 14.4c3.2 3.2 54.4 24 54.4 73.6zm-785.6-8H51.2C22.4 465.6 0 443.2 0 414.4L33.6 73.6c0-28.8 22.4-51.2 51.2-51.2h153.6c28.8 0 51.2 22.4 51.2 51.2v340.8c0 27.2-22.4 51.2-51.2 51.2z" unicode=""/><glyph d="M17.6-19.2h209.6v628.8H17.6V-19.2zm745.6 649.6c-91.2 0-145.6-33.6-203.2-107.2v86.4H352V-19.2h209.6v340.8c0 72 36.8 142.4 120 142.4s132.8-70.4 132.8-140.8V-19.2H1024v356.8c0 248-168 292.8-260.8 292.8zm-640 284.8C54.4 915.2 0 865.6 0 804.8s54.4-110.4 123.2-110.4c68.8 0 123.2 49.6 123.2 110.4S192 915.2 123.2 915.2z" unicode=""/><glyph d="M862.4 124.8c-27.2 11.2-49.6 28.8-48 62.4s-24 56-24 56 22.4 73.6 1.6 134.4c-20.8 60.8-89.6 156.8-140.8 230.4-52.8 73.6-8 158.4-56 265.6-48 108.8-171.2 102.4-238.4 56s-46.4-160-43.2-214.4c3.2-54.4 1.6-92.8-4.8-107.2s-49.6-65.6-78.4-108.8C201.6 456 180.8 366.4 160 329.6s-6.4-70.4-6.4-70.4S139.2 256 128 232c-11.2-24-33.6-35.2-73.6-43.2s-40-33.6-30.4-62.4c9.6-28.8 0-44.8-11.2-81.6S57.6-3.2 112-9.6c54.4-6.4 115.2-41.6 164.8-48C328-64 344-22.4 344-22.4S401.6-9.6 462.4-8c60.8 1.6 118.4-12.8 118.4-12.8s11.2-25.6 32-36.8c20.8-11.2 65.6-12.8 94.4 17.6s105.6 68.8 147.2 92.8c41.6 25.6 35.2 60.8 8 72zM489.6 827.2c27.2 0 49.6-27.2 49.6-60.8 0-24-11.2-44.8-27.2-54.4-4.8 1.6-8 3.2-12.8 4.8 9.6 4.8 16 17.6 16 32 0 19.2-11.2 33.6-25.6 33.6s-25.6-16-25.6-33.6c0-6.4 1.6-14.4 4.8-19.2-8 3.2-16 6.4-22.4 8-3.2 8-4.8 17.6-4.8 27.2-1.6 35.2 20.8 62.4 48 62.4zm-3.2-128c14.4-4.8 28.8-12.8 27.2-22.4s-8-9.6-27.2-20.8c-17.6-11.2-59.2-35.2-72-36.8s-20.8 4.8-33.6 14.4c-14.4 9.6-40 30.4-33.6 41.6 0 0 20.8 16 28.8 24s32 27.2 44.8 25.6c14.4-4.8 51.2-20.8 65.6-25.6zM363.2 817.6c20.8 0 38.4-25.6 38.4-57.6 0-6.4 0-11.2-1.6-16-4.8-1.6-11.2-4.8-16-9.6-3.2-1.6-4.8-4.8-6.4-6.4 3.2 6.4 4.8 16 3.2 25.6-3.2 17.6-14.4 30.4-25.6 27.2-11.2-1.6-17.6-17.6-16-35.2 3.2-17.6 14.4-30.4 25.6-28.8h1.6c-4.8-4.8-11.2-9.6-16-14.4-16 8-27.2 28.8-27.2 54.4 0 35.2 17.6 60.8 40 60.8zM320 12.8c-4.8-22.4-32-40-32-40-24-8-91.2 20.8-121.6 33.6S57.6 22.4 48 33.6c-9.6 11.2 4.8 36.8 9.6 60.8 3.2 24-8 40-3.2 56 3.2 16 52.8 16 72 27.2s22.4 44.8 38.4 52.8c14.4 9.6 43.2-22.4 54.4-40s54.4-94.4 72-113.6c17.6-16 35.2-40 28.8-64zm281.6 222.4c-4.8-22.4-4.8-104-4.8-104s-49.6-68.8-126.4-80C393.6 40 355.2 48 355.2 48L312 97.6s33.6 4.8 28.8 38.4-102.4 80-120 121.6c-17.6 41.6-3.2 112 19.2 147.2s36.8 112 59.2 137.6c22.4 25.6 40 80 32 104 0 0 48-57.6 81.6-48s108.8 65.6 120 56C544 644.8 640 435.2 649.6 368s-6.4-118.4-6.4-118.4-36.8 8-41.6-14.4zM846.4 84.8C832 70.4 748.8 38.4 723.2 11.2c-24-25.6-56-46.4-76.8-40-19.2 6.4-36.8 33.6-28.8 73.6S633.6 128 632 152c-1.6 24-6.4 57.6 0 62.4s16 3.2 16 3.2-4.8-46.4 24-59.2c28.8-12.8 68.8 4.8 81.6 17.6s20.8 30.4 20.8 30.4 12.8-6.4 11.2-25.6c-1.6-19.2 8-48 27.2-57.6 20.8-11.2 48-24 33.6-38.4z" horiz-adv-x="896" unicode=""/><glyph d="M524.8 33.6C726.4 64 1024 425.6 1024 614.4 1024 760 915.2 864 768 864c-124.8 0-227.2-94.4-256-168-28.8 73.6-131.2 168-256 168C108.8 864 0 760 0 614.4 0 425.6 297.6 64 499.2 33.6c0 0 8-1.6 12.8-1.6 4.8 1.6 12.8 1.6 12.8 1.6z" unicode=""/><glyph d="M752 134.4v492.8L432 825.6 112 627.2V134.4L-3.2 204.8v486.4L432 960l435.2-268.8V204.8L752 134.4zm-384-56 64-40 64 40v571.2l140.8-86.4V62.4L432-64 227.2 62.4v500.8L368 649.6V78.4zm384 548.8L432 825.6 112 627.2l-115.2 64L432 960l435.2-268.8-115.2-64zm-115.2-64-140.8-80v166.4l140.8-86.4zm-268.8-80-140.8 78.4L368 648V483.2z" horiz-adv-x="864" unicode=""/><glyph d="M848 420.8c88 0 160 72 160 158.4s-72 158.4-160 158.4-160-72-160-158.4c1.6-88 72-158.4 160-158.4zm14.4-36.8h-28.8C744 376 672 296 672 203.2v-62.4c0-8 6.4-16 16-16h320c9.6 0 16 8 16 16v62.4c0 91.2-70.4 172.8-161.6 180.8zm-384 6.4c80 0 144 64 144 144 0 78.4-64 142.4-144 142.4s-144-64-144-142.4c0-80 64-144 144-144zm12.8-33.6h-25.6C384 350.4 320 276.8 320 195.2v-56c0-8 6.4-14.4 14.4-14.4h286.4c8 0 14.4 6.4 14.4 14.4v56c1.6 83.2-62.4 155.2-144 161.6zm-348.8 8c72 0 129.6 57.6 129.6 128 0 72-57.6 129.6-129.6 129.6S12.8 564.8 12.8 492.8c0-70.4 57.6-128 129.6-128zm11.2-30.4h-24C57.6 328 0 262.4 0 188.8v-49.6c0-6.4 6.4-12.8 12.8-12.8H272c8 0 12.8 6.4 12.8 12.8v49.6c0 73.6-57.6 139.2-131.2 145.6z" unicode=""/><glyph d="M268.8 238.4c-80 8-150.4 27.2-212.8 75.2-8 6.4-16 11.2-22.4 17.6-27.2 25.6-28.8 56-8 86.4 17.6 25.6 48 33.6 80 17.6 6.4-3.2 11.2-6.4 17.6-9.6 113.6-78.4 270.4-80 385.6-3.2 11.2 8 24 16 36.8 19.2 27.2 6.4 52.8-3.2 67.2-27.2 16-27.2 16-54.4-4.8-75.2-32-32-70.4-56-112-72-40-16-83.2-24-128-28.8 6.4-6.4 9.6-11.2 14.4-14.4L560 46.4c20.8-20.8 24-44.8 12.8-68.8C560-48 534.4-65.6 507.2-64c-16 1.6-30.4 9.6-41.6 20.8-44.8 44.8-89.6 88-132.8 134.4-12.8 12.8-19.2 11.2-30.4 0-44.8-46.4-89.6-91.2-136-136-20.8-20.8-44.8-24-68.8-12.8C72-44.8 56-19.2 57.6 6.4c1.6 17.6 9.6 30.4 20.8 43.2L252.8 224c8 4.8 11.2 8 16 14.4zm49.6 203.2C176 441.6 60.8 560 60.8 700.8 62.4 844.8 177.6 960 321.6 960s257.6-118.4 257.6-262.4c-1.6-142.4-118.4-256-260.8-256zm128 259.2c0 70.4-56 126.4-126.4 126.4s-128-57.6-126.4-128c0-70.4 57.6-126.4 128-124.8 68.8 0 124.8 56 124.8 126.4z" horiz-adv-x="640" unicode=""/><glyph d="M465.6 846.4v-872l155.2 72v875.2zm537.6-256L1024 368l-299.2 65.6zM648 635.2V536c65.6-11.2 123.2-32 169.6-60.8L928 542.4c-75.2 46.4-172.8 80-280 92.8zM155.2 305.6c0 110.4 120 203.2 283.2 230.4v99.2C188.8 604.8 0 468.8 0 305.6 0 136 201.6-3.2 465.6-27.2v97.6C288 92.8 155.2 190.4 155.2 305.6z" unicode=""/><glyph d="M494.4 960c-280 0-480-203.2-480-507.2C12.8 182.4 208-64 494.4-64c288 0 484.8 246.4 484.8 516.8 0 307.2-208 507.2-484.8 507.2zM672 460.8c0-169.6-9.6-411.2-177.6-411.2C328 51.2 320 292.8 320 460.8c0 198.4 19.2 388.8 172.8 388.8 156.8 0 179.2-192 179.2-388.8z" horiz-adv-x="992" unicode=""/><glyph d="M932.8 720c-9.6 11.2-20.8 22.4-33.6 32 1.6-30.4-1.6-64-8-99.2-20.8-94.4-68.8-176-140.8-233.6s-160-88-257.6-88H350.4L304 116.8c-9.6-41.6-46.4-73.6-89.6-73.6h-64L139.2-9.6c-3.2-14.4 0-27.2 9.6-38.4 8-11.2 22.4-17.6 35.2-17.6h156.8c22.4 0 40 14.4 44.8 36.8L440 224h179.2c86.4 0 166.4 27.2 228.8 78.4s105.6 123.2 124.8 208c17.6 84.8 4.8 155.2-40 209.6zM259.2 126.4l54.4 251.2h179.2c86.4 0 166.4 27.2 228.8 78.4s105.6 123.2 124.8 208c17.6 84.8 4.8 156.8-38.4 211.2C764.8 928 692.8 960 617.6 960H227.2c-22.4 0-40-14.4-44.8-36.8l-169.6-776c-3.2-14.4 0-27.2 9.6-38.4 8-11.2 22.4-17.6 35.2-17.6h156.8c22.4 0 41.6 14.4 44.8 35.2zm144 656h123.2c28.8 0 54.4-12.8 70.4-33.6 17.6-22.4 22.4-52.8 14.4-84.8v-1.6c-16-65.6-80-118.4-142.4-118.4H350.4l52.8 238.4z" horiz-adv-x="992" unicode=""/><glyph d="m283.2 371.2-1.6-9.6C284.8 384 304 400 326.4 400h92.8C600 400 742.4 473.6 784 686.4c1.6 6.4 1.6 12.8 3.2 17.6 12.8 78.4 0 132.8-43.2 180.8-48 52.8-132.8 75.2-241.6 75.2H188.8c-22.4 0-41.6-16-44.8-38.4L12.8 92.8c-3.2-16 9.6-30.4 27.2-30.4h193.6l49.6 308.8zm560 284.8c-3.2 3.2-4.8 6.4-8 8-40-208-180.8-318.4-403.2-318.4h-92.8c-1.6 0-3.2-1.6-4.8-3.2L284.8 24c-1.6-11.2-8-14.4-17.6-14.4h-6.4c-9.6 0-20.8-8-22.4-19.2l-4.8-25.6c-1.6-14.4 9.6-27.2 24-27.2h163.2c19.2 0 35.2 14.4 38.4 33.6l1.6 8 30.4 195.2 1.6 11.2c3.2 19.2 19.2 33.6 38.4 33.6h24c158.4 0 281.6 64 318.4 249.6 17.6 75.2 9.6 140.8-30.4 187.2z" horiz-adv-x="896" unicode=""/><glyph d="M768 897.6c-72 40-168 62.4-256 62.4-51.2 0-100.8-8-148.8-22.4l404.8-416v376zm-480-3.2C100.8 819.2 0 617.6 0 448c0-30.4 3.2-60.8 8-91.2l451.2 348.8L288 894.4zm544-33.6V259.2h150.4C1017.6 328 1024 364.8 1024 448c0 176-56 320-192 412.8zM256 6.4v438.4L43.2 273.6C76.8 152 152 73.6 256 6.4zm192 184H320V-28.8c70.4-36.8 91.2-36.8 192-36.8 182.4 0 342.4 112 432 254.4H448z" unicode=""/><glyph d="M0 960V-64h1024V960H0zm625.6-712h-64V97.6H446.4V472c-17.6-3.2-36.8-6.4-57.6-6.4h-64V315.2H208v483.2h179.2c118.4 0 190.4-62.4 190.4-166.4 0-19.2-3.2-36.8-8-52.8H624c118.4 0 190.4-62.4 190.4-166.4C816 312 744 248 625.6 248zM392 692.8h-67.2V566.4H392c49.6 0 70.4 25.6 70.4 64 0 36.8-22.4 62.4-70.4 62.4zm236.8-217.6h-67.2V348.8h67.2c49.6 0 70.4 25.6 70.4 64 0 36.8-22.4 62.4-70.4 62.4z" unicode=""/><glyph d="M512 960C228.8 960 0 731.2 0 448 0 236.8 128 56 308.8-22.4c-1.6 35.2 0 78.4 9.6 116.8 9.6 41.6 65.6 280 65.6 280S368 408 368 456c0 76.8 44.8 132.8 99.2 132.8 46.4 0 68.8-35.2 68.8-76.8 0-46.4-30.4-116.8-44.8-182.4-12.8-54.4 27.2-99.2 81.6-99.2C670.4 230.4 736 355.2 736 504c0 112-75.2 196.8-214.4 196.8-155.2 0-252.8-116.8-252.8-246.4 0-44.8 12.8-76.8 33.6-100.8 9.6-11.2 11.2-16 8-28.8-3.2-9.6-8-32-11.2-41.6-3.2-12.8-14.4-17.6-25.6-12.8-72 28.8-105.6 107.2-105.6 196.8 0 145.6 123.2 321.6 368 321.6 196.8 0 324.8-142.4 324.8-294.4 0-201.6-112-352-276.8-352-56 0-107.2 30.4-124.8 64 0 0-30.4-118.4-36.8-140.8-11.2-38.4-32-78.4-51.2-108.8C416-57.6 462.4-64 512-64c283.2 0 512 228.8 512 512S795.2 960 512 960z" unicode=""/><glyph d="M486.4-64c16 0 33.6-1.6 51.2 0 272 14.4 486.4 240 486.4 513.6 0 38.4-4.8 75.2-12.8 112-8-75.2-48-142.4-112-184L512 153.6l-168 96-62.4 38.4V156.8c3.2-112 91.2-208 204.8-220.8zM81.6 726.4c-4.8-6.4-8-14.4-12.8-22.4s-8-14.4-12.8-22.4C-67.2 436.8 20.8 139.2 259.2 4.8c33.6-19.2 67.2-33.6 102.4-44.8-60.8 43.2-99.2 112-104 188.8l-1.6 448 166.4 97.6 64 35.2-113.6 65.6c-32 17.6-68.8 27.2-105.6 27.2-73.6 0-142.4-36.8-185.6-96zm889.6-44.8c-3.2 6.4-8 14.4-12.8 22.4s-9.6 14.4-12.8 22.4C849.6 872 689.6 960 515.2 960c-89.6 0-179.2-24-256-68.8-32-19.2-62.4-41.6-89.6-67.2 32 14.4 67.2 22.4 102.4 22.4 38.4 0 78.4-9.6 112-27.2l387.2-224V401.6l-1.6-73.6 113.6 65.6c96 60.8 132.8 184 88 288z" unicode=""/><glyph d="M800 532.8c8 30.4 12.8 60.8 12.8 92.8C814.4 811.2 664 960 480 960S147.2 811.2 147.2 625.6c0-32 4.8-64 12.8-92.8-41.6-33.6-204.8-179.2-137.6-369.6 0 0 56 4.8 104 91.2 14.4-54.4 40-105.6 76.8-147.2-52.8-16-88-44.8-88-80C115.2-22.4 192-64 284.8-64c64 0 118.4 19.2 148.8 46.4 16-1.6 32-3.2 48-3.2s32 1.6 48 3.2C558.4-44.8 614.4-64 678.4-64 772.8-64 848-22.4 848 27.2c0 35.2-35.2 64-88 80 35.2 41.6 62.4 92.8 76.8 147.2 46.4-86.4 104-91.2 104-91.2 64 190.4-99.2 336-140.8 369.6z" horiz-adv-x="960" unicode=""/><glyph d="M1022.4 564.8c-3.2 8-9.6 12.8-17.6 14.4l-329.6 30.4-142.4 313.6c-3.2 8-11.2 12.8-19.2 12.8s-16-4.8-19.2-12.8L347.2 616l-328-36.8c-8 0-16-6.4-17.6-14.4-3.2-8 0-16 6.4-22.4L249.6 320 190.4-14.4c-1.6-8 1.6-16 8-22.4 3.2-3.2 8-3.2 12.8-3.2 3.2 0 8 1.6 11.2 3.2l294.4 169.6L806.4-38.4c8-1.6 16-1.6 24 3.2 6.4 4.8 9.6 12.8 8 20.8l-43.2 248c11.2 4.8 44.8 20.8 64 41.6-28.8-11.2-40-14.4-68.8-20.8-195.2-36.8-492.8-6.4-504-4.8l328 240c-110.4 20.8-368 28.8-384 28.8h-1.6 1.6c12.8 1.6 348.8 57.6 544 1.6L441.6 288s254.4-24 344-14.4l-6.4 46.4 240 222.4c3.2 4.8 6.4 14.4 3.2 22.4z" unicode=""/><glyph d="M852.8 489.6c131.2 38.4 208 177.6 152 180.8-140.8 6.4-262.4 75.2-344 126.4-8 6.4-17.6 11.2-27.2 16V494.4c0-105.6-64-188.8-136-224-105.6-51.2-222.4-19.2-260.8 70.4-40 89.6 14.4 203.2 118.4 254.4 57.6 28.8 120 30.4 169.6 12.8v246.4c-32 8-64 11.2-99.2 11.2C192 865.6 0 672 0 432S192-1.6 428.8-1.6 857.6 192 857.6 432c0 19.2-1.6 38.4-4.8 57.6z" unicode=""/><glyph d="M428.8 380.8c0-37.997-30.803-68.8-68.8-68.8s-68.8 30.803-68.8 68.8 30.803 68.8 68.8 68.8 68.8-30.803 68.8-68.8zm595.2 56c0 84.8-67.2 155.2-150.4 155.2-28.8 0-56-8-78.4-24-70.4 41.6-160 67.2-257.6 70.4l56 161.6 116.8-27.2c0-3.2-1.6-8-1.6-11.2 0-64 52.8-116.8 116.8-116.8s116.8 52.8 116.8 116.8-52.8 116.8-116.8 116.8c-41.6 0-78.4-22.4-99.2-56l-166.4 40-78.4-224c-97.6-4.8-185.6-32-256-75.2 1.6 1.6 3.2 1.6 3.2 3.2-24 16-51.2 25.6-81.6 25.6C67.2 592 0 521.6 0 436.8 0 379.2 30.4 329.6 75.2 304c17.6-160 208-284.8 440-284.8 233.6 0 424 128 440 288 41.6 27.2 68.8 75.2 68.8 129.6zM825.6 825.6c35.2 0 64-28.8 64-64s-28.8-64-64-64-64 28.8-64 64 28.8 64 64 64zM150.4 539.2c11.2 0 22.4-3.2 33.6-6.4C126.4 488 88 430.4 76.8 368c-16 17.6-25.6 41.6-25.6 68.8 0 56 44.8 102.4 99.2 102.4zM515.2 70.4c-214.4 0-390.4 115.2-390.4 259.2 0 142.4 174.4 259.2 390.4 259.2 214.4 0 388.8-115.2 388.8-259.2S729.6 70.4 515.2 70.4zm435.2 304c-12.8 60.8-51.2 116.8-105.6 160 9.6 3.2 19.2 4.8 28.8 4.8 54.4 0 97.6-46.4 97.6-102.4 1.6-24-6.4-44.8-20.8-62.4zm-225.6 6.4c0-37.997-30.803-68.8-68.8-68.8s-68.8 30.803-68.8 68.8 30.803 68.8 68.8 68.8 68.8-30.803 68.8-68.8zm-80-153.6c-145.6-96-264-4.8-268.8-1.6-11.2 9.6-27.2 6.4-36.8-3.2-9.6-11.2-8-27.2 3.2-36.8 1.6-1.6 68.8-54.4 166.4-54.4 48 0 105.6 12.8 164.8 52.8 11.2 8 16 24 8 35.2-8 12.8-24 16-36.8 8z" unicode=""/><glyph d="M816 864c-65.6 48-137.6 78.4-216 91.2V632c0-112 28.8-214.4 84.8-305.6 56-92.8 129.6-160 220.8-204.8 80 96 120 204.8 120 329.6 0 83.2-19.2 160-56 233.6C931.2 756.8 880 816 816 864zM340.8 326.4c56 92.8 84.8 193.6 84.8 305.6v323.2c-80-12.8-152-43.2-217.6-91.2-64-48-115.2-107.2-152-179.2S0 534.4 0 451.2C0 326.4 40 216 120 121.6c91.2 43.2 164.8 112 220.8 204.8zM598.4 144c-43.2 54.4-72 115.2-88 179.2-14.4-64-44.8-123.2-88-179.2-43.2-54.4-96-102.4-156.8-140.8 76.8-41.6 156.8-62.4 244.8-62.4S680-38.4 755.2 3.2C694.4 41.6 641.6 89.6 598.4 144z" unicode=""/><glyph d="M137.6 212.8C62.4 212.8 0 152 0 75.2 0 0 62.4-62.4 137.6-62.4c76.8 0 137.6 60.8 137.6 137.6 0 75.2-62.4 137.6-137.6 137.6zM11.2 614.4h-8V424h8C273.6 424 488 211.2 488-51.2v-11.2h190.4v11.2c0 368-299.2 665.6-667.2 665.6zm0 344h-8V768h8C464 768 832 400 832-51.2v-11.2h192v11.2C1024 505.6 569.6 958.4 11.2 958.4z" unicode=""/><glyph d="M480 896c-24 0-48-1.6-70.4-4.8 0 0 0 1.6-1.6 1.6 12.8 9.6 19.2 24 16 36.8-3.2 19.2-20.8 30.4-46.4 30.4-4.8 0-11.2 0-16-1.6-30.4-6.4-49.6-28.8-44.8-51.2 3.2-12.8 14.4-22.4 30.4-27.2v-3.2C147.2 819.2 0 635.2 0 416 0 150.4 214.4-64 480-64s480 214.4 480 480-214.4 480-480 480zm-147.2 14.4c-3.2 12.8 12.8 27.2 33.6 32 3.2 1.6 8 1.6 11.2 1.6 16 0 28.8-6.4 30.4-16 1.6-8-3.2-16-11.2-22.4-6.4 4.8-16 6.4-25.6 4.8s-16-8-20.8-14.4c-8 1.6-16 8-17.6 14.4zm404.8-752c-43.2-43.2-97.6-75.2-155.2-92.8l-41.6 68.8-11.2-80c-16-1.6-32-3.2-49.6-3.2-97.6 0-188.8 38.4-257.6 107.2-43.2 43.2-75.2 97.6-92.8 155.2l68.8 41.6-80 11.2c-1.6 16-3.2 32-3.2 49.6 0 97.6 38.4 188.8 107.2 257.6 43.2 43.2 97.6 75.2 155.2 92.8l41.6-68.8 11.2 80c16 1.6 32 3.2 49.6 3.2 97.6 0 188.8-38.4 257.6-107.2 43.2-43.2 75.2-97.6 92.8-155.2l-68.8-43.2 80-11.2c1.6-16 3.2-32 3.2-49.6 0-96-38.4-187.2-107.2-256zm-8 507.2L532.8 515.2c-14.4 8-30.4 12.8-48 12.8l-51.2 107.2-3.2-118.4c-12.8-6.4-25.6-16-35.2-27.2L332.8 512l46.4-48c-6.4-12.8-9.6-28.8-11.2-43.2l-107.2-51.2 118.4-3.2s0-1.6 1.6-1.6L230.4 168l196.8 150.4c14.4-8 30.4-12.8 48-12.8l51.2-107.2 3.2 118.4c12.8 6.4 25.6 16 35.2 27.2l62.4-22.4-46.4 48c6.4 12.8 9.6 28.8 11.2 43.2L699.2 464l-118.4 3.2s0 1.6-1.6 1.6l150.4 196.8zM480 515.2zm-19.2-4.8c6.4 1.6 12.8 1.6 19.2 1.6h12.8c8-1.6 17.6-3.2 25.6-6.4l-72-54.4-54.4-72c-1.6 4.8-4.8 11.2-4.8 17.6-12.8 51.2 20.8 102.4 73.6 113.6zm68.8-176c-9.6-4.8-19.2-9.6-30.4-12.8-6.4-1.6-12.8-1.6-19.2-1.6h-12.8c-8 1.6-17.6 3.2-25.6 6.4l72 54.4 54.4 72c1.6-4.8 4.8-11.2 4.8-17.6 9.6-40-9.6-80-43.2-100.8z" horiz-adv-x="960" unicode=""/><glyph d="M459.2 499.2 840 777.6 563.2 395.2l-104 104zm104-102.4L184 120l276.8 379.2 102.4-102.4zM512 891.2c-1.6 0-1.6 0 0 0-1.6 0-1.6 0 0 0-1.6 0-1.6 0 0 0-1.6 0-1.6 0 0 0-1.6 0-1.6 0 0 0-1.6 0-1.6 0 0 0-1.6 0-1.6 0 0 0-1.6 0-1.6 0 0 0h-9.6l1.6-46.4h9.6v46.4H512zm-76.8-6.4c-3.2 0-8-1.6-11.2-1.6l9.6-46.4c3.2 0 6.4 1.6 9.6 1.6l-8 46.4zM360 865.6c-1.6 0-3.2-1.6-4.8-1.6-1.6 0-3.2-1.6-4.8-1.6l17.6-44.8c3.2 1.6 6.4 1.6 9.6 3.2L360 865.6zm-68.8-32c-1.6-1.6-3.2-3.2-4.8-3.2-1.6 0-3.2-1.6-3.2-1.6l24-40c3.2 1.6 6.4 3.2 8 4.8l-24 40zm-64-44.8-1.6-1.6s-1.6 0-1.6-1.6-1.6-1.6-1.6-1.6l30.4-35.2c3.2 1.6 4.8 4.8 8 6.4l-33.6 33.6zm-54.4-54.4c-1.6-1.6-3.2-4.8-4.8-6.4 0 0 0-1.6-1.6-1.6l36.8-28.8c1.6 3.2 4.8 4.8 6.4 8l-36.8 28.8zM128 672c0-1.6 0-1.6 0 0v-1.6c-1.6-1.6-1.6-3.2-1.6-4.8l41.6-22.4c1.6 3.2 3.2 6.4 4.8 8L128 672zm-32-70.4V600c-1.6-3.2-1.6-4.8-3.2-8l43.2-16c1.6 3.2 1.6 6.4 3.2 9.6l-43.2 16zM75.2 528v-6.4l46.4-6.4c0 3.2 1.6 6.4 1.6 9.6l-48 3.2zm-6.4-76.8v-8l46.4 1.6v9.6l-46.4-3.2zm51.2-70.4-46.4-8c0-1.6 0-4.8 1.6-6.4l46.4 9.6c0-1.6 0 1.6-1.6 4.8zm17.6-65.6-44.8-16c1.6-3.2 3.2-4.8 3.2-8v-1.6l43.2 16c0 3.2 0 6.4-1.6 9.6zm28.8-62.4-40-22.4 4.8-9.6 40 24c-1.6 1.6-3.2 4.8-4.8 8zm38.4-57.6L168 164.8l3.2-3.2 4.8-4.8 35.2 30.4c-1.6 3.2-3.2 4.8-6.4 8zm49.6-49.6L224 110.4l3.2-3.2c1.6-1.6 3.2-3.2 4.8-3.2l28.8 36.8c-1.6 1.6-4.8 3.2-6.4 4.8zm56-40-24-40c1.6-1.6 4.8-3.2 6.4-3.2 0 0 1.6 0 1.6-1.6l22.4 41.6c-1.6 0-3.2 1.6-6.4 3.2zm62.4-28.8-16-43.2c1.6 0 3.2-1.6 3.2-1.6 1.6 0 3.2-1.6 6.4-1.6l16 44.8c-3.2-1.6-6.4 0-9.6 1.6zm65.6-19.2-8-46.4c3.2 0 8-1.6 11.2-1.6l8 46.4c-4.8 0-8 1.6-11.2 1.6zm78.4-6.4h-9.6V4.8h6.4l3.2 46.4zm68.8 6.4c-3.2 0-6.4-1.6-9.6-1.6l8-46.4h1.6c1.6 0 3.2 0 6.4 1.6l-6.4 46.4zm67.2 19.2c-3.2-1.6-6.4-1.6-9.6-3.2l16-44.8c1.6 0 1.6 0 3.2 1.6 1.6 0 3.2 1.6 4.8 1.6l-14.4 44.8zm62.4 28.8c-3.2-1.6-6.4-3.2-8-4.8l22.4-40c3.2 1.6 6.4 3.2 8 4.8h1.6l-24 40zm56 41.6c-3.2-1.6-4.8-4.8-8-6.4L792 104l1.6 1.6c1.6 1.6 3.2 1.6 3.2 3.2s1.6 0 1.6 1.6l-27.2 36.8zm48 48c-1.6-3.2-4.8-4.8-6.4-8l35.2-30.4 1.6 1.6c1.6 1.6 3.2 4.8 4.8 6.4l-35.2 30.4zm38.4 57.6c-1.6-3.2-3.2-6.4-4.8-8l40-24c1.6 1.6 3.2 4.8 3.2 6.4 0 1.6 1.6 1.6 1.6 3.2l-40 22.4zm28.8 62.4c-1.6-3.2-1.6-6.4-3.2-9.6l43.2-16c1.6 3.2 3.2 6.4 3.2 11.2l-43.2 14.4zm17.6 67.2c0-3.2-1.6-6.4-1.6-9.6l46.4-9.6c0 3.2 1.6 8 1.6 11.2l-46.4 8zm51.2 68.8h-46.4v-9.6h46.4v9.6zm-6.4 76.8-46.4-8c0-3.2 1.6-6.4 1.6-9.6l46.4 8c0 1.6 0 3.2-1.6 6.4s0 1.6 0 3.2zM928 603.2l-43.2-16c1.6-3.2 1.6-6.4 3.2-9.6l44.8 14.4v1.6c-3.2 4.8-3.2 8-4.8 9.6zM896 672l-40-24c1.6-3.2 3.2-6.4 4.8-8l41.6 22.4c-3.2 3.2-4.8 6.4-6.4 9.6zm-44.8 62.4L816 704c1.6-3.2 4.8-4.8 6.4-8l36.8 28.8-1.6 1.6c-3.2 4.8-4.8 6.4-6.4 8zm-56 54.4-30.4-35.2c3.2-1.6 4.8-4.8 8-6.4l30.4 35.2c-1.6 1.6-4.8 4.8-8 6.4zm-62.4 44.8-24-40c3.2-1.6 6.4-3.2 8-4.8l24 40s-1.6 0-1.6 1.6c0 0-1.6 0-1.6 1.6-3.2 0-3.2 0-4.8 1.6zm-70.4 32-16-43.2c3.2-1.6 6.4-1.6 9.6-3.2l17.6 43.2c-1.6 0-4.8 1.6-6.4 1.6-1.6 1.6-3.2 1.6-4.8 1.6zm-75.2 19.2-8-46.4c3.2 0 6.4-1.6 9.6-1.6l9.6 46.4h-3.2c-3.2 1.6-4.8 1.6-8 1.6zm-112 6.4c-1.6 0-1.6 0 0 0-1.6 0-1.6 0 0 0-1.6 0-1.6 0 0 0-1.6 0-1.6 0 0 0-1.6-1.6-1.6-1.6 0 0-1.6-1.6-1.6-1.6 0 0-1.6-1.6-1.6-1.6 0 0-1.6-1.6-1.6-1.6 0 0-1.6-1.6-1.6-1.6 0 0-1.6-1.6-1.6-1.6 0 0-1.6-1.6-1.6-1.6 0 0-1.6-1.6-1.6-1.6 0 0-1.6-1.6-1.6-1.6 0 0-1.6-1.6-1.6-1.6 0 0-1.6-1.6-1.6-1.6 0 0-1.6-1.6-1.6-1.6 0 0h-6.4l9.6-83.2c3.2 0 6.4 0 9.6 1.6l-12.8 81.6zm-76.8-14.4c-1.6 0-3.2-1.6-4.8-1.6-1.6 0-3.2-1.6-4.8-1.6l22.4-80c3.2 1.6 6.4 1.6 8 1.6l-20.8 81.6zm-72-25.6c-1.6 0-3.2-1.6-4.8-1.6-1.6-1.6-4.8-1.6-6.4-3.2l36.8-75.2c3.2 1.6 4.8 3.2 8 3.2l-33.6 76.8zm-67.2-38.4c-1.6 0-1.6-1.6-3.2-1.6-1.6-1.6-3.2-1.6-4.8-3.2l49.6-67.2c3.2 1.6 4.8 3.2 8 4.8l-49.6 67.2zm-59.2-48-3.2-3.2-1.6-1.6 59.2-57.6 6.4 6.4-60.8 56zm-51.2-59.2c-1.6-1.6-3.2-3.2-4.8-6.4 0-1.6-1.6-1.6-1.6-3.2l68.8-46.4c1.6 3.2 3.2 4.8 4.8 8l-67.2 48zm-38.4-67.2s0-1.6-1.6-1.6c-1.6-1.6-1.6-4.8-3.2-6.4l76.8-33.6c1.6 3.2 3.2 4.8 3.2 8l-75.2 33.6zm-27.2-72c-1.6-3.2-1.6-6.4-3.2-9.6l80-20.8c0 3.2 1.6 6.4 1.6 8l-78.4 22.4zm-14.4-75.2v-9.6l83.2-6.4v9.6l-83.2 6.4zm0-76.8c0-1.6 0-1.6 0 0v-4.8l83.2 8v8l-83.2-11.2zm92.8-56-80-20.8c0-1.6 1.6-3.2 1.6-4.8 0-1.6 0-3.2 1.6-4.8l80 22.4c-1.6 1.6-3.2 4.8-3.2 8zm20.8-59.2-75.2-33.6V264c1.6-1.6 1.6-3.2 3.2-4.8s0-1.6 1.6-1.6l75.2 36.8c-3.2 0-3.2 1.6-4.8 4.8zm30.4-54.4L144 198.4c0-1.6 1.6-1.6 1.6-3.2 0 0 0-1.6 1.6-1.6s1.6-1.6 1.6-1.6l67.2 48s-1.6 3.2-3.2 4.8zm40-48-59.2-57.6 6.4-6.4 57.6 59.2s-3.2 1.6-4.8 4.8zm48-41.6-48-67.2c3.2-1.6 6.4-4.8 9.6-6.4l46.4 68.8c-3.2 1.6-6.4 3.2-8 4.8zm52.8-32L316.8 48l9.6-4.8 35.2 75.2c-1.6 1.6-4.8 3.2-8 4.8zm59.2-22.4-22.4-80c1.6 0 1.6 0 3.2-1.6 1.6 0 4.8-1.6 6.4-1.6l20.8 80c-3.2 1.6-4.8 3.2-8 3.2zm60.8-11.2-8-83.2h9.6l6.4 83.2c-1.6-1.6-4.8 0-8 0zm72 0H536l6.4-83.2h9.6l-6.4 83.2zm62.4 11.2c-3.2 0-6.4-1.6-8-1.6l20.8-81.6c3.2 1.6 6.4 1.6 11.2 3.2l-24 80zm57.6 20.8c-3.2-1.6-4.8-3.2-8-3.2l33.6-76.8c1.6 0 1.6 1.6 3.2 1.6 1.6 1.6 4.8 1.6 6.4 3.2l-35.2 75.2zm54.4 32c-3.2-1.6-4.8-3.2-8-4.8L758.4 80c3.2 1.6 4.8 3.2 8 4.8L720 153.6zm48 41.6-6.4-6.4 57.6-59.2 3.2 3.2 4.8 4.8-59.2 57.6zm40 48c-1.6-3.2-3.2-4.8-4.8-8l67.2-49.6c1.6 3.2 3.2 4.8 4.8 8v1.6l-67.2 48zm30.4 54.4c-1.6-3.2-3.2-4.8-3.2-8l75.2-36.8s0 1.6 1.6 1.6c0 1.6 1.6 1.6 1.6 3.2s1.6 1.6 1.6 3.2l-76.8 36.8zm20.8 59.2c0-3.2-1.6-6.4-3.2-8l80-24c0 1.6 0 3.2 1.6 4.8 0 1.6 1.6 4.8 1.6 6.4l-80 20.8zm11.2 60.8c0-3.2 0-6.4-1.6-9.6l83.2-9.6c0 3.2 0 6.4 1.6 8s0 1.6 0 1.6l-83.2 9.6zm83.2 70.4-83.2-8v-9.6l83.2 4.8V488c0-1.6 0-1.6 0 0 0-1.6 0-1.6 0 0 0-1.6 0-1.6 0 0zm-14.4 75.2-80-22.4c0-3.2 1.6-6.4 1.6-8l81.6 19.2c0 1.6-1.6 4.8-1.6 6.4 0 3.2-1.6 4.8-1.6 4.8zm-25.6 73.6-75.2-35.2c1.6-3.2 3.2-4.8 3.2-8l76.8 33.6c0 1.6-1.6 3.2-1.6 4.8-1.6 1.6-3.2 3.2-3.2 4.8zm-38.4 65.6-68.8-48c1.6-3.2 3.2-4.8 4.8-8l68.8 46.4c0 1.6-1.6 1.6-1.6 3.2-1.6 3.2-3.2 4.8-3.2 6.4zM824 761.6l-59.2-59.2 6.4-6.4 60.8 57.6-3.2 3.2c0 1.6-1.6 3.2-4.8 4.8 1.6 0 1.6 0 0 0 1.6 0 1.6 0 0 0zm-57.6 49.6-48-68.8c3.2-1.6 4.8-3.2 8-4.8l49.6 67.2-1.6 1.6-8 4.8zm-67.2 38.4L664 774.4c3.2-1.6 4.8-3.2 8-3.2l36.8 75.2c-1.6 0-3.2 1.6-4.8 1.6-3.2 1.6-3.2 1.6-4.8 1.6zm-72 27.2-22.4-80c3.2 0 6.4-1.6 8-3.2l24 80c-1.6 0-1.6 0-3.2 1.6-1.6 0-3.2 0-6.4 1.6zm-76.8 12.8L544 808c3.2 0 6.4 0 9.6-1.6l9.6 83.2h-12.8zM512 926.4c64 0 128-12.8 187.2-38.4 57.6-24 108.8-59.2 152-102.4 44.8-44.8 78.4-96 102.4-152C979.2 576 990.4 512 990.4 448S977.6 320 952 260.8c-24-57.6-59.2-108.8-102.4-152-44.8-44.8-96-78.4-152-102.4C640-19.2 576-30.4 512-30.4S384-17.6 324.8 8c-57.6 24-108.8 59.2-152 102.4-44.8 44.8-78.4 96-102.4 152C44.8 320 33.6 384 33.6 448S46.4 576 72 635.2c24 57.6 59.2 108.8 102.4 152 44.8 44.8 96 78.4 152 102.4C384 915.2 448 926.4 512 926.4zm0 33.6C228.8 960 0 731.2 0 448S228.8-64 512-64s512 228.8 512 512-228.8 512-512 512z" unicode=""/><glyph d="M315.2 209.6c-35.2-36.8-44.8-81.6-25.6-92.8 17.6-9.6 59.2 1.6 89.6 33.6 9.6 11.2 17.6 22.4 24 35.2 1.6 3.2 1.6 4.8 3.2 8s1.6 4.8 3.2 8c8 24 8 49.6 1.6 76.8-1.6-1.6-3.2-1.6-4.8-3.2 0 0-54.4-25.6-91.2-65.6zM512 960C228.8 960 0 731.2 0 448S228.8-64 512-64s512 228.8 512 512-228.8 512-512 512zm166.4-454.4c-88-33.6-161.6-28.8-192-19.2-33.6 11.2-54.4 33.6-59.2 46.4-1.6 4.8-4.8 12.8 0 16 3.2 1.6 4.8 1.6 12.8-8s41.6-33.6 104-25.6c164.8 17.6 262.4 145.6 232 214.4-22.4 48-148.8 70.4-305.6-9.6-193.6-96-203.2-176-204.8-204.8C260.8 432 368 388.8 425.6 328c1.6-1.6 3.2-3.2 3.2-4.8 17.6 6.4 41.6 9.6 80 11.2 92.8 1.6 145.6-59.2 144-115.2-1.6-43.2-41.6-60.8-49.6-62.4-4.8-1.6-8-1.6-9.6 3.2 0 3.2 1.6 4.8 8 8s25.6 16 28.8 40c3.2 24-14.4 80-104 89.6-32 3.2-57.6 1.6-78.4-4.8 16-33.6 19.2-104-17.6-156.8-36.8-56-105.6-89.6-172.8-70.4-22.4 6.4-54.4 51.2-25.6 113.6C259.2 238.4 372.8 296 388.8 304c-52.8 46.4-182.4 107.2-200 201.6-4.8 27.2 8 91.2 86.4 164.8 65.6 62.4 158.4 108.8 243.2 139.2 142.4 51.2 292.8 20.8 316.8-70.4 20.8-88-57.6-195.2-156.8-233.6z" unicode=""/><glyph d="M748.8 276.8c-38.4 0-75.2-12.8-104-35.2L347.2 420.8c1.6 9.6 3.2 19.2 3.2 27.2 0 9.6-1.6 19.2-3.2 27.2l297.6 177.6c28.8-22.4 64-35.2 104-35.2 94.4 0 171.2 76.8 171.2 171.2-1.6 94.4-76.8 171.2-171.2 171.2s-171.2-76.8-171.2-171.2c0-9.6 1.6-19.2 3.2-27.2L283.2 584c-28.8 22.4-64 35.2-104 35.2C84.8 619.2 9.6 542.4 9.6 448s76.8-171.2 171.2-171.2c38.4 0 75.2 12.8 104 35.2l297.6-177.6c-1.6-9.6-3.2-17.6-3.2-27.2C579.2 12.8 656-64 750.4-64s171.2 76.8 171.2 171.2c-3.2 94.4-78.4 169.6-172.8 169.6z" horiz-adv-x="928" unicode=""/><glyph d="M948.8 379.2c3.2 22.4 6.4 44.8 6.4 68.8 0 252.8-204.8 456-456 456-24 0-46.4-1.6-68.8-6.4C384 936 324.8 960 260.8 960 116.8 960 0 843.2 0 699.2c0-59.2 19.2-112 52.8-156.8-6.4-30.4-11.2-64-11.2-96 0-252.8 204.8-456 456-456 32 0 64 3.2 94.4 9.6 46.4-40 105.6-64 171.2-64 144 0 260.8 116.8 260.8 260.8 0 70.4-28.8 134.4-75.2 182.4zM712 248c-17.6-25.6-44.8-44.8-78.4-60.8-35.2-14.4-75.2-22.4-123.2-22.4-57.6 0-104 9.6-140.8 30.4-25.6 14.4-48 33.6-64 57.6s-24 46.4-24 68.8c0 12.8 4.8 24 14.4 33.6s22.4 14.4 38.4 14.4c12.8 0 22.4-3.2 32-11.2 8-6.4 16-17.6 22.4-32 8-17.6 16-30.4 24-41.6S433.6 264 448 256c16-8 35.2-11.2 60.8-11.2 35.2 0 62.4 8 84.8 22.4s32 33.6 32 56c0 17.6-6.4 32-17.6 43.2s-27.2 19.2-44.8 25.6c-19.2 6.4-43.2 11.2-73.6 19.2-41.6 9.6-76.8 19.2-104 32S336 472 318.4 492.8c-16 20.8-24 46.4-24 76.8 0 28.8 8 54.4 25.6 78.4 17.6 22.4 41.6 40 75.2 52.8s72 17.6 115.2 17.6c35.2 0 65.6-3.2 91.2-12.8 25.6-8 48-19.2 64-32 17.6-12.8 28.8-27.2 36.8-41.6s11.2-28.8 11.2-43.2c0-12.8-4.8-24-14.4-35.2-9.6-9.6-22.4-16-36.8-16-12.8 0-24 3.2-30.4 9.6s-14.4 16-22.4 30.4c-11.2 19.2-22.4 35.2-38.4 46.4-14.4 11.2-38.4 17.6-70.4 17.6-30.4 0-54.4-6.4-73.6-17.6-19.2-12.8-27.2-27.2-27.2-43.2 0-11.2 3.2-19.2 9.6-27.2s14.4-14.4 25.6-19.2c11.2-4.8 22.4-9.6 33.6-12.8s30.4-8 56-14.4c32-6.4 62.4-14.4 88-22.4s48-19.2 67.2-30.4c19.2-12.8 33.6-27.2 43.2-46.4s16-41.6 16-67.2c-1.6-38.4-9.6-67.2-27.2-92.8z" unicode=""/><glyph d="M976 472c-3.2-3.2-8-4.8-11.2-8v396.8c0 54.4-41.6 99.2-92.8 99.2H153.6c-51.2 0-92.8-44.8-92.8-99.2V464c-4.8 3.2-8 4.8-12.8 8-30.4 20.8-51.2-8-32-35.2C52.8 392 121.6 336 228.8 292.8 116.8-91.2 504-152 497.6 44.8v193.6c9.6-1.6 19.2-4.8 27.2-6.4V44.8c-6.4-196.8 382.4-136 268.8 248 107.2 43.2 176 99.2 212.8 144 19.2 27.2 0 57.6-30.4 35.2zm-382.4-97.6c-48 1.6-65.6-17.6-67.2-49.6-11.2 8-22.4 17.6-35.2 28.8-1.6 1.6-3.2 3.2-6.4 4.8-9.6 11.2-27.2 17.6-54.4 16-64-1.6-179.2-14.4-315.2 56V816c0 70.4 17.6 91.2 81.6 91.2H832c60.8 0 81.6-25.6 81.6-91.2V435.2c-137.6-75.2-256-62.4-320-60.8zm68.8 278.4c-68.8 0-123.2-51.2-123.2-115.2s56-115.2 123.2-115.2c68.8 0 123.2 51.2 123.2 115.2s-54.4 115.2-123.2 115.2zM499.2 537.6c0-63.623-55.159-115.2-123.2-115.2s-123.2 51.577-123.2 115.2c0 63.623 55.159 115.2 123.2 115.2s123.2-51.577 123.2-115.2z" unicode=""/><glyph d="M49.6 440c-1.6 0-3.2-1.6-4.8-4.8L35.2 344l9.6-89.6c0-1.6 1.6-4.8 4.8-4.8 1.6 0 3.2 1.6 4.8 4.8L65.6 344l-11.2 91.2c-1.6 3.2-3.2 4.8-4.8 4.8zm-38.4-35.2c-1.6 0-3.2-1.6-4.8-4.8L0 344l8-56c0-1.6 1.6-3.2 4.8-3.2 1.6-1.6 3.2 0 3.2 3.2l9.6 56-9.6 56c0 3.2-1.6 4.8-4.8 4.8zm78.4 52.8c-3.2 0-4.8-1.6-4.8-4.8L75.2 344l9.6-105.6c0-3.2 3.2-4.8 4.8-4.8 3.2 0 4.8 1.6 4.8 4.8L105.6 344 94.4 452.8c0 3.2-1.6 4.8-4.8 4.8zm40 3.2c-3.2 0-6.4-3.2-6.4-6.4l-9.6-112 9.6-108.8c0-3.2 3.2-6.4 6.4-6.4s6.4 3.2 6.4 6.4l9.6 108.8-9.6 112c0 4.8-3.2 6.4-6.4 6.4zm48-227.2zm0 214.4c0 3.2-3.2 6.4-6.4 6.4s-6.4-3.2-6.4-6.4l-8-104 8-108.8c0-3.2 3.2-6.4 6.4-6.4s6.4 3.2 6.4 6.4l9.6 108.8-9.6 104zm35.2 72c-4.8 0-8-3.2-8-8l-8-169.6 8-108.8c0-4.8 3.2-8 8-8s8 3.2 8 8l9.6 108.8-9.6 169.6c-1.6 4.8-4.8 8-8 8zm40 40c-4.8 0-8-3.2-8-8l-8-208 8-108.8c0-4.8 3.2-8 8-8s8 3.2 8 8l8 108.8-8 208c1.6 3.2-3.2 8-8 8zm43.2 17.6c-4.8 0-9.6-4.8-9.6-9.6L280 342.4l6.4-107.2c0-4.8 4.8-9.6 9.6-9.6s9.6 4.8 9.6 9.6l8 107.2-8 225.6c0 6.4-4.8 9.6-9.6 9.6zm52.8-1.6c0 6.4-4.8 9.6-9.6 9.6-6.4 0-9.6-4.8-9.6-9.6l-6.4-233.6 6.4-107.2c0-6.4 4.8-9.6 9.6-9.6 6.4 0 9.6 4.8 9.6 9.6l8 107.2-8 233.6zm0-339.2zm32 344c-6.4 0-11.2-4.8-11.2-11.2l-6.4-227.2 6.4-105.6c0-6.4 4.8-11.2 11.2-11.2s11.2 4.8 11.2 11.2l6.4 105.6-6.4 227.2c0 6.4-4.8 11.2-11.2 11.2zm43.2-6.4c-6.4 0-12.8-4.8-12.8-12.8l-4.8-219.2 4.8-105.6c0-6.4 4.8-11.2 12.8-11.2 6.4 0 11.2 4.8 12.8 12.8l6.4 105.6-6.4 219.2c-1.6 4.8-6.4 11.2-12.8 11.2zm49.6 40c-1.6 1.6-4.8 1.6-6.4 1.6-3.2 0-4.8 0-6.4-1.6-3.2-1.6-6.4-6.4-6.4-11.2V600L448 344l4.8-104c0-3.2 1.6-6.4 3.2-8 3.2-3.2 6.4-4.8 9.6-4.8s6.4 1.6 9.6 3.2c1.6 1.6 3.2 4.8 3.2 9.6v9.6l4.8 94.4-3.2 259.2c0 4.8-3.2 8-6.4 11.2zm6.4-376zm36.8 400c-1.6 1.6-4.8 1.6-6.4 1.6-3.2 0-6.4-1.6-8-3.2-3.2-3.2-4.8-6.4-4.8-11.2V624l-6.4-281.6 3.2-52.8L496 240c0-8 6.4-14.4 14.4-14.4s14.4 6.4 14.4 14.4l6.4 102.4-6.4 283.2c-1.6 6.4-4.8 11.2-8 12.8zm380.8-161.6c-17.6 0-33.6-3.2-48-9.6C840 580.8 744 670.4 628.8 670.4c-28.8 0-56-4.8-80-14.4-9.6-3.2-12.8-8-12.8-14.4v-400c0-8 6.4-14.4 12.8-14.4h348.8c68.8 0 126.4 56 126.4 124.8s-56 124.8-126.4 124.8z" unicode=""/><glyph d="M512 960C228.8 960 0 731.2 0 448S228.8-64 512-64s512 228.8 512 512-228.8 512-512 512zm196.8-755.2c-8 0-14.4 3.2-22.4 8-73.6 44.8-166.4 68.8-265.6 68.8-54.4 0-110.4-6.4-161.6-17.6-8-1.6-19.2-4.8-25.6-4.8-19.2 0-32 16-32 32 0 20.8 12.8 32 27.2 35.2 64 14.4 126.4 22.4 192 22.4 112 0 211.2-25.6 297.6-76.8 12.8-8 20.8-14.4 20.8-33.6 1.6-20.8-12.8-33.6-30.4-33.6zm56 136c-11.2 0-17.6 4.8-25.6 9.6-83.2 48-198.4 81.6-324.8 81.6-65.6 0-120-9.6-166.4-20.8-9.6-3.2-16-6.4-25.6-6.4-22.4 0-40 17.6-40 40s11.2 36.8 32 43.2c57.6 16 116.8 28.8 201.6 28.8 134.4 0 264-33.6 364.8-94.4 17.6-9.6 24-22.4 24-40 0-24-17.6-41.6-40-41.6zm64 156.8c-11.2 0-16 3.2-25.6 8-94.4 56-238.4 86.4-376 86.4-68.8 0-139.2-6.4-204.8-24-8-1.6-17.6-4.8-25.6-4.8-27.2 0-48 22.4-48 49.6s17.6 43.2 35.2 49.6c73.6 20.8 155.2 32 243.2 32 150.4 0 308.8-30.4 424-99.2 16-9.6 25.6-22.4 25.6-46.4 0-30.4-22.4-51.2-48-51.2z" unicode=""/><glyph d="M3.2 512h825.6V342.4H3.2V512zm0-216v-44.8c0-38.4 12.8-70.4 38.4-96 25.6-27.2 56-40 92.8-40h352V-64l172.8 179.2h38.4c35.2 0 67.2 12.8 92.8 40s38.4 59.2 38.4 96V296H3.2zm0 435.2h825.6V561.6H3.2v169.6zM828.8 824c0 36.8-12.8 68.8-38.4 96s-56 40-92.8 40H134.4c-35.2 0-67.2-12.8-92.8-40C16 894.4 3.2 862.4 3.2 824v-44.8h825.6V824z" horiz-adv-x="832" unicode=""/><glyph d="M596.8 356.8h68.8V-64H-1.6v420.8h68.8V4.8h531.2c-1.6 116.8-1.6 233.6-1.6 352zM401.6 827.2c76.8-112 152-222.4 227.2-334.4l72 48c-76.8 112-152 222.4-227.2 334.4l-72-48zM616 481.6c-116.8 68.8-232 137.6-348.8 204.8-14.4-25.6-28.8-49.6-43.2-75.2 116.8-68.8 232-136 348.8-204.8 14.4 25.6 28.8 49.6 43.2 75.2zM732.8 960c-28.8-4.8-56-9.6-84.8-14.4 22.4-132.8 46.4-265.6 68.8-398.4 28.8 4.8 57.6 9.6 84.8 14.4-22.4 132.8-46.4 265.6-68.8 398.4zm-168-577.6C435.2 417.6 304 452.8 174.4 488c-8-27.2-14.4-56-22.4-83.2 129.6-35.2 260.8-70.4 390.4-105.6 8 27.2 14.4 56 22.4 83.2zm-36.8-224H124.8V72H528v86.4zm9.6 112c-134.4 12.8-268.8 24-403.2 36.8-3.2-28.8-4.8-57.6-8-86.4 134.4-12.8 268.8-24 403.2-36.8 3.2 28.8 6.4 57.6 8 86.4z" horiz-adv-x="800" unicode=""/><glyph d="M704 676.8c0-52.8 43.2-96 96-96s96 43.2 96 96-43.2 96-96 96-96-43.2-96-96zm254.4 158.4c-88 88-228.8 88-316.8 0-35.2-35.2-56-80-64-126.4L372.8 398.4c-27.2-1.6-54.4-8-80-20.8L134.4 500.8C97.6 529.6 44.8 523.2 16 486.4S-6.4 396.8 30.4 368l155.2-121.6c-17.6-67.2 0-140.8 52.8-192 78.4-78.4 206.4-78.4 286.4 0 48 48 67.2 115.2 56 177.6L832 456c46.4 6.4 91.2 27.2 126.4 64 88 86.4 88 227.2 0 315.2zM384 62.4c-73.6 0-134.4 60.8-134.4 134.4v1.6l67.2-52.8c16-12.8 33.6-17.6 51.2-17.6 25.6 0 49.6 11.2 65.6 32 28.8 36.8 22.4 89.6-14.4 118.4l-64 49.6c9.6 1.6 17.6 3.2 27.2 3.2 73.6 0 134.4-60.8 134.4-134.4S457.6 62.4 384 62.4zm416 454.4c-88 0-160 72-160 160s72 160 160 160 160-72 160-160-72-160-160-160z" unicode=""/><glyph d="m566.4 547.2 70.4-33.6 105.6 33.6V608c0 126.4-102.4 228.8-228.8 228.8S283.2 734.4 283.2 608V288c0-30.4-24-54.4-54.4-54.4S176 257.6 176 288v134.4H0V288C0 161.6 102.4 59.2 228.8 59.2S457.6 161.6 457.6 288v320c0 30.4 24 54.4 54.4 54.4s54.4-24 54.4-54.4v-60.8zM848 422.4V288c0-30.4-24-54.4-54.4-54.4s-54.4 24-54.4 54.4v137.6L633.6 392l-70.4 33.6V288c0-126.4 102.4-228.8 228.8-228.8 129.6 0 232 102.4 232 228.8v134.4H848z" unicode=""/><glyph d="M336 960C152 960 3.2 809.6 3.2 627.2c0-54.4 12.8-108.8 38.4-156.8 6.4-12.8 24-17.6 36.8-11.2s17.6 24 11.2 36.8c-20.8 40-32 84.8-32 131.2 0 153.6 124.8 278.4 278.4 278.4s278.4-124.8 278.4-278.4-124.8-280-278.4-280c-20.8 0-43.2 3.2-64 8-14.4 3.2-28.8-6.4-33.6-20.8-3.2-14.4 6.4-28.8 20.8-33.6 25.6-6.4 51.2-8 76.8-8 184 0 332.8 150.4 332.8 332.8S520 960 336 960zm-60.8-419.2c17.6-12.8 40-20.8 64-20.8 62.4 0 112 51.2 112 112s-51.2 112-112 112-112-51.2-112-112c0-17.6 4.8-35.2 12.8-51.2-22.4-22.4-48-51.2-72-86.4C100.8 395.2 22.4 224 38.4-40 40-54.4 51.2-65.6 65.6-65.6h1.6C81.6-64 94.4-51.2 92.8-36.8c-14.4 244.8 56 406.4 118.4 497.6 20.8 33.6 43.2 59.2 64 80z" horiz-adv-x="672" unicode=""/><glyph d="M1011.2 947.2c-8 8-17.6 12.8-30.4 12.8H43.2c-12.8 0-22.4-4.8-30.4-12.8S0 929.6 0 916.8V-22.4c0-11.2 4.8-20.8 12.8-30.4 8-6.4 17.6-11.2 30.4-11.2h939.2c11.2 0 20.8 4.8 30.4 12.8 8 8 12.8 19.2 12.8 30.4v937.6c-1.6 12.8-6.4 22.4-14.4 30.4zM468.8 148.8c0-6.4-1.6-11.2-6.4-16-3.2-3.2-9.6-6.4-16-6.4H128c-6.4 0-11.2 1.6-16 6.4-3.2 3.2-6.4 9.6-6.4 16V832c0 6.4 1.6 11.2 6.4 16s9.6 6.4 16 6.4h320c6.4 0 11.2-1.6 16-6.4s6.4-9.6 6.4-16V148.8zm448 256c0-6.4-1.6-11.2-6.4-16-3.2-3.2-9.6-6.4-16-6.4H576c-6.4 0-11.2 1.6-16 6.4s-6.4 9.6-6.4 16V832c0 6.4 1.6 11.2 6.4 16s9.6 6.4 16 6.4h320c6.4 0 11.2-1.6 16-6.4 3.2-3.2 6.4-9.6 6.4-16V404.8z" unicode=""/><glyph d="M627.2 726.4c28.8-4.8 56-11.2 84.8-19.2 48-14.4 94.4-35.2 136-62.4 3.2-1.6 6.4-3.2 11.2-3.2h163.2V640c-1.6-3.2-4.8-6.4-6.4-11.2-17.6-25.6-32-52.8-40-83.2-1.6-3.2-1.6-6.4 1.6-9.6 44.8-64 59.2-134.4 40-211.2-16-67.2-54.4-118.4-113.6-155.2-41.6-25.6-88-38.4-136-38.4-20.8 0-41.6 3.2-60.8 8C657.6 152 616 176 580.8 212.8c-4.8 4.8-9.6 9.6-14.4 16-17.6-27.2-36.8-54.4-54.4-81.6-19.2 27.2-36.8 54.4-54.4 80-1.6 0-1.6 0-1.6-1.6l-1.6-1.6c-41.6-49.6-94.4-80-158.4-89.6-35.2-6.4-70.4-3.2-105.6 6.4-49.6 12.8-91.2 40-124.8 78.4C32 256 12.8 300.8 4.8 348.8c-9.6 46.4 1.6 91.2 4.8 100.8C16 480 28.8 508.8 48 534.4c1.6 1.6 1.6 4.8 1.6 8-8 27.2-20.8 52.8-35.2 76.8-3.2 6.4-8 11.2-12.8 17.6v1.6H160c1.6 0 4.8 1.6 6.4 1.6 36.8 24 75.2 41.6 115.2 56 28.8 9.6 59.2 17.6 89.6 24 28.8 6.4 59.2 9.6 89.6 11.2 70.4 8 128 0 166.4-4.8zm-64-340.8c0-113.6 91.2-204.8 204.8-204.8s204.8 89.6 204.8 204.8c0 118.4-96 206.4-208 204.8-113.6-3.2-201.6-92.8-201.6-204.8zM256 590.4c-110.4 1.6-206.4-91.2-203.2-208 1.6-108.8 91.2-201.6 206.4-200 112 1.6 201.6 92.8 201.6 203.2 0 113.6-91.2 204.8-204.8 204.8zm11.2 52.8C328 640 384 617.6 428.8 576c46.4-41.6 73.6-94.4 83.2-155.2 9.6 60.8 36.8 112 81.6 153.6s99.2 64 160 67.2c-72 32-148.8 46.4-227.2 48-89.6 1.6-177.6-11.2-259.2-46.4zm499.2-128c70.4 0 126.4-56 126.4-126.4s-56-124.8-121.6-126.4c-73.6-3.2-132.8 56-132.8 126.4 1.6 72 60.8 128 128 126.4zm83.2-126.4c0 46.4-36.8 83.2-81.6 83.2-46.4 0-83.2-36.8-83.2-81.6s36.8-83.2 83.2-83.2c44.8-1.6 81.6 35.2 81.6 81.6zM254.4 515.2c70.4 0 126.4-56 126.4-126.4s-56-123.2-120-126.4c-73.6-3.2-132.8 56-132.8 126.4-1.6 72 57.6 128 126.4 126.4zM336 388.8c0 46.4-36.8 83.2-83.2 81.6-44.8 0-81.6-38.4-81.6-83.2S208 304 254.4 304c44.8 1.6 81.6 38.4 81.6 84.8zm430.4 41.6c24 0 41.6-19.2 41.6-41.6s-19.2-41.6-41.6-41.6c-24 0-41.6 19.2-41.6 41.6s19.2 41.6 41.6 41.6zm-513.6 0c24 0 43.2-19.2 43.2-41.6 0-24-19.2-41.6-43.2-43.2-24 0-43.2 19.2-43.2 43.2 1.6 24 19.2 41.6 43.2 41.6z" unicode=""/><glyph d="M478.4 104c-88 0-126.4 68.8-126.4 121.6v320h224v160H352V960H190.4C190.4 737.6 0 697.6 0 697.6v-152h128V168C128 41.6 244.8-64 387.2-64 529.6-64 608-8 608-8v168s-43.2-56-129.6-56z" horiz-adv-x="608" unicode=""/><glyph d="M718.4 70.4h-200L384-64H249.6V70.4H6.4v712L73.6 960h912V336L718.4 70.4zM896 380.8v489.6H161.6V225.6h200V92.8l132.8 132.8h244.8L896 380.8zm-244.8 312V425.6h89.6v267.2h-89.6zM406.4 425.6H496v267.2h-89.6V425.6z" horiz-adv-x="992" unicode=""/><glyph d="M1024 764.8c-17.6-9.6-68.8-28.8-116.8-33.6 30.4 16 76.8 72 88 115.2C964.8 827.2 897.6 800 864 800c-40 38.4-92.8 64-153.6 64-116.8 0-211.2-94.4-211.2-211.2 0-16 1.6-32 4.8-46.4-158.4 4.8-344 83.2-448 219.2-64-110.4-8-233.6 64-278.4-24-3.2-70.4 1.6-91.2 22.4C27.2 496 62.4 398.4 192 363.2c-25.6-12.8-68.8-9.6-88-6.4 6.4-62.4 94.4-144 188.8-144C259.2 174.4 144 102.4 0 124.8 97.6 65.6 211.2 32 331.2 32 672 32 936 308.8 923.2 649.6v8c28.8 19.2 70.4 57.6 100.8 107.2z" unicode=""/><glyph d="M97.6 542.4c-52.8 0-94.4-41.6-94.4-94.4s41.6-94.4 94.4-94.4c52.8 0 94.4 41.6 94.4 94.4s-43.2 94.4-94.4 94.4zM772.8 112C728 86.4 712 28.8 737.6-17.6c25.6-44.8 83.2-60.8 129.6-35.2C912-27.2 928 30.4 902.4 76.8s-84.8 62.4-129.6 35.2zM302.4 448c0 92.8 46.4 176 116.8 225.6l-68.8 115.2c-83.2-56-144-139.2-169.6-238.4 30.4-24 49.6-60.8 49.6-102.4s-19.2-78.4-49.6-102.4c25.6-99.2 86.4-184 169.6-238.4l68.8 115.2C348.8 272 302.4 355.2 302.4 448zm276.8 276.8c144 0 262.4-110.4 275.2-251.2l134.4 1.6c-6.4 104-52.8 198.4-121.6 267.2-35.2-12.8-76.8-11.2-113.6 9.6-35.2 20.8-59.2 56-64 94.4-35.2 9.6-72 14.4-110.4 14.4-65.6 0-128-16-182.4-43.2l65.6-118.4c35.2 16 75.2 25.6 116.8 25.6zm0-553.6c-41.6 0-81.6 9.6-116.8 25.6L396.8 80c54.4-27.2 116.8-43.2 182.4-43.2 38.4 0 75.2 4.8 110.4 14.4 6.4 38.4 28.8 73.6 64 94.4s76.8 22.4 113.6 9.6c70.4 68.8 115.2 161.6 121.6 267.2L854.4 424c-12.8-142.4-131.2-252.8-275.2-252.8zM772.8 784c44.8-25.6 102.4-11.2 129.6 35.2 25.6 44.8 9.6 102.4-35.2 128S764.8 958.4 737.6 912c-25.6-44.8-9.6-102.4 35.2-128z" horiz-adv-x="992" unicode=""/><glyph d="M705.6 444.8c0 1.6-1.6 3.2-1.6 4.8-9.6-4.8-17.6-9.6-27.2-14.4s-17.6-8-27.2-11.2c-9.6-3.2-19.2-6.4-28.8-8v-1.6c0-1.6 1.6-3.2 1.6-3.2 12.8-33.6 19.2-68.8 19.2-105.6 0-30.4-3.2-59.2-12.8-88-12.8-43.2-35.2-81.6-65.6-115.2-46.4-48-102.4-73.6-169.6-80h-19.2V24c3.2 3.2 6.4 4.8 9.6 8 68.8 52.8 123.2 116.8 161.6 193.6 32 64 48 132.8 49.6 204.8 0 35.2-1.6 70.4-8 104-6.4 40-17.6 76.8-32 115.2 0 1.6-1.6 3.2-3.2 6.4-1.6 6.4-1.6 8-1.6 9.6v3.2c-3.2 32-9.6 64-17.6 96-11.2 41.6-28.8 83.2-52.8 120-16 25.6-35.2 49.6-59.2 68.8-3.2 3.2-4.8 4.8-8 6.4v-3.2l4.8-9.6c40-70.4 76.8-142.4 107.2-217.6l24-62.4 1.6-4.8c0-1.6 0-3.2 1.6-9.6 0-11.2 1.6-22.4 1.6-32 1.6-56 0-113.6-6.4-169.6-3.2-25.6-6.4-52.8-9.6-78.4-4.8-32-12.8-64-22.4-96-11.2-38.4-25.6-76.8-44.8-112-17.6-32-38.4-60.8-64-86.4-24-22.4-51.2-41.6-81.6-54.4-3.2-1.6-6.4-1.6-9.6-1.6-41.6 8-80 25.6-113.6 51.2-28.8 22.4-51.2 51.2-68.8 83.2-19.2 35.2-30.4 72-33.6 110.4-1.6 22.4-1.6 46.4 1.6 68.8 3.2 28.8 11.2 54.4 22.4 81.6 17.6 38.4 41.6 70.4 73.6 99.2 24 22.4 51.2 38.4 81.6 49.6 19.2 8 40 12.8 60.8 14.4 17.6 1.6 36.8 1.6 56 1.6 24-1.6 46.4-6.4 68.8-16 1.6 0 3.2-1.6 6.4-1.6 1.6 16 4.8 30.4 9.6 44.8s11.2 27.2 17.6 41.6c-3.2 3.2-8 3.2-11.2 4.8-30.4 9.6-60.8 14.4-91.2 16-33.6 1.6-67.2 0-99.2-6.4-40-8-76.8-22.4-110.4-43.2-32-20.8-60.8-46.4-84.8-75.2-54.4-64-84.8-139.2-88-224-1.6-24 0-48 3.2-73.6 4.8-33.6 12.8-67.2 27.2-99.2C65.6 99.2 97.6 56 137.6 17.6 168-9.6 201.6-32 240-46.4c35.2-14.4 73.6-20.8 110.4-22.4 35.2-1.6 70.4 0 105.6 8 46.4 9.6 89.6 28.8 128 57.6 30.4 22.4 56 49.6 78.4 78.4 44.8 59.2 68.8 126.4 72 200 1.6 30.4 0 60.8-4.8 89.6-8 32-14.4 56-24 80zm172.8 400c-8 28.8-19.2 56-33.6 81.6-1.6 3.2-4.8 8-8 11.2L832 928c-9.6-19.2-22.4-36.8-38.4-52.8-24-24-51.2-40-84.8-48-3.2 0-6.4-1.6-8-1.6-24-6.4-48-16-68.8-28.8-14.4-8-27.2-19.2-38.4-33.6-19.2-25.6-28.8-54.4-27.2-86.4 1.6-25.6 8-51.2 20.8-73.6 0-1.6 1.6-1.6 3.2-3.2 104 25.6 180.8 84.8 235.2 179.2v-6.4c-1.6-8-4.8-16-8-24-8-16-19.2-30.4-30.4-44.8-20.8-24-44.8-44.8-70.4-64-30.4-22.4-62.4-44.8-96-64-3.2-1.6-4.8-1.6-6.4-4.8 4.8-4.8 8-8 12.8-11.2 17.6-14.4 35.2-25.6 56-32 19.2-6.4 40-8 60.8-4.8 25.6 4.8 46.4 16 65.6 32s33.6 35.2 46.4 56c6.4 12.8 14.4 24 19.2 38.4 9.6 27.2 16 56 17.6 86.4-1.6 36.8-4.8 73.6-14.4 108.8z" horiz-adv-x="896" unicode=""/><glyph d="M862.4 896c-129.6 0-232-84.8-276.8-243.2C633.6 675.2 720 688 728 608c6.4-80-113.6-284.8-166.4-284.8s-91.2 232-105.6 337.6c-12.8 107.2-38.4 224-137.6 224C217.6 884.8 89.6 728 0 657.6l46.4-64s67.2 52.8 89.6 48c60.8-16 112-262.4 139.2-356.8S334.4 0 465.6 0C675.2 0 1024 521.6 1024 692.8c0 112-32 203.2-161.6 203.2z" unicode=""/><glyph d="M921.6 454.4c-17.6-4.8-36.8-8-56-9.6-92.8-8-172.8 19.2-224 100.8-30.4 49.6-40 105.6-36.8 163.2 1.6 22.4 6.4 44.8 17.6 65.6 11.2 19.2 27.2 30.4 49.6 32 32 1.6 56-19.2 64-59.2 11.2-51.2 3.2-100.8-9.6-148.8-1.6-4.8-4.8-16-4.8-16s6.4-8 11.2-12.8C766.4 536 808 528 854.4 531.2c6.4 0 17.6 1.6 17.6 1.6s4.8 11.2 6.4 16c24 67.2 35.2 136 27.2 206.4C896 856 841.6 944 712 958.4c-115.2 11.2-211.2-41.6-251.2-152-22.4-64-24-128-12.8-193.6 19.2-108.8 70.4-198.4 169.6-256 9.6-6.4 9.6-9.6 4.8-19.2-40-76.8-88-147.2-145.6-211.2-25.6-27.2-24-27.2-48 3.2-118.4 148.8-182.4 321.6-219.2 505.6-9.6 51.2-17.6 100.8-24 152l-1.6 17.6H8l1.6-9.6c22.4-158.4 56-315.2 115.2-464C168 220.8 224 118.4 304 28.8c25.6-28.8 54.4-54.4 88-75.2 38.4-24 75.2-22.4 112 3.2 11.2 8 20.8 16 30.4 24 100.8 91.2 184 198.4 246.4 321.6 4.8 9.6 9.6 14.4 20.8 14.4 25.6 0 51.2 3.2 76.8 8 14.4 3.2 30.4 4.8 44.8 9.6v120z" horiz-adv-x="928" unicode=""/><glyph d="M500.8 158.4h60.8s17.6 0 27.2 12.8c8 9.6 8 27.2 8 27.2s-1.6 81.6 36.8 94.4c36.8 11.2 84.8-80 137.6-115.2 33.6-22.4 68.8-19.2 68.8-19.2h136c9.6 0 68.8 8 38.4 62.4-3.2 4.8-19.2 41.6-102.4 118.4-86.4 80-73.6 67.2 28.8 204.8 62.4 83.2 86.4 134.4 80 156.8-4.8 17.6-54.4 14.4-54.4 14.4H812.8s-11.2 1.6-19.2-3.2-12.8-16-12.8-16-24-65.6-57.6-120c-68.8-116.8-96-123.2-107.2-115.2-25.6 17.6-19.2 67.2-19.2 104 0 113.6 17.6 160-33.6 172.8-16 4.8-28.8 6.4-72 6.4-54.4 0-100.8 0-128-12.8-17.6-8-30.4-27.2-22.4-28.8 9.6-1.6 33.6-6.4 44.8-22.4 16-20.8 16-70.4 16-70.4s9.6-132.8-20.8-148.8C360 449.6 331.2 472 270.4 577.6 238.4 632 216 691.2 216 691.2s-4.8 11.2-12.8 17.6c-12.8 9.6-24 9.6-24 9.6H33.6S11.2 720 3.2 707.2c-6.4-11.2 0-25.6 0-25.6S118.4 412.8 248 278.4c118.4-129.6 252.8-120 252.8-120z" unicode=""/><glyph d="M1024 265.6c0 150.4-142.4 272-320 272-176 0-320-121.6-320-272s142.4-272 320-272c56 0 107.2 12.8 153.6 33.6L984-27.2l-14.4 140.8c33.6 43.2 54.4 96 54.4 152zm-427.2 73.6c-25.6 0-44.8 20.8-44.8 44.8 0 25.6 20.8 44.8 44.8 44.8 25.6 0 44.8-20.8 44.8-44.8 0-25.6-19.2-44.8-44.8-44.8zm216 0c-25.6 0-44.8 20.8-44.8 44.8 0 25.6 20.8 44.8 44.8 44.8 25.6 0 44.8-20.8 44.8-44.8 0-25.6-20.8-44.8-44.8-44.8zM704 572.8c49.6 0 96-9.6 139.2-24 0 6.4 1.6 11.2 1.6 17.6 0 196.8-188.8 356.8-422.4 356.8S0 763.2 0 564.8c0-75.2 27.2-144 72-201.6L52.8 177.6l166.4 72c41.6-19.2 86.4-32 134.4-38.4-3.2 17.6-6.4 35.2-6.4 54.4 1.6 169.6 161.6 307.2 356.8 307.2zM564.8 782.4c33.6 0 60.8-27.2 60.8-60.8s-27.2-60.8-60.8-60.8c-33.6 0-60.8 27.2-60.8 60.8s27.2 60.8 60.8 60.8zM280 662.4c-33.6 0-59.2 27.2-59.2 60.8S248 784 280 784c33.6 0 60.8-27.2 60.8-60.8s-27.2-60.8-60.8-60.8z" unicode=""/><glyph d="M769.6 464c-14.4 4.8-24 8-16 25.6 16 41.6 17.6 76.8 0 102.4-33.6 48-124.8 44.8-228.8 1.6 0 0-32-14.4-24 11.2 16 51.2 14.4 94.4-11.2 120-56 56-206.4-1.6-336-131.2-96-96-152-198.4-152-288 0-169.6 217.6-272 430.4-272 278.4 0 464 161.6 464 289.6-3.2 78.4-68.8 121.6-126.4 140.8zM430.4 94.4c-169.6-16-315.2 59.2-326.4 171.2s116.8 214.4 286.4 232c169.6 16 315.2-59.2 326.4-171.2s-116.8-216-286.4-232zm523.2 678.4C886.4 848 787.2 876.8 696 856c-20.8-4.8-35.2-25.6-30.4-46.4s25.6-35.2 46.4-30.4c65.6 14.4 136-4.8 184-59.2 48-52.8 60.8-124.8 40-188.8-6.4-20.8 4.8-43.2 25.6-49.6s43.2 4.8 49.6 25.6c28.8 89.6 9.6 192-57.6 265.6zM724.8 720c-17.6-3.2-30.4-22.4-25.6-40 3.2-17.6 22.4-30.4 40-25.6 22.4 4.8 44.8-1.6 60.8-19.2s20.8-41.6 12.8-62.4c-6.4-17.6 3.2-36.8 22.4-43.2 17.6-6.4 36.8 3.2 43.2 22.4 14.4 43.2 4.8 92.8-27.2 129.6-33.6 35.2-81.6 48-126.4 38.4zm126.4-40zM446.4 411.2C366.4 432 275.2 392 240 321.6c-35.2-72-1.6-153.6 80-179.2 84.8-27.2 184 14.4 219.2 92.8 33.6 75.2-8 155.2-92.8 176zm-60.8-185.6c-16-25.6-51.2-38.4-78.4-25.6-25.6 11.2-33.6 41.6-17.6 67.2s49.6 36.8 76.8 25.6c27.2-9.6 35.2-40 19.2-67.2zM440 296c-6.4-9.6-19.2-14.4-28.8-11.2-9.6 4.8-12.8 16-8 25.6 6.4 9.6 19.2 14.4 28.8 11.2 9.6-4.8 12.8-16 8-25.6z" unicode=""/><glyph d="M569.6 748.8c0-3.2 0-4.8 1.6-6.4s3.2-1.6 4.8-1.6h6.4c22.4-1.6 32-8 33.6-11.2 4.8-6.4 8-14.4-4.8-44.8L536 520l-67.2 152c-22.4 48-27.2 65.6 14.4 68.8 6.4 0 4.8 3.2 4.8 8v20.8s0 1.6-3.2 1.6H307.2c-1.6 0-1.6-1.6-1.6-1.6v-20.8c0-4.8 4.8-6.4 12.8-8 32-4.8 30.4-8 62.4-75.2C387.2 654.4 400 624 400 624l70.4-152s8-19.2 20.8-49.6L388.8 196.8c-1.6-3.2-4.8 0-6.4 1.6 0 0-158.4 369.6-204.8 492.8-4.8 12.8-6.4 22.4-6.4 28.8 0 12.8 9.6 19.2 30.4 20.8l32 1.6c6.4 0 17.6 3.2 17.6 8V768s0 3.2-9.6 3.2H6.4c-8 0-6.4-4.8-6.4-4.8v-19.2c0-3.2 4.8-6.4 14.4-8 24-1.6 40-6.4 48-12.8s16-25.6 27.2-52.8c57.6-152 180.8-425.6 241.6-580.8 17.6-41.6 38.4-49.6 65.6 1.6C424 148.8 478.4 272 518.4 361.6c36.8-89.6 88-212.8 112-267.2 19.2-44.8 41.6-48 64-1.6C752 238.4 924.8 672 924.8 672c8 20.8 17.6 38.4 32 49.6 12.8 11.2 33.6 19.2 60.8 19.2 6.4 0 8 3.2 8 8v20.8s0 3.2-3.2 3.2H812.8s-14.4 0-14.4-4.8v-19.2c0-1.6 3.2-3.2 9.6-6.4 3.2-1.6 6.4-3.2 9.6-3.2l19.2-1.6c22.4-1.6 28.8-6.4 36.8-14.4s9.6-22.4 3.2-41.6L686.4 195.2c-1.6-3.2-4.8-1.6-6.4 1.6L561.6 464c1.6 4.8 3.2 6.4 3.2 6.4l96 201.6c11.2 20.8 22.4 40 27.2 48 9.6 16 14.4 19.2 43.2 20.8 6.4 0 8 3.2 8 8v20.8s0 1.6-1.6 1.6h-168z" unicode=""/><glyph d="M0 481.6v332.8l409.6 56V481.6H0zM478.4 880l545.6 80V481.6H478.4V880zM1024 414.4V-64L478.4 12.8v401.6H1024zM409.6 20.8 0 78.4v336h409.6V20.8z" unicode=""/><glyph d="M512 960C230.4 960 0 729.6 0 448S230.4-64 512-64s512 230.4 512 512-230.4 512-512 512zM59.2 448c0 65.6 14.4 128 40 184l216-592c-152 73.6-256 228.8-256 408zM512-4.8c-44.8 0-88 6.4-128 19.2l136 395.2L659.2 27.2c1.6-1.6 1.6-4.8 3.2-6.4C616 3.2 564.8-4.8 512-4.8zm62.4 665.6c27.2 1.6 51.2 4.8 51.2 4.8 24 3.2 20.8 38.4-3.2 36.8 0 0-73.6-6.4-121.6-6.4-44.8 0-120 6.4-120 6.4-24 1.6-27.2-35.2-3.2-36.8 0 0 22.4-3.2 48-4.8L496 467.2l-96-297.6-166.4 491.2c27.2 1.6 51.2 4.8 51.2 4.8 24 3.2 20.8 38.4-3.2 36.8 0 0-73.6-6.4-121.6-6.4h-28.8C214.4 820.8 353.6 900.8 512 900.8c118.4 0 225.6-44.8 305.6-118.4h-6.4c-44.8 0-76.8-38.4-76.8-80 0-36.8 20.8-68.8 44.8-105.6C796.8 566.4 816 528 816 472c0-38.4-14.4-83.2-35.2-147.2L736 174.4 574.4 660.8zM739.2 56l139.2 400c25.6 64 35.2 116.8 35.2 161.6 0 16-1.6 32-3.2 46.4 35.2-64 56-139.2 56-217.6-1.6-164.8-91.2-312-227.2-390.4z" unicode=""/><glyph d="M0 448C0 244.8 118.4 70.4 288-12.8L44.8 656C16 592 0 521.6 0 448zm857.6 25.6c0 64-22.4 107.2-41.6 140.8-25.6 41.6-49.6 78.4-49.6 120 0 46.4 35.2 91.2 86.4 91.2h6.4C766.4 908.8 644.8 960 512 960c-179.2 0-336-91.2-427.2-230.4h33.6c52.8 0 136 6.4 136 6.4 27.2 1.6 30.4-38.4 3.2-41.6 0 0-27.2-3.2-59.2-4.8L384 132.8l112 336L416 688c-27.2 1.6-54.4 4.8-54.4 4.8-27.2 1.6-24 43.2 3.2 41.6 0 0 84.8-6.4 134.4-6.4 54.4 0 136 6.4 136 6.4 27.2 1.6 30.4-38.4 3.2-41.6 0 0-27.2-3.2-59.2-4.8L768 137.6l51.2 171.2c25.6 65.6 38.4 121.6 38.4 164.8zm-336-70.4L368-43.2C414.4-56 462.4-64 512-64c59.2 0 116.8 9.6 169.6 28.8-1.6 1.6-3.2 4.8-3.2 6.4l-156.8 432zm440 291.2c1.6-16 3.2-33.6 3.2-52.8 0-51.2-9.6-110.4-38.4-184L769.6 4.8C921.6 94.4 1024 259.2 1024 448c0 89.6-22.4 172.8-62.4 246.4z" unicode=""/><glyph d="M280 729.6c-8 12.8-19.2 27.2-41.6 27.2H91.2c-9.6 0-16-3.2-20.8-9.6-3.2-6.4-3.2-14.4 1.6-22.4L171.2 552v-1.6L16 275.2c-4.8-8-3.2-16 0-22.4s9.6-9.6 19.2-9.6h147.2c22.4 0 32 14.4 40 28.8 0 0 153.6 272 160 281.6-1.6 0-102.4 176-102.4 176zM880 928c4.8 8 4.8 16 0 22.4-3.2 6.4-9.6 9.6-19.2 9.6H712c-22.4 0-32-14.4-40-28.8 0 0-318.4-564.8-328-582.4 0-1.6 209.6-385.6 209.6-385.6 8-12.8 19.2-28.8 41.6-28.8h147.2c9.6 0 16 3.2 19.2 9.6s3.2 14.4 0 22.4l-208 380.8v1.6L880 928z" horiz-adv-x="896" unicode=""/><glyph d="M432 771.2H0v-54.4h136c52.8-43.2 280-320 288-347.2 3.2-24 8-171.2-1.6-182.4-11.2-17.6-134.4-8-156.8-9.6v-54.4c40-1.6 158.4 0 198.4 0 78.4 0 217.6 1.6 236.8 0l3.2 51.2-160 1.6c-3.2 22.4-6.4 168-3.2 184 14.4 46.4 264 238.4 284.8 243.2s36.8 4.8 36.8 4.8h60.8l12.8 17.6c12.8 17.6 27.2 32 27.2 32l3.2 4.8h-400l16-54.4h108.8L505.6 441.6C468.8 496 380.8 622.4 318.4 716.8H432v54.4zm441.6-521.6 68.8-4.8 80 296c-12.8 0-136 11.2-152 14.4l3.2-305.6zm-11.2-46.4v-72l35.2-3.2 38.4-3.2 11.2 70.4-40 1.6-44.8 6.4z" unicode=""/><glyph d="M764.8 931.2h-128C600 864 467.2 646.4 382.4 507.2 296 649.6 193.6 814.4 128 931.2H0c104-156.8 272-456 328-555.2V-33.6h105.6l1.6 409.6c105.6 187.2 281.6 491.2 329.6 555.2zm259.2-68.8c0 33.6-20.8 52.8-52.8 59.2 0 0-8 1.6-12.8 1.6-30.4 0-60.8-17.6-60.8-64-17.6-230.4-36.8-460.8-68.8-680l48-8C912 393.6 995.2 728 1017.6 822.4c1.6 12.8 6.4 28.8 6.4 40zm-200-776c-40 0-59.2-30.4-59.2-64 0-38.4 30.4-59.2 68.8-59.2 27.2 0 57.6 17.6 57.6 62.4 0 38.4-28.8 60.8-67.2 60.8z" unicode=""/><glyph d="M366.4 507.2c28.8-1.6 51.2 17.6 51.2 52.8s12.8 364.8-14.4 388.8c-27.2 24-134.4 1.6-164.8-8C176 920 105.6 888 104 860.8s233.6-350.4 262.4-353.6zm326.4 200c-24 0-211.2-224-179.2-265.6 19.2-25.6 41.6-22.4 94.4-12.8s222.4 41.6 225.6 84.8c3.2 43.2-99.2 193.6-140.8 193.6zM326.4 377.6c0 28.8-89.6 68.8-89.6 68.8S73.6 516.8 43.2 513.6c-30.4-3.2-41.6-80-44.8-137.6C-8 217.6 68.8 259.2 68.8 259.2s161.6 51.2 193.6 64c32 11.2 64 25.6 64 54.4zm81.6-112c-36.8 3.2-80-64-102.4-89.6S193.6 59.2 192 33.6c0-24 48-51.2 113.6-75.2s140.8-41.6 144 11.2c3.2 52.8 0 200 0 217.6 0 16 1.6 73.6-41.6 78.4zm371.2-16c-35.2 12.8-224 97.6-257.6 60.8-20.8-22.4-8-60.8 14.4-96S638.4 56 638.4 56s14.4-32 40-32 75.2 46.4 100.8 81.6 51.2 76.8 51.2 100.8-16 32-51.2 43.2z" horiz-adv-x="832" unicode=""/><glyph d="M481.6 809.6V604.8c0-17.6 1.6-30.4 4.8-38.4 4.8-12.8 14.4-19.2 30.4-19.2 17.6 0 35.2 11.2 52.8 32v-28.8h48v259.2h-48V611.2c-11.2-14.4-20.8-22.4-30.4-22.4-6.4 0-9.6 3.2-11.2 11.2v209.6h-46.4zm-108.8-264c24 0 41.6 9.6 54.4 27.2 9.6 12.8 14.4 33.6 14.4 60.8v91.2c0 27.2-4.8 48-14.4 60.8-12.8 17.6-32 27.2-54.4 27.2-24 0-41.6-9.6-54.4-27.2-9.6-12.8-14.4-33.6-14.4-60.8v-91.2c0-27.2 4.8-48 14.4-60.8 12.8-17.6 32-27.2 54.4-27.2zm-22.4 188.8c0 24 8 35.2 22.4 35.2s22.4-11.2 22.4-35.2V625.6c0-24-8-36.8-22.4-36.8s-22.4 12.8-22.4 36.8v108.8zM240 548.8v140.8l62.4 208h-52.8l-35.2-136-36.8 136h-54.4c9.6-28.8 20.8-60.8 33.6-97.6 16-48 27.2-84.8 32-110.4V548.8H240zm486.4-81.6c-16 14.4-33.6 22.4-52.8 24-64 6.4-160 11.2-288 11.2s-224-3.2-288-11.2c-20.8-3.2-38.4-11.2-52.8-24-16-14.4-25.6-30.4-30.4-51.2C4.8 376 1.6 315.2 1.6 233.6c0-83.2 4.8-142.4 12.8-182.4C19.2 30.4 28.8 14.4 44.8 0s33.6-22.4 52.8-24c64-8 160-11.2 288-11.2S611.2-32 673.6-24c20.8 1.6 38.4 9.6 52.8 24 16 14.4 25.6 30.4 30.4 51.2 9.6 40 12.8 100.8 12.8 182.4 0 83.2-4.8 142.4-12.8 182.4-4.8 20.8-16 38.4-30.4 51.2zm-507.2-104h-56v-296h-52.8v296H56v49.6h161.6v-49.6h1.6zm139.2-296H312V96c-19.2-20.8-36.8-32-52.8-32s-25.6 6.4-30.4 19.2c-3.2 8-4.8 20.8-4.8 38.4v203.2h48V118.4c1.6-8 4.8-11.2 11.2-11.2 9.6 0 19.2 8 30.4 22.4v195.2H360l-1.6-257.6zM536 145.6c0-25.6-1.6-43.2-4.8-51.2-6.4-19.2-17.6-28.8-36.8-28.8-16 0-32 9.6-48 28.8V68.8H400v344h46.4V299.2c14.4 19.2 30.4 28.8 48 28.8 19.2 0 30.4-9.6 36.8-28.8 3.2-9.6 4.8-25.6 4.8-51.2V145.6zm176 41.6h-92.8v-44.8c0-24 8-35.2 24-35.2 11.2 0 17.6 6.4 20.8 19.2 0 3.2 1.6 14.4 1.6 32h48V152c0-17.6 0-27.2-1.6-30.4-1.6-9.6-4.8-19.2-11.2-28.8-12.8-17.6-32-27.2-56-27.2s-43.2 9.6-56 27.2c-9.6 12.8-14.4 33.6-14.4 60.8v89.6c0 27.2 4.8 48 14.4 60.8 12.8 17.6 32 27.2 56 27.2s41.6-9.6 54.4-27.2c9.6-12.8 14.4-33.6 14.4-60.8l-1.6-56zm-70.4 99.2c-16 0-24-11.2-24-35.2v-24H664v24c1.6 22.4-6.4 35.2-22.4 35.2zm-172.8 0c-8 0-16-3.2-24-11.2V118.4c8-8 16-11.2 24-11.2 12.8 0 20.8 11.2 20.8 35.2v110.4c0 20.8-6.4 33.6-20.8 33.6z" horiz-adv-x="768" unicode=""/><glyph d="M-6.4 960V-64l844.8 512z" horiz-adv-x="832" unicode=""/><glyph d="M27.2 150.4h32c78.4 0 144-1.6 217.6-40C332.8 81.6 377.6 36.8 432 4.8 483.2-25.6 542.4-57.6 601.6-64c120-14.4 169.6 131.2 148.8 227.2-54.4-43.2-129.6-41.6-198.4-24-64 20.8-168 88-168 88-46.4 28.8-100.8 52.8-155.2 49.6 0 24 0 25.6 16 43.2l62.4 72c64 75.2 129.6 150.4 193.6 225.6 54.4 64 110.4 128 164.8 192 6.4 6.4 25.6 22.4 25.6 30.4l9.6 86.4c1.6 20.8-19.2 16-19.2 16-89.6-17.6-180.8-27.2-272-24-51.2 1.6-104 6.4-152 25.6-1.6 0-11.2 6.4-20.8 11.2-14.4 6.4-22.4 3.2-27.2-1.6-3.2-4.8-8-9.6-11.2-14.4-24-32-46.4-70.4-49.6-112-1.6-9.6-1.6-28.8 3.2-40 0 0 0-1.6 1.6-3.2v-1.6c11.2-16 64-62.4 268.8-22.4-132.8-156.8-267.2-315.2-400-472-8-8-8-22.4-8-22.4V168c3.2-14.4 8-16 12.8-17.6z" horiz-adv-x="768" unicode=""/></font>
</defs>
</svg>
