<?xml version="1.0" encoding="utf-8"?>
<!-- Generator: Adobe Illustrator 16.0.0, SVG Export Plug-In . SVG Version: 6.00 Build 0)  -->
<!DOCTYPE svg PUBLIC "-//W3C//DTD SVG 1.1//EN" "http://www.w3.org/Graphics/SVG/1.1/DTD/svg11.dtd">
<svg version="1.1" id="Layer_1" xmlns:ooo="http://xml.openoffice.org/svg/export"
	 xmlns="http://www.w3.org/2000/svg" xmlns:xlink="http://www.w3.org/1999/xlink" x="0px" y="0px" width="595.275px"
	 height="841.89px" viewBox="0 0 595.275 841.89" enable-background="new 0 0 595.275 841.89" xml:space="preserve">
<g>
	<g id="id2">
		<g id="bg-id2">
		</g>
		<g id="bo-id2">
		</g>
	</g>
</g>
<g>
	<g>
		<g>
			<defs>
				<rect id="SVGID_1_" width="595.275" height="841.89"/>
			</defs>
			<clipPath id="SVGID_2_">
				<use xlink:href="#SVGID_1_"  overflow="visible"/>
			</clipPath>
			<path clip-path="url(#SVGID_2_)" d="M43.144,320.258c-2.069-19.502-3.09-34.894,0-54.396c1.02-4.11,2.041-8.22,2.041-11.31
				C63.666,133.455,166.309,43.115,289.474,41.074c83.14-1.021,151.909,30.784,204.264,96.491
				c30.784,37.956,47.197,83.14,53.349,131.357c1.049,25.682,1.049,25.682,0,48.246c-1.021,5.13-2.041,8.22-2.041,13.351
				c-18.482,120.076-118.035,211.437-239.159,214.527c-101.594,3.061-178.583-41.074-230.938-128.325
				C56.495,386.957,48.274,354.132,43.144,320.258z M64.687,292.536c-2.041,118.035,93.402,231.958,230.938,230.938
				c134.476,0,229.918-108.793,229.918-229.918c0-122.116-96.491-230.938-230.938-230.938
				C157.068,62.617,63.666,175.521,64.687,292.536z"/>
			<path clip-path="url(#SVGID_2_)" d="M376.866,391.181c-21.997,0-42.719-16.214-49.861-36.283
				c-19.418-57.628-38.211-115.937-56.977-174.217c-1.956-6.491,0-7.767,5.839-7.767c23.301,0.652,47.906,20.098,55.02,43.398
				c13.607,42.746,27.213,85.493,40.819,128.239c0.651,1.928,2.579,3.884,3.231,6.463c0.652-1.927,1.928-3.883,2.607-5.811
				c13.578-42.747,27.185-85.493,40.791-128.239c7.115-22.677,31.096-42.095,53.745-43.398c10.375-0.652,11.026,0,7.795,9.694
				c-16.186,51.194-33.704,103.011-50.542,154.828c-3.883,12.926-7.767,25.257-17.461,35.604
				C402.151,384.718,389.849,390.529,376.866,391.181z"/>
			<path clip-path="url(#SVGID_2_)" d="M8.249,324.34c-2.069-22.592-3.09-40.025,0-61.597c1.021-5.13,2.041-9.241,2.041-13.351
				C30.813,111.855,147.827,9.241,288.454,6.151c94.422,0,173.452,35.915,232.979,110.863
				c34.895,43.086,53.377,94.422,60.577,149.839c1.021,28.743,1.021,28.743,0,54.396c-1.049,6.151-2.069,9.241-2.069,15.393
				C559.417,473.16,445.493,576.822,307.956,580.933c-115.994,3.061-204.265-47.227-263.792-146.779
				C23.641,400.28,14.4,363.345,8.249,324.34z M32.882,293.527C30.813,426.982,139.635,557.32,295.625,556.298
				c152.93,0,261.751-124.186,261.751-261.722c0-138.585-109.842-262.771-262.771-262.771
				C137.565,31.805,31.861,160.101,32.882,293.527z"/>
			<path clip-path="url(#SVGID_2_)" d="M207.127,164.41c22.875-0.142,44.476,16.526,52.016,37.304
				c20.579,59.698,40.479,120.076,60.406,180.425c2.069,6.718,0.028,8.079-6.01,8.107c-24.208-0.511-49.89-20.495-57.43-44.646
				c-14.429-44.277-28.857-88.554-43.285-132.831c-0.68-1.984-2.721-3.997-3.401-6.69c-0.652,2.041-1.984,4.054-2.636,6.066
				c-13.805,44.476-27.61,88.951-41.443,133.398c-7.228,23.585-31.975,43.909-55.502,45.439
				c-10.743,0.737-11.423,0.057-8.135-10.034c16.441-53.235,34.243-107.15,51.364-161.037c3.94-13.464,7.88-26.277,17.887-37.105
				C180.964,171.326,193.691,165.175,207.127,164.41z"/>
		</g>
	</g>
</g>
</svg>
