<?xml version="1.0" encoding="utf-8"?>
<!DOCTYPE svg PUBLIC "-//W3C//DTD SVG 1.1//EN" "http://www.w3.org/Graphics/SVG/1.1/DTD/svg11.dtd">
<svg version="1.1" id="brand-logo" xmlns="http://www.w3.org/2000/svg" xmlns:xlink="http://www.w3.org/1999/xlink" x="0px" y="0px"
	 width="130px"
	 height="140px" 
	 viewBox="0 0 590 600" xml:space="preserve">
							<path id="circle" d="M43.172,320.315c-2.069-19.503-3.09-34.923,0-54.426c1.02-4.11,2.041-8.22,2.041-11.31
								C63.694,133.483,166.337,43.144,289.531,41.103c83.14-1.021,151.909,30.784,204.264,96.491
								c30.784,37.956,47.197,83.14,53.349,131.357c1.049,25.682,1.049,25.682,0,48.274c-1.021,5.13-2.041,8.22-2.041,13.351
								C526.62,450.652,427.067,542.013,305.943,545.103c-101.594,3.061-178.611-41.074-230.967-128.325
								C56.523,387.014,48.302,354.189,43.172,320.315z M64.715,292.592c-2.041,118.035,93.402,231.958,230.967,230.938
								c134.476,0,229.918-108.793,229.918-229.918c0-122.145-96.491-230.967-230.938-230.967
								C157.096,62.646,63.694,175.55,64.715,292.592z"/>
							<path id="icon" d="M376.866,391.209c-21.997,0-42.719-16.214-49.861-36.283c-19.418-57.628-38.211-115.965-56.977-174.246
								c-1.956-6.491,0-7.767,5.839-7.767c23.301,0.652,47.906,20.098,55.02,43.398c13.607,42.746,27.213,85.521,40.819,128.267
								c0.651,1.928,2.579,3.884,3.231,6.464c0.652-1.928,1.928-3.884,2.607-5.812c13.578-42.747,27.185-85.521,40.819-128.268
								c7.115-22.677,31.096-42.095,53.745-43.398c10.375-0.652,11.026,0,7.795,9.694c-16.186,51.194-33.704,103.04-50.542,154.856
								c-3.883,12.927-7.767,25.257-17.461,35.604C402.18,384.746,389.849,390.558,376.866,391.209z"/>
							<path id="icon" d="M207.156,164.41c22.875-0.142,44.476,16.526,52.016,37.304c20.579,59.698,40.479,120.104,60.406,180.454
								c2.069,6.718,0.028,8.079-6.01,8.107c-24.208-0.511-49.89-20.495-57.43-44.646c-14.428-44.277-28.857-88.582-43.285-132.859
								c-0.68-1.984-2.721-3.997-3.401-6.69c-0.652,2.041-1.984,4.054-2.636,6.066c-13.805,44.476-27.61,88.979-41.443,133.426
								c-7.228,23.585-32.003,43.909-55.531,45.439c-10.743,0.737-11.423,0.057-8.135-10.034
								c16.441-53.234,34.243-107.178,51.392-161.065c3.94-13.464,7.88-26.277,17.887-37.105
								C180.992,171.326,193.72,165.175,207.156,164.41z"/>
</svg>