<?xml version="1.0" encoding="utf-8"?>
<!-- Generator: Adobe Illustrator 17.1.0, SVG Export Plug-In . SVG Version: 6.00 Build 0)  -->
<!DOCTYPE svg PUBLIC "-//W3C//DTD SVG 1.1//EN" "http://www.w3.org/Graphics/SVG/1.1/DTD/svg11.dtd">
<svg version="1.1" id="checkboard-graph" xmlns="http://www.w3.org/2000/svg"  x="0px"
	 y="0px" viewBox="0 0 857.2935 1010" enable-background="new 0 0 857.2935 1010" xml:space="preserve">
<g id="checkboard-graph-checkboard-graph">
	<g id="checkboard-graph-fill">
		<polyline fill="#F7F8F9" points="603.6216,99.7944 835.8618,99.7944 835.8618,988.5674 21.4326,988.5674 21.4326,99.7944 
			259.7002,99.7944 		"/>
		<polygon fill="#AEBCC4" points="610.4243,107.7896 610.2368,107.4966 610.2368,102.4941 607.1177,102.4941 557.0943,21.4321 
			300.1367,21.4321 250.1558,102.4941 247.1001,102.4941 247.1001,107.4131 246.8491,107.7896 247.1001,107.7896 247.1001,181.1704 
			610.2368,181.1704 610.2368,107.7896 		"/>
	</g>
	<g id="checkboard-graph-line">
		<g>
			<path fill="#43525B" d="M835.8618,1010H21.4326C9.586,1010,0,1000.4141,0,988.5674V99.7944
				c0-11.8462,9.586-21.4326,21.4326-21.4326h238.2676v42.8648H42.8648v845.9082h771.5654V121.2266H603.6216V78.3618h232.2402
				c11.8457,0,21.4317,9.5864,21.4317,21.4326v888.7729C857.2935,1000.4141,847.7075,1010,835.8618,1010L835.8618,1010z"/>
		</g>
		<g>
			<path fill="#43525B" d="M610.2368,202.6025H247.1001c-11.8462,0-21.4321-9.5859-21.4321-21.4321v-70.7646
				c-0.2305-1.8628-0.2515-3.7256,0-5.5674v-2.3443c0-7.9531,4.3325-14.9018,10.7788-18.6064l45.439-73.6948
				C285.7998,3.8511,292.7066,0,300.1367,0h256.9576c7.4316,0,14.3379,3.8511,18.2304,10.1719l45.461,73.6528
				c6.5078,3.6836,10.8828,10.6743,10.8828,18.6694v3.7051c0.0625,1.0044,0.0625,2.0088,0,3.0137v71.9575
				C631.6685,193.0166,622.0825,202.6025,610.2368,202.6025L610.2368,202.6025z M268.5327,159.7383h320.2706v-46.1094
				l-43.6602-70.7642H312.1089l-43.5762,70.6597V159.7383L268.5327,159.7383z"/>
		</g>
		<g>
			<polygon fill="#43525B" points="751.0122,845.9922 72.3345,845.9922 72.3345,803.127 751.0122,803.127 751.0122,845.9922 			"/>
		</g>
		<g>
			<polygon fill="#43525B" points="172.9449,903.7168 130.0806,903.7168 130.0806,225.0396 172.9449,225.0396 172.9449,903.7168 			
				"/>
		</g>
		<g>
			<path fill="#FFAB00" d="M235.4839,758.3369c-3.9765,0-8.0161-1.1094-11.6162-3.4326
				c-9.9414-6.4248-12.7881-19.6953-6.3628-29.6367c23.8814-36.9414,84.4531-122.9014,131.1055-122.9014
				c26.4765,0,43.4101,26.874,59.7773,52.8692c6.5713,10.4238,17.2871,27.4394,23.3784,31.7724
				c27.125-8.7695,25.8692-94.918,24.9278-158.2314c-1.3828-94.4151-2.6797-183.5772,53.1836-207.4795
				c36.1035-15.4253,61.2402,26.2041,83.5097,62.79c9.8789,16.2002,28.2344,46.3389,37.0254,48.7041
				c21.0567-1.9668,52.8477-102.6616,64.5059-207.27c1.3398-11.7417,11.8262-20.0718,23.6934-18.9204
				c11.7637,1.3183,20.2188,11.9297,18.92,23.6924c-7.9942,71.6645-34.1778,239.0215-104.2735,245.1543
				c-32.6718,2.8037-54.9414-33.6983-76.4765-69.0489c-9.0645-14.9023-23.8828-39.2226-32.1504-44.6435
				c-27.2715,15.7392-26.0567,99.083-25.0742,166.3935c1.4453,97.7852,2.8046,190.1495-62.3907,201.5772
				c-29.0512,5.0234-48.2651-25.0322-65.0512-51.6338c-7.1787-11.4277-19.2354-30.5586-25.2207-33.1328
				c-13.1651,0.3769-58.4996,49.625-93.3897,103.583C249.4024,754.8838,242.5166,758.3369,235.4839,758.3369L235.4839,758.3369z"/>
		</g>
	</g>
</g>
</svg>
