<?xml version="1.0" encoding="utf-8"?>
<!-- Generator: Adobe Illustrator 17.1.0, SVG Export Plug-In . SVG Version: 6.00 Build 0)  -->
<!DOCTYPE svg PUBLIC "-//W3C//DTD SVG 1.1//EN" "http://www.w3.org/Graphics/SVG/1.1/DTD/svg11.dtd">
<svg version="1.1" id="glasses" xmlns="http://www.w3.org/2000/svg"  x="0px" y="0px"
	 viewBox="0 0 1010 935.4771" enable-background="new 0 0 1010 935.4771" xml:space="preserve">
<g id="glasses-glasses">
	<g id="glasses-fill">
		<path fill="#AEBCC4" d="M579.543,710.0366c0,113.2188,91.7977,205.0361,205.0165,205.0361
			c113.2588,0,205.0361-91.8174,205.0361-205.0361c0-113.2587-91.7773-205.0361-205.0361-205.0361
			C671.3408,505.0005,579.543,596.7779,579.543,710.0366z"/>
		<path fill="#AEBCC4" d="M20.4043,710.0366c0,113.2188,91.7881,205.0361,205.0264,205.0361
			c113.2285,0,205.0371-91.8174,205.0371-205.0361c0-113.2587-91.8086-205.0361-205.0371-205.0361
			C112.1924,505.0005,20.4043,596.7779,20.4043,710.0366z"/>
	</g>
	<g>
		<path fill="#43525B" d="M933.6641,0v40.8081c19.588,0,35.5273,15.9405,35.5273,35.5279v504.7212
			c-40.8076-58.2237-108.2764-96.461-184.6318-96.461c-90.3438,0-168.2539,53.5606-204.1602,130.4942H429.6206
			c-35.9263-76.9336-113.8262-130.4942-204.1899-130.4942c-76.3457,0-143.8243,38.2373-184.6226,96.461V76.336
			c0-19.5874,15.9307-35.5279,35.5078-35.5279V0C34.2324,0,0,34.2525,0,76.336v633.7006
			C0,834.354,101.1235,935.4771,225.4307,935.4771c124.3076,0,225.4409-101.1231,225.4409-225.4405
			c0-18.6904-2.5405-36.7626-6.8447-54.1376h121.9458c-4.3038,17.375-6.834,35.4472-6.834,54.1376
			c0,124.3174,101.123,225.4405,225.4209,225.4405C908.877,935.4771,1010,834.354,1010,710.0366V76.336
			C1010,34.2525,975.7676,0,933.6641,0z M225.4307,894.6695c-101.8008,0-184.6226-82.8311-184.6226-184.6329
			c0-101.8007,82.8218-184.6328,184.6226-184.6328c101.811,0,184.6328,82.8321,184.6328,184.6328
			C410.0635,811.8384,327.2417,894.6695,225.4307,894.6695z M784.5596,894.6695c-101.7813,0-184.6123-82.8311-184.6123-184.6329
			c0-101.8007,82.831-184.6328,184.6123-184.6328c101.8213,0,184.6318,82.8321,184.6318,184.6328
			C969.1914,811.8384,886.3809,894.6695,784.5596,894.6695z"/>
		<path fill="#43525B" d="M784.5596,577.8091v40.8086c50.4326,0,91.4599,41.0068,91.4599,91.4189h40.8076
			C916.8271,637.1275,857.4883,577.8091,784.5596,577.8091z"/>
		<path fill="#43525B" d="M225.4307,577.8091v40.8086c50.4023,0,91.3999,41.0068,91.3999,91.4189h40.8081
			C357.6387,637.1275,298.3296,577.8091,225.4307,577.8091z"/>
	</g>
</g>
</svg>
