<svg xmlns="http://www.w3.org/2000/svg" xml:space="preserve" fill="#e3b673" viewBox="0 0 50 50"><path d="M.2 27.4c-.2-1.9-.3-3.4 0-5.3.1-.4.2-.8.2-1.1C2.2 9.1 12.3.2 24.3 0c8.2-.1 14.9 3 20.1 9.4 3 3.8 4.6 8.2 5.3 12.9.1 2.5.1 2.5 0 4.7-.1.5-.2.8-.2 1.3C47.7 40.2 37.9 49.1 26 49.5c-10 .3-17.5-4-22.7-12.6C1.5 34 .7 30.7.2 27.4zm2.1-2.7c-.2 11.6 9.2 22.7 22.6 22.7 13.2 0 22.6-10.7 22.6-22.6 0-12-9.4-22.7-22.6-22.7-13.5 0-22.7 11.2-22.6 22.6z"/><path d="M31.8 23.4c-.2-.3-.6-.3-.9-.1l-6 5-6-5c-.3-.2-.7-.2-.9.1-.2.3-.2.7.1.9l6.5 5.4c.1.1.3.1.4.1.1 0 .3 0 .4-.1l6.5-5.4c0-.3.1-.7-.1-.9z" class="st0"/></svg>