 <svg version="1.1" xmlns="http://www.w3.org/2000/svg" xmlns:xlink="http://www.w3.org/1999/xlink" x="50%" y="50%"
      	 width="200px"
      	 height="200px" fill="#e3b673"
      	 viewBox="0 0 600 600" xml:space="preserve">
      							<path id="icon" class="iconA" d="M376.866,391.209c-21.997,0-42.719-16.214-49.861-36.283c-19.418-57.628-38.211-115.965-56.977-174.246
      								c-1.956-6.491,0-7.767,5.839-7.767c23.301,0.652,47.906,20.098,55.02,43.398c13.607,42.746,27.213,85.521,40.819,128.267
      								c0.651,1.928,2.579,3.884,3.231,6.464c0.652-1.928,1.928-3.884,2.607-5.812c13.578-42.747,27.185-85.521,40.819-128.268
      								c7.115-22.677,31.096-42.095,53.745-43.398c10.375-0.652,11.026,0,7.795,9.694c-16.186,51.194-33.704,103.04-50.542,154.856
      								c-3.883,12.927-7.767,25.257-17.461,35.604C402.18,384.746,389.849,390.558,376.866,391.209z"/>
      							<path id="icon" class="iconV" d="M207.156,164.41c22.875-0.142,44.476,16.526,52.016,37.304c20.579,59.698,40.479,120.104,60.406,180.454
      								c2.069,6.718,0.028,8.079-6.01,8.107c-24.208-0.511-49.89-20.495-57.43-44.646c-14.428-44.277-28.857-88.582-43.285-132.859
      								c-0.68-1.984-2.721-3.997-3.401-6.69c-0.652,2.041-1.984,4.054-2.636,6.066c-13.805,44.476-27.61,88.979-41.443,133.426
      								c-7.228,23.585-32.003,43.909-55.531,45.439c-10.743,0.737-11.423,0.057-8.135-10.034
      								c16.441-53.234,34.243-107.178,51.392-161.065c3.94-13.464,7.88-26.277,17.887-37.105
      								C180.992,171.326,193.72,165.175,207.156,164.41z"/>
      </svg>