<svg xmlns="http://www.w3.org/2000/svg" xml:space="preserve" width="200" height="200" x="50%" y="50%" fill="#e3b673" viewBox="0 0 600 600"><path d="M376.866 391.209c-21.997 0-42.719-16.214-49.861-36.283-19.418-57.628-38.211-115.965-56.977-174.246-1.956-6.491 0-7.767 5.839-7.767 23.301.652 47.906 20.098 55.02 43.398 13.607 42.746 27.213 85.521 40.819 128.267.651 1.928 2.579 3.884 3.231 6.464.652-1.928 1.928-3.884 2.607-5.812a113179.85 113179.85 0 0 1 40.819-128.268c7.115-22.677 31.096-42.095 53.745-43.398 10.375-.652 11.026 0 7.795 9.694-16.186 51.194-33.704 103.04-50.542 154.856-3.883 12.927-7.767 25.257-17.461 35.604-9.72 11.028-22.051 16.84-35.034 17.491z" class="iconA"/><path d="M207.156 164.41c22.875-.142 44.476 16.526 52.016 37.304 20.579 59.698 40.479 120.104 60.406 180.454 2.069 6.718.028 8.079-6.01 8.107-24.208-.511-49.89-20.495-57.43-44.646-14.428-44.277-28.857-88.582-43.285-132.859-.68-1.984-2.721-3.997-3.401-6.69-.652 2.041-1.984 4.054-2.636 6.066-13.805 44.476-27.61 88.979-41.443 133.426-7.228 23.585-32.003 43.909-55.531 45.439-10.743.737-11.423.057-8.135-10.034 16.441-53.234 34.243-107.178 51.392-161.065 3.94-13.464 7.88-26.277 17.887-37.105 10.006-11.481 22.734-17.632 36.17-18.397z" class="iconV"/></svg>