<svg xmlns="http://www.w3.org/2000/svg" width="128" height="128" fill="#ccc" class="iconic-pen injected-svg iconic iconic-lg iconic-main"><g class="iconic-pen-lg iconic-container iconic-lg" data-height="128" data-width="128"><path d="m112.011 26.012-9.998-9.998L118.01.017l9.998 9.998z" class="iconic-pen-button iconic-property-accent iconic-property-fill"/><path d="M38 100 28 90l-16 16v6l-6 6 4 4 6-6h6z" class="iconic-pen-body iconic-pen-body-bottom iconic-property-fill"/><path d="m100.009 44.004-61.99 61.99L22.02 89.999l61.99-61.99z" class="iconic-pen-body iconic-pen-body-middle iconic-property-fill"/><path d="M118.012 25.991 106.013 37.99 90.016 21.992l11.999-11.998z" class="iconic-pen-body-top iconic-property-accent iconic-property-fill"/><path d="M88 16 50 54v4l34-34 20 20 6-6z" class="iconic-pen-clip iconic-property-accent iconic-property-fill"/><path d="m8 124-4-4-4 4v4l3.997-.003z" class="iconic-pen-head iconic-property-accent iconic-property-fill"/></g></svg>