<svg xmlns="http://www.w3.org/2000/svg" viewBox="0 0 893.5173 1010" xml:space="preserve">
  <path fill="#FFAB00" d="M513.8181 505c0 37.0391-30.039 67.0762-67.0683 67.0762-37.0386 0-67.0674-30.0371-67.0674-67.0762 0-37.0298 30.0288-67.0679 67.0674-67.0679 37.0292 0 67.0683 30.0381 67.0683 67.0679z"/>
	<path fill="#78909C" d="M128.1901 404.4033c0 27.7652-22.5513 50.2984-50.3164 50.2984-27.7656 0-50.2983-22.5332-50.2983-50.2984 0-27.7749 22.5327-50.3076 50.2983-50.3076 27.7651 0 50.3164 22.5327 50.3164 50.3076zM597.6091 873.8486c0 27.8018-22.5059 50.3262-50.2715 50.3262-27.7832 0-50.3076-22.5244-50.3076-50.3262 0-27.7469 22.5244-50.289 50.3076-50.289 27.7656 0 50.2715 22.542 50.2715 50.289zM765.318 236.7388c0 27.7651-22.5605 50.289-50.3066 50.289-27.7842 0-50.3262-22.5239-50.3262-50.289 0-27.7837 22.542-50.2984 50.3262-50.2984 27.7461 0 50.3066 22.5147 50.3066 50.2984z"/>
	<path fill="#43525B" d="M741.4196 505c109.7061-94.0176 178.1211-191.0864 142.6758-252.5278-16.6035-28.7456-52.25-42.7569-105.2881-42.0967-10.3916-25.0347-35.0596-42.7022-63.7959-42.7022-36.8193 0-66.7285 29.021-68.708 65.3453-16.9707 4.8657-34.3818 10.3818-52.2686 16.6679C567.4606 107.7168 517.611 0 446.7497 0c-70.898 0-120.7564 107.7715-147.3213 249.7969-136.2793-48.0078-254.5527-58.7105-290.0244 2.6938-16.2193 28.0952-11.1978 64.9419 14.4599 109.3936-9.2827 11.7568-15.0556 26.4092-15.0556 42.519 0 38.083 30.9819 69.065 69.0654 69.065 11.2437 0 21.708-2.96 31.1006-7.7432 13.397 13.0581 27.6191 26.1802 42.9311 39.3296-25.9785 22.3408-49.7119 44.6992-70.0551 66.6914-72.3731 78.293-97.4258 142.5117-72.4649 185.7637 16.2652 28.1679 50.8487 42.4083 101.7149 42.4083 27.2246 0 59.1323-4.0684 95.3735-12.2794 29.2773-6.6348 60.5708-16.0362 92.9639-27.3984C326.0119 902.2559 375.861 1010 446.7497 1010c23.083 0 56.2734-12.4805 88.2168-68.3232 4.0322.7334 8.1377 1.2646 12.3711 1.2646 38.0644 0 69.037-31.0098 69.037-69.0928 0-25.2548-13.7997-47.1728-34.1055-59.2137 4.3438-17.3555 8.3379-35.5 11.8936-54.4317 70.54 24.8329 136.3164 39.7696 188.2002 39.752 48.3095 0 84.6523-12.8661 101.7509-42.4453C919.5407 696.0771 851.1442 599.0176 741.4196 505zm-26.4082-299.793c17.3926 0 31.541 14.1485 31.541 31.5318s-14.1484 31.5224-31.541 31.5224c-17.4111 0-31.5596-14.1391-31.5596-31.5224s14.1485-31.5318 31.5596-31.5318zm-60.3515 64.4746c11.748 21.3965 34.2538 36.1133 60.3516 36.1133 34.3076 0 62.6406-25.209 67.9561-58.0327 35.7011.165 59.8378 8.2564 68.6347 23.4863 20.874 36.2046-31.3027 118.1631-139.3037 209.6333-30.8623-24.7231-64.2178-48.9975-98.9844-72.0986-2.6201-41.6113-6.9453-82.5815-12.9199-121.627 18.6386-6.6801 36.6718-12.3891 54.2656-17.4746zM512.7907 619.415c-22.0654 12.7373-44.1133 24.5772-66.0684 35.8662-21.6626-11.1425-43.6181-22.9082-66.0503-35.8476-22.0014-12.7188-43.4077-25.9141-64.2636-39.3662-1.1548-24.2285-1.7686-49.2812-1.7686-75.0674 0-25.7681.6138-50.8115 1.7686-75.0308 20.81-13.4062 42.1518-26.6201 64.2636-39.3847 21.9283-12.6641 44.0123-24.5855 66.0503-35.9024 21.6621 11.1612 43.6182 22.9268 66.0684 35.8843 22.5059 12.9937 43.7285 26.1709 64.291 39.3936 1.1553 24.2192 1.7598 49.2631 1.7598 75.04 0 25.3281-.7149 50.3984-1.9424 75.1406-20.4892 13.1778-41.6572 26.3174-64.1084 39.2744zm61.1582 7.0928c-2.3096 28.4805-5.3887 56.2637-9.2559 82.8565-24.5029-9.7686-49.9775-20.9112-76.2773-33.4102 14.3691-7.7158 28.7734-15.7246 43.1426-24.0264 14.2217-8.2109 28.3701-16.7148 42.3906-25.4199zm-168.8198 49.3731c-25.9507 12.3154-51.4986 23.4589-76.5152 33.3916-3.7934-26.1339-6.9365-53.7715-9.2548-82.8741 13.9741 8.6866 28.1318 17.2266 42.5459 25.5469 14.2216 8.2109 28.6821 16.1641 43.2241 23.9356zM277.9308 554.4463c-23.4951-16.2373-45.9458-32.7686-67.0127-49.4097 21.0577-16.6499 43.4351-33.1626 67.0127-49.4277-.5405 16.4756-.8247 32.9702-.8247 49.3911 0 16.4395.2842 32.9512.8247 49.4463zm41.4375-170.9268c2.3184-29.1216 5.4707-56.8047 9.2735-82.957 24.5581 9.7773 50.1152 20.957 76.5151 33.5107-14.4512 7.7525-28.8926 15.7061-43.2519 23.9991-14.4322 8.33-28.6172 16.8242-42.5367 25.4472zm168.9751-49.4643c25.877-12.2608 51.4981-23.5044 76.4961-33.4561 3.8125 26.1709 6.9649 53.854 9.2735 82.9844-14.0567-8.7417-28.2598-17.2822-42.5547-25.5293-14.2227-8.2197-28.6641-16.2192-43.2149-23.999zm127.2071 121.4985c24.0273 16.5674 46.4589 33.0801 67.1875 49.4463-20.7286 16.3574-43.1602 32.8789-67.2051 49.4463.5127-16.3838.8418-32.8604.8418-49.4463 0-16.4395-.293-32.9521-.8242-49.4463zm-168.8008-418.02c41.7763 0 86.7324 85.9624 111.9512 225.2749-36.4346 14.1943-74.0411 30.936-111.9512 49.7944-37.4053-18.5556-75.1221-35.3159-111.9776-49.6933 25.2085-139.3677 70.1739-225.376 111.9776-225.376zM46.342 404.4033c0-17.3926 14.1484-31.541 31.5317-31.541 17.3921 0 31.5498 14.1484 31.5498 31.541 0 17.3828-14.1577 31.5313-31.5498 31.5313-17.3833 0-31.5317-14.1485-31.5317-31.5313zm90.2881 35.8565c6.4233-10.4829 10.3271-22.6797 10.3271-35.8565 0-38.0835-30.9912-69.0747-69.0835-69.0747-8.2842 0-16.1372 1.7046-23.5044 4.3892-16.3935-29.6162-20.9297-53.771-12.4531-68.46 20.8926-36.2143 117.9614-31.999 251.1894 15.8159-5.9746 39.0088-10.2998 79.9605-12.9296 121.5357-35.4629 23.4673-68.5245 47.6865-98.9839 72.1074-15.9536-13.5347-30.7163-27.0322-44.562-40.457zm61.5508 310.7617c-82.6269 18.7119-141.0625 14.1113-156.2832-12.2793-15.248-26.3906 9.9976-79.3008 67.5074-141.502 20.6728-22.3593 45.0112-45.1406 71.8237-67.9023 30.4316 24.3935 63.7046 48.5303 98.938 71.916 2.6211 41.5469 6.9458 82.4707 12.9023 121.4707-33.1812 11.8389-65.1431 21.5527-94.8882 28.2969zm349.1567 154.3867c-17.3926 0-31.541-14.1484-31.541-31.5596 0-17.374 14.1484-31.5224 31.541-31.5224 17.374 0 31.5039 14.1484 31.5039 31.5224.0001 17.4112-14.1299 31.5596-31.5039 31.5596zm-1.3203-100.4687c-37.459.7324-67.7539 31.3027-67.7539 68.9091 0 20.3428 8.998 38.4678 23.0371 51.132-17.8692 30.6982-36.9024 47.4863-54.5508 47.4863-41.7945 0-86.7505-85.9727-111.9595-225.2939 36.416-14.1669 73.9771-30.7159 112.0786-49.7031 37.2949 18.5108 74.9024 35.2432 111.666 49.5752-3.6836 20.2508-7.917 39.4569-12.5175 57.8944zm305.5849-66.1973c-20.9111 36.1777-117.9345 31.9629-251.1162-15.7979 5.9004-38.5966 10.208-79.5029 12.8281-121.7275 34.7666-23.1104 68.1221-47.375 98.9844-72.0986 108.001 91.4697 160.1777 173.4101 139.3037 209.624z"/>
</svg>