<svg xmlns="http://www.w3.org/2000/svg" viewBox="0 0 857.2935 1010" xml:space="preserve">
  <path fill="#F7F8F9" d="M603.6216 99.7944h232.2402v888.773H21.4326V99.7944h238.2676"/>
	<path fill="#AEBCC4" d="m610.4243 107.7896-.1875-.293v-5.0025h-3.1191l-50.0234-81.062H300.1367l-49.9809 81.062h-3.0557v4.919l-.251.3765h.251v73.3808h363.1367v-73.3808z"/>
	<path fill="#43525B" d="M835.8618 1010H21.4326C9.586 1010 0 1000.4141 0 988.5674V99.7944c0-11.8462 9.586-21.4326 21.4326-21.4326h238.2676v42.8648H42.8648v845.9082h771.5654V121.2266H603.6216V78.3618h232.2402c11.8457 0 21.4317 9.5864 21.4317 21.4326v888.7729c0 11.8468-9.586 21.4327-21.4317 21.4327z"/>
	<path fill="#43525B" d="M610.2368 202.6025H247.1001c-11.8462 0-21.4321-9.5859-21.4321-21.4321v-70.7646c-.2305-1.8628-.2515-3.7256 0-5.5674v-2.3443c0-7.9531 4.3325-14.9018 10.7788-18.6064l45.439-73.6948C285.7998 3.8511 292.7066 0 300.1367 0h256.9576c7.4316 0 14.3379 3.8511 18.2304 10.1719l45.461 73.6528c6.5078 3.6836 10.8828 10.6743 10.8828 18.6694v3.7051c.0625 1.0044.0625 2.0088 0 3.0137v71.9575c0 11.8462-9.586 21.4321-21.4317 21.4321zm-341.7041-42.8642h320.2706v-46.1094l-43.6602-70.7642H312.1089l-43.5762 70.6597v46.2139zM751.0122 845.9922H72.3345V803.127h678.6777v42.8652z"/>
	<path fill="#43525B" d="M172.9449 903.7168h-42.8643V225.0396h42.8643v678.6772z"/>
	<path fill="#FFAB00" d="M235.4839 758.3369c-3.9765 0-8.0161-1.1094-11.6162-3.4326-9.9414-6.4248-12.7881-19.6953-6.3628-29.6367 23.8814-36.9414 84.4531-122.9014 131.1055-122.9014 26.4765 0 43.4101 26.874 59.7773 52.8692 6.5713 10.4238 17.2871 27.4394 23.3784 31.7724 27.125-8.7695 25.8692-94.918 24.9278-158.2314-1.3828-94.4151-2.6797-183.5772 53.1836-207.4795 36.1035-15.4253 61.2402 26.2041 83.5097 62.79 9.8789 16.2002 28.2344 46.3389 37.0254 48.7041 21.0567-1.9668 52.8477-102.6616 64.5059-207.27 1.3398-11.7417 11.8262-20.0718 23.6934-18.9204 11.7637 1.3183 20.2188 11.9297 18.92 23.6924-7.9942 71.6645-34.1778 239.0215-104.2735 245.1543-32.6718 2.8037-54.9414-33.6983-76.4765-69.0489-9.0645-14.9023-23.8828-39.2226-32.1504-44.6435-27.2715 15.7392-26.0567 99.083-25.0742 166.3935 1.4453 97.7852 2.8046 190.1495-62.3907 201.5772-29.0512 5.0234-48.2651-25.0322-65.0512-51.6338-7.1787-11.4277-19.2354-30.5586-25.2207-33.1328-13.1651.3769-58.4996 49.625-93.3897 103.583-4.1026 6.3418-10.9884 9.7949-18.0211 9.7949z"/>
</svg>