<?xml version="1.0" encoding="utf-8"?>
<!-- Generator: Adobe Illustrator 17.1.0, SVG Export Plug-In . SVG Version: 6.00 Build 0)  -->
<!DOCTYPE svg PUBLIC "-//W3C//DTD SVG 1.1//EN" "http://www.w3.org/Graphics/SVG/1.1/DTD/svg11.dtd">
<svg version="1.1" id="beaker-atom" xmlns="http://www.w3.org/2000/svg"  x="0px"
	 y="0px" viewBox="0 0 638.6011 1010" enable-background="new 0 0 638.6011 1010" xml:space="preserve">
<g id="beaker-atom-beaker-atom">
	<g id="beaker-atom-atom">
		<g id="beaker-atom-fill_1_">
			<path fill="#EBEEF0" d="M437.9861,169.1211c0,65.543-53.125,118.6685-118.6865,118.6685
				c-65.561,0-118.6865-53.1255-118.6865-118.6685c0-65.561,53.1255-118.6865,118.6865-118.6865
				C384.8611,50.4346,437.9861,103.5601,437.9861,169.1211z"/>
			<path fill="#FFAB00" d="M348.1717,169.103c0,15.9449-12.9453,28.8535-28.8721,28.8535
				c-15.9267,0-28.8716-12.9086-28.8716-28.8535c0-15.9267,12.9449-28.8354,28.8716-28.8354
				C335.2264,140.2676,348.1717,153.1763,348.1717,169.103z"/>
		</g>
		<path fill="#43525B" d="M485.6756,13.627C479.8758,7.4087,469.0399,0,450.3494,0c-32.1074,0-80.1601,22.7808-131.0678,60.5249
			C268.4105,22.7808,220.3758,0,188.2498,0c-18.6904,0-29.5263,7.4087-35.3262,13.6177
			c-29.144,31.1987,1.273,94.3603,51.7256,155.5034c-16.436,19.9448-30.3442,39.6621-40.9077,58.189
			c-31.8535,55.8886-23.4717,83.7514-10.8359,97.269c5.7998,6.2183,16.6538,13.627,35.3442,13.627c0,0,0,0,0.0181,0
			c32.0898,0,80.1245-22.772,131.0137-60.4981c50.9253,37.7261,98.9419,60.4981,131.0317,60.4981
			c18.708,0,29.5439-7.418,35.29-13.5997c5.5078-5.8725,11.9444-16.4995,11.3633-33.8261
			c-1.0371-30.6533-24.5088-74.9063-63.0527-121.668C484.3846,107.9687,514.8201,44.7983,485.6756,13.627z M450.3494,37.2349
			c4.7451,0,7.3272,0.9638,8.1094,1.809c6.7813,7.2544-5.9453,47.2349-49.5254,101.7149
			c-10.2187-10.918-21.0908-21.854-32.6719-32.6719c-8.7998-8.227-17.6367-16.081-26.4902-23.5444
			C393.4061,53.5801,430.5867,37.2349,450.3494,37.2349z M384.3699,169.2573c-10.0361,10.8819-21.0898,22.1265-33.4531,33.6807
			c-10.709,10-21.2353,18.9902-31.6352,27.499c-10.3999-8.5088-20.9268-17.499-31.6353-27.499
			c-12.3994-11.5996-23.4902-22.8716-33.5444-33.7988c10.4726-11.3628,21.6538-22.7173,33.5805-33.8531
			c10.691-9.9907,21.1993-18.9721,31.5811-27.4716c10.3809,8.5087,20.8906,17.4902,31.5801,27.4804
			C363.1522,146.7856,374.0799,158.1035,384.3699,169.2573z M180.1229,39.0352c0.7817-0.8365,3.3818-1.8003,8.1269-1.8003
			c19.7627,0,56.9253,16.3359,100.5235,47.3076c-8.854,7.4541-17.7085,15.3174-26.5079,23.5444
			c-11.4726,10.7178-22.3447,21.6631-32.6352,32.6626C186.0682,86.2788,173.3411,46.2891,180.1229,39.0352z M188.2679,300.9712
			c-0.0181,0-0.0181,0-0.0181,0c-4.7451,0-7.3452-0.9639-8.1269-1.8003c-1.8911-2.0361-4.7452-17.0537,15.9809-53.416
			c8.7456-15.3267,20.1631-31.6445,33.5264-48.2803c10.4902,11.2178,21.3994,22.1992,32.5986,32.6719
			c8.8179,8.2358,17.6905,16.0991,26.5445,23.5625C245.157,284.644,208.0125,300.9712,188.2679,300.9712z M459.7498,292.0259
			c0.127,4.0727-0.582,6.3545-1.3457,7.1636c-0.7637,0.8271-3.3457,1.7817-8.0908,1.7817
			c-19.7266,0-56.8897-16.3272-100.5059-47.2715c8.8545-7.4629,17.708-15.3267,26.5264-23.5625
			c11.1641-10.436,22.0537-21.3809,32.5078-32.5625C441.4588,238.2095,459.1131,273.0356,459.7498,292.0259z"/>
	</g>
	<g id="beaker-atom-beaker">
		<g id="beaker-atom-fill">
			<polyline fill="#D6DDE1" points="199.4315,522.0176 199.4315,600.96 18.6194,991.3828 619.9803,991.3828 437.8406,600.96 
				437.8406,522.0176 			"/>
			<polyline fill="#FFAB00" points="149.2147,710.8105 18.6194,991.3828 619.9803,991.3828 490.1658,710.8105 			"/>
			<path fill="#FFD580" d="M419.6961,804.5898c18.5088,0,33.417,14.9444,33.417,33.4532c0,18.4716-14.9082,33.4531-33.417,33.4531
				c-18.5264,0-33.4892-14.9815-33.4892-33.4531C386.2069,819.5342,401.1697,804.5898,419.6961,804.5898z"/>
			<path fill="#FFD580" d="M285.8465,871.4961c18.4717,0,33.4531,14.9805,33.4531,33.4531
				c0,18.4727-14.9814,33.4903-33.4531,33.4903c-18.5088,0-33.4536-15.0176-33.4536-33.4903
				C252.3929,886.4766,267.3377,871.4961,285.8465,871.4961z"/>
			<path fill="#FFD580" d="M218.9398,737.6826c18.5083,0,33.4531,14.9443,33.4531,33.4531
				c0,18.4541-14.9448,33.4541-33.4531,33.4541c-18.5269,0-33.4537-15-33.4537-33.4541
				C185.4861,752.627,200.4129,737.6826,218.9398,737.6826z"/>
		</g>
		<path fill="#43525B" d="M636.8152,983.4189l-178.248-377.1494v-196.248h32.9443c10.2911,0,18.6172-8.336,18.6172-18.6172
			c0-10.2817-8.3261-18.6177-18.6172-18.6177H439.95c-1.1279,0-2.0908,0.4453-3.1631,0.6363
			c-1.0732-0.191-2.0371-0.6363-3.164-0.6363H147.8875c-10.2905,0-18.6172,8.336-18.6172,18.6177
			c0,10.2812,8.3267,18.6172,18.6172,18.6172h32.9263v196.248L1.8021,983.4004c-2.7456,5.7637-2.3272,12.5273,1.0727,17.9277
			c3.418,5.3994,9.3633,8.6719,15.7446,8.6719h601.3609c6.3808,0,12.3086-3.2725,15.7266-8.6543
			C639.1248,995.9648,639.5428,989.2012,636.8152,983.4189z M421.3319,410.0215v185.666H218.0486v-29.0176h64.9976v-37.2344
			h-64.9976v-12.9628h64.9976v-37.2354h-64.9976v-12.9268h64.9976v-37.2348h-64.9976v-19.0542H421.3319z M48.0731,972.7656
			l161.3032-339.8427h220.5923l160.6123,339.8427H48.0731z"/>
	</g>
</g>
</svg>
