<?xml version="1.0" encoding="utf-8"?>
<!-- Generator: Adobe Illustrator 17.1.0, SVG Export Plug-In . SVG Version: 6.00 Build 0)  -->
<!DOCTYPE svg PUBLIC "-//W3C//DTD SVG 1.1//EN" "http://www.w3.org/Graphics/SVG/1.1/DTD/svg11.dtd">
<svg version="1.1" id="cruelty-free-lab" xmlns="http://www.w3.org/2000/svg"  x="0px"
	 y="0px" viewBox="0 0 835.5273 1010" enable-background="new 0 0 835.5273 1010" xml:space="preserve">
<g id="cruelty-free-lab-cruelty-free-lab">
	<g id="cruelty-free-lab-fill">
		<path fill="#EBEEF0" d="M260.206,18.8115c-41.1216,0-79.7725,15.0635-105.9502,41.3418
			c-25.6172,25.7549-39.1279,61.4571-38.9902,103.2959c0.4409,120.7373,89.2329,191.3985,169.437,248.7959
			c62.0083,44.3819,122.9878,100.1445,133.0732,107.7861c10.0855-7.6416,81.2046-71.6894,133.0454-115.2626
			C698.288,280.8252,720.0566,226.8623,720.2773,163.4492c0.1289-41.8388-13.3282-77.541-38.9815-103.2871
			C655.082,33.875,616.4765,18.8115,575.3271,18.8115c-28.0049,0-55.2207,6.8057-78.6885,19.7022
			c-34.3984,18.9394-54.541,46.5771-65.3057,66.4541c-2.6826,4.9775-7.8896,8.082-13.5571,8.082l0,0
			c-5.6763,0-10.8935-3.1045-13.5571-8.082c-10.8111-19.877-30.8804-47.5147-65.2876-66.4541
			C315.4355,25.6172,288.2114,18.8115,260.206,18.8115z"/>
		<path fill="#FFAB00" d="M692.5839,193.6396c61.5488-9.6162,110.6992-10.498,112.7744-10.5351
			c3.5733-0.0274,6.9619,1.626,9.1299,4.4922c2.1221,2.8652,2.8106,6.5849,1.7451,10.0117
			c-0.5781,1.9834-15.1826,48.9189-41.6084,105.334c-35.8769,76.457-74.6191,130.667-115.2168,161.1426
			c-52.374,39.2939-104.7285,35.8222-139.4394,26.0673c-37.0615-10.4794-61.8242-30.0439-62.8623-30.8711
			c-0.7256-0.5781-1.3965-1.2675-1.9844-2.0107c-0.5781-0.7715-1.0098-1.5898-1.3594-2.4619
			c-0.542-1.2305-12.3906-30.4482-12.0781-68.9893c0.2939-36.0605,11.6191-87.3134,63.9922-126.5791
			C546.2568,228.7734,609.1464,206.7012,692.5839,193.6396z"/>
		<path fill="#FFAB00" d="M142.9491,193.6396c-61.5766-9.6162-110.7168-10.498-112.7558-10.5351
			c-3.582-0.0274-6.9624,1.626-9.1299,4.4922c-2.1494,2.8652-2.8105,6.5849-1.7451,10.0117
			c0.5967,1.9834,15.1645,48.9189,41.6084,105.334c35.8769,76.457,74.6377,130.667,115.208,161.1426
			c52.355,39.2939,104.7285,35.8222,139.439,26.0673c37.1074-10.4794,61.852-30.0439,62.8623-30.8711
			c0.7348-0.5781,1.4145-1.2675,1.9931-2.0107c0.5786-0.7715,1.0108-1.5898,1.3965-2.4619
			c0.5049-1.2305,12.3355-30.4482,12.0415-68.9893c-0.2939-36.0605-11.6284-87.3134-64.0107-126.5791
			C289.2949,228.7734,226.3866,206.7012,142.9491,193.6396z"/>
		<path fill="#AEBCC4" d="M477.1757,942.7471V538.1904H356.7499v404.5566c0,26.7383,26.9951,48.4424,60.2178,48.4424
			C450.1991,991.1895,477.1757,969.4854,477.1757,942.7471z"/>
	</g>
	<g>
		<path fill="#43525B" d="M199.0151,176.2617c0.0366,0,0.0639,0,0.0918,0c10.3515,0,18.7651-8.3584,18.811-18.7187
			c0.0366-7.4405,10.5166-25.9668,26.2417-36.9151c6.999-4.8769,17.3965-9.9111,27.436-6.2646
			c9.7359,3.5459,20.5557-1.4785,24.1104-11.251c3.5459-9.7637-1.4878-20.5566-11.2515-24.1113
			c-19.6284-7.1553-41.5991-3.3252-61.7973,10.7558c-24.0464,16.7539-42.2603,45.8155-42.3614,67.6026
			C180.2499,167.7471,188.6264,176.2158,199.0151,176.2617z"/>
		<path fill="#43525B" d="M829.4872,176.2529c-5.6572-7.4863-14.6406-11.959-24.4502-11.959c-0.0097,0-0.0097,0-0.0097,0
			c-3.8116,0.0733-29.7315,0.7159-66.1778,4.4541c0.0459-1.7539,0.2295-3.4716,0.2383-5.2441
			c0.1475-46.9541-15.2285-87.2764-44.4736-116.623C664.9091,17.085,621.4277,0,575.3271,0
			c-31.1836,0-61.5215,7.6152-87.7637,22.0352c-35.5088,19.5556-57.2412,47.1835-69.7876,68.6767
			C405.183,69.21,383.4052,41.5166,347.9784,22.0264C321.7367,7.6152,291.3798,0,260.206,0
			c-46.1275,0-89.6006,17.085-119.2866,46.8906c-29.2456,29.4014-44.6211,69.7237-44.4649,116.668
			c0.0093,1.7734,0.1836,3.4443,0.2295,5.1992c-36.437-3.7383-62.4585-4.3906-66.5825-4.4639
			c-9.3872,0-18.3794,4.4639-24.0835,12.0137c-5.7681,7.6885-7.5039,17.7363-4.7119,26.7197
			c0.1377,0.4776,15.0913,49.2413,42.5913,107.9063c37.1904,79.2578,77.8804,135.8467,120.9492,168.1973
			c32.0283,24.0459,67.5103,36.2343,105.4629,36.2343c16.6436,0,33.5898-2.3878,50.3799-7.1084
			c14.2739-4.0322,26.7563-9.3144,37.1997-14.5224c11.7109,9.8652,21.9892,18.7197,30.0078,25.6455h-49.9575v423.3672
			c0,37.08,35.4541,67.2529,79.0283,67.2529c43.5732,0,79.0186-30.1729,79.0186-67.2529V519.3799h-48.4141
			c6.3555-5.5391,14.2646-12.4824,24.0742-21.1074l5.419-4.7579c10.5263,5.2627,23.2656,10.6358,37.8144,14.751
			c16.7637,4.7119,33.71,7.0996,50.3535,7.0996c37.9336,0,73.416-12.1884,105.4629-36.2343
			c43.0596-32.3223,83.749-88.9122,120.9678-168.2071c27.7295-59.2158,42.499-107.5937,42.5351-107.7314
			C837.0195,194.1182,835.3017,184.0967,829.4872,176.2529z M134.0766,163.3848c-0.1196-36.6856,11.4722-67.795,33.5068-89.959
			c22.669-22.751,56.4243-35.8037,92.6226-35.8037c24.8638,0,48.9565,6.0078,69.6504,17.3691
			c30.3935,16.7354,48.2309,41.2959,57.7739,58.8486c5.9521,11.1143,17.4976,18.0215,30.1455,18.0215
			c12.6021,0,24.147-6.8886,30.0991-17.9384c9.5342-17.6075,27.3076-42.1231,57.8203-58.9219
			c20.6944-11.3711,44.7676-17.3789,69.6319-17.3789c36.1797,0,69.9443,13.0615,92.6406,35.8222
			c22.0264,22.0996,33.6084,53.209,33.498,89.9219c-0.0185,3.3984-0.2753,6.7139-0.4501,10.0664
			c-3.7745,0.542-7.4483,1.0195-11.3428,1.626c-86.5147,13.5391-152.2246,36.8047-195.2842,69.1269
			c-58.5088,43.877-71.1846,101.1553-71.5156,141.4776c-0.3487,43.4365,13.4199,76.1348,13.4287,76.1348
			c0.9922,2.4892,2.2226,4.6943,4.0596,7.1376c1.0664,1.3497,2.333,2.461,3.5732,3.6006
			c-9.791,8.6065-19.1963,16.8633-26.1772,22.916c-1.5245-1.3134-3.1685-2.7373-4.9322-4.2519
			c-5.9795-5.1719-13.3183-11.4912-21.4746-18.4346c1.4146-1.2588,2.8106-2.5078,4.1333-4.207
			c1.3687-1.8281,2.5259-3.8399,3.7476-6.6045c1.4052-3.4443,13.7588-34.7744,13.4468-76.291
			c-0.3306-40.3223-13.0064-97.6006-71.5245-141.4688c-43.0503-32.331-108.7509-55.5879-195.3022-69.1357
			c-3.8853-0.6065-7.5591-1.084-11.3433-1.626C134.3427,170.0898,134.0947,166.792,134.0766,163.3848z M310.4848,472.04
			c-43.6567,12.2803-86.3672,4.5186-123.0523-22.9902c-38.0903-28.6211-74.9228-80.4619-109.477-154.0889
			C58.9609,254.4365,46.2577,219,40.6181,202.2646c17.8374,0.753,55.1934,3.0499,99.4194,9.9571
			c80.3877,12.583,140.458,33.4707,178.5396,62.0722c46.2099,34.6368,56.2217,79.8555,56.479,111.6729
			c0.2295,29.833-7.7066,53.7598-9.8921,59.7852c-0.5606,0.413-1.3872,1.0009-2.2691,1.6162
			c-0.6337-0.7715-1.0195-1.6709-1.791-2.3506l-29.4751-25.8291c0.2852-2.0205,0.4502-4.0869,0.0279-6.1992l-18.8477-95.3418
			c-2.0117-10.1954-11.8672-16.8448-22.0996-14.8057c-10.1953,2.0107-16.8179,11.9131-14.8062,22.0986l10.8565,54.9268
			l-35.7847-31.3574c-0.0185-1.0928,0.2388-2.1407,0.0181-3.2422l-14.7051-74.4453c-2.0117-10.1866-11.8579-16.8272-22.0996-14.8067
			c-10.1953,2.0117-16.8174,11.9043-14.8061,22.0996l6.0161,30.4483l-48.3042-42.334c-7.8257-6.8613-19.7017-6.0713-26.545,1.7451
			c-6.852,7.8164-6.062,19.7022,1.7452,26.5449l49.3242,43.2256l-28.9238,2.5625c-10.3428,0.918-17.9937,10.0479-17.0752,20.3994
			c0.8632,9.7823,9.0747,17.1485,18.7192,17.1485c0.5508,0,1.1113-0.0274,1.6807-0.0733l64.7363-5.7314l39.395,34.5176
			l-48.7358,4.2988c-10.3516,0.9092-17.9937,10.039-17.0845,20.3906c0.8633,9.7822,9.0747,17.1582,18.7192,17.1582
			c0.5513,0,1.1114-0.0283,1.6719-0.0742l84.585-7.4668l28.6577,25.1299C322.5449,468.1816,316.749,470.2666,310.4848,472.04z
			 M458.3642,942.7471c0,16.0645-18.958,29.6309-41.3965,29.6309c-22.4482,0-41.4062-13.5664-41.4062-29.6309V557.002h21.6767
			v279.9609h37.6221V557.002h23.5039V942.7471z M757.5956,294.9512c-34.5625,73.6552-71.3955,125.5049-109.4765,154.0888
			c-36.7129,27.5284-79.5059,35.2618-123.0342,23.0088c-10.5449-2.9756-20.0234-6.8056-28.0606-10.6543l20.9512-16.9472
			l92.2461,8.1386c0.5596,0.0459,1.1201,0.0733,1.6719,0.0733c9.6435,0,17.8555-7.376,18.7187-17.1572
			c0.9092-10.3526-6.7324-19.4825-17.084-20.3916l-53.4667-4.712l43.4824-35.1787c0.1377,0.0098,0.248,0.1016,0.3857,0.1104
			l75.5654,6.6963c0.5695,0.0459,1.1299,0.0732,1.6807,0.0732c9.6445,0,17.8565-7.3662,18.7197-17.1484
			c0.919-10.3516-6.7324-19.4815-17.0752-20.4004l-37.291-3.3067l57.1582-46.247c8.0742-6.5303,9.3321-18.3789,2.793-26.4532
			c-6.5586-8.082-18.4072-9.3408-26.4531-2.7919l-47.1016,38.1093l4.2617-21.4843c2.0215-10.1866-4.6015-20.0879-14.7968-22.1084
			c-10.1309-2.0479-20.0879,4.6113-22.1084,14.7968l-13.043,65.7559l-47.0186,38.0449l9.8096-49.6914
			c2.0117-10.1855-4.6201-20.0781-14.8154-22.0898c-10.1953-2.1036-20.0782,4.6289-22.0899,14.8154l-18.5263,93.8808
			l-26.0489,21.0704c-3.1504-10.8379-7.2382-29.1162-7.0547-50.876c0.2579-31.836,10.2696-77.0449,56.4795-111.6904
			c38.0909-28.6026,98.1514-49.4805,178.5118-62.0635c43.9238-6.8613,81.8115-9.1856,99.4472-9.9473
			C789.3583,218.8252,776.6825,254.2061,757.5956,294.9512z"/>
	</g>
</g>
</svg>
