<?xml version="1.0" encoding="utf-8"?>
<!-- Generator: Adobe Illustrator 17.1.0, SVG Export Plug-In . SVG Version: 6.00 Build 0)  -->
<!DOCTYPE svg PUBLIC "-//W3C//DTD SVG 1.1//EN" "http://www.w3.org/Graphics/SVG/1.1/DTD/svg11.dtd">
<svg version="1.1" id="cube-molecule" xmlns="http://www.w3.org/2000/svg"  x="0px"
	 y="0px" viewBox="0 0 1010.0098 1010" enable-background="new 0 0 1010.0098 1010" xml:space="preserve">
<g id="cube-molecule-cube-molecule">
	<g id="cube-molecule-fill">
		<path fill="#FFAB00" d="M771.544,373.6738c0,50.4483-40.8262,91.2754-91.2549,91.2754c-50.3877,0-91.2754-40.8271-91.2754-91.2754
			c0-50.4082,40.8877-91.2343,91.2754-91.2343C730.7178,282.4395,771.544,323.2656,771.544,373.6738z"/>
		<path fill="#78909C" d="M199.8779,373.6738c0,50.4483-40.8271,91.2754-91.2753,91.2754c-50.378,0-91.2657-40.8271-91.2657-91.2754
			c0-50.4082,40.8877-91.2343,91.2657-91.2343C159.0508,282.4395,199.8779,323.2656,199.8779,373.6738z"/>
		<path fill="#78909C" d="M769.043,902.627c0,50.4687-40.8272,91.2753-91.2549,91.2753c-50.3682,0-91.2754-40.8066-91.2754-91.2753
			c0-50.4278,40.9072-91.2754,91.2754-91.2754C728.2158,811.3516,769.043,852.1992,769.043,902.627z"/>
		<path fill="#FFAB00" d="M194.0581,898.0684c0,50.4687-40.8164,91.2754-91.2651,91.2754
			c-50.3779,0-91.2652-40.8067-91.2652-91.2754c0-50.4688,40.8873-91.2754,91.2652-91.2754
			C153.2417,806.793,194.0581,847.5996,194.0581,898.0684z"/>
		<path fill="#78909C" d="M992.6631,108.6025c0,50.4278-40.8281,91.2549-91.2754,91.2549
			c-50.3691,0-91.2754-40.8271-91.2754-91.2549c0-50.4287,40.9062-91.2754,91.2754-91.2754
			C951.835,17.3271,992.6631,58.1738,992.6631,108.6025z"/>
		<path fill="#FFAB00" d="M417.668,108.6025c0,50.4278-40.8267,91.2549-91.2754,91.2549c-50.3682,0-91.2554-40.8271-91.2554-91.2549
			c0-50.4287,40.8872-91.2754,91.2554-91.2754C376.8413,17.3271,417.668,58.1738,417.668,108.6025z"/>
		<path fill="#FFAB00" d="M992.6631,637.9385c0,50.4688-40.8672,91.2959-91.2754,91.2959s-91.2754-40.8271-91.2754-91.2959
			c0-50.4278,40.8672-91.2549,91.2754-91.2549S992.6631,587.5107,992.6631,637.9385z"/>
		<path fill="#78909C" d="M417.668,633.3799c0,50.4482-40.8267,91.2959-91.2754,91.2959c-50.3682,0-91.2554-40.8477-91.2554-91.2959
			c0-50.4286,40.8872-91.2549,91.2554-91.2549C376.8413,542.125,417.668,582.9512,417.668,633.3799z"/>
	</g>
	<path fill="#43525B" d="M908.0235,529.7393V216.5391c56.7421-3.5098,101.9863-50.3272,101.9863-107.9366
		C1010.0098,48.7139,961.2764,0,901.3877,0C842.124,0,793.9541,47.7451,792.9463,106.7666H436.77
		C435.0957,48.3301,387.3101,1.2305,328.4903,1.2305c-59.8887,0-108.6128,48.7334-108.6128,108.622
		c0,26.2432,9.7431,50.0254,25.2949,68.8252c-0.9077,0.7666-1.9566,1.25-2.7432,2.1983l-79.4346,95.3701
		c-0.7871,0.9482-1.0795,2.0576-1.6743,3.0869c-15.6831-8.7949-33.4946-14.2412-52.7177-14.2412
		C48.7134,265.0918,0,313.8057,0,373.6943c0,54.4619,40.4131,99.2432,92.7578,107.0088v313.6641
		C40.4131,802.1338,0,846.9141,0,901.377C0,961.2656,48.7134,1010,108.6026,1010c52.8183,0,96.8325-37.9434,106.5249-87.9678
		h355.6313c1.0488,0,1.9561-0.4433,2.9453-0.6054c9.459,50.3281,53.5742,88.5732,106.585,88.5732
		c59.8887,0,108.6025-48.7344,108.6025-108.623c0-26.2432-9.7422-50.0254-25.2949-68.8252
		c0.9082-0.7666,2.0176-1.1895,2.8037-2.1377l79.5557-95.5118c0.7462-0.8877,1.0294-1.9765,1.5938-2.9453
		c15.6524,8.7549,33.4043,14.1807,52.5869,14.1807c59.8887,0,108.6221-48.7139,108.6221-108.6025
		C1008.7588,580.3496,964.1807,533.8545,908.0235,529.7393z M791.8164,634.4893h-94.8662V480.6025
		c51.9414-8.0693,91.9414-52.7285,91.9414-106.9082c0-26.2636-9.7422-50.0449-25.3154-68.8447
		c0.9287-0.7666,2.0381-1.2109,2.8242-2.1582l79.5557-95.4307c1.1299-1.3515,1.6738-2.9453,2.4005-4.458
		c5.83,3.2881,11.9414,6.0313,18.3554,8.21v323.7295C824.1709,548.6201,793.1475,587.6924,791.8164,634.4893z M436.7803,634.4893
		c-1.5029-52.7881-40.6856-95.9346-91.6182-103.8623V394.3496h228.6221c8.1094,41.9561,40.4639,75.1992,81.8555,84.8613
		c0,0.0196,0,0.0196,0,0.0196v155.2588H436.7803z M162.9946,803.9287c-0.7871,0.9483-1.0795,2.0576-1.6743,3.0869
		c-8.4922-4.7607-17.5493-8.5527-27.2514-10.9131V478.9687c40.998-9.9453,72.9897-42.9453,81.0586-84.6191h88.7236V531.999
		c-48.0078,11.2354-83.9736,54.1602-83.9736,105.5362c0,26.2431,9.7431,50.0253,25.2949,68.8252
		c-0.9077,0.7666-1.9566,1.25-2.7432,2.1982L162.9946,803.9287z M261.1885,637.5352c0-37.0948,30.1968-67.2911,67.3018-67.2911
		c37.0952,0,67.2817,30.1964,67.2817,67.2911c0,37.0957-30.1865,67.2919-67.2817,67.2919
		C291.3853,704.8271,261.1885,674.6309,261.1885,637.5352z M747.5811,373.6943c0,37.0948-30.1973,67.2911-67.2921,67.2911
		c-37.0947,0-67.292-30.1963-67.292-67.2911c0-37.0957,30.1973-67.292,67.292-67.292
		C717.3838,306.4023,747.5811,336.5986,747.5811,373.6943z M901.3877,41.3105c37.1152,0,67.3106,30.1963,67.3106,67.292
		c0,37.0948-30.1954,67.2911-67.3106,67.2911s-67.3125-30.1963-67.3125-67.2911C834.0752,71.5068,864.2725,41.3105,901.3877,41.3105
		z M429.7808,148.0771h370.6694c4.2754,10.8731,10.4082,20.6758,17.75,29.5108c-1.3711,0.9892-2.8437,1.8359-3.9941,3.208
		l-79.5547,95.4307c-0.7871,0.9472-1.0899,2.0771-1.6748,3.0859c-15.6729-8.7744-33.4639-14.2207-52.6875-14.2207
		c-52.8086,0-96.8232,37.9219-106.5049,87.9473H345.1621V216.7607C384.1533,210.6895,416.1651,184.043,429.7808,148.0771z
		 M328.4903,42.541c37.0952,0,67.2817,30.1963,67.2817,67.3115c0,37.0957-30.1865,67.292-67.2817,67.292
		c-37.105,0-67.3018-30.1963-67.3018-67.292C261.1885,72.7373,291.3853,42.541,328.4903,42.541z M274.1787,207.3008
		c0.7769-0.9278,1.0694-2.0371,1.6543-3.0459c8.7241,4.8818,18.023,8.7949,28.0181,11.1347v137.6495h-88.7236
		c-3.5201-18.1748-11.8506-34.4532-23.2276-48.1895c0.9278-0.7871,2.0474-1.2109,2.8443-2.1787L274.1787,207.3008z
		 M41.3106,373.6943c0-37.0957,30.1865-67.292,67.292-67.292c37.1049,0,67.3017,30.1963,67.3017,67.292
		c0,37.0948-30.1968,67.2911-67.3017,67.2911C71.4971,440.9854,41.3106,410.7891,41.3106,373.6943z M108.6026,968.6885
		c-37.1055,0-67.292-30.1963-67.292-67.3115c0-37.0957,30.1865-67.292,67.292-67.292c37.1049,0,67.3017,30.1963,67.3017,67.292
		C175.9043,938.4922,145.7075,968.6885,108.6026,968.6885z M573.7237,881.3262c-1.0088-0.1612-1.9161-0.6045-2.9649-0.6045H215.1275
		c-3.5201-18.1748-11.8506-34.4531-23.2276-48.1895c0.9278-0.7871,2.0474-1.2109,2.8443-2.1787l79.4345-95.3701
		c0.7769-0.9277,1.0694-2.0371,1.6543-3.0459c15.6631,8.7744,33.4541,14.2002,52.6573,14.2002
		c46.3637,0,85.7382-29.3486,101.2802-70.3369h225.8692v120.0596C614.0459,805.583,581.6514,839.0879,573.7237,881.3262z
		 M680.2891,968.6885c-37.0947,0-67.292-30.1963-67.292-67.3115c0-37.0957,30.1973-67.292,67.292-67.292
		c37.0947,0,67.2921,30.1963,67.2921,67.292C747.5811,938.4922,717.3838,968.6885,680.2891,968.6885z M734.6514,803.9893
		c-0.7676,0.9277-1.0498,2.0371-1.6348,3.0263c-11.0332-6.1933-23.0957-10.5302-36.0664-12.5468v-118.668H798.836
		c4.2568,11.2549,10.4287,21.4414,17.9931,30.5596c-0.8672,0.746-1.8769,1.2099-2.623,2.1181L734.6514,803.9893z M900.1367,704.8271
		c-37.1161,0-67.3115-30.1962-67.3115-67.2919c0-37.0948,30.1953-67.2911,67.3115-67.2911
		c37.1153,0,67.3116,30.1964,67.3116,67.2911C967.4483,674.6309,937.252,704.8271,900.1367,704.8271z"/>
</g>
</svg>
