<?xml version="1.0" encoding="utf-8"?>
<!-- Generator: Adobe Illustrator 17.1.0, SVG Export Plug-In . SVG Version: 6.00 Build 0)  -->
<!DOCTYPE svg PUBLIC "-//W3C//DTD SVG 1.1//EN" "http://www.w3.org/Graphics/SVG/1.1/DTD/svg11.dtd">
<svg version="1.1" id="dna" xmlns="http://www.w3.org/2000/svg"  x="0px" y="0px"
	 viewBox="0 0 671.4306 1010" enable-background="new 0 0 671.4306 1010" xml:space="preserve">
<g id="dna-dna">
	<g>
		<g>
			<polygon fill="#43525B" points="339.8847,425.1572 256.3257,425.1572 256.3257,384.3491 339.8847,384.3491 339.8847,425.1572 			
				"/>
		</g>
		<g>
			<polygon fill="#FFAB00" points="415.0849,425.1572 339.8847,425.1572 339.8847,384.3491 415.0849,384.3491 415.0849,425.1572 			
				"/>
		</g>
	</g>
	<g>
		<g>
			<polygon fill="#43525B" points="339.8847,351.6309 206.1924,351.6309 206.1924,310.8228 339.8847,310.8228 339.8847,351.6309 			
				"/>
		</g>
		<g>
			<polygon fill="#FFAB00" points="465.2383,351.6309 339.8847,351.6309 339.8847,310.8228 465.2383,310.8228 465.2383,351.6309 			
				"/>
		</g>
	</g>
	<g>
		<g>
			<polygon fill="#43525B" points="339.8847,278.0947 156.0493,278.0947 156.0493,237.2866 339.8847,237.2866 339.8847,278.0947 			
				"/>
		</g>
		<g>
			<polygon fill="#FFAB00" points="515.3515,278.0947 339.8847,278.0947 339.8847,237.2866 515.3515,237.2866 515.3515,278.0947 			
				"/>
		</g>
	</g>
	<g>
		<g>
			<polygon fill="#43525B" points="339.8847,204.5684 89.2178,204.5684 89.2178,163.7603 339.8847,163.7603 339.8847,204.5684 			
				"/>
		</g>
		<g>
			<polygon fill="#FFAB00" points="582.1826,204.5684 339.8847,204.5684 339.8847,163.7603 582.1826,163.7603 582.1826,204.5684 			
				"/>
		</g>
	</g>
	<g>
		<g>
			<polygon fill="#43525B" points="339.8847,131.0522 55.8022,131.0522 55.8022,90.2441 339.8847,90.2441 339.8847,131.0522 			"/>
		</g>
		<g>
			<polygon fill="#FFAB00" points="615.5986,131.0522 339.8847,131.0522 339.8847,90.2441 615.5986,90.2441 615.5986,131.0522 			
				"/>
		</g>
	</g>
	<g>
		<g>
			<polygon fill="#43525B" points="339.8847,57.5259 22.3769,57.5259 22.3769,16.7178 339.8847,16.7178 339.8847,57.5259 			"/>
		</g>
		<g>
			<polygon fill="#FFAB00" points="649.0342,57.5259 339.8847,57.5259 339.8847,16.7178 649.0342,16.7178 649.0342,57.5259 			"/>
		</g>
	</g>
	<g>
		<g>
			<polygon fill="#43525B" points="339.8847,625.6504 256.3257,625.6504 256.3257,584.8428 339.8847,584.8428 339.8847,625.6504 			
				"/>
		</g>
		<g>
			<polygon fill="#FFAB00" points="415.0849,625.6504 339.8847,625.6504 339.8847,584.8428 415.0849,584.8428 415.0849,625.6504 			
				"/>
		</g>
	</g>
	<g>
		<g>
			<polygon fill="#43525B" points="339.8847,699.1973 206.1924,699.1973 206.1924,658.3887 339.8847,658.3887 339.8847,699.1973 			
				"/>
		</g>
		<g>
			<polygon fill="#FFAB00" points="465.2383,699.1973 339.8847,699.1973 339.8847,658.3887 465.2383,658.3887 465.2383,699.1973 			
				"/>
		</g>
	</g>
	<g>
		<g>
			<polygon fill="#43525B" points="339.8847,772.7227 156.0493,772.7227 156.0493,731.915 339.8847,731.915 339.8847,772.7227 			
				"/>
		</g>
		<g>
			<polygon fill="#FFAB00" points="515.3515,772.7227 339.8847,772.7227 339.8847,731.915 515.3515,731.915 515.3515,772.7227 			
				"/>
		</g>
	</g>
	<g>
		<g>
			<polygon fill="#43525B" points="339.8847,846.25 122.6338,846.25 122.6338,805.4414 339.8847,805.4414 339.8847,846.25 			"/>
		</g>
		<g>
			<polygon fill="#FFAB00" points="548.7666,846.25 339.8847,846.25 339.8847,805.4414 548.7666,805.4414 548.7666,846.25 			"/>
		</g>
	</g>
	<g>
		<g>
			<polygon fill="#43525B" points="339.8847,919.7754 105.9258,919.7754 105.9258,878.9678 339.8847,878.9678 339.8847,919.7754 			
				"/>
		</g>
		<g>
			<polygon fill="#FFAB00" points="565.4648,919.7754 339.8847,919.7754 339.8847,878.9678 565.4648,878.9678 565.4648,919.7754 			
				"/>
		</g>
	</g>
	<g>
		<g>
			<polygon fill="#43525B" points="339.8847,993.3027 89.2178,993.3027 89.2178,952.4941 339.8847,952.4941 339.8847,993.3027 			
				"/>
		</g>
		<g>
			<polygon fill="#FFAB00" points="582.1826,993.3027 339.8847,993.3027 339.8847,952.4941 582.1826,952.4941 582.1826,993.3027 			
				"/>
		</g>
	</g>
	<g>
		<g>
			<path fill="#43525B" d="M584.1953,1010c0,0,0,0-0.0205,0c-11.2578,0-20.3838-9.126-20.3838-20.4043
				c0.04-163.5703-188.3779-407.1641-339.7651-602.8755C98.8618,224.9028,0,97.0884,0,20.4038C0,9.1357,9.1362,0,20.4043,0
				c11.268,0,20.4038,9.1357,20.4038,20.4038c0,62.7368,104.6802,198.0728,215.498,341.3496
				c163.2622,211.0747,348.3335,450.3433,348.2925,627.8423C604.5986,1000.874,595.4531,1010,584.1953,1010L584.1953,1010z"/>
		</g>
		<g>
			<path fill="#43525B" d="M87.1953,1010c-11.2681,0-20.4038-9.126-20.4038-20.4043
				c-0.0298-177.499,185.0312-416.748,348.313-627.8325C525.9326,218.4863,630.6221,83.1504,630.6221,20.4038
				C630.6221,9.1357,639.7685,0,651.0263,0c11.2784,0,20.4043,9.1357,20.4043,20.4038c0,76.6846-98.872,204.5088-224.0459,366.3364
				c-151.3964,195.711-339.8149,439.2852-339.7851,602.8555C107.5996,1000.874,98.4634,1010,87.1953,1010L87.1953,1010z"/>
		</g>
	</g>
</g>
</svg>
