<?xml version="1.0" encoding="utf-8"?>
<!-- Generator: Adobe Illustrator 17.1.0, SVG Export Plug-In . SVG Version: 6.00 Build 0)  -->
<!DOCTYPE svg PUBLIC "-//W3C//DTD SVG 1.1//EN" "http://www.w3.org/Graphics/SVG/1.1/DTD/svg11.dtd">
<svg version="1.1" id="genetics" xmlns="http://www.w3.org/2000/svg"  x="0px" y="0px"
	 viewBox="0 0 1010 917.877" enable-background="new 0 0 1010 917.877" xml:space="preserve">
<g id="genetics-genetics">
	<g>
		<path fill="#43525B" d="M434.6318,779.6934H150.6465L8.6543,533.793l141.9922-245.9395h283.9853L576.585,533.793
			L434.6318,779.6934L434.6318,779.6934z M174.2158,738.8565h236.8467L529.4463,533.793L411.0625,328.6905H174.2158L55.792,533.793
			L174.2158,738.8565L174.2158,738.8565z"/>
	</g>
	<g>
		<path fill="#43525B" d="M825.2158,554.2119H541.2305L399.2783,308.2725L541.2305,62.3321h283.9853L967.209,308.2725
			L825.2158,554.2119L825.2158,554.2119z M564.7998,513.375h236.8477l118.4229-205.1025l-118.4229-205.103H564.7998
			L446.416,308.2725L564.7998,513.375L564.7998,513.375z"/>
	</g>
	<g>
		<polygon fill="#43525B" points="145.2822,319.3584 89.8496,233.6963 124.1465,211.5235 179.5791,297.1856 145.2822,319.3584 		"/>
	</g>
	<g>
		<polygon fill="#43525B" points="452.4385,850.4795 405.2207,769.5635 440.4746,748.9854 487.6924,829.9024 452.4385,850.4795 		
			"/>
	</g>
	<g>
		<path fill="#FFAB00" d="M223.6865,759.2744c0-33.8183-27.4375-61.2558-61.2558-61.2558
			c-33.8174,0-61.2549,27.4375-61.2549,61.2558c0,33.8184,27.4375,61.2559,61.2549,61.2559
			C196.249,820.5303,223.6865,793.0928,223.6865,759.2744z"/>
		<path fill="#43525B" d="M162.4307,840.9483c-45.044,0-81.6739-36.6289-81.6739-81.674c0-45.0439,36.6299-81.6738,81.6739-81.6738
			c45.0449,0,81.6748,36.6299,81.6748,81.6738C244.1055,804.3194,207.4756,840.9483,162.4307,840.9483L162.4307,840.9483z
			 M162.4307,718.4375c-22.5118,0-40.837,18.3252-40.837,40.8369c0,22.5128,18.3252,40.837,40.837,40.837
			c22.5127,0,40.8379-18.3243,40.8379-40.837C203.2686,736.7627,184.9434,718.4375,162.4307,718.4375L162.4307,718.4375z"/>
	</g>
	<g>
		<path fill="#AEBCC4" d="M876.083,82.5513c0-34.2969-27.8359-62.1328-62.1729-62.1328c-34.337,0-62.1729,27.8359-62.1729,62.1328
			c0,34.3765,27.8359,62.1728,62.1729,62.1728C848.2471,144.7241,876.083,116.9278,876.083,82.5513z"/>
		<path fill="#43525B" d="M813.9102,165.1426c-45.543,0-82.5918-37.0483-82.5918-82.5913C731.3184,37.0283,768.3672,0,813.9102,0
			c45.5429,0,82.5919,37.0283,82.5919,82.5513C896.502,128.0943,859.4531,165.1426,813.9102,165.1426L813.9102,165.1426z
			 M813.9102,40.8369c-23.0303,0-41.7538,18.7037-41.7538,41.7144c0,23.0308,18.7236,41.7544,41.7538,41.7544
			c23.0302,0,41.7539-18.7236,41.7539-41.7544C855.6641,59.5406,836.9404,40.8369,813.9102,40.8369L813.9102,40.8369z"/>
	</g>
	<g>
		<path fill="#FFAB00" d="M530.2842,851.5166c0-28.1953-22.8516-51.0459-51.0469-51.0459
			c-28.1953,0-51.0459,22.8506-51.0459,51.0459c0,28.1953,22.8506,51.0469,51.0459,51.0469
			C507.4326,902.5635,530.2842,879.7119,530.2842,851.5166z"/>
		<path fill="#43525B" d="M479.2373,917.877c-36.5898,0-66.3603-29.7704-66.3603-66.3604c0-36.5898,29.7705-66.3603,66.3603-66.3603
			s66.3604,29.7704,66.3604,66.3603C545.5977,888.1065,515.8271,917.877,479.2373,917.877L479.2373,917.877z M479.2373,815.7842
			c-19.7002,0-35.7324,16.0322-35.7324,35.7324c0,19.7012,16.0322,35.7324,35.7324,35.7324
			c19.7012,0,35.7324-16.0312,35.7324-35.7324C514.9697,831.8164,498.9385,815.7842,479.2373,815.7842L479.2373,815.7842z"/>
	</g>
	<g>
		<path fill="#FFAB00" d="M473.8936,308.2725c0-28.1953-22.8516-51.0469-51.0459-51.0469
			c-28.1954,0-51.0469,22.8516-51.0469,51.0469c0,28.1943,22.8515,51.0459,51.0469,51.0459
			C451.042,359.3184,473.8936,336.4668,473.8936,308.2725z"/>
		<path fill="#43525B" d="M422.8477,374.6319c-36.5899,0-66.3604-29.7696-66.3604-66.3594
			c0-36.5899,29.7705-66.3604,66.3604-66.3604c36.5898,0,66.3593,29.7705,66.3593,66.3604
			C489.207,344.8623,459.4375,374.6319,422.8477,374.6319L422.8477,374.6319z M422.8477,272.5391
			c-19.7012,0-35.7325,16.0322-35.7325,35.7334c0,19.7002,16.0313,35.7324,35.7325,35.7324
			c19.7002,0,35.7324-16.0322,35.7324-35.7324C458.5801,288.5713,442.5479,272.5391,422.8477,272.5391L422.8477,272.5391z"/>
	</g>
	<g>
		<path fill="#AEBCC4" d="M624.7598,533.793c0-39.4815-32.0235-71.4649-71.5049-71.4649c-39.4414,0-71.4248,31.9834-71.4248,71.4649
			c0,39.4414,31.9834,71.4648,71.4248,71.4648C592.7363,605.2578,624.7598,573.2344,624.7598,533.793z"/>
		<path fill="#43525B" d="M553.2549,625.6768c-50.6475,0-91.8438-41.2158-91.8438-91.8838c0-50.667,41.1963-91.8828,91.8438-91.8828
			c50.6875,0,91.9228,41.2158,91.9228,91.8828C645.1777,584.461,603.9424,625.6768,553.2549,625.6768L553.2549,625.6768z
			 M553.2549,482.7471c-28.1153,0-51.0069,22.8906-51.0069,51.0459c0,28.1553,22.8916,51.0469,51.0069,51.0469
			c28.1748,0,51.0859-22.8916,51.0859-51.0469C604.3408,505.6377,581.4297,482.7471,553.2549,482.7471L553.2549,482.7471z"/>
	</g>
	<g>
		<path fill="#FFAB00" d="M994.6865,314.334c0-28.1953-22.8514-51.0469-51.0469-51.0469c-28.1953,0-51.0458,22.8516-51.0458,51.0469
			c0,28.1953,22.8505,51.0459,51.0458,51.0459C971.835,365.3799,994.6865,342.5293,994.6865,314.334z"/>
		<path fill="#43525B" d="M943.6396,380.6944c-36.5898,0-66.3603-29.7705-66.3603-66.3604
			c0-36.5898,29.7705-66.3603,66.3603-66.3603c36.5899,0,66.3604,29.7705,66.3604,66.3603
			C1010,350.9239,980.2295,380.6944,943.6396,380.6944L943.6396,380.6944z M943.6396,278.6016
			c-19.7001,0-35.7324,16.0312-35.7324,35.7324c0,19.7002,16.0323,35.7324,35.7324,35.7324
			c19.7012,0,35.7325-16.0322,35.7325-35.7324C979.3721,294.6328,963.3408,278.6016,943.6396,278.6016L943.6396,278.6016z"/>
	</g>
	<g>
		<path fill="#AEBCC4" d="M142.9297,184.5244c0-33.8183-27.3975-61.2558-61.2559-61.2558
			c-33.8183,0-61.2549,27.4375-61.2549,61.2558c0,33.8584,27.4366,61.2559,61.2549,61.2559
			C115.5322,245.7803,142.9297,218.3828,142.9297,184.5244z"/>
		<path fill="#43525B" d="M81.6738,266.1983C36.6299,266.1983,0,229.5694,0,184.5244c0-45.0444,36.6299-81.6743,81.6738-81.6743
			c45.0449,0,81.6748,36.6299,81.6748,81.6743C163.3486,229.5694,126.7187,266.1983,81.6738,266.1983L81.6738,266.1983z
			 M81.6738,143.6875c-22.5117,0-40.8369,18.3247-40.8369,40.8369c0,22.5127,18.3252,40.837,40.8369,40.837
			c22.5127,0,40.8369-18.3243,40.8369-40.837C122.5107,162.0122,104.1865,143.6875,81.6738,143.6875L81.6738,143.6875z"/>
	</g>
</g>
</svg>
