<?xml version="1.0" encoding="utf-8"?>
<!-- Generator: Adobe Illustrator 17.1.0, SVG Export Plug-In . SVG Version: 6.00 Build 0)  -->
<!DOCTYPE svg PUBLIC "-//W3C//DTD SVG 1.1//EN" "http://www.w3.org/Graphics/SVG/1.1/DTD/svg11.dtd">
<svg version="1.1" id="globe" xmlns="http://www.w3.org/2000/svg"  x="0px" y="0px"
	 viewBox="0 0 758.7639 1009.9998" enable-background="new 0 0 758.7639 1009.9998" xml:space="preserve">
<g id="globe-globe">
	<g id="globe-fill">
		<path fill="#AEBCC4" d="M211.0742,147.9944c120.7324-120.7592,316.498-120.75,437.248,0.0181
			c120.7411,120.7505,120.7686,316.5342,0.0186,437.2295c-120.7686,120.7871-316.5527,120.7871-437.2666,0
			C90.2968,464.5105,90.2968,268.763,211.0742,147.9944z"/>
		<rect x="220.0381" y="917.7303" fill="#FFAB00" width="419.2939" height="73.6523"/>
	</g>
	<path fill="#43525B" d="M753.3095,665.0934l-79.8604-79.8417c54.1339-60.2071,84.0693-137.0044,84.0605-218.6016
		c-0.0097-87.5606-34.1084-169.8848-96.0244-231.8008c-61.916-61.9341-144.2402-96.0327-231.8096-96.0327
		c-81.5791,0-158.3857,29.9263-218.583,84.0605L93.6601,5.4544c-7.2724-7.2725-19.0537-7.2725-26.3262,0
		c-7.2724,7.2725-7.2724,19.0537,0,26.3262l46.417,46.4165C40.5263,157.8758,0,260.2361,0,369.014
		c0,230.937,182.6386,419.9663,411.0761,430.3842v99.7149h-191.038c-10.2823,0-18.6182,8.3359-18.6182,18.6172v73.6523
		c0,10.2813,8.3359,18.6172,18.6182,18.6172H639.332c10.2812,0,18.6172-8.3359,18.6172-18.6172v-73.6523
		c0-10.2813-8.336-18.6172-18.6172-18.6172H448.3115V799.0524c102.3418-4.0547,198.1387-43.5703,273.5088-112.7949l5.1631,5.1621
		c3.6357,3.6367,8.3994,5.4551,13.163,5.4551c4.7637,0,9.5275-1.8184,13.1631-5.4551
		C760.582,684.1481,760.582,672.3572,753.3095,665.0934z M620.7148,972.7654H238.6552v-36.4179h382.0596V972.7654z
		 M139.1133,366.6321c0-52.5254,14.1456-102.769,40.1171-146.8857c2.9082,38.6167,12.4815,92.124,38.8438,149.2495
		c-35.7803,12.4355-63.125,12.3813-78.334,10.5723C139.5498,375.2498,139.1133,370.9773,139.1133,366.6321z M215.5293,178.7752
		l117.1494,117.1684c-28.7989,26.6993-55.752,45.3077-80.124,57.9888C217.3193,277.3352,214.7109,207.2742,215.5293,178.7752z
		 M359.124,322.3885l44.2344,44.2436l-85.5606,85.5606c-19.3633-21.3081-35.417-43.2349-48.1982-65.1612
		C297.2353,372.6956,327.3886,351.9964,359.124,322.3885z M429.6845,392.9583l44.3809,44.3896
		c-29.5264,31.7081-50.4619,61.8521-64.7617,89.4693c-21.9082-12.7998-43.8438-28.8897-65.1797-48.2891L429.6845,392.9583z
		 M500.3642,463.656l117.1592,117.168c-28.4805,0.8819-98.4424-1.582-175.1123-36.917
		C455.0752,519.4714,473.6738,492.4642,500.3642,463.656z M643.8593,554.5065L526.6816,437.3112
		c28.7891-26.6899,55.7432-45.2983,80.1065-57.9795C642.0595,455.9563,644.6679,526.035,643.8593,554.5065z M500.3916,411.0213
		l-44.3809-44.3892l85.543-85.5332c19.3719,21.3174,35.4344,43.253,48.2168,65.1885
		C562.1797,360.596,532.0625,381.5135,500.3916,411.0213z M541.5625,228.428c-25.0176-22.9809-50.7071-41.5805-76.2793-56.2617
		c14.2539-38.7168,16.2539-70.3247,14.8994-91.5146c52.3437,9.1357,100.8428,32.4443,141.168,67.9975L541.5625,228.428z
		 M515.2275,254.7727l-85.543,85.5333l-44.3886-44.3985c29.5254-31.6899,50.4521-61.8252,64.7607-89.4331
		C471.9648,219.2737,493.8916,235.3641,515.2275,254.7727z M358.9961,269.6082L241.8369,152.4397
		c28.4443-0.8725,98.4053,1.5821,175.1123,36.9444C404.2763,213.8103,385.6777,240.8094,358.9961,269.6082z M155.1494,417.5667
		c20.499,0,47.9072-3.3726,80.0967-15.2358c14.6816,25.5444,33.2627,51.2163,56.2168,76.2065l-79.7432,79.7417
		c-35.544-40.3076-58.8613-88.7871-67.9971-141.1035C147.2763,417.4031,151.0224,417.5667,155.1494,417.5667z M317.6611,504.9817
		c25.0264,23.0083,50.7891,41.5435,76.3799,56.2427c-14.209,38.6631-16.209,70.2256-14.8545,91.3887
		c-52.334-9.1367-100.833-32.4541-141.1406-68.0069L317.6611,504.9817z M416.7851,656.5856
		c-1.7539-15.1093-1.791-42.4082,10.5996-78.1884c57.0254,26.3173,110.542,35.8076,149.1407,38.7255
		c-44.0987,25.9541-94.3243,40.0899-146.8409,40.0899C425.3486,657.2126,421.0937,656.7762,416.7851,656.5856z M680.1582,513.5447
		c-2.919-38.6167-12.5-92.1416-38.8897-149.2851c35.8438-12.4722,63.2071-12.418,78.3701-10.5996
		c0.1905,4.3359,0.6358,8.6269,0.6358,12.9902C720.2744,419.1936,706.1298,469.4373,680.1582,513.5447z M715.666,316.1248
		c-21.1904-1.3545-52.7988,0.6548-91.5156,14.9087c-14.6905-25.5718-33.2891-51.2617-56.2618-76.2793l79.7793-79.7788
		C683.2119,215.2923,706.5293,263.7903,715.666,316.1248z M442.5752,76.679c1.7636,15.1265,1.8086,42.4712-10.6358,78.3154
		c-57.0888-26.3447-110.5508-35.917-149.1406-38.8261c44.1074-25.9717,94.3516-40.1167,146.8769-40.1167
		C434.0117,76.0516,438.2754,76.4881,442.5752,76.679z M430.9306,762.6638c-217.084,0-393.6953-176.5948-393.6953-393.6498
		c0-98.833,36.6348-191.8658,102.8418-264.4908l44.7442,44.7349c-53.4258,60.0435-82.9434,136.3589-82.9434,217.374
		c0,87.5513,34.0996,169.8667,96.0244,231.773c61.9072,61.9344,144.2217,96.042,231.7822,96.042
		c81.0244,0,157.3311-29.5166,217.3741-82.9327l48.4345,48.4249C622.8964,726.0643,529.8447,762.6638,430.9306,762.6638z"/>
</g>
</svg>
