<?xml version="1.0" encoding="utf-8"?>
<!-- Generator: Adobe Illustrator 17.1.0, SVG Export Plug-In . SVG Version: 6.00 Build 0)  -->
<!DOCTYPE svg PUBLIC "-//W3C//DTD SVG 1.1//EN" "http://www.w3.org/Graphics/SVG/1.1/DTD/svg11.dtd">
<svg version="1.1" id="head-cross" xmlns="http://www.w3.org/2000/svg"  x="0px" y="0px"
	 viewBox="0 0 945.9546 1010.0001" enable-background="new 0 0 945.9546 1010.0001" xml:space="preserve">
<g id="head-cross-head-cross">
	<g id="head-cross-fill">
		<path fill="#EBEEF0" d="M294.1865,989.9269c1.666-71.5918-21.7402-110.7198-58.0459-119.9336
			c-14.2705-8.3506-30.208-14.2315-51.0664-18.544l-9.6836-1.7646c-11.8604-2-23.877-3.293-35.9717-4.5674
			c-15.9971-1.667-30.9736-3.294-45.7539-6.4893L86,837.1388c-18.0938-3.2549-26.8955-5.7246-29.6602-13.0557
			c-3.8223-11.0566,0.4707-22.3087,8.1553-39.5986l3.332-7.6846c6.8223-15.9961,12.252-33.4824,6.1162-52.6152
			c-1.7637-5.4102-4.4101-10.6641-7.8799-15.6436c2.5088-2.0185,5.2139-4.5674,7.8799-8.037
			c15.1729-22.8184-1.3916-41.2842-7.5664-48.2432c-0.4512-0.4902-0.9014-1-1.3135-1.4121c0.7842-1.2343,1.627-2.4892,2.4502-3.7441
			c9.5274-14.4668,18.8975-32.4043,16.4668-55.9863c-0.0781-0.7452-0.3525-2.1953-0.4707-2.9805
			c-6.3515-28.3066-29.0908-37.207-44.1855-43.127c-7.4883-2.9209-14.585-5.665-17.878-9.1738
			c-0.7255-0.8633-1.372-2.7842-1.372-4.4697l87.0576-92.6455c12.0566-12.8198,23.9355-25.6406,35.7168-38.4805
			c1.5879-1.7451,2.8818-3.7832,3.8037-5.979l4.1162-10.0366c8.9004-22.9756-0.4697-40.5401-7.3115-53.3994l-3.0977-5.9595
			c-1.0195-2.1567-2.0781-4.3521-2.7441-6.6455c-0.667-2.3721-0.8623-4.4107-0.9219-4.5283
			c4.293-20.0933,10.7627-39.8731,19.7412-60.4956c7.6055-17.3882,16.9366-35.0899,27.7774-52.6543
			c10.0176-16.1534,21.1914-32.1494,34.2471-49.0474c10.0371-13.0166,20.5244-25.7583,29.5224-36.4228
			c10.4482-9.292,21.7988-18.231,33.7959-26.4449c4.999-3.3916,10.1152-6.6845,15.3301-9.8603
			c6.7822-4.1167,13.6435-8.0176,20.6025-11.625c21.5635-11.1148,44.833-20.4658,69.2774-27.6797
			c45.9306-13.6436,95.9775-20.1719,147.4355-19.3482c66.1035,5.3321,121.0313,15.9175,167.961,32.4234
			c7.8222,2.7451,15.5654,5.6855,23.1718,8.8022c10.0567,4.2344,19.9942,8.8413,29.6787,13.8203
			c20.8584,10.7818,40.3036,23.3081,58.418,37.6773c4.8613,3.5679,9.4873,7.2534,13.8789,11.0371
			c7.2529,6.2529,14.0752,12.8594,20.3877,19.8184c8.8213,9.7236,17.0547,20.5244,24.5039,32.1884
			c22.7402,35.5801,38.1279,78.5703,47.0078,131.4204c0.9219,5.3321,1.6865,10.6246,2.4317,15.8003l2.3906,22.0733
			c3.6465,42.4209,1.2168,81.1963-7.2129,115.3847c-0.9805,3.8614-2.0195,7.626-3.1367,11.4483
			c-1.5488,5.1553-3.2344,10.3506-5.6855,17.3291c-5.1552,19.2705-13.2324,38.7353-24.8173,59.4756
			c-3.1358,5.6074-6.4297,11.1152-9.8799,16.5849c-2.8623,4.587-5.7832,9.1748-8.8418,13.7217
			c-8.5274,12.7227-17.7012,25.21-27.1309,37.5996c-6.1738,8.1543-12.4863,16.251-18.7598,24.3867
			c-18.4863,23.8565-37.6385,48.5176-54.125,74.2569c-14.8398,23.0732-25.9344,44.5771-33.9716,65.7099
			c-6.1553,15.8399-10.625,31.9141-13.5655,49.6748c-0.666,9.1153-1.1757,20.917-1.627,34.2276
			c-0.8828,24.6992-1.5684,54.457-2.0977,80.7256l-0.1572,8.6845c-0.3135,14.8985,3.7051,35.5411,3.5283,35.5411"/>
		<path fill="#78909C" d="M807.4189,362.8185c0,129.3427-104.7998,234.1416-234.1025,234.1416
			c-129.3028,0-234.1016-104.7989-234.1016-234.1416c0-129.2637,104.7988-234.0821,234.1016-234.0821
			C702.6191,128.7364,807.4189,233.5548,807.4189,362.8185z"/>
		<polygon fill="#FFAB00" points="673.665,329.3951 606.7597,329.3951 606.7597,262.5284 539.873,262.5284 539.873,329.3951 
			472.9873,329.3951 472.9873,396.3009 539.873,396.3009 539.873,463.1866 606.7597,463.1866 606.7597,396.3009 673.665,396.3009 		
			"/>
	</g>
	<g>
		<path fill="#43525B" d="M944.2099,343.0196l-2.4707-22.7793c-0.7832-5.3515-1.5683-10.8408-2.5088-16.2705
			c-9.3311-55.5361-25.6611-100.9765-49.8896-138.8891c-8.0186-12.566-16.957-24.2886-26.5625-34.8741
			c-6.7245-7.4296-14.1738-14.6831-22.1524-21.5439c-4.7635-4.1167-9.8007-8.1157-14.5058-11.5464
			c-18.9571-15.0552-39.7168-28.4443-61.711-39.8144c-10.1346-5.2139-20.5449-10.0367-31.248-14.5455
			c-7.9199-3.2343-15.9766-6.2924-24.1113-9.1547C660.5312,16.547,603.9365,5.589,534.7373,0.0411
			C480.75-0.5863,429.2529,5.961,381.3027,20.213c-25.3857,7.4883-49.8701,17.2705-72.8262,29.1103
			c-7.3506,3.8033-14.624,7.9395-21.8183,12.2915c-5.4883,3.3521-10.8799,6.8218-16.2119,10.4488
			c-12.4083,8.4883-24.4454,17.917-35.795,28.0127c-0.7256,0.6274-1.3925,1.3134-2.0195,2.0586
			c-9.1543,10.8603-19.8379,23.8374-30.0518,37.0888c-13.4873,17.4473-25.0722,34.0513-35.4423,50.7725
			c-11.3116,18.3096-21.0928,36.874-29.1114,55.1836c-9.5468,21.9355-16.4072,42.9702-20.9551,64.3183
			c-0.5693,2.607-0.5888,5.273-0.1181,7.8604c0.1963,1.2549,0.5879,3.6465,1.3916,6.4692c0.9219,3.1953,2.2939,6.312,4.1953,10.2915
			l3.2148,6.1753c7.1748,13.4673,11.4873,23.3081,6.4493,36.3052l-4.1553,10.0762c-11.7227,12.7812-23.544,25.5429-35.541,38.3047
			L5.4502,517.6251C1.9414,521.3497,0,526.2511,0,531.3673c0,6.3515,2.2744,12.8594,6.8027,18.2119
			c6.3711,6.7822,15.4277,10.3105,25.2295,14.1328c16.3291,6.4111,28.1699,12.2129,31.9726,29.4648
			c1.7842,17.289-5.3125,30.8349-13.9775,43.9892l-1.9014,2.9209c-4.8027,7.5664-2.6074,18.8975,3.333,25.6016
			c9.4288,10.625,10.7813,16.1728,6.5674,22.583c-1.333,1.7256-2.7842,3.2148-4.5488,4.626
			c-8.2129,6.6259-9.9189,18.4668-3.8809,27.1113c2.333,3.3721,4.1163,6.8613,5.2344,10.3115
			c3.9199,12.213,0.6465,24.2686-5.4111,38.501l-3.2735,7.5078c-7.6259,17.1533-15.5058,34.874-8.5859,54.8301
			c7.1348,18.957,27.1895,22.5439,44.6162,25.6806l7.2539,1.4112c15.2315,3.2929,30.0713,4.9795,47.8906,6.8222
			c11.6836,1.2344,23.2881,2.4698,34.462,4.3516l9.2334,1.6855c18.4863,3.8232,32.3652,8.8222,44.9892,16.2128
			c1.627,0.9405,3.3721,1.6661,5.1953,2.1368c39.128,9.9189,43.6953,66.9052,42.9112,99.9961
			c-0.2549,11.0947,8.5273,20.289,19.6035,20.5439c0.1562,0,0.3135,0,0.4707,0c10.8799,0,19.8183-8.6846,20.0732-19.6035
			c2.3526-101.5049-41.7939-130.7725-70.3554-139.085c-15.7227-8.8408-33.2276-15.0742-55.2227-19.6035l-9.959-1.8223
			c-12.2715-2.0586-24.6992-3.4111-37.2265-4.7246c-16.584-1.7451-30.3457-3.2929-44.0088-6.2343l-7.9395-1.5489
			c-6.665-1.1953-11.5068-2.2343-14.4668-3.0966c0.5098-4.9405,3.8418-12.8204,7.8213-21.8184l3.3916-7.7822
			c7.9395-18.6231,14.957-41.0889,6.7432-66.71c-0.7051-2.1367-1.4893-4.2539-2.3916-6.332c0,0,0-0.0196,0.0195-0.0196
			c9.4687-14.2324,16.1338-35.8154-1.0977-61.9853c8.9981-15.4473,16.9766-35.4238,14.3692-60.6133
			c-0.0781-0.7842-0.2744-2.0587-0.4707-3.1953c-0.0586-0.3535-0.294-1.7451-0.3721-2.0781
			c-7.959-35.541-34.7959-48.6944-52.2822-55.7715l70.9443-75.5117c12.1153-12.8789,24.0537-25.7583,35.9326-38.7159
			c3.1368-3.4501,5.6465-7.3906,7.5284-11.8603l4.2734-10.4092c12.2129-31.522-0.6279-55.6338-8.2139-69.9053l-2.9013-5.5869
			c-0.333-0.686-0.7061-1.3916-1.0782-2.4697c3.9795-17.2119,9.7422-34.3843,17.5254-52.2822
			c7.253-16.5645,16.1524-33.4234,26.4444-50.1055c9.625-15.5264,20.4462-31.0127,33.0908-47.3813
			c9.5068-12.3111,19.4072-24.3863,28.0322-34.6192c9.7822-8.6059,20.1133-16.6626,30.6592-23.8965
			c4.7246-3.1953,9.5664-6.312,14.4678-9.3115c6.4101-3.8813,12.8593-7.5474,19.3877-10.939
			c20.6611-10.6445,42.7939-19.4853,65.8076-26.268c44.0488-13.0952,91.292-19.27,140.1035-18.5835
			c64.417,5.1943,117.6992,15.4472,162.9238,31.3452c7.4883,2.627,14.918,5.4497,22.0332,8.3706
			c9.586,4.0381,19.0547,8.4297,28.2481,13.1538c19.6425,10.1548,38.207,22.1128,55.7519,36.0308
			c4.4307,3.2343,8.6446,6.6064,12.6446,10.0566c6.7236,5.7827,12.996,11.8794,18.6425,18.0938
			c8.0762,8.9194,15.6426,18.8388,22.4453,29.5029c21.2696,33.2861,35.7168,73.8257,44.1465,124.0293
			c0.8828,5.1558,1.627,10.2529,2.2539,14.5459l2.3536,21.6416c3.4492,40.187,1.1953,76.8057-6.6856,108.7197
			c-0.9209,3.627-1.8809,7.1748-2.9004,10.6055c-1.4707,4.9004-3.0586,9.8408-5.8418,17.918
			c-4.7637,17.8183-12.2715,35.7558-22.956,54.8691c-2.96,5.293-6.0772,10.5068-9.3897,15.7607
			c-2.7441,4.3916-5.5283,8.7823-8.4883,13.1729c-7.2343,10.8017-15.6435,22.4463-26.4453,36.6582
			c-4.4297,5.8418-8.9385,11.6641-13.4472,17.5059l-5.8614,7.5869c-18.5449,23.916-37.7168,48.6552-54.458,74.8056
			c-15.5654,24.1709-27.2881,46.8907-35.7959,69.2979c-6.7822,17.4267-11.5654,34.9717-14.8789,55.4765
			c-0.6855,9.3311-1.2148,21.4073-1.666,34.9727c-0.9014,24.7979-1.5879,54.6729-2.1172,81.0986l-0.1562,8.6055
			c-0.2754,13.7031,2.4306,30.5029,3.6855,38.3828l19.916-2.4101l-15.1719-13.1543l30.4629,26.1699
			c6.0371-7.0957,4.8418-14.5449,4.1954-18.5449c-0.7842-4.8418-3.1563-19.544-2.9415-29.6592l0.1583-8.626
			c0.5292-26.1699,1.2148-55.8096,2.0771-80.4512c0.4512-13.0166,0.9404-24.5429,1.3721-31.6396
			c2.6465-15.918,6.7246-30.875,12.5273-45.8125c7.5664-19.8975,18.0742-40.1865,32.1094-62.0244
			c15.8008-24.6612,34.4042-48.6758,53.125-72.8262l5.1758-6.6855c4.5859-5.9395,9.1738-11.879,13.6621-17.7989
			c11.2724-14.8203,20.1328-27.0722,27.8183-38.5595c3.1758-4.7247,6.2334-9.5079,9.1543-14.2129
			c3.6465-5.7627,7.1153-11.5655,10.4286-17.5049c12.3311-22.0547,21.0538-43.0098,26.2296-62.6133
			c2.5674-7.332,4.3516-12.7813,6.0176-18.3486c1.1758-4.0577,2.294-8.0371,3.3526-12.2715
			C945.4834,429.0382,948.0908,388.0284,944.2099,343.0196z"/>
		<path fill="#43525B" d="M827.4921,362.8185c0-140.1436-114.0322-254.1558-254.1757-254.1558S319.1406,222.6749,319.1406,362.8185
			c0,140.1826,114.0322,254.2148,254.1758,254.2148S827.4921,503.0011,827.4921,362.8185z M573.3164,576.8858
			c-118.0118,0-214.0284-96.0361-214.0284-214.0673c0-118.0113,96.0166-214.0083,214.0284-214.0083
			c118.0117,0,214.0283,95.997,214.0283,214.0083C787.3447,480.8497,691.3281,576.8858,573.3164,576.8858z"/>
		<path fill="#43525B" d="M673.665,309.3214h-46.832v-46.793c0-11.0957-8.9785-20.0737-20.0733-20.0737H539.873
			c-11.0947,0-20.0732,8.978-20.0732,20.0737v46.793h-46.8125c-11.0957,0-20.0743,8.9785-20.0743,20.0737v66.9058
			c0,11.0957,8.9786,20.0737,20.0743,20.0737h46.8125v46.812c0,11.0957,8.9785,20.0742,20.0732,20.0742h66.8867
			c11.0948,0,20.0733-8.9785,20.0733-20.0742v-46.812h46.832c11.0957,0,20.0742-8.978,20.0742-20.0737v-66.9058
			C693.7392,318.2999,684.7607,309.3214,673.665,309.3214z M653.5918,376.2272h-46.8321c-11.0957,0-20.0732,8.978-20.0732,20.0737
			v46.8125h-26.7402v-46.8125c0-11.0957-8.9776-20.0737-20.0733-20.0737h-46.8125v-26.7584h46.8125
			c11.0957,0,20.0733-8.9785,20.0733-20.0737v-46.7929h26.7402v46.7929c0,11.0952,8.9775,20.0737,20.0732,20.0737h46.8321V376.2272z
			"/>
	</g>
</g>
</svg>
