<?xml version="1.0" encoding="utf-8"?>
<!-- Generator: Adobe Illustrator 17.1.0, SVG Export Plug-In . SVG Version: 6.00 Build 0)  -->
<!DOCTYPE svg PUBLIC "-//W3C//DTD SVG 1.1//EN" "http://www.w3.org/Graphics/SVG/1.1/DTD/svg11.dtd">
<svg version="1.1" id="head-brains" xmlns="http://www.w3.org/2000/svg"  x="0px"
	 y="0px" viewBox="0 0 945.9384 1009.9997" enable-background="new 0 0 945.9384 1009.9997" xml:space="preserve">
<g id="head-brains-head-brains">
	<g id="head-brains-fill">
		<path fill="#EBEEF0" d="M289.2973,1003.1882c1.6861-73.5791-22.3276-113.7549-59.6606-123.2129
			c-14.624-8.586-31.041-14.6045-52.4278-19.0635l-9.958-1.8037c-12.1738-2.0479-24.5625-3.3623-37.0005-4.6846
			c-16.3583-1.7148-31.7661-3.3818-46.9682-6.6748l-7.8897-1.5c-18.5742-3.3818-27.6206-5.9005-30.4531-13.4668
			c-3.9306-11.3214,0.5-22.8662,8.3701-40.6367l3.4209-7.9189c6.9981-16.418,12.6045-34.3839,6.273-54.0352
			c-1.7837-5.5674-4.5088-10.958-8.0767-16.0937c2.5977-2.0586,5.3613-4.6758,8.0767-8.253
			c15.604-23.4248-1.4116-42.4209-7.7827-49.5556c-0.4209-0.4903-0.9209-1.0197-1.3228-1.4512
			c0.8525-1.2734,1.6763-2.5576,2.5288-3.832c9.7617-14.8497,19.4263-33.3057,16.917-57.5147
			c-0.0781-0.7939-0.3725-2.2441-0.5098-3.0976c-6.4882-29.0508-29.8842-38.1856-45.331-44.2627
			c-7.7432-3.0186-15.0352-5.8516-18.3975-9.4385c-0.7251-0.8916-1.4209-2.8428-1.4209-4.5967l89.4082-95.1719
			c12.3887-13.1728,24.6109-26.3457,36.7159-39.5288c1.6464-1.8032,2.9892-3.9106,3.9301-6.165l4.2242-10.3208
			c9.145-23.5723-0.4898-41.607-7.5176-54.8189l-3.166-6.1357c-1.0879-2.2153-2.1465-4.4795-2.8321-6.8218
			c-0.706-2.4604-0.9218-4.5576-0.9707-4.646c4.4009-20.6611,11.0562-40.999,20.3086-62.1699
			c7.7627-17.8482,17.3975-36.0396,28.5615-54.084c10.2618-16.5742,21.7393-33.0112,35.1475-50.3989
			c10.3208-13.3784,21.0928-26.4634,30.3154-37.3921c10.7325-9.5855,22.4258-18.7305,34.7168-27.1694
			c5.1455-3.4991,10.419-6.8609,15.7408-10.1441c6.9785-4.2344,13.9965-8.2236,21.1909-11.9385
			c22.1211-11.4379,46.0366-21.0337,71.1572-28.4336c47.1743-14.0258,98.6411-20.7299,151.48-19.8769
			c67.8935,5.459,124.3301,16.3486,172.5234,33.2949c8.0469,2.813,16.0254,5.8516,23.8272,9.0469
			c10.3222,4.3613,20.5254,9.0762,30.4922,14.2119c21.4062,11.0757,41.4121,23.9448,60.0136,38.7056
			c4.9805,3.6655,9.7227,7.4297,14.252,11.3403c7.4687,6.4102,14.4471,13.2119,20.9355,20.3477
			c9.0371,9.9873,17.5156,21.0922,25.1602,33.0698c23.377,36.5493,39.1758,80.7241,48.3203,135.0332
			c0.9414,5.4497,1.7441,10.9092,2.5,16.2114l2.4687,22.6709c3.715,43.5767,1.2266,83.439-7.4472,118.5278
			c-0.9805,3.9991-2.0684,7.8506-3.2051,11.7715c-1.5977,5.312-3.3242,10.6441-5.8613,17.7896
			c-5.2832,19.8081-13.5957,39.8227-25.4746,61.102c-3.2246,5.7725-6.6446,11.4473-10.1446,17.0439
			c-2.9492,4.7148-5.9394,9.4297-9.0761,14.1143c-8.7911,13.0752-18.2207,25.9053-27.9141,38.6368
			c-6.3125,8.3808-12.8106,16.6728-19.25,25.0527c-18.9844,24.4931-38.6758,49.8301-55.584,76.2646
			c-15.25,23.6993-26.6582,45.7921-34.9316,67.5118c-6.293,16.2802-10.8897,32.7656-13.9375,51.0156
			c-0.6465,9.3808-1.1964,21.5146-1.6563,35.1972c-0.9023,25.3457-1.6074,55.9161-2.1562,82.92l-0.167,8.8994
			c-0.3037,15.2998,3.8221,36.5293,3.6455,36.5293"/>
		<path fill="#FFAB00" d="M378.4799,221.5485c6.1944,0,12.2124,0.647,18.1226,1.6758
			c7.6943-68.5898,65.8164-121.9287,136.4839-121.9287c58.9648,0,109.0791,37.1963,128.6133,89.3296
			c8.3213-2.1563,17.0058-3.4404,26.0127-3.4404c56.9072,0,103.0615,46.1645,103.0615,103.081
			c0,13.8296-2.7539,26.9732-7.6738,38.9995c34.2851,11.2617,59.2187,43.1656,59.2187,81.2534
			c0,47.4483-38.4492,85.8995-85.8887,85.8995c-56.9464,0-120.2627,46.1547-120.2627,103.0708l0,0V496.4182
			c0-37.9512-30.7763-68.7178-68.7177-68.7178H378.4799c-56.9067,0-103.0615-46.1543-103.0615-103.0708
			C275.4184,267.6931,321.5732,221.5485,378.4799,221.5485z"/>
	</g>
	<g>
		<path fill="#43525B" d="M944.2153,342.9875l-2.5-22.6904c-0.7637-5.3614-1.5684-10.8599-2.5-16.2994
			c-9.3789-55.623-25.709-101.062-49.9277-138.9248c-8.0079-12.5161-16.9258-24.229-26.5411-34.8632
			c-6.8515-7.5474-14.3105-14.7906-22.1328-21.5142c-4.7929-4.1362-9.83-8.1353-14.4961-11.5361
			c-18.838-14.9766-39.5977-28.3653-61.7089-39.813c-10.1543-5.2344-20.5528-10.0469-31.2178-14.5454
			c-7.9395-3.2642-16.0449-6.3413-24.1895-9.1841c-48.5361-17.064-105.1103-28.022-174.2588-33.5498
			C480.7963-0.7562,429.1728,5.9968,381.3027,20.238c-25.562,7.5376-50.0557,17.3291-72.7754,29.081
			c-7.439,3.8223-14.6821,7.939-21.9551,12.3692c-5.4394,3.3423-10.8105,6.7827-16.1718,10.4189
			c-12.6929,8.7036-24.7388,18.1421-35.8047,28.0318c-0.6958,0.6176-1.3428,1.2939-1.9405,1.9995
			c-9.1841,10.8501-19.8574,23.8271-30.0903,37.0981c-13.5454,17.5444-25.1206,34.148-35.3926,50.7515
			c-11.4677,18.5244-21.269,37.0981-29.1098,55.1621c-9.5762,21.8965-16.4473,42.9595-21.0147,64.3755
			c-0.5293,2.4995-0.5781,5.0576-0.1567,7.5469c0.1762,1.186,0.5981,3.8325,1.48,6.871c0.9902,3.3321,2.4209,6.5669,4.166,10.1343
			l3.2343,6.273c7.1646,13.4477,11.4673,23.2588,6.4297,36.2553l-4.1367,10.0757c-11.7417,12.7813-23.5723,25.5425-35.5981,38.3135
			L5.4399,517.6188C1.9506,521.3337,0,526.2536,0,531.3601c0,6.1943,2.1855,12.5947,6.832,18.2402
			c6.3706,6.7822,15.5054,10.3408,25.2773,14.1533c16.2803,6.4004,28.0909,12.2031,31.9131,29.4434
			c1.7842,17.2207-5.332,30.7959-13.1435,42.705l-2.5088,3.793c-5.0967,7.6055-3.0781,19.1426,3.0283,25.9736
			c10.458,11.7217,10.1641,17.1719,6.5669,22.6514c-1.3228,1.7442-2.7246,3.1758-4.4009,4.5078
			c-8.3017,6.5869-10.0361,18.4961-3.9795,27.1895c2.3526,3.3711,4.1074,6.8515,5.2344,10.3398
			c3.9204,12.1543,0.6465,24.21-5.4497,38.4903l-3.2344,7.5175c-7.6157,17.1524-15.4863,34.8926-8.5962,54.7404
			c7.0869,18.9375,27.1406,22.5829,44.6651,25.7685l7.2041,1.3623c16.3584,3.5479,33.0991,5.3028,48.0166,6.8614
			c11.6445,1.2343,23.2295,2.4492,34.3637,4.332l9.2036,1.666c18.6031,3.8711,32.4717,8.8701,44.959,16.2109
			c1.6367,0.9707,3.4107,1.6964,5.2534,2.1563c39.0976,9.9004,43.6749,66.9043,42.9205,100.0039
			c-0.2549,11.0859,8.5171,20.2793,19.6025,20.5234c0.1567,0.0098,0.3135,0.0098,0.4707,0.0098
			c10.8691,0,19.8086-8.6836,20.0532-19.6113c2.3228-101.5038-41.7832-130.7607-70.354-139.0625
			c-15.5937-8.8008-33.0996-15.0352-55.2207-19.6319l-9.9487-1.8036c-12.2026-2.0587-24.6011-3.3906-37.2749-4.7343
			c-17.1719-1.793-30.3447-3.293-44.0274-6.253l-7.8706-1.499c-2.8227-0.5098-10.1049-1.834-14.4765-3.1172
			c0.4995-4.9297,3.8423-12.8203,7.8413-21.8379l3.3515-7.7822c7.959-18.6514,14.9766-41.1553,6.7632-66.6299
			c-0.6958-2.1562-1.4995-4.293-2.4013-6.4101c9.6054-14.418,16.3388-36.3438-0.98-62.1211
			c8.9682-15.4561,16.8974-35.4122,14.2998-60.4248c-0.1074-1.128-0.4605-3.1172-0.8916-5.3125
			c-7.9194-35.6084-34.8731-48.752-52.2608-55.7901l70.9131-75.48c12.1241-12.8891,24.0718-25.768,35.9317-38.686
			c3.205-3.499,5.7431-7.498,7.5859-11.938l4.2539-10.3896c12.2227-31.5015-0.6074-55.6031-8.1938-69.8448l-2.8619-5.5473
			c-0.3627-0.7354-0.7451-1.4702-1.1469-2.5874c3.9887-17.2603,9.7524-34.4029,17.5835-52.3101
			c7.0962-16.3486,15.9863-33.1973,26.4443-50.0752c9.5366-15.4175,20.3379-30.9136,33.0303-47.3603
			c9.5176-12.3203,19.417-24.3955,28.042-34.6084c9.5171-8.4195,19.8476-16.4761,30.6289-23.8765
			c4.7637-3.2246,9.6445-6.3511,14.5063-9.3403c6.3804-3.8814,12.8003-7.5279,19.4165-10.9385
			c20.4947-10.605,42.6065-19.436,65.7671-26.2676c43.9888-13.0849,91.4756-19.3086,140.1104-18.5835
			c64.3652,5.1851,117.6455,15.437,162.9277,31.3643c7.4883,2.6074,14.9082,5.4302,22.0039,8.3511
			c9.5664,4.038,19.0244,8.3994,28.2393,13.1533c19.789,10.2422,38.3515,22.2099,55.7793,36.0493
			c4.4199,3.2344,8.6347,6.5864,12.662,10.0561c6.5977,5.6753,12.8496,11.752,18.5742,18.0542
			c8.0957,8.9488,15.6621,18.8872,22.4746,29.5415c21.25,33.2168,35.6875,73.7652,44.1543,124.0069
			c0.8828,5.126,1.627,10.2324,2.2559,14.5845l2.3711,21.5727c3.4296,40.2246,1.166,76.8525-6.7442,108.854
			c-0.8906,3.6167-1.8808,7.1157-2.8711,10.5166c-1.4609,4.8814-3.039,9.7817-5.8613,17.9072
			c-4.7441,17.7798-12.2422,35.7261-22.9551,54.898c-2.959,5.332-6.1055,10.5361-9.3105,15.6719
			c-2.7735,4.4111-5.5664,8.831-8.4981,13.1933c-7.5273,11.1826-15.9375,22.8174-26.5625,36.7256
			c-4.2715,5.6846-8.6347,11.3301-13.0058,16.9854l-6.3321,8.1943c-18.5136,23.8857-37.6562,48.585-54.338,74.6768
			c-15.5752,24.1992-27.3163,46.9091-35.8437,69.3349c-6.7637,17.4756-11.5469,35.0108-14.8691,55.5049
			c-0.6465,9.3213-1.1954,21.3672-1.6563,34.9316c-0.8828,24.7784-1.5684,54.6426-2.1074,81.0674l-0.1563,8.6358
			c-0.2656,13.662,2.4395,30.4716,3.7041,38.3613l19.917-2.4102l-15.1631-13.1543l30.4434,26.17
			c6.0381-7.0957,4.8428-14.5547,4.1943-18.5635c-0.7832-4.832-3.1562-19.5635-2.9502-29.6494l0.1573-8.625
			c0.5195-26.17,1.205-55.8184,2.0879-80.4395c0.4414-13.0361,0.9511-24.5918,1.3535-31.6289
			c2.6465-15.8691,6.7324-30.8262,12.5254-45.8223c7.5664-19.8867,18.0742-40.166,32.1484-62.0322
			c15.7402-24.6113,34.3145-48.5752,53.1035-72.8144l5.5488-7.1944c4.4688-5.7832,8.9279-11.5556,13.2305-17.2607
			c11.0371-14.457,19.8867-26.7178,27.8945-38.5977c3.1661-4.7236,6.1758-9.4775,9.1934-14.2802
			c3.5879-5.754,7.0879-11.5557,10.3613-17.4366c12.3399-22.0927,21.0625-43.0576,26.1895-62.5332
			c2.627-7.351,4.3808-12.8398,6.0566-18.4463c1.1856-4.0673,2.3125-8.0957,3.3418-12.2514
			C945.4497,429.0925,948.0669,388.0734,944.2153,342.9875z"/>
		<path fill="#43525B" d="M852.563,413.0378c0-37.9707-20.7403-72.1675-53.2032-90.1924c2.0196-8.7915,3.0391-17.7793,3.0391-26.875
			c0-70.7954-61.3965-128.1138-133.7793-119.6064c-25.9639-51.0943-79.1172-84.3995-137.1309-84.3995
			c-71.6967,0-132.7885,49.1148-149.3628,117.0772c-66.5019-0.5391-121.5273,53.6235-121.5273,120.3804
			c0,66.3945,54.0156,120.4101,120.4004,120.4101h183.9321c25.8262,0,46.8311,20.9946,46.8311,46.8111v100.3271
			c0,11.085,8.9873,20.0732,20.0722,20.0732c11.086,0,20.0743-8.9882,20.0743-20.0732c0-44.459,53.0449-80.2539,96.9648-80.2539
			C806.0454,516.7165,852.563,470.2092,852.563,413.0378z M651.9087,514.4528v-17.8095c0-47.9483-39.0196-86.9576-86.9776-86.9576
			H380.999c-44.2534,0-80.2539-36.0102-80.2539-80.2636c0-44.2432,36.0005-80.2437,80.2539-80.2437
			c4.499,0,9.125,0.4312,14.1533,1.3135c5.4395,0.9604,11.0557-0.3726,15.5054-3.6953c4.4399-3.3223,7.3022-8.3311,7.9194-13.8296
			c6.459-57.4946,54.9956-100.856,112.9116-100.856c47.0664,0,89.8194,29.708,106.3838,73.9219
			c3.6162,9.6152,13.8887,14.9272,23.8272,12.3989c7.0566-1.8232,13.6924-2.7153,20.289-2.7153
			c44.253,0,80.2637,36.0005,80.2637,80.2539c0,10.4385-2.0195,20.6611-5.9883,30.394c-2.1074,5.1553-1.9707,10.9478,0.3614,16.0054
			c2.3339,5.0576,6.666,8.9195,11.9589,10.6543c26.2188,8.6055,43.8321,32.7266,43.8321,60.0137
			c0,35.0303-28.5039,63.5322-63.543,63.5322C714.7739,476.57,678.5581,490.8605,651.9087,514.4528z"/>
		<rect x="531.4887" y="292.6379" fill="#43525B" width="33.4424" height="40.1465"/>
		<rect x="464.6045" y="292.6379" fill="#43525B" width="33.4321" height="40.1465"/>
		<rect x="598.3833" y="292.6379" fill="#43525B" width="33.4511" height="40.1465"/>
	</g>
</g>
</svg>
