<?xml version="1.0" encoding="utf-8"?>
<!-- Generator: Adobe Illustrator 17.1.0, SVG Export Plug-In . SVG Version: 6.00 Build 0)  -->
<!DOCTYPE svg PUBLIC "-//W3C//DTD SVG 1.1//EN" "http://www.w3.org/Graphics/SVG/1.1/DTD/svg11.dtd">
<svg version="1.1" id="lab-tube-leaves" xmlns="http://www.w3.org/2000/svg"  x="0px"
	 y="0px" viewBox="0 0 678.9746 1010" enable-background="new 0 0 678.9746 1010" xml:space="preserve">
<g id="lab-tube-leaves-lab-tube-leaves">
	<g id="lab-tube-leaves-fill">
		<path fill="#AEBCC4" d="M457.085,404.1865v478.8711c0,60.0791-49.1426,109.2227-109.2227,109.2227
			c-60.062,0-109.2051-49.1436-109.2051-109.2227V404.1865"/>
		<path fill="#78909C" d="M457.085,773.8691v109.1885c0,60.0791-49.1426,109.2227-109.2227,109.2227
			c-60.062,0-109.2051-49.1436-109.2051-109.2227V773.8691"/>
		<path fill="#FFAB00" d="M255.459,135.3516c0,0-25.9214-117.6324-151.2368-117.6324H20.2114
			c0,0,24.5025,184.8413,151.2197,184.8413C171.4311,202.5605,255.459,209.5513,255.459,135.3516z"/>
		<path fill="#EBEEF0" d="M473.8877,404.1865H221.855c-18.481,0-33.6216-15.1235-33.6216-33.604
			c0-18.4809,15.1406-33.6045,33.6216-33.6045h252.0327c18.4805,0,33.6045,15.1236,33.6045,33.6045
			C507.4922,389.063,492.3682,404.1865,473.8877,404.1865z"/>
		<path fill="#FFAB00" d="M423.5156,202.5605c0,0,25.9043-117.6328,151.2197-117.6328h84.0284
			c0,0-24.503,184.8413-151.2373,184.8413C507.5264,269.769,423.5156,276.7603,423.5156,202.5605z"/>
	</g>
	<path fill="#43525B" d="M574.7353,67.2085c-137.9648,0-168.246,130.23-168.5234,131.5449l-0.416,3.8071
		c0,3.6338,0.208,7.0772,0.5195,10.4517c-2.4922,2.2842-5.0703,4.4644-7.4062,6.939
		c-32.1328,33.9502-40.7334,75.6357-42.9141,99.3076h-16.0752c-2.0244-34.7637-12.4414-111.6455-64.0073-164.7168
		c-1.2461-1.2808-2.6304-2.3706-3.9107-3.6167c0.7266-4.8452,1.1768-10.0015,1.1768-15.5737l-0.4155-3.8067
		C272.4692,130.23,242.187,0,104.2222,0H0l2.6475,20.0552c1.0903,8.1675,28.1367,200.1728,167.2607,200.1552
		c0.0171,0,0.0347,0,0.0518,0c0,0,2.665,0.2422,7.1464,0.2422c11.5938,0,34.0718-1.5918,54.4732-12.3027
		c8.6177-4.5166,17.875-11.4033,25.541-21.3535c36.3901,43.1391,45.1978,103.2705,47.2222,132.4624H221.855
		c-28.3096,0-51.3413,23.0317-51.3413,51.3237c0,27.9805,22.5473,50.7354,50.4238,51.2368v461.2383
		c0,69.9951,56.9302,126.9424,126.9248,126.9424c69.9951,0,126.9424-56.9473,126.9424-126.9424V421.8193
		c27.8594-0.5014,50.4072-23.2563,50.4072-51.2368c0-28.292-23.0322-51.3237-51.3242-51.3237h-82.1934
		c2.0059-17.2866,8.2705-44.9214,27.4434-68.6104c17.875,26.5616,51.0293,37.0132,82.7129,37.0132
		c3.4258,0,5.7793-0.1387,6.0566-0.1728C648.208,287.1426,675.2373,95.4316,676.3271,87.2642l2.6475-20.0557H574.7353z
		 M215.1235,176.7603c-14.1894,7.458-31.3203,8.2539-38.0171,8.2539c-2.4394,0-3.9795-0.1036-5.6753-0.1729
		c-86.52,0-119.5878-104.5337-129.7802-149.4028h62.5713c82.7822,0,116.4731,57.2763,128.3437,86.7622
		c-27.2016-14.2066-58.8852-21.3877-94.7392-21.3877v35.4385c36.7363,0,67.8144,8.9463,92.9052,26.3886
		C227.0459,168.4199,221.9932,173.1611,215.1235,176.7603z M347.8623,974.5615c-50.4409,0-91.4858-41.0459-91.4858-91.5039V421.9062
		h182.9897v28.9668h-91.5039v35.4385h91.5039v65.4092h-91.5039v35.4385h91.5039v65.374h-91.5039v35.4395h91.5039v65.374h-91.5039
		v35.4385h91.5039v65.375h-91.5039v35.4384h90.8457C435.2822,936.96,396.0713,974.5615,347.8623,974.5615z M489.7725,370.5825
		c0,8.7559-7.1289,15.8848-15.8848,15.8848H221.855c-8.7735,0-15.9024-7.1289-15.9024-15.8848
		c0-8.7558,7.1289-15.8852,15.9024-15.8852h252.0327C482.6436,354.6973,489.7725,361.8267,489.7725,370.5825z M506.1084,252.1021
		c-0.2773,0.017-1.8184,0.121-4.2578,0.121c-17.5117,0-43.9688-4.1533-55.1651-25.9213
		c24.2256-15.1758,55.8575-22.8414,94.4288-22.8414V168.022c-35.9756,0-67.0704,6.1079-93.3213,17.8574
		c12.8564-30.2647,46.7382-83.2319,126.9423-83.2319h62.5879C627.0625,147.5337,593.7529,252.0674,506.1084,252.1021z"/>
</g>
</svg>
