<?xml version="1.0" encoding="utf-8"?>
<!-- Generator: Adobe Illustrator 17.1.0, SVG Export Plug-In . SVG Version: 6.00 Build 0)  -->
<!DOCTYPE svg PUBLIC "-//W3C//DTD SVG 1.1//EN" "http://www.w3.org/Graphics/SVG/1.1/DTD/svg11.dtd">
<svg version="1.1" id="lab-flask-leaf" xmlns="http://www.w3.org/2000/svg"  x="0px"
	 y="0px" viewBox="0 0 874.6328 1009.9998" enable-background="new 0 0 874.6328 1009.9998" xml:space="preserve">
<g id="lab-flask-leaf-lab-flask-leaf">
	<g id="lab-flask-leaf-flask">
		<g id="lab-flask-leaf-fill_1_">
			<path fill="#F3F5F6" d="M285.102,34.4773c-29.3452,0-53.1118,23.8047-53.1118,53.1114c0,29.3066,23.7666,53.1113,53.1118,53.1113
				v177.0259C125.7866,353.1463,19.5634,505.45,19.5634,654.115c0,185.7364,150.5655,336.3213,336.3409,336.3213
				c185.7758,0,336.3217-150.5849,336.3217-336.3213c0-148.665-106.1845-300.9687-265.5381-336.3891V140.7
				c29.4024,0,53.1495-23.8047,53.1495-53.1113c0-29.3067-23.7471-53.1114-53.1495-53.1114H285.102"/>
			<path fill="#78909C" d="M19.5634,588.1639C5.6552,833.8719,170.1289,990.4363,355.9043,990.4363
				c185.7758,0,342.0336-160.6904,336.3217-402.2724"/>
			<g>
				<path fill="#AEBCC4" d="M454.81,726.7322c18.2451,0,32.9756,14.7295,32.9756,32.9551c0,18.1885-14.7305,32.9756-32.9756,32.9756
					c-18.2261,0-32.9555-14.7871-32.9555-32.9756C421.8545,741.4617,436.5839,726.7322,454.81,726.7322z"/>
				<path fill="#AEBCC4" d="M322.9677,792.6629c18.2071,0,32.9366,14.7295,32.9366,32.9365
					c0,18.207-14.7295,32.9942-32.9366,32.9942c-18.2641,0-32.9751-14.7872-32.9751-32.9942
					C289.9926,807.3924,304.7036,792.6629,322.9677,792.6629z"/>
				<path fill="#AEBCC4" d="M257.0175,660.8006c18.2261,0,32.9751,14.7304,32.9751,32.9756c0,18.1884-14.749,32.956-32.9751,32.956
					c-18.2451,0-32.9751-14.7676-32.9751-32.956C224.0424,675.531,238.7724,660.8006,257.0175,660.8006z"/>
			</g>
		</g>
		<g>
			<path fill="#43525B" d="M446.2514,302.4227v-144.834c30.625-8.5586,53.1494-36.7002,53.1494-70
				c0-40.0821-32.6113-72.6748-72.7129-72.6748H285.102c-40.082,0-72.6753,32.5927-72.6753,72.6748
				c0,33.2998,22.5059,61.4414,53.1118,70v144.834C113.1005,344.0716,0,492.4397,0,654.115
				c0,196.2442,159.6591,355.8848,355.9043,355.8848c196.2446,0,355.8852-159.6406,355.8852-355.8848
				C711.7895,492.4207,598.6889,344.0716,446.2514,302.4227z M251.5537,87.5887c0-18.4937,15.0547-33.5484,33.5483-33.5484h141.5859
				c18.5127,0,33.586,15.0547,33.586,33.5484c0,18.4936-15.0733,33.5483-33.586,33.5483H285.102
				C266.6084,121.137,251.5537,106.0823,251.5537,87.5887z M355.9043,970.8728c-174.6758,0-316.7774-142.1015-316.7774-316.7578
				c0-149.1616,107.5791-285.5703,250.2163-317.2841c8.96-2.0064,15.3218-9.9346,15.3218-19.105V160.2635h102.4595v157.4624
				c0,9.1704,6.3618,17.0986,15.3222,19.105c142.6368,31.6948,250.2159,168.1035,250.2159,317.2841
				C672.6626,828.7713,530.561,970.8728,355.9043,970.8728z"/>
			<path fill="#43525B" d="M331.1445,411.4925c-120.1314,0-217.8716,97.7212-217.8716,217.8432
				c0,10.8125,8.75,19.5625,19.563,19.5625c10.8135,0,19.5635-8.75,19.5635-19.5625c0-98.5429,80.1831-178.7168,178.7451-178.7168
				c10.8135,0,19.5635-8.75,19.5635-19.5629C350.708,420.2425,341.958,411.4925,331.1445,411.4925z"/>
		</g>
	</g>
	<g id="lab-flask-leaf-leaf">
		<g id="lab-flask-leaf-fill">
			<path fill="#FFAB00" d="M742.9116,23.2815c56.1865-5.2729,100.625-3.3432,102.4971-3.2475
				c3.2285,0.1528,6.2285,1.853,7.9863,4.5469c1.796,2.7128,2.1777,6.1137,1.0312,9.1704
				c-0.6494,1.7578-16.4101,43.3681-43.4443,92.8877c-36.6436,67.0962-74.6611,113.9795-113.0244,139.2363
				c-49.4814,32.6118-96.6699,26.6323-127.4482,15.8188c-32.9755-11.5014-54.2392-30.5297-55.1181-31.351
				c-0.6485-0.5923-1.2227-1.2037-1.6807-1.9297c-0.4775-0.688-0.8408-1.4903-1.1084-2.2925
				c-0.4199-1.1465-9.5137-28.1987-7.0879-63.0269c2.2549-32.5737,15.3223-78.2343,64.8233-110.8466
				C608.7192,46.972,666.7788,30.4842,742.9116,23.2815z"/>
		</g>
		<path fill="#43525B" d="M869.7866,13.8821c-5.1963-7.9287-13.9463-12.9341-23.3838-13.3926
			c-1.9102-0.0952-45.9473-2.2543-105.3252,3.3243c-79.3232,7.4892-140.4014,25.0273-181.4971,52.0991
			c-56.1865,37.0058-71.0312,88.8564-73.5918,125.8247c-2.2343,32.3633,4.2422,58.0019,6.916,66.9243l-69.6938,48.9082
			c-8.8457,6.209-10.9854,18.398-4.7764,27.2437c3.8018,5.4257,9.8579,8.3296,16.0288,8.3296c3.8789,0,7.795-1.1465,11.2149-3.5533
			l73.7441-51.7553c10.7188,7.1455,25.9453,15.7998,44.6104,22.3144c18.3017,6.4385,36.9873,9.7056,55.5185,9.7056
			c31.3516,0,61.3457-9.3042,89.162-27.645c41.0186-26.9952,81.2149-76.19,119.4434-146.1905
			c28.1035-51.4873,44.457-95.0654,44.5918-95.3901C876.0727,31.7259,874.9458,21.6961,869.7866,13.8821z M793.8071,117.2586
			c-35.1152,64.3262-70.9941,108.8213-106.625,132.2817c-34.082,22.4868-72.3691,26.9956-110.2344,13.6792
			c-8.54-2.9804-15.7998-6.5146-22.3535-10.0488l21.3984-15.0356l74.2793,11.1762c0.9745,0.1338,1.9678,0.21,2.9229,0.21
			c9.5342,0,17.8633-6.9541,19.3349-16.6592c1.6036-10.6797-5.7509-20.6523-16.4492-22.2573l-33.6445-5.0625l125.3086-87.9209
			c8.8457-6.209,10.9863-18.398,4.7764-27.2432c-6.1905-8.8457-18.379-11.0044-27.2432-4.7763l-132.7793,93.1743l12.1318-46.272
			c2.7315-10.4502-3.5146-21.1489-13.9658-23.9004c-10.4502-2.6172-21.1484,3.5156-23.9004,13.9658L544.4497,207.72
			c-0.4395,1.6812-0.2862,3.3242-0.2862,4.9673l-16.7929,11.7876c-1.834-9.9346-3.458-24.0527-2.3311-40.0244
			c1.9492-28.1607,13.2588-67.6695,56.0537-95.8682c35.7071-23.518,90.7666-38.936,163.6524-45.8135
			c37.79-3.5727,69.5986-3.7827,86.4306-3.5346C824.6235,55.034,811.7465,84.3982,793.8071,117.2586z"/>
	</g>
</g>
</svg>
