<?xml version="1.0" encoding="utf-8"?>
<!-- Generator: Adobe Illustrator 17.1.0, SVG Export Plug-In . SVG Version: 6.00 Build 0)  -->
<!DOCTYPE svg PUBLIC "-//W3C//DTD SVG 1.1//EN" "http://www.w3.org/Graphics/SVG/1.1/DTD/svg11.dtd">
<svg version="1.1" id="magnifier-bacteria" xmlns="http://www.w3.org/2000/svg"  x="0px"
	 y="0px" viewBox="0 0 1010.0018 1010" enable-background="new 0 0 1010.0018 1010" xml:space="preserve">
<g id="magnifier-bacteria-magnifier-bacteria">
	<g id="magnifier-bacteria-fill">
		<polygon fill="#FFAB00" points="317.39,598.7715 411.1512,692.5615 114.1667,989.5957 20.4056,895.7451 		"/>
		<path fill="#78909C" d="M989.5974,333c0,172.6772-139.959,312.6758-312.6562,312.6758
			c-172.6572,0-312.6557-139.9986-312.6557-312.6758c0-172.6372,139.9985-312.5962,312.6557-312.5962
			C849.6384,20.4038,989.5974,160.3628,989.5974,333z"/>
	</g>
	<g id="magnifier-bacteria-line">
		<g>
			<path fill="#43525B" d="M676.9412,666.0801c-183.6465,0-333.0595-149.4239-333.0595-333.0801
				c0-183.6162,149.413-333,333.0595-333s333.0606,149.3838,333.0606,333C1010.0018,516.6562,860.5876,666.0801,676.9412,666.0801
				L676.9412,666.0801z M676.9412,40.8081c-161.1504,0-292.2519,131.0718-292.2519,292.1919
				c0,161.1602,131.1015,292.2715,292.2519,292.2715S969.1931,494.1602,969.1931,333
				C969.1931,171.8799,838.0916,40.8081,676.9412,40.8081L676.9412,40.8081z"/>
		</g>
		<g>
			<polygon fill="#43525B" points="378.7116,660.1025 349.8592,631.25 443.6794,537.4395 472.532,566.291 378.7116,660.1025 			"/>
		</g>
		<g>
			<path fill="#43525B" d="M114.1667,1010L114.1667,1010c-5.4199,0-10.6108-2.1523-14.4365-5.9883L5.9695,910.1621
				c-7.9609-7.9609-7.9609-20.8828,0.0098-28.8437l296.9844-296.9737c3.8257-3.8261,9.0166-5.9775,14.4263-5.9775l0,0
				c5.4096,0,10.6005,2.1514,14.4262,5.9775l93.7608,93.7901c7.9707,7.9707,7.9707,20.8828,0,28.8535l-296.9844,297.0332
				C124.7669,1007.8477,119.576,1010,114.1667,1010L114.1667,1010z M49.258,895.7559l64.9185,64.9775l268.1221-268.1719
				L317.39,627.6328L49.258,895.7559L49.258,895.7559z"/>
		</g>
		<g>
			<g>
				<path fill="#AEBCC4" d="M570.0692,258.2983c-11.2676,0-20.4043-9.1362-20.4043-20.4043v-57.2866
					c0-11.268,9.1367-20.4038,20.4043-20.4038c11.2675,0,20.4043,9.1358,20.4043,20.4038v57.2866
					C590.4734,249.1621,581.3367,258.2983,570.0692,258.2983L570.0692,258.2983z"/>
			</g>
			<g>
				<path fill="#AEBCC4" d="M582.0046,341.8672c-5.2207,0-10.4414-1.9927-14.4258-5.9776c-7.9707-7.9707-7.9707-20.8925,0-28.8525
					l35.8164-35.8071c7.9707-7.9702,20.8819-7.9702,28.8526,0c7.9697,7.9707,7.9697,20.8926,0,28.8525l-35.8164,35.8071
					C592.446,339.8745,587.2253,341.8672,582.0046,341.8672L582.0046,341.8672z"/>
			</g>
			<g>
				<path fill="#AEBCC4" d="M746.7712,501.4932c-6.207,0-12.3437-2.8199-16.3486-8.17c-6.7549-9.0161-4.9219-21.8086,4.0947-28.5634
					l40.5283-30.3672c9.0371-6.7447,21.8194-4.9014,28.5645,4.0947c6.7549,9.0166,4.9219,21.8091-4.0948,28.564l-40.5292,30.3667
					C755.3192,500.168,751.0261,501.4932,746.7712,501.4932L746.7712,501.4932z"/>
			</g>
			<g>
				<path fill="#AEBCC4" d="M746.7518,382.4561c-5.2207,0-10.4414-1.9927-14.4268-5.9776l-28.6533-28.6533
					c-7.9697-7.9707-7.9697-20.8823,0-28.8525c7.9707-7.9707,20.8828-7.9707,28.8525,0l28.6534,28.6533
					c7.9707,7.9702,7.9707,20.8818,0,28.8525C757.1921,380.4634,751.9724,382.4561,746.7518,382.4561L746.7518,382.4561z"/>
			</g>
			<g>
				<path fill="#AEBCC4" d="M514.2966,437.6704c-9.3652,0-17.8037-6.4858-19.9058-16.0102L483.282,371.228
					c-2.4209-11.0093,4.5332-21.8984,15.5322-24.3198c10.9892-2.4805,21.8886,4.5234,24.3193,15.5322l11.1094,50.4326
					c2.4209,11.0088-4.5331,21.8985-15.5322,24.3194C517.2253,437.521,515.7518,437.6704,514.2966,437.6704L514.2966,437.6704z"/>
			</g>
			<g>
				<path fill="#AEBCC4" d="M620.8503,513.1191c-16.917,0-32.8379-6.5947-44.8232-18.5703
					c-11.9756-11.9853-18.5713-27.9062-18.5713-44.8232c0-16.917,6.5956-32.8277,18.5713-44.8032
					c23.9502-23.9507,65.6953-23.9707,89.6465,0.02c11.9648,11.9555,18.5605,27.8662,18.5605,44.7832
					c0,16.917-6.5957,32.8379-18.5605,44.8135C653.6882,506.5137,637.7673,513.1191,620.8503,513.1191L620.8503,513.1191z
					 M620.8503,427.1499c-6.0176,0-11.6865,2.3511-15.9609,6.6353c-4.2744,4.2641-6.625,9.9228-6.625,15.9404
					c0,6.0278,2.3506,11.6968,6.625,15.9604c8.5088,8.5088,23.3535,8.5284,31.9218,0c4.2637-4.2636,6.6153-9.9326,6.6153-15.9604
					c0-6.0176-2.3516-11.6763-6.6153-15.9307C632.5261,429.501,626.8679,427.1499,620.8503,427.1499L620.8503,427.1499z"/>
			</g>
		</g>
		<g>
			<path fill="#43525B" d="M872.5037,350.7344c-11.2686,0-20.4043-9.1363-20.4043-20.4043
				c0-84.2461-68.5449-152.791-152.8017-152.791c-11.2676,0-20.4033-9.1363-20.4033-20.4043
				c0-11.2681,9.1357-20.4038,20.4033-20.4038c106.7529,0,193.6094,86.8466,193.6094,193.5991
				C892.907,341.5981,883.7712,350.7344,872.5037,350.7344L872.5037,350.7344z"/>
		</g>
	</g>
</g>
</svg>
