<?xml version="1.0" encoding="utf-8"?>
<!-- Generator: Adobe Illustrator 17.1.0, SVG Export Plug-In . SVG Version: 6.00 Build 0)  -->
<!DOCTYPE svg PUBLIC "-//W3C//DTD SVG 1.1//EN" "http://www.w3.org/Graphics/SVG/1.1/DTD/svg11.dtd">
<svg version="1.1" id="magnet" xmlns="http://www.w3.org/2000/svg"  x="0px" y="0px"
	 viewBox="0 0 1009.8008 1009.9998" enable-background="new 0 0 1009.8008 1009.9998" xml:space="preserve">
<g id="magnet-magnet">
	<g id="magnet-fill">
		<path fill="#FFAB00" d="M879.9043,414.5564L518.6289,775.8317c-78.6069,78.5869-206.0327,78.5869-284.6401,0L124.5064,885.3044
			c139.0722,139.042,364.5332,139.042,503.6147,0l361.2754-361.2754L879.9043,414.5564z"/>
		<path fill="#78909C" d="M233.9888,491.1717l361.2749-361.2954L485.7915,20.4041L124.5064,381.679
			c-139.0621,139.102-139.0621,364.5425,0,503.6255l109.4824-109.4727C155.4014,697.2048,155.3818,569.7791,233.9888,491.1717z"/>
		<polygon fill="#FFFFFF" points="901.8027,611.6033 792.3301,502.1307 879.9043,414.5564 989.3965,524.0291 		"/>
		<polygon fill="#FFFFFF" points="507.6699,217.4705 398.2075,107.9978 485.7915,20.4041 595.2637,129.8763 		"/>
	</g>
	<g>
		<path fill="#43525B" d="M1003.8223,509.6023L894.3301,400.1302c-7.9707-7.9702-20.8828-7.9702-28.8526,0L504.2036,761.405
			c-34.1636,34.1533-79.5844,52.963-127.8945,52.963s-93.731-18.8096-127.8838-52.963
			c-70.5176-70.537-70.5176-185.29-0.0103-255.8076l361.2744-361.295c7.9707-7.9702,7.9707-20.8823,0-28.8525L500.2178,5.9773
			c-7.9702-7.9697-20.8823-7.9697-28.8526,0L110.0801,367.2527c-146.7735,146.8135-146.7735,385.6846,0,532.4777
			c71.1152,71.0956,165.6636,110.2695,266.229,110.2695c100.5659,0,195.1226-39.1738,266.2378-110.2695l361.2754-361.2755
			c3.8261-3.8252,5.9785-9.0059,5.9785-14.4258C1009.8008,518.6092,1007.6484,513.4285,1003.8223,509.6023z M613.6953,870.8777
			c-63.4043,63.3838-147.7197,98.3135-237.3862,98.3135c-89.666,0-173.9722-34.9297-237.3765-98.3135
			c-130.8628-130.8925-130.8628-343.8604,0-474.7724L485.7915,49.2566l80.6196,80.6197L219.5625,476.7449
			c-86.418,86.419-86.418,227.0547,0,313.5127c41.8745,41.8643,97.5371,64.919,156.7466,64.919s114.8823-23.0547,156.7456-64.919
			L879.9043,443.409l80.6397,80.6201L613.6953,870.8777z"/>
		<polygon fill="#43525B" points="401.8643,237.7347 373.0112,208.8821 351.8604,230.0232 380.7129,258.8758 		"/>
		<polygon fill="#43525B" points="444.1465,195.4519 415.294,166.5994 394.1426,187.741 422.9956,216.5935 		"/>
		<polygon fill="#43525B" points="359.5415,280.0574 330.729,251.1647 309.5576,272.2859 338.3706,301.1785 		"/>
		<polygon fill="#43525B" points="750.9238,629.0583 779.7774,657.91 800.8984,636.7693 772.0449,607.9167 		"/>
		<polygon fill="#43525B" points="793.1865,586.7557 822,615.6481 843.1807,594.5065 814.3672,565.6141 		"/>
		<polygon fill="#43525B" points="708.582,671.3201 737.3945,700.2126 758.5957,679.0916 729.7832,650.199 		"/>
	</g>
</g>
</svg>
