<?xml version="1.0" encoding="utf-8"?>
<!-- Generator: Adobe Illustrator 17.1.0, SVG Export Plug-In . SVG Version: 6.00 Build 0)  -->
<!DOCTYPE svg PUBLIC "-//W3C//DTD SVG 1.1//EN" "http://www.w3.org/Graphics/SVG/1.1/DTD/svg11.dtd">
<svg version="1.1" id="microscope" xmlns="http://www.w3.org/2000/svg"  x="0px" y="0px"
	 viewBox="0 0 632.819 1010.0012" enable-background="new 0 0 632.819 1010.0012" xml:space="preserve">
<g id="microscope-microscope">
	<g id="microscope-fill">
		<polyline fill="#FFAB00" points="490.0269,418.0022 513.3531,474.7658 403.4449,543.3117 367.3355,498.8747 		"/>
		<path fill="#EBEEF0" d="M138.0904,144.7116l-17.691-17.6909c-8.0454-12.9453-4.1269-29.9267,8.8277-37.9633l106.2812-66.2906
			c12.9366-8.0727,29.9185-4.0913,37.982,8.7998l0,0c8.0634,12.8726,8.8637,37.9634,8.8637,37.9634"/>
		<path fill="#AEBCC4" d="M194.8633,288.2932C90.2451,341.6023,18.6182,450.3113,18.6182,575.802
			c0,151.1094,103.8994,277.9453,244.1631,312.9629c-0.2818-2.4356-0.4365-4.9092-0.4365-7.418
			c0-35.6728,28.8818-64.6182,64.5727-64.6182c32.836,0,59.8731,24.5459,63.9815,56.2549c0,0,223.163-98.6543,212.0361-98.6543
			c-43.4727,0-256.7266,0-261.6904,0c-109.6543,0-198.5723-88.873-198.5723-198.5273c0-81,48.5-150.6362,117.9995-181.5088"/>
		<path fill="#78909C" d="M492.062,371.3113c9.709,15.5092,4.9278,35.8911-10.581,45.6001L366.6265,488.511
			c-15.5098,9.6728-35.9092,4.9458-45.582-10.5635l-174.7452-285.981c-9.6635-15.4912-4.936-35.9091,10.564-45.6001
			l114.8452-71.6001c15.5181-9.6723,35.9453-4.9453,45.6182,10.5821L492.062,371.3113z"/>
		<path fill="#AEBCC4" d="M602.0074,978.1467L391.0083,888.511c-3.6367,32.1445-30.873,57.127-64.0273,57.127
			c-31.3091,0-57.4087-22.3633-63.2178-52l-81.2637,74.7997c-13.7002,12.6358-9.6728,22.9453,8.9454,22.9453h407.872
			C617.9712,991.383,619.189,985.4192,602.0074,978.1467z"/>
		<path fill="#FFAB00" d="M381.2261,881.1467c0,29.8369-24.1816,54.0186-54.0547,54.0186
			c-29.7905,0-53.9541-24.1817-53.9541-54.0186c0-29.7998,24.1636-53.9814,53.9541-53.9814
			C357.0445,827.1653,381.2261,851.3469,381.2261,881.1467z"/>
	</g>
	<g>
		<path fill="#43525B" d="M297.3628,714.6203c0,10.2911,8.3365,18.6172,18.6182,18.6172h282.1728
			c10.2715,0,18.6172-8.326,18.6172-18.6172c0-10.291-8.3457-18.6191-18.6172-18.6191H315.981
			C305.6993,696.0012,297.3628,704.3293,297.3628,714.6203z"/>
		<path fill="#43525B" d="M609.2808,961.0188l-189.4365-80.4727c205.6904-90.9629,205.581-91.5625,201.709-109.9258
			c-1.8184-8.6005-9.8184-14.9101-18.6182-14.9101H341.2447c-99.2271,0-179.9541-80.709-179.9541-179.9082
			c0-68.2725,38.9726-130.1997,99.6088-160.5635l44.3453,72.5635c9.5092,15.2363,25.9179,24.3457,43.9091,24.3457
			c1.5088,0,2.9629-0.4912,4.4551-0.6182l35.3809,43.5264c3.6543,4.4922,9.0185,6.873,14.4551,6.873
			c3.3808,0,6.7998-0.9082,9.8535-2.8183l109.9101-68.5449c7.709-4.7999,10.8174-14.4727,7.3633-22.8726l-21.9092-53.3272
			c9.1084-16,9.6358-36.2182-0.709-52.7636L333.1265,75.5119c-7.6729-12.3271-19.9272-20.3452-33.7998-23.1088
			c-1.5186-9.7457-4.3911-21.6729-10.0547-30.709c-13.5-21.5821-42.0635-28.1636-63.6182-14.7276l-106.2451,66.273
			c-10.5,6.5088-17.8183,16.727-20.6089,28.7451c-2.7822,12-0.7275,24.3818,5.7906,34.8726
			c0.7456,1.2002,1.6367,2.3276,2.6455,3.3276l17.6909,17.6904c0.1821,0.1822,0.4272,0.2368,0.6094,0.4004
			c-4.6641,14.0728-3.5186,29.9453,4.8725,43.3999l46.1363,75.4907C67.4268,337.2932,0,450.6023,0,575.802
			c0,147.291,93.5542,276.2178,230.7539,322.9082l-60.8818,56.0371c-17.0728,15.7441-15.0728,29.7441-12.3633,36.6904
			c2.1909,5.5811,9.8633,18.5635,33.9361,18.5635h407.872c19.3819,0,30.5088-6.3271,33.0362-18.7998
			C634.8804,978.7102,627.1167,968.5461,609.2808,961.0188z M280.9629,881.3469c0-25.3633,20.6182-46,45.9546-46
			c23,0,42.5635,17.2002,45.5088,40.0361c0.2549,1.9815,1.2178,3.71,2.0732,5.4727c-0.8369,1.7998-1.7636,3.5459-2,5.5635
			c-2.6005,23.1465-22.1816,40.5996-45.5185,40.5996c-21.8452,0-40.7451-15.5449-44.9453-36.9629
			c-0.1548-0.7998-0.5181-1.5098-0.773-2.2734c-0.018-0.3809,0.0547-0.7627,0.0093-1.1631
			C281.0718,884.8918,280.9629,883.1282,280.9629,881.3469z M407.5357,518.8196l-18.2725-22.4903l89.8174-55.9814l11.0732,26.9453
			L407.5357,518.8196z M139.0816,104.8572l106.2812-66.2906c4.1909-2.5634,9.7183-1.3271,12.3457,2.8907
			c2.2364,3.5639,3.8179,10.4912,4.8365,17.2001c-0.2183,0.1456-0.4727,0.1817-0.6822,0.3091l-112.8359,70.3452l-13.5274-13.5273
			c-0.6909-1.709-0.8452-3.5635-0.4272-5.3813C135.3814,109.0754,136.3086,106.5666,139.0816,104.8572z M166.7085,162.1662
			l114.8452-71.5996c2.3091-1.4365,4.9546-2.2002,7.6456-2.2002c5.0546,0,9.6635,2.5454,12.2363,6.691l174.8452,286.1269
			c4.2187,6.7451,2.1269,15.6909-4.6367,19.9273L356.772,472.7112c-6.6357,4.1455-15.8916,1.8545-19.8369-4.4727L162.0996,182.1116
			C157.8721,175.3484,159.9541,166.3845,166.7085,162.1662z M37.2364,575.802c0-112.0908,60.663-213.4907,158.7177-266.854
			l45.2998,74.1269c-71.5908,37.1636-117.1997,111.3819-117.1997,192.7271c0,119.7265,97.4273,217.1445,217.1905,217.1445h182.3271
			c-34.582,15.873-78.1269,35.4551-120.7812,54.4004c-13.1094-29.2187-42.4913-49.2363-75.8731-49.2363
			c-40.0635,0-73.6089,28.4902-81.4546,66.2724C121.7813,823.5832,37.2364,707.9836,37.2364,575.802z M205.2906,972.7649
			l51.4179-47.3272c14.8638,23.5459,41.127,38.8174,70.2725,38.8174c34.0088,0,63.5908-20.4531,76.3545-50.2715l138.3808,58.7813
			H205.2906z"/>
		
			<rect x="302.9792" y="266.0293" transform="matrix(0.8502 -0.5264 0.5264 0.8502 -99.7741 211.3941)" fill="#43525B" width="37.2316" height="30.0009"/>
		<polygon fill="#43525B" points="297.9268,207.4026 266.2539,227.0027 282.045,252.53 313.7173,232.9299 		"/>
		<polygon fill="#43525B" points="376.899,335.0569 361.1353,309.5295 329.4351,329.0935 345.2085,354.6203 		"/>
	</g>
</g>
</svg>
