<?xml version="1.0" encoding="utf-8"?>
<!-- Generator: Adobe Illustrator 17.1.0, SVG Export Plug-In . SVG Version: 6.00 Build 0)  -->
<!DOCTYPE svg PUBLIC "-//W3C//DTD SVG 1.1//EN" "http://www.w3.org/Graphics/SVG/1.1/DTD/svg11.dtd">
<svg version="1.1" id="molecule" xmlns="http://www.w3.org/2000/svg"  x="0px" y="0px"
	 viewBox="0 0 997.8848 1010" enable-background="new 0 0 997.8848 1010" xml:space="preserve">
<g id="molecule-molecule">
	<g id="molecule-fill">
		<path fill="#FFAB00" d="M707.8145,505c0,115.3711-93.5313,208.8828-208.8721,208.8828
			c-115.3706,0-208.8823-93.5117-208.8823-208.8828c0-115.3506,93.5117-208.8823,208.8823-208.8823
			C614.2832,296.1177,707.8145,389.6494,707.8145,505z"/>
		<path fill="#FFAB00" d="M896.9209,205.834c44.4444,0,80.5606,36.1455,80.5606,80.5996c0,44.415-36.1358,80.5205-80.5606,80.5205
			c-44.3945,0-80.5303-36.1055-80.5303-80.5205C816.3906,241.9795,852.5264,205.834,896.9209,205.834z"/>
		<path fill="#FFAB00" d="M100.9541,366.9541c-44.415,0-80.5503-36.126-80.5503-80.5205c0-44.4541,36.1353-80.5996,80.5503-80.5996
			c44.4043,0,80.5401,36.1455,80.5401,80.5996C181.4942,330.8281,145.3584,366.9541,100.9541,366.9541z"/>
		<path fill="#AEBCC4" d="M100.9541,804.166c-44.415,0-80.5503-36.1455-80.5503-80.54c0-44.3946,36.1353-80.5596,80.5503-80.5596
			c44.4043,0,80.5401,36.125,80.5401,80.5596C181.4942,768.0205,145.3584,804.166,100.9541,804.166z"/>
		<path fill="#AEBCC4" d="M418.3823,100.9844c0-44.4346,36.1553-80.5801,80.5801-80.5801c44.3941,0,80.5298,36.1455,80.5298,80.5801
			c0,44.4345-36.1357,80.54-80.5298,80.54C454.5376,181.5244,418.3823,145.4189,418.3823,100.9844z"/>
		<path fill="#FFFFFF" d="M418.3823,505.04c0-44.4345,36.1353-80.58,80.5801-80.58c44.3941,0,80.5298,36.1455,80.5298,80.58
			c0,44.4346-36.1357,80.5401-80.5298,80.5401C454.5176,585.5801,418.3823,549.4346,418.3823,505.04z"/>
		<path fill="#FFAB00" d="M579.4922,909.0557c0,44.4344-36.1357,80.54-80.5498,80.54c-44.4048,0-80.5601-36.1055-80.5601-80.54
			c0-44.4346,36.1553-80.5801,80.5601-80.5801C543.3565,828.4756,579.4922,864.6611,579.4922,909.0557z"/>
		<path fill="#AEBCC4" d="M885.0147,804.166c-44.4337,0-80.5694-36.1455-80.5694-80.54c0-44.4745,36.1553-80.5801,80.5694-80.5801
			c44.4052,0,80.5605,36.1055,80.5605,80.5801C965.5752,768.0205,929.4199,804.166,885.0147,804.166z"/>
	</g>
	<g id="molecule-line">
		<g>
			<path fill="#43525B" d="M798.7862,699.4561c-3.3975,0-6.8448-0.8565-10.0225-2.6504L171.4014,347.8052
				c-9.8135-5.5396-13.2603-17.9927-7.7207-27.7964c5.539-9.8037,17.9629-13.251,27.8066-7.7114l617.3614,349.0005
				c9.8134,5.54,13.2607,17.9931,7.7207,27.7968C812.8135,695.7305,805.8994,699.4561,798.7862,699.4561L798.7862,699.4561z"/>
		</g>
		<g>
			<path fill="#43525B" d="M181.4741,717.0703c-7.0537,0-13.9082-3.6465-17.6938-10.2021
				c-5.6289-9.7637-2.292-22.2373,7.4717-27.876L806.2285,312.377c9.7334-5.6592,22.2276-2.2911,27.876,7.4726
				c5.6289,9.7632,2.292,22.2368-7.4717,27.876L191.6563,714.3408C188.4483,716.1934,184.9317,717.0703,181.4741,717.0703
				L181.4741,717.0703z"/>
		</g>
		<g>
			<path fill="#43525B" d="M498.9424,847.4854c-11.2681,0-20.4043-9.126-20.4043-20.4043l-0.0195-627.4844
				c0-11.2779,9.1357-20.4038,20.4038-20.4038c11.268,0,20.4038,9.1259,20.4038,20.4038l0.0205,627.4844
				C519.3467,838.3594,510.21,847.4854,498.9424,847.4854L498.9424,847.4854z"/>
		</g>
		<g>
			<path fill="#43525B" d="M896.9209,387.3579c-55.6523,0-100.9346-45.2715-100.9346-100.9243
				c0-55.6924,45.2823-101.0039,100.9346-101.0039c55.6729,0,100.9639,45.3115,100.9639,101.0039
				C997.8848,342.0864,952.5938,387.3579,896.9209,387.3579L896.9209,387.3579z M896.9209,226.2378
				c-33.1562,0-60.126,26.9995-60.126,60.1958c0,33.1567,26.9698,60.1162,60.126,60.1162c33.166,0,60.1563-26.9595,60.1563-60.1162
				C957.0772,253.2373,930.0869,226.2378,896.9209,226.2378L896.9209,226.2378z"/>
		</g>
		<g>
			<path fill="#43525B" d="M100.9541,387.3579C45.291,387.3579,0,342.0864,0,286.4336c0-55.6924,45.291-101.0039,100.9541-101.0039
				c55.6626,0,100.9444,45.3115,100.9444,101.0039C201.8985,342.0864,156.6167,387.3579,100.9541,387.3579L100.9541,387.3579z
				 M100.9541,226.2378c-33.167,0-60.1465,26.9995-60.1465,60.1958c0,33.1567,26.9795,60.1162,60.1465,60.1162
				c33.1563,0,60.1358-26.9595,60.1358-60.1162C161.0899,253.2373,134.1104,226.2378,100.9541,226.2378L100.9541,226.2378z"/>
		</g>
		<g>
			<path fill="#43525B" d="M100.9541,824.5703C45.291,824.5703,0,779.2793,0,723.626c0-55.6729,45.291-100.9639,100.9541-100.9639
				c55.6626,0,100.9444,45.291,100.9444,100.9639C201.8985,779.2793,156.6167,824.5703,100.9541,824.5703L100.9541,824.5703z
				 M100.9541,663.4697c-33.167,0-60.1465,26.9795-60.1465,60.1562c0,33.1572,26.9795,60.1357,60.1465,60.1357
				c33.1563,0,60.1358-26.9785,60.1358-60.1357C161.0899,690.4492,134.1104,663.4697,100.9541,663.4697L100.9541,663.4697z"/>
		</g>
		<g>
			<path fill="#43525B" d="M498.9624,201.9282c-55.6831,0-100.9839-45.2915-100.9839-100.9438
				C397.9785,45.291,443.2793,0,498.9624,0c55.6529,0,100.9341,45.291,100.9341,100.9844
				C599.8965,156.6367,554.6153,201.9282,498.9624,201.9282L498.9624,201.9282z M498.9624,40.8081
				c-33.1762,0-60.1762,26.9995-60.1762,60.1763c0,33.1562,27,60.1357,60.1762,60.1357c33.1568,0,60.1265-26.9795,60.1265-60.1357
				C559.0889,67.8076,532.1192,40.8081,498.9624,40.8081L498.9624,40.8081z"/>
		</g>
		<g>
			<path fill="#EBEEF0" d="M418.3823,505.04c0-44.4345,36.1353-80.58,80.5801-80.58c44.3941,0,80.5298,36.1455,80.5298,80.58
				c0,44.4346-36.1357,80.5401-80.5298,80.5401C454.5176,585.5801,418.3823,549.4346,418.3823,505.04z"/>
			<path fill="#43525B" d="M498.9624,605.9844c-55.6831,0-100.9839-45.292-100.9839-100.9444
				c0-55.6923,45.3008-100.9843,100.9839-100.9843c55.6529,0,100.9341,45.292,100.9341,100.9843
				C599.8965,560.6924,554.6153,605.9844,498.9624,605.9844L498.9624,605.9844z M498.9624,444.8633
				c-33.1762,0-60.1762,27-60.1762,60.1767c0,33.1563,27,60.1358,60.1762,60.1358c33.1568,0,60.1265-26.9795,60.1265-60.1358
				C559.0889,471.8633,532.1192,444.8633,498.9624,444.8633L498.9624,444.8633z"/>
		</g>
		<g>
			<path fill="#43525B" d="M498.9424,1010c-55.6729,0-100.9639-45.291-100.9639-100.9443
				c0-55.6924,45.291-100.9834,100.9639-100.9834c55.6631,0,100.9541,45.291,100.9541,100.9834
				C599.8965,964.709,554.6055,1010,498.9424,1010L498.9424,1010z M498.9424,848.8799c-33.1665,0-60.1562,26.999-60.1562,60.1758
				c0,33.1572,26.9897,60.1357,60.1562,60.1357c33.166,0,60.1465-26.9785,60.1465-60.1357
				C559.0889,875.8789,532.1084,848.8799,498.9424,848.8799L498.9424,848.8799z"/>
		</g>
		<g>
			<path fill="#43525B" d="M885.0147,824.5703c-55.6719,0-100.9737-45.291-100.9737-100.9443
				c0-55.6924,45.3018-100.9834,100.9737-100.9834c55.6738,0,100.9648,45.291,100.9648,100.9834
				C985.9795,779.2793,940.6885,824.5703,885.0147,824.5703L885.0147,824.5703z M885.0147,663.4502
				c-33.1758,0-60.166,26.999-60.166,60.1758c0,33.1572,26.9902,60.1357,60.166,60.1357c33.167,0,60.1562-26.9785,60.1562-60.1357
				C945.1709,690.4492,918.1817,663.4502,885.0147,663.4502L885.0147,663.4502z"/>
		</g>
	</g>
</g>
</svg>
