<?xml version="1.0" encoding="utf-8"?>
<!-- Generator: Adobe Illustrator 17.1.0, SVG Export Plug-In . SVG Version: 6.00 Build 0)  -->
<!DOCTYPE svg PUBLIC "-//W3C//DTD SVG 1.1//EN" "http://www.w3.org/Graphics/SVG/1.1/DTD/svg11.dtd">
<svg version="1.1" id="moon" xmlns="http://www.w3.org/2000/svg"  x="0px" y="0px"
	 viewBox="0 0 1010 1010" enable-background="new 0 0 1010 1010" xml:space="preserve">
<g id="moon-moon">
	<g id="moon-fill">
		<path fill="#EBEEF0" d="M20.4038,505C20.4038,237.3662,237.3564,20.4043,505,20.4043S989.5957,237.3662,989.5957,505
			S772.6436,989.5957,505,989.5957S20.4038,772.6338,20.4038,505z"/>
		<path fill="#78909C" d="M188.9766,557.6738c0-64.0117,51.8466-115.8686,115.8486-115.8686
			c64.0415,0,115.8887,51.8569,115.8887,115.8686c0,64.002-51.8472,115.8788-115.8887,115.8788
			C240.8232,673.5527,188.9766,621.6758,188.9766,557.6738"/>
		<path fill="#78909C" d="M956.9775,679.7695c-25.1259-29.5508-62.5068-48.3495-104.3515-48.3495
			c-75.5987,0-136.9307,61.3115-136.9307,136.9492c0,55.2647,32.7988,102.7579,79.9629,124.4278
			C867.6299,838.7275,923.9609,765.0625,956.9775,679.7695"/>
		<path fill="#78909C" d="M684.0938,273.2427c75.1191,0,136.0927-60.5445,136.8896-135.4956
			c-62.4072-53.71-138.5244-91.8379-222.5313-108.2569C567.209,54.6069,547.123,93.0635,547.123,136.2827
			C547.123,211.9209,608.4551,273.2427,684.0938,273.2427"/>
		<path fill="#FFAB00" d="M528.1934,747.3184c-15.7012-15.6523-41.0274-15.6523-56.6094-0.0205
			c-15.6416,15.6318-15.7207,40.9775-0.0391,56.6298c15.6211,15.6309,41.0274,15.6407,56.6485,0
			C543.8555,788.3252,543.7754,762.9297,528.1934,747.3184z"/>
		<path fill="#FFAB00" d="M738.9297,429.7998c-15.6621-15.6416-40.9883-15.6416-56.5899-0.0098
			c-15.6425,15.6319-15.6816,40.9776-0.04,56.6192c15.6221,15.6421,41.0479,15.6616,56.669,0
			C754.5908,470.8174,754.5508,445.4219,738.9297,429.7998z"/>
		<path fill="#FFAB00" d="M354.5996,245.9941c-15.6616-15.6513-40.9673-15.6513-56.5893-0.02
			c-15.6416,15.6421-15.7012,40.9776-0.0396,56.6196c15.6216,15.6417,41.0469,15.6617,56.6689,0
			C370.2617,287.0015,370.2017,261.6162,354.5996,245.9941z"/>
		<g>
			<path fill="#43525B" d="M252.1411,610.3477c0-11.627,9.4648-21.0616,21.1016-21.0616c11.6167,0,21.0615,9.4346,21.0615,21.0616
				c0,11.6269-9.4448,21.0722-21.0615,21.0722C261.606,631.4199,252.1411,621.9746,252.1411,610.3477"/>
			<path fill="#43525B" d="M336.4272,610.3477c0-11.627,9.4649-21.0616,21.0816-21.0616c11.6367,0,21.0815,9.4346,21.0815,21.0616
				c0,11.6269-9.4448,21.0722-21.0815,21.0722C345.8921,631.4199,336.4272,621.9746,336.4272,610.3477"/>
			<path fill="#43525B" d="M294.3042,568.1953c0-11.6074,9.4448-21.0625,21.0815-21.0625c11.5967,0,21.0415,9.4551,21.0415,21.0625
				c0,11.6367-9.4448,21.0908-21.0415,21.0908C303.749,589.2861,294.3042,579.832,294.3042,568.1953"/>
			<path fill="#43525B" d="M210.0181,568.1953c0-11.6074,9.4448-21.0625,21.0815-21.0625c11.6367,0,21.0415,9.4551,21.0415,21.0625
				c0,11.6367-9.4048,21.0908-21.0415,21.0908C219.4629,589.2861,210.0181,579.832,210.0181,568.1953"/>
			<path fill="#43525B" d="M252.1411,526.0615c0-11.6162,9.4648-21.0615,21.1016-21.0615c11.6167,0,21.0615,9.4453,21.0615,21.0615
				c0,11.6367-9.4448,21.0713-21.0615,21.0713C261.606,547.1328,252.1411,537.6982,252.1411,526.0615"/>
			<path fill="#43525B" d="M336.4272,526.0615c0-11.6162,9.4649-21.0615,21.0816-21.0615c11.6367,0,21.0815,9.4453,21.0815,21.0615
				c0,11.6367-9.4448,21.0713-21.0815,21.0713C345.8921,547.1328,336.4272,537.6982,336.4272,526.0615"/>
			<path fill="#43525B" d="M378.5903,568.1953c0-11.6074,9.4449-21.0625,21.0616-21.0625c11.6176,0,21.062,9.4551,21.062,21.0625
				c0,11.6367-9.4444,21.0908-21.062,21.0908C388.0352,589.2861,378.5903,579.832,378.5903,568.1953"/>
			<path fill="#43525B" d="M294.3042,483.9287c0-11.6269,9.4448-21.062,21.0815-21.062c11.5967,0,21.0415,9.4351,21.0415,21.062
				c0,11.6265-9.4448,21.0713-21.0415,21.0713C303.749,505,294.3042,495.5552,294.3042,483.9287"/>
			<path fill="#43525B" d="M210.0181,483.9287c0-11.6269,9.4448-21.062,21.0815-21.062c11.6367,0,21.0415,9.4351,21.0415,21.062
				c0,11.6265-9.4048,21.0713-21.0415,21.0713C219.4629,505,210.0181,495.5552,210.0181,483.9287"/>
		</g>
		<g>
			<path fill="#43525B" d="M787.9063,716.7217c9.0068,7.4033,10.2822,20.7236,2.8896,29.6699
				c-7.3926,8.9658-20.7021,10.2412-29.6689,2.8389c-8.9668-7.3721-10.2422-20.7032-2.8497-29.6387
				C765.6699,710.625,778.96,709.3496,787.9063,716.7217"/>
			<path fill="#43525B" d="M793.6455,776.0508c8.9658,7.4121,10.2411,20.7031,2.8291,29.6699
				c-7.4121,8.9766-20.6826,10.2422-29.6894,2.8398c-8.9268-7.4023-10.2012-20.6933-2.8291-29.6699
				C771.3682,769.9238,784.6787,768.6387,793.6455,776.0508"/>
			<path fill="#43525B" d="M847.2461,711.043c8.9863,7.4023,10.2617,20.6836,2.8691,29.6699
				c-7.3925,8.9668-20.7031,10.2422-29.6894,2.8398c-8.9268-7.373-10.2422-20.7031-2.8301-29.6699
				C825.0088,704.9453,838.2793,703.6309,847.2461,711.043"/>
			<path fill="#43525B" d="M841.5664,651.7441c8.9873,7.3721,10.2617,20.6524,2.8496,29.6289
				c-7.4121,8.9766-20.7031,10.2422-29.6494,2.8399c-8.9658-7.3828-10.2412-20.6934-2.8691-29.6299
				C819.3096,645.5967,832.6201,644.332,841.5664,651.7441"/>
			<path fill="#43525B" d="M900.8867,646.0254c8.9658,7.4121,10.2412,20.6933,2.8291,29.6699
				c-7.3525,8.9766-20.6435,10.2412-29.6299,2.8389c-8.9472-7.4131-10.2421-20.6924-2.8886-29.669
				C878.6289,639.8877,891.9395,638.6133,900.8867,646.0254"/>
			<path fill="#43525B" d="M906.5645,705.3643c8.9873,7.372,10.2421,20.6826,2.8496,29.6689
				c-7.3721,8.9375-20.6827,10.2422-29.6495,2.8398c-8.9658-7.4121-10.2412-20.7031-2.8291-29.6699
				C884.3281,699.2266,897.6387,697.9512,906.5645,705.3643"/>
			<path fill="#43525B" d="M912.2637,764.6641c8.9863,7.4023,10.2617,20.7324,2.8496,29.6689
				c-7.3926,8.9668-20.6836,10.2412-29.6504,2.8389c-8.9658-7.3721-10.2412-20.6924-2.8691-29.6387
				C890.0068,758.5664,903.3164,757.2812,912.2637,764.6641"/>
			<path fill="#43525B" d="M852.9648,770.3721c8.9463,7.372,10.2217,20.7031,2.8497,29.6396
				c-7.3926,8.9668-20.7238,10.2422-29.6895,2.8692c-8.9668-7.4024-10.2031-20.6934-2.8496-29.67
				C830.668,764.2451,843.9785,762.96,852.9648,770.3721"/>
			<path fill="#43525B" d="M799.3047,835.3604c8.9863,7.4023,10.2422,20.7128,2.8691,29.6894
				c-7.4121,8.9463-20.7226,10.2217-29.6504,2.8389c-8.9863-7.4023-10.2412-20.6924-2.8486-29.6689
				C777.0664,829.2529,790.3574,827.9883,799.3047,835.3604"/>
		</g>
	</g>
	<g>
		<path fill="#43525B" d="M304.8252,421.4014c-75.1206,0-136.2529,61.1323-136.2529,136.2724
			c0,75.1504,61.1323,136.2831,136.2529,136.2831c75.1602,0,136.292-61.1328,136.292-136.2831
			C441.1172,482.5337,379.9854,421.4014,304.8252,421.4014z M304.8252,653.1484c-52.624,0-95.4448-42.83-95.4448-95.4745
			c0-52.644,42.8208-95.4643,95.4448-95.4643c52.644,0,95.4844,42.8203,95.4844,95.4643
			C400.3096,610.3184,357.4692,653.1484,304.8252,653.1484z"/>
		<path fill="#43525B" d="M966.3564,710.3096c0.9727-2.1786,1.9317-4.3653,2.8741-6.5596c0.0449-0.1045,0.0908-0.209,0.1347-0.3125
			c2.9229-6.8125,5.7002-13.7002,8.3272-20.6621l2.6982-6.9707l-0.0908-0.1074C999.5156,622.3555,1010,564.8799,1010,505
			c0-149.3228-65.1514-283.7124-168.5156-376.2495l0.0029-0.2788l-7.1934-6.187c-25.8564-22.2544-53.8193-41.7461-83.3603-58.2535
			c-0.0586-0.0327-0.1172-0.0654-0.1748-0.0976c-1.7227-0.9619-3.4483-1.918-5.1807-2.8589c-0.291-0.1582-0.584-0.3125-0.876-0.4702
			c-2.2177-1.1987-4.4433-2.3823-6.6787-3.5479c-1.4863-0.7763-2.9765-1.5483-4.4716-2.3105
			c-0.6221-0.3159-1.2441-0.6294-1.8672-0.9429c-1.9434-0.9804-3.8936-1.9492-5.8516-2.9053
			c-0.1885-0.0917-0.3769-0.1855-0.5664-0.2773c-40.3223-19.626-83.6279-34.0376-129.0391-42.3569l-3.1748-0.6221l-0.0498,0.04
			C564.417,2.6377,535.0107,0,505,0C226.5366,0,0,226.5469,0,505s226.5366,505,505,505
			c109.0605,0,210.1543-34.7539,292.7949-93.7627l0.3936,0.1807l9.7236-7.3125c67.332-50.5782,120.7012-116.8029,155.7402-192.8457
			c0.5997-1.2969,1.2002-2.5938,1.7891-3.8975C965.749,711.6797,966.0518,710.9941,966.3564,710.3096z M604.2109,51.5083
			c35.71,7.792,70.3692,19.8516,103.2051,35.8071c0.2578,0.125,0.5137,0.252,0.7704,0.3775c1.5664,0.7641,3.127,1.54,4.6846,2.3217
			c0.6396,0.3223,1.2793,0.6446,1.917,0.9693c1.0976,0.5571,2.1914,1.1225,3.2842,1.689c0.9218,0.478,1.8438,0.9536,2.7617,1.4375
			c0.5029,0.2646,1.0019,0.5351,1.5039,0.8017c27.6973,14.7388,53.7383,32.1968,77.7539,52.0244
			c-5.4248,59.1953-55.6162,105.9024-115.998,105.9024c-64.2813,0-116.5665-52.2857-116.5665-116.5562
			C567.5273,103.9629,580.7773,73.5562,604.2109,51.5083z M40.8081,505C40.8081,249.043,249.0527,40.8081,505,40.8081
			c17.5371,0,34.8486,0.9839,51.8867,2.8877c-19.4599,26.6157-30.1679,58.8135-30.1679,92.5869
			c0,86.7671,70.5976,157.3643,157.375,157.3643c71.5341,0,132.4531-48.5274,151.287-114.3941
			C918.0781,263.1147,969.1914,378.1982,969.1914,505c0,48.1738-7.3799,94.6562-21.0625,138.3799
			c-27.207-20.8272-60.6435-32.3643-95.5029-32.3643c-86.7569,0-157.335,70.5869-157.335,157.3535
			c0,49.793,23.8535,96.2139,62.7812,125.5997C685.2324,941.5225,598.2871,969.1914,505,969.1914
			C249.0527,969.1914,40.8081,760.957,40.8081,505z M929.2168,693.3965c-0.4023,0.9062-0.8047,1.8115-1.2129,2.7139
			c-30.6964,67.6738-77.1738,126.7255-134.7002,172.4414c-35.1104-20.8584-57.2041-58.9659-57.2041-100.1827
			c0-64.2597,52.2656-116.5449,116.5264-116.5449c30.1671,0,58.9209,11.6856,80.5595,32.4082
			c-0.9189,2.1944-1.8564,4.3809-2.8076,6.5586C929.9961,691.6621,929.6045,692.5283,929.2168,693.3965z"/>
		<path fill="#43525B" d="M457.1582,732.8613c-11.4375,11.4473-17.7539,26.6514-17.7344,42.8213
			c0,16.1299,6.2969,31.294,17.6944,42.6709c11.3974,11.418,26.6006,17.7041,42.7607,17.7041
			c16.1602,0,31.3438-6.2861,42.7207-17.6748c11.4375-11.3965,17.7344-26.5898,17.7149-42.7803
			c-0.0206-16.1298-6.2969-31.2939-17.7149-42.7314C519.666,710.0068,479.834,710.0967,457.1582,732.8613z M513.748,789.5107
			c-7.3925,7.4131-20.3457,7.4034-27.7968-0.0302c-3.6866-3.6856-5.7188-8.588-5.7188-13.8087
			c-0.0195-5.2598,2.0528-10.211,5.7989-13.9668c3.6855-3.6973,8.5878-5.7295,13.8085-5.7295
			c5.2403,0,10.2012,2.0625,13.9082,5.7588c3.7051,3.7061,5.7579,8.6484,5.7579,13.9082
			C519.5059,780.8828,517.4736,785.7949,513.748,789.5107z"/>
		<path fill="#43525B" d="M710.6543,518.5498c16.1602,0,31.3633-6.2969,42.7207-17.6943
			c11.4375-11.4077,17.7148-26.5909,17.6943-42.7608c-0.0205-16.1401-6.2959-31.3135-17.7138-42.7309
			c-22.875-22.835-62.6866-22.7852-85.4414-0.0098c-11.418,11.4175-17.7148,26.5908-17.7344,42.7207
			c-0.0195,16.1499,6.2764,31.3433,17.6738,42.751c11.418,11.4272,26.6211,17.7241,42.7812,17.7241
			C710.6543,518.5498,710.6348,518.5498,710.6543,518.5498z M696.7266,471.9829c-3.7071-3.706-5.7393-8.6279-5.7393-13.8682
			c0.0205-5.2407,2.0527-10.1821,5.7988-13.9082c3.6866-3.6962,8.588-5.7387,13.8282-5.7387c5.2411,0,10.1826,2.0522,13.8885,5.7588
			c3.7061,3.706,5.7588,8.6474,5.7588,13.9082c0,5.2402-2.0126,10.1518-5.7392,13.8681
			C717.1104,479.4453,704.0986,479.3853,696.7266,471.9829z"/>
		<path fill="#43525B" d="M326.3052,334.7339c0.02,0,0,0,0.02,0c16.1597,0,31.3633-6.2964,42.7207-17.6939
			c11.4375-11.4077,17.7144-26.5913,17.6943-42.7612c-0.02-16.1299-6.3164-31.2934-17.7143-42.7207
			c-22.8745-22.835-62.6465-22.8052-85.4419-0.0102c-11.4175,11.4174-17.7139,26.581-17.7339,42.7114
			c-0.02,16.1596,6.2568,31.353,17.6743,42.7505C294.9419,328.4375,310.1455,334.7339,326.3052,334.7339z M312.4365,260.4009
			c3.7066-3.7066,8.628-5.749,13.8487-5.749c5.2407,0,10.1621,2.0527,13.8686,5.7587c3.7261,3.7164,5.7583,8.6578,5.7783,13.918
			c0,5.2407-2.0327,10.1524-5.7387,13.8584c-7.4121,7.4424-20.4239,7.3926-27.7964-0.0298
			c-3.7061-3.6963-5.7388-8.6176-5.7388-13.8481C306.6582,269.0684,308.7104,264.127,312.4365,260.4009z"/>
	</g>
</g>
</svg>
