<?xml version="1.0" encoding="utf-8"?>
<!-- Generator: Adobe Illustrator 17.1.0, SVG Export Plug-In . SVG Version: 6.00 Build 0)  -->
<!DOCTYPE svg PUBLIC "-//W3C//DTD SVG 1.1//EN" "http://www.w3.org/Graphics/SVG/1.1/DTD/svg11.dtd">
<svg version="1.1" id="moon-2" xmlns="http://www.w3.org/2000/svg"  x="0px" y="0px"
	 viewBox="0 0 1010.0048 1008.4615" enable-background="new 0 0 1010.0048 1008.4615" xml:space="preserve">
<g id="moon-2-moon-2">
	<g id="moon-2-fill">
		<path fill="#AEBCC4" d="M162.2027,847.229c187.8232,187.8125,498.1426,187.8125,685.9756,0
			c187.8134-187.8535,187.8134-498.1826,0.0195-685.996c-187.8525-187.813-498.1719-187.813-685.9951,0
			C-25.6108,349.0464-25.6303,659.3755,162.2027,847.229z"/>
		<path fill="#FFAB00" d="M836.3599,835.4107C748.6812,923.0708,631.0591,971.356,505.1905,971.356
			c-83.5313,0-163.3716-21.3672-233.294-61.2969c5.8589,0.1992,11.7281,0.6758,17.5674,0.6758
			c131.1411-0.0195,258.771-51.7285,352.2788-145.2363c93.9864-93.9864,145.7539-218.9903,145.7744-351.9112
			c0-132.9418-51.788-257.9448-145.7539-351.9111c-2.249-2.2681-4.5966-4.4565-6.9238-6.685
			c75.7422,21.3676,144.8985,61.437,201.541,118.0795C1018.981,355.6714,1018.9615,652.7701,836.3599,835.4107z"/>
		<g>
			<path fill="#FFFFFF" d="M136.816,470.2496c15.6479,15.6376,41.0244,15.6972,56.6924,0
				c15.6674-15.6578,15.5976-41.0044-0.0498-56.6622c-15.6182-15.6381-40.9449-15.6381-56.6026,0
				C121.1583,429.2847,121.1583,454.5918,136.816,470.2496z"/>
			<path fill="#FFFFFF" d="M366.4297,252.0757c15.6675,15.6377,41.0044,15.6377,56.6421,0.02
				c15.648-15.6577,15.6978-41.0043,0.0303-56.6821c-15.6382-15.6577-41.0742-15.6777-56.7222,0
				C350.732,211.0118,350.8018,236.438,366.4297,252.0757z"/>
			<path fill="#FFFFFF" d="M522.3404,595.0738c15.668,15.6777,41.0146,15.6777,56.6523,0.04
				c15.6377-15.6777,15.6778-41.0449,0-56.7422c-15.6172-15.5976-41.0244-15.5976-56.7021,0
				C506.6529,554.0494,506.7027,579.4361,522.3404,595.0738z"/>
			<path fill="#78909C" d="M244.5401,759.3902c31.3057,31.2959,82.0288,31.2158,113.3047-0.0596
				c31.3252-31.2949,31.3354-82.0098,0.0298-113.3047c-31.3057-31.3154-82.0288-31.3154-113.3345,0
				C213.2247,677.2818,213.2046,728.0747,244.5401,759.3902z"/>
			<path fill="#78909C" d="M770.7252,412.8311c-2.4473,3.1436-4.6348,6.4062-7.5606,9.311
				c-46.9726,46.9732-123.0928,46.9536-170.0459-0.0395c-46.9541-46.9136-46.9541-123.0337,0-170.0069
				c38.5576-38.5771,96.5723-44.9438,142.1339-20.1738C758.8287,289.7779,770.686,351.2745,770.7252,412.8311z"/>
		</g>
	</g>
	<g>
		<path fill="#43525B" d="M225.5997,441.8985c-0.0201-16.1353-6.3169-31.2954-17.7271-42.7158
			c-22.8003-22.7998-62.561-22.8399-85.4209,0c-11.4399,11.4399-17.7368,26.6206-17.7471,42.7358
			c-0.0097,16.1353,6.2774,31.3154,17.7071,42.7354c11.4302,11.4199,26.6201,17.727,42.7754,17.727
			c16.145,0,31.3252-6.3071,42.7256-17.727C219.3423,473.2339,225.6197,458.0538,225.5997,441.8985z M179.084,455.8653
			c-3.7104,3.7202-8.6445,5.7695-13.8969,5.7695c-5.2725,0-10.2364-2.0693-13.9668-5.7895
			c-3.7202-3.7207-5.7696-8.6548-5.7696-13.9073c0-5.2519,2.0689-10.206,5.7994-13.9267c3.7304-3.7202,8.6743-5.7696,13.9267-5.7696
			c5.2329,0,10.167,2.0293,13.8672,5.75c3.7407,3.7403,5.7998,8.6944,5.8096,13.9463
			C184.8638,447.1905,182.8243,452.1246,179.084,455.8653z"/>
		<path fill="#43525B" d="M394.7706,284.1871c16.1255,0,31.2856-6.2872,42.7158-17.6871
			c23.5561-23.5761,23.5659-61.9345,0.0298-85.4907c-22.8301-22.8203-62.7505-22.8003-85.5205-0.02
			c-11.3902,11.3604-17.6773,26.501-17.6875,42.6162c-0.0196,16.1948,6.2671,31.4151,17.727,42.8945
			C363.4654,277.8999,378.6353,284.1871,394.7706,284.1871z M380.8043,209.7979c3.7104-3.7202,8.6543-5.7695,13.9267-5.7695
			c5.2822,0,10.2363,2.0493,13.9566,5.7895c7.6796,7.6797,7.6596,20.1738-0.0098,27.8535c-7.4409,7.461-20.4131,7.3814-27.834,0
			c-3.7402-3.7402-5.7993-8.7143-5.7895-14.0263C375.0543,218.4126,377.0836,213.5186,380.8043,209.7979z"/>
		<path fill="#43525B" d="M550.7017,627.2046c16.1348,0,31.2949-6.2861,42.7149-17.706
			c23.5371-23.5967,23.5371-61.9551-0.0196-85.5508c-22.8203-22.7407-62.5507-22.8203-85.5312,0.0391
			c-23.5259,23.5761-23.4956,61.9355,0.0605,85.4912C519.3463,620.9185,534.5464,627.2046,550.7017,627.2046z M536.6548,552.815
			c3.7403-3.7197,8.7149-5.7695,14.0069-5.7695c5.2724,0,10.2256,2.0497,13.9267,5.7303c7.6797,7.6992,7.6797,20.2344,0,27.9337
			c-7.4209,7.4404-20.3535,7.4404-27.8339-0.04C529.0552,572.9693,529.0356,560.4556,536.6548,552.815z"/>
		<path fill="#43525B" d="M230.1358,773.7945c18.9604,18.9599,44.1777,29.4053,70.9971,29.4053h0.0097
			c26.8589,0,52.1065-10.4649,71.0967-29.4649c19.0098-18.9805,29.4751-44.207,29.4849-71.0469
			c0-26.8388-10.4551-52.0859-29.4453-71.0664c-18.9805-19-44.2276-29.4648-71.0664-29.4648
			c-26.8492,0-52.0967,10.4648-71.0669,29.4453c-19,18.96-29.4649,44.207-29.4751,71.0664
			C200.6607,729.5474,211.1255,754.7945,230.1358,773.7945z M258.9444,660.4302c11.3008-11.3008,26.3018-17.5273,42.2681-17.5273
			c15.956,0,30.957,6.2265,42.2578,17.5273c11.2905,11.2813,17.5078,26.2813,17.5078,42.2383
			c-0.0098,15.9561-6.2368,30.957-17.5376,42.2578c-11.3008,11.3008-26.3218,17.5273-42.2979,17.5273c0,0,0,0-0.0097,0
			c-15.9366,0-30.918-6.207-42.1885-17.4678c-11.3105-11.2998-17.5278-26.3213-17.5278-42.3174
			C241.4263,686.7115,247.6436,671.7115,258.9444,660.4302z"/>
		<path fill="#43525B" d="M966.2974,709.8902c82.5273-185.6446,48.3067-411.0401-103.6953-563.0615
			C767.9009,52.146,640.9673,0,505.1905,0C369.4039,0,242.481,52.146,147.7984,146.8287
			c-197.0645,197.0649-197.0645,517.7206,0,714.8046c94.6826,94.6817,221.6055,146.8282,357.3921,146.8282
			c135.7768,0,262.7104-52.1465,357.3921-146.8282c43.7695-43.7695,77.2539-93.8476,101.5664-147.1074
			C965.0649,713.0533,965.7808,711.5611,966.2974,709.8902z M880.608,777.1568l-245.8887,0.04
			c3.2041-3.0244,6.4668-5.9892,9.5898-9.1123c13.9073-13.9062,26.7598-28.5497,38.7969-43.7305l231.125,0.0401
			C904.4224,742.5982,893.0025,760.1265,880.608,777.1568z M926.4869,309.4146h-146.211
			c-3.7607-17.8862-8.5351-35.4937-14.206-52.7627h132.0068C908.8199,273.7222,918.1705,291.3692,926.4869,309.4146z
			 M790.1627,443.709l175.08-0.02c2.2686,17.5479,3.7608,35.1553,4.0391,52.8228H784.2144
			C787.0992,479.1231,789.1089,461.5152,790.1627,443.709z M790.899,402.9629c-0.377-17.7866-1.6505-35.394-3.8399-52.8022H942.981
			c6.0674,17.3486,11.1807,34.936,15.1397,52.7822L790.899,402.9629z M723.5728,259.5962
			c2.8457,7.9981,5.7695,15.9761,8.1582,24.0933c1.9492,6.665,3.4014,13.4497,5.0528,20.2139
			c1.6914,6.9038,3.6601,13.7675,5.0136,20.7509c2.666,13.688,4.7149,27.5157,6.128,41.502
			c0.5371,5.1528,0.5771,10.3857,0.9345,15.5781c0.5576,8.1572,1.0742,16.3345,1.1944,24.5713
			c-0.418,0.4771-0.836,0.9546-1.294,1.4321c-18.8603,18.8609-43.9287,29.2466-70.5879,29.2466
			c-26.6806,0-51.7685-10.4053-70.6494-29.2861c-18.8603-18.8413-29.2471-43.9097-29.2471-70.5694
			c0-26.6796,10.3868-51.768,29.2676-70.6289c18.6211-18.642,43.4317-28.9082,69.8516-28.9082
			c14.3056,0,28.5107,3.084,41.5224,8.9532C720.5884,250.8423,722.0416,255.2393,723.5728,259.5962z M775.8384,537.2574h192.2305
			c-1.2344,17.707-3.2236,35.3545-6.4863,52.8427l-202.377-0.04C765.692,572.8111,771.3022,555.2037,775.8384,537.2574z
			 M712.233,683.608c10.9629-17.0499,20.8701-34.6377,29.624-52.8028l210.0762,0.041
			c-5.0332,17.8858-11.1221,35.5127-18.3233,52.8028L712.233,683.608z M869.3267,215.9058H750.7104
			c-7.7783-18.085-16.6318-35.7124-26.5205-52.8027l95.7363-0.0196c4.5967,4.2378,9.4317,8.1172,13.8672,12.5537
			C846.6265,188.4698,858.3052,202.0186,869.3267,215.9058z M647.9507,62.9097c43.2129,13.708,84.0381,33.6631,121.4219,59.4277
			l-71.5049,0.0201C682.8873,101.4673,666.2545,81.5914,647.9507,62.9097z M176.607,175.6372
			C263.5996,88.6543,380.2969,40.7461,505.1905,40.7461c20.9604,0,41.5718,1.8306,61.9643,4.4966
			c0.9551,1.1338,1.6915,2.4072,2.9043,3.3423c18.3438,14.1455,32.7686,26.6201,45.4414,39.3135
			c33.0665,33.0664,60.4034,70.2905,81.6915,110.4595c-6.5665-0.9151-13.1709-1.5123-19.7969-1.5123
			c-37.3028,0-72.3399,14.504-98.6807,40.8457c-26.5605,26.5606-41.1836,61.875-41.1836,99.4375
			c0,37.543,14.6231,72.8575,41.1836,99.378c26.5606,26.5801,61.875,41.2231,99.458,41.2231
			c25.0078,0,48.9424-6.625,70.0313-18.7812c-4.6953,48.207-17.1094,94.7021-36.1299,138.3935
			c-2.169,2.5264-3.5421,5.5899-4.2578,8.9922c-22.502,48.7441-53.2197,93.8467-92.3155,132.9413
			c-14.2246,14.2256-29.3847,27.2969-45.1816,39.3926c-3.3428,1.2734-6.0879,3.4219-8.3369,6.1484
			c-97.7959,71.3653-221.7051,102.3614-343.3858,83.3028c-0.6166-0.0996-1.1738,0.1191-1.7807,0.0791
			c-13.9365-11.0225-27.4756-22.6416-40.2085-35.374C-4.5712,651.6363-4.5712,356.8057,176.607,175.6372z M286.9971,914.2564
			c0.8355,0,1.6812,0.0996,2.5166,0.0996c17.856,0,35.6231-1.0352,53.2803-2.9043c0.0796,0,0.1489,0.0391,0.2285,0.0391
			l385.187,0.04c-67.3466,36.5879-143.4668,56.1846-223.019,56.1846C427.5587,967.7154,353.1295,949.1529,286.9971,914.2564z
			 M790.0836,870.7857l-295.8057-0.0205c32.1914-14.3047,62.9492-31.9121,91.6191-52.8028l261.3457-0.0595
			c-4.5351,4.9541-8.6738,10.1269-13.4687,14.9219C820.0063,846.5923,805.2447,859.0064,790.0836,870.7857z"/>
	</g>
</g>
</svg>
