<?xml version="1.0" encoding="utf-8"?>
<!-- Generator: Adobe Illustrator 17.1.0, SVG Export Plug-In . SVG Version: 6.00 Build 0)  -->
<!DOCTYPE svg PUBLIC "-//W3C//DTD SVG 1.1//EN" "http://www.w3.org/Graphics/SVG/1.1/DTD/svg11.dtd">
<svg version="1.1" id="Newtons-cradle" xmlns="http://www.w3.org/2000/svg"  x="0px"
	 y="0px" viewBox="0 0 1010 944.206" enable-background="new 0 0 1010 944.206" xml:space="preserve">
<g id="newtons-cradle-newtons-cradle">
	<g id="newtons-cradle-fill">
		<path fill="#78909C" d="M881.9229,683.2763c5.7314,32.3926-15.9893,63.3741-48.3615,69.1055
			c-33.0576,5.8135-63.4775-16.4463-69.0849-48.3828c-5.7305-32.3926,15.9892-63.3945,48.3408-69.1055
			c3.5303-0.623,7.04-0.9131,10.4863-0.9131C852.2705,633.9804,876.918,654.7041,881.9229,683.2763z"/>
		<path fill="#FFAB00" d="M186.8003,757.1572c-32.8916,0-59.6782-26.7451-59.6782-59.6572
			c0-32.8702,26.7866-59.6368,59.6782-59.6368c32.8706,0,59.6367,26.7666,59.6367,59.6368
			C246.437,730.412,219.6709,757.1572,186.8003,757.1572z"/>
		<path fill="#FFAB00" d="M378.335,757.1572c-32.8916,0-59.6573-26.7451-59.6573-59.6572c0-32.8702,26.7657-59.6368,59.6573-59.6368
			c32.8911,0,59.6362,26.7666,59.6362,59.6368C437.9712,730.412,411.2261,757.1572,378.335,757.1572z"/>
		<path fill="#FFAB00" d="M629.5469,697.5c0,32.912-26.7862,59.6572-59.6778,59.6572c-32.8711,0-59.6367-26.7451-59.6367-59.6572
			c0-32.8702,26.7656-59.6368,59.6367-59.6368C602.7607,637.8632,629.5469,664.6298,629.5469,697.5z"/>
		<rect x="70.6006" y="39.6191" fill="#EBEEF0" width="868.7998" height="47.4473"/>
	</g>
	<path fill="#43525B" d="M1010,84.1699h-30.9805V0H30.9814v84.1699H0v42.5263h30.9814V944.206h42.5259V126.6962h92.0298v473.5831
		c-44.748,9.7802-78.3872,49.6064-78.3872,97.2207c0,54.9443,44.7065,99.6504,99.6504,99.6504
		c45.9111,0,84.2637-31.3965,95.7671-73.7159c11.4829,42.3194,49.8564,73.7159,95.7676,73.7159
		c45.9106,0,84.2636-31.376,95.7671-73.6944c11.5039,42.3184,49.8569,73.6944,95.767,73.6944
		c54.9434,0,99.6504-44.7061,99.6504-99.6504c0-47.6143-33.6385-87.4405-78.3867-97.2207V126.6962h110.5098l83.7441,474.8907
		c-42.3387,17.4012-68.5644,62.4609-60.3008,109.3476c8.4102,47.7178,49.6485,82.3535,98.0518,82.3535
		c5.7939,0,11.6279-0.5195,17.3799-1.5371c54.0928-9.5507,90.3271-61.3183,80.7959-115.4101
		c-8.1602-46.3887-47.4053-80.1319-94.0225-81.9795l-82.499-467.6651h191.7002V944.206h42.5273V126.6962H1010V84.1699z
		 M879.4316,683.7334c5.461,31.0019-15.3046,60.6738-46.2851,66.1562c-31.584,5.5645-60.7793-15.7402-66.1777-46.3476
		c-5.461-31.002,15.3242-60.6739,46.326-66.1348c3.3643-0.6035,6.7285-0.8936,10.0293-0.8936
		C851.0254,636.5136,874.6133,656.3642,879.4316,683.7334z M186.8003,754.624c-31.5,0-57.124-25.624-57.124-57.124
		c0-31.4795,25.624-57.083,57.124-57.083c31.4795,0,57.0825,25.6035,57.0825,57.083
		C243.8828,728.9999,218.2798,754.624,186.8003,754.624z M282.5674,671.5849c-9.6763-35.5703-38.2486-63.373-74.5039-71.2851
		V126.6962h149.0083v473.5831C320.8164,608.2119,292.2231,635.9951,282.5674,671.5849z M378.335,754.624
		c-31.4795,0-57.1036-25.624-57.1036-57.124c0-31.4795,25.6241-57.083,57.1036-57.083s57.103,25.6035,57.103,57.083
		C435.438,728.9999,409.8145,754.624,378.335,754.624z M626.9932,697.5c0,31.4999-25.6241,57.124-57.1241,57.124
		c-31.4785,0-57.1035-25.624-57.1035-57.124c0-31.4795,25.625-57.083,57.1035-57.083
		C601.3691,640.417,626.9932,666.0205,626.9932,697.5z M548.6064,600.2793c-36.2548,7.9326-64.8281,35.6943-74.5043,71.2646
		c-9.6763-35.5703-38.2486-63.332-74.504-71.2646V126.6962h149.0083V600.2793z M73.5073,84.1699V42.5263h862.9849v41.6436H73.5073z"
		/>
</g>
</svg>
