<?xml version="1.0" encoding="utf-8"?>
<!-- Generator: Adobe Illustrator 17.1.0, SVG Export Plug-In . SVG Version: 6.00 Build 0)  -->
<!DOCTYPE svg PUBLIC "-//W3C//DTD SVG 1.1//EN" "http://www.w3.org/Graphics/SVG/1.1/DTD/svg11.dtd">
<svg version="1.1" id="nuclear-symbol" xmlns="http://www.w3.org/2000/svg"  x="0px"
	 y="0px" viewBox="0 0 1010 1010" enable-background="new 0 0 1010 1010" xml:space="preserve">
<g id="nuclear-symbol-nuclear-symbol">
	<g id="nuclear-symbol-fill">
		<path fill="#C9D3D7" d="M505.02,20.4038c-267.6435,0-484.6157,216.9922-484.6157,484.5762
			c0,267.643,216.9722,484.6157,484.6157,484.6157c267.603,0,484.5757-216.9727,484.5757-484.6157
			C989.5957,237.396,772.623,20.4038,505.02,20.4038z"/>
		<path fill="#78909C" d="M770.8506,505c0,146.8135-119.0576,265.8496-265.8506,265.8496
			c-146.8135,0-265.8501-119.0361-265.8501-265.8496S358.1865,239.1597,505,239.1597
			C651.793,239.1597,770.8506,358.1865,770.8506,505z"/>
		<path fill="#FFAB00" d="M504.9604,456.6401c-26.6611,0-48.3403,21.689-48.3403,48.3399c0,26.6802,21.6792,48.3999,48.3403,48.3999
			c26.6607,0,48.399-21.7197,48.399-48.3999C553.3594,478.3291,531.6211,456.6401,504.9604,456.6401L504.9604,456.6401z"/>
		<path fill="#FFAB00" d="M145.7178,521c5.2602,116.4668,67.3891,224.1055,165.7827,287.0918l110.0102-190.5313
			c-31.0839-23.1132-51.3886-58.2031-55.872-96.5605H145.7178L145.7178,521z"/>
		<path fill="#FFAB00" d="M588.4893,617.5215L698.5,808.0918C796.8936,745.1055,859.082,637.4668,864.3223,521h-220.041
			C639.8574,559.3574,619.5332,594.4473,588.4893,617.5215L588.4893,617.5215z"/>
		<path fill="#FFAB00" d="M504.9604,364.752c19.1685,0,38.1978,3.9951,55.7916,11.6269l109.9911-190.541
			c-102.1006-53.1221-229.4458-53.0923-331.4859,0l109.9903,190.541C466.8223,368.7471,485.7915,364.752,504.9604,364.752
			L504.9604,364.752z"/>
	</g>
	<g>
		<path fill="#43525B" d="M505.02,0C226.5566,0,0,226.5366,0,504.98C0,783.4434,226.5566,1010,505.02,1010
			C783.4629,1010,1010,783.4434,1010,504.98C1010,226.5366,783.4629,0,505.02,0z M505.02,969.1914
			c-255.9673,0-464.2119-208.2441-464.2119-464.2114c0-255.9473,208.2446-464.1719,464.2119-464.1719
			c255.9468,0,464.1714,208.2246,464.1714,464.1719C969.1914,760.9473,760.9668,969.1914,505.02,969.1914z"/>
		<path fill="#43525B" d="M589.8047,504.98c0-46.7461-38.0586-84.7744-84.8443-84.7744c-46.746,0-84.7646,38.0283-84.7646,84.7744
			c0,46.7661,38.0186,84.8247,84.7646,84.8247C551.7461,589.8047,589.8047,551.7461,589.8047,504.98z M504.9604,548.9961
			c-24.2299,0-43.9565-19.7461-43.9565-44.0161c0-24.2398,19.7266-43.9663,43.9565-43.9663
			c24.2896,0,44.0357,19.7265,44.0357,43.9663C548.9961,529.25,529.25,548.9961,504.9604,548.9961z"/>
		<path fill="#43525B" d="M880.6816,484.5762H629.2178c-11.2783,0-20.4043,9.1357-20.4043,20.4038
			c0,36.8628-19.9053,71.2749-51.9658,89.8257c-9.7442,5.6396-13.0723,18.1123-7.4532,27.8759l125.752,217.8291
			c2.7099,4.6827,7.1738,8.0899,12.3945,9.4854c1.7324,0.4775,3.5059,0.7168,5.2793,0.7168c3.5674,0,7.0938-0.9365,10.2227-2.75
			C825.208,777.2656,901.0859,645.8555,901.0859,504.98C901.0859,493.7119,891.959,484.5762,880.6816,484.5762z M699.9941,801.8945
			L594.208,618.6562c29.251-22.9941,48.6592-56.5488,53.959-93.2714h211.5127C853.2031,637.1484,793.666,740.2041,699.9941,801.8945
			z"/>
		<path fill="#43525B" d="M425.2568,407.6821c2.71,4.6924,7.1734,8.1099,12.3941,9.5049
			c5.1806,1.3945,10.7998,0.6773,15.5024-2.0425c31.5625-18.2719,72.0322-18.2822,103.7139,0.0098
			c3.208,1.853,6.7148,2.73,10.1816,2.73c7.0547,0,13.9082-3.6563,17.6944-10.2022l125.752-217.7993
			c5.6192-9.7534,2.292-22.227-7.4521-27.8662c-60.0762-34.7505-128.5616-53.1123-198.023-53.1123
			c-69.5014,0-137.9863,18.3716-198.0429,53.1123c-9.7437,5.6392-13.0713,18.1128-7.4522,27.8662L425.2568,407.6821z
			 M664.666,187.6416L558.8789,370.8594c-17.1152-6.9043-35.4473-10.4912-53.9185-10.4912
			c-18.4516,0-36.7436,3.5869-53.8398,10.4712L345.3545,187.6416C444.0469,137.9067,565.8936,137.8867,664.666,187.6416z"/>
		<path fill="#43525B" d="M453.1333,594.8652c-32.0806-18.5908-52.0063-53.0429-52.0063-89.8852
			c0-11.2681-9.126-20.4038-20.4043-20.4038H129.3384c-11.2779,0-20.4038,9.1357-20.4038,20.4038
			c0,140.8755,75.8774,272.3061,198.0229,342.9829c3.1279,1.8135,6.6553,2.75,10.2217,2.75c1.7734,0,3.5469-0.2393,5.2803-0.7168
			c5.2207-1.3955,9.6841-4.8027,12.394-9.4854l125.7319-217.789C466.2046,612.958,462.877,600.4844,453.1333,594.8652z
			 M310.0059,801.8945c-93.6714-61.6904-153.1895-164.7461-159.6656-276.5096H361.793
			c5.3003,36.7226,24.708,70.2968,53.9795,93.3125L310.0059,801.8945z"/>
	</g>
</g>
</svg>
