<?xml version="1.0" encoding="utf-8"?>
<!-- Generator: Adobe Illustrator 17.1.0, SVG Export Plug-In . SVG Version: 6.00 Build 0)  -->
<!DOCTYPE svg PUBLIC "-//W3C//DTD SVG 1.1//EN" "http://www.w3.org/Graphics/SVG/1.1/DTD/svg11.dtd">
<svg version="1.1" id="protective-gloves" xmlns="http://www.w3.org/2000/svg"  x="0px"
	 y="0px" viewBox="0 0 1010 922.3828" enable-background="new 0 0 1010 922.3828" xml:space="preserve">
<g id="protective-gloves-protective-gloves">
	<g id="protective-gloves-right">
		<g id="protective-gloves-fill_1_">
			<path fill="#EBEEF0" d="M969.5254,363.5332l0.0391-245.6768c-0.0391-21.1674-17.252-38.3808-38.42-38.4194
				c-21.207,0.0386-38.4199,17.252-38.4199,38.4194v185.0039h-11.7851l0.0389-239.8613
				c-0.0389-21.2065-17.2139-38.3808-38.4199-38.3808c-21.207,0-38.4199,17.1743-38.4199,38.3808v239.8613h-11.708V58.3081
				c0-21.2065-17.2139-38.4199-38.3819-38.4585c-21.205,0.0386-38.3807,17.252-38.3807,38.4585v244.5522h-11.0098v-192.021
				c0-21.2451-17.1738-38.4194-38.3809-38.4194c-21.207,0-38.4199,17.1743-38.4199,38.4194l0.0391,252.6939l-0.0391,45.4365
				l-17.7168-45.708c-7.6377-19.7715-29.8906-29.6191-49.701-21.9424c-19.7334,7.6367-29.542,29.9287-21.9043,49.7012
				l89.3221,230.5957V868.417h341.7071V363.5332H969.5254z"/>
			<rect x="606.7676" y="840.6973" fill="#FFAB00" width="383.3828" height="61.8359"/>
		</g>
		<path fill="#43525B" d="M989.4141,820.8477l-0.0391-457.3145l0.0391-245.7153c-0.0586-32.0425-26.1885-58.1724-58.3086-58.2305
			c-11.0879,0.019-21.458,3.1401-30.2774,8.5483V62.96c-0.0586-32.0811-26.208-58.1915-58.2695-58.1915
			c-16.6133,0-31.6348,6.9976-42.2578,18.1827C789.6387,9.0332,772.8711,0.0386,754.0107,0
			c-32.081,0.0581-58.1914,26.2075-58.1914,58.3081v2.3262c-8.665-5.1177-18.7646-8.064-29.542-8.064
			c-32.1386,0-58.2695,26.1299-58.2695,58.269l0.0391,218.7525c-3.1602-2.2295-6.5518-4.1484-10.1573-5.7383
			c-14.247-6.3193-30.0849-6.707-44.622-1.0469c-29.9102,11.5723-44.836,45.3789-33.2442,75.3858l87.9844,227.126v195.5293H586.918
			v101.5352H1010V820.8477H989.4141z M557.0469,383.8672c-3.7031-9.5752,1.0469-20.3535,10.5644-24.0362
			c4.6524-1.8222,9.6914-1.6865,14.2285,0.3291c4.5352,1.9971,8.0059,5.6407,9.7891,10.2745l55.9815,144.4316l0.1357-151.333
			l-0.0391-252.6939c0-10.2348,8.3361-18.5703,18.5703-18.5703c10.2159,0,18.5313,8.3355,18.5313,18.5703V322.71h50.709V58.3081
			c0-10.2349,8.3359-18.5898,18.4931-18.6089c10.2354,0.0191,18.5704,8.374,18.5704,18.6089V322.71h51.4072V62.999
			c0-10.2158,8.3349-18.5312,18.5703-18.5312c10.2148,0,18.5508,8.3349,18.5703,18.5312l-0.0391,259.711h51.4844V117.8564
			c0-10.2153,8.3555-18.5507,18.5313-18.5703c10.2353,0.0196,18.5898,8.374,18.6093,18.5703v702.9913H647.707V617.9131
			L557.0469,383.8672z M970.3008,882.6836H626.6172v-22.1367h343.6836V882.6836z"/>
	</g>
	<g id="protective-gloves-left">
		<g id="protective-gloves-fill">
			<path fill="#FFAB00" d="M40.4746,363.5332l-0.0391-245.6768c0.0391-21.1674,17.252-38.3808,38.42-38.4194
				c21.2065,0.0386,38.4194,17.252,38.4194,38.4194v185.0039h11.7856L129.022,62.999
				c0.0385-21.2065,17.2134-38.3808,38.4194-38.3808c21.2065,0,38.4199,17.1743,38.4199,38.3808v239.8613h11.708V58.3081
				c0-21.2065,17.2134-38.4199,38.3809-38.4585c21.2065,0.0386,38.3813,17.252,38.3813,38.4585v244.5522h11.0103v-192.021
				c0-21.2451,17.1743-38.4194,38.3809-38.4194c21.2065,0,38.4194,17.1743,38.4194,38.4194l-0.0386,252.6939l0.0386,45.4365
				l17.7173-45.708c7.6377-19.7715,29.8906-29.6191,49.7011-21.9424c19.7334,7.6367,29.542,29.9287,21.9043,49.7012
				l-89.3227,230.5957V868.417H40.4355V363.5332H40.4746z"/>
			<rect x="19.8496" y="840.6973" fill="#AEBCC4" width="383.3828" height="61.8359"/>
		</g>
		<path fill="#43525B" d="M489.9766,398.1728c11.5918-29.9873-3.334-63.7939-33.2442-75.3662
			c-14.5176-5.582-30.3359-5.2334-44.622,1.0469c-3.6055,1.5899-6.9976,3.5088-10.1573,5.7383l0.0386-218.7525
			c0-32.1391-26.1299-58.269-58.269-58.269c-10.7779,0-20.877,2.9463-29.542,8.064v-2.3262c0-32.1006-26.1104-58.25-58.2691-58.3081
			c-18.8027,0.0386-35.5703,9.0332-46.2124,22.9512c-10.6225-11.2041-25.645-18.1827-42.2578-18.1827
			c-32.0615,0-58.2109,26.1104-58.269,58.2305v5.1563c-8.8394-5.4082-19.229-8.5489-30.356-8.5679
			c-32.042,0.0581-58.1724,26.188-58.2305,58.269v702.9913H0v101.5352h423.082V820.8477h-21.0903V625.3184L489.9766,398.1728z
			 M383.3828,882.6836H39.6992v-22.1367h343.6836V882.6836z M60.2852,820.8477l0.0385-457.3145l-0.0385-245.6377
			c0.0195-10.2354,8.374-18.5898,18.5312-18.6094c10.2544,0.0196,18.6089,8.355,18.6089,18.5703V322.71h51.4849l-0.0386-259.6724
			c0.019-10.2349,8.3545-18.5698,18.5698-18.5698c10.2354,0,18.5703,8.3154,18.5703,18.5312V322.71h51.4072V58.3081
			c0-10.2349,8.3355-18.5898,18.4927-18.6089c10.2349,0.0191,18.5703,8.374,18.5703,18.6089V322.71h50.709V110.8393
			c0-10.2348,8.3159-18.5703,18.5318-18.5703c10.2348,0,18.5698,8.3355,18.5698,18.5703l-0.0386,252.7134l0.1357,151.3135
			l55.9815-144.4512c1.7832-4.6142,5.2539-8.2578,9.7891-10.2549c4.5361-2.0156,9.6152-2.1513,14.2285-0.3291
			c9.5176,3.6827,14.2666,14.461,10.5644,24.0166l-90.6606,234.0655v202.9346H60.2852z"/>
	</g>
</g>
</svg>
