<?xml version="1.0" encoding="utf-8"?>
<!-- Generator: Adobe Illustrator 17.1.0, SVG Export Plug-In . SVG Version: 6.00 Build 0)  -->
<!DOCTYPE svg PUBLIC "-//W3C//DTD SVG 1.1//EN" "http://www.w3.org/Graphics/SVG/1.1/DTD/svg11.dtd">
<svg version="1.1" id="rocket" xmlns="http://www.w3.org/2000/svg"  x="0px" y="0px"
	 viewBox="0 0 780.1919 1010" enable-background="new 0 0 780.1919 1010" xml:space="preserve">
<g id="rocket-rocket">
	<g id="rocket-fill">
		<path fill="#FFAB00" d="M390.1006,663.7461c-38.0327,0-68.8648,30.8418-68.8648,68.8652v125.8788h137.712V732.6113
			C458.9478,694.5879,428.1509,663.7461,390.1006,663.7461z"/>
		<polyline fill="#78909C" points="266.1421,335.7896 224.811,335.7896 18.2075,542.4023 18.2075,666.3691 266.1421,666.3691 		"/>
		<polyline fill="#78909C" points="514.0689,335.7896 555.354,335.7896 761.9849,542.4023 761.9849,666.3691 514.0689,666.3691 		
			"/>
		<path fill="#EBEEF0" d="M236.6973,330.3398c0-123.9672,153.4033-247.935,153.4033-247.935s153.4116,123.9678,153.4116,247.935
			v387.5586H236.6973V330.3398z"/>
		<path fill="#AEBCC4" d="M431.4224,422.5596c0,22.8037-18.4922,41.3134-41.3218,41.3134
			c-22.8037,0-41.3223-18.5097-41.3223-41.3134c0-22.8213,18.5186-41.3223,41.3223-41.3223
			C412.9302,381.2373,431.4224,399.7383,431.4224,422.5596z"/>
		<path fill="#AEBCC4" d="M431.4224,284.812c0,22.813-18.4922,41.3316-41.3218,41.3316c-22.8037,0-41.3223-18.5186-41.3223-41.3316
			c0-22.8125,18.5186-41.3223,41.3223-41.3223C412.9302,243.4897,431.4224,261.9995,431.4224,284.812z"/>
		<path fill="#AEBCC4" d="M431.4224,560.2891c0,22.8222-18.4922,41.332-41.3218,41.332c-22.8037,0-41.3223-18.5098-41.3223-41.332
			c0-22.8037,18.5186-41.3311,41.3223-41.3311C412.9302,518.958,431.4224,537.4854,431.4224,560.2891z"/>
	</g>
	<g>
		<rect x="344.3599" y="899.8301" fill="#43525B" width="36.415" height="110.1699"/>
		<rect x="399.4185" y="899.8301" fill="#43525B" width="36.414" height="110.1699"/>
		<path fill="#43525B" d="M390.1006,363.0298c-32.8232,0-59.5298,26.7065-59.5298,59.5298c0,32.8232,26.7066,59.521,59.5298,59.521
			c32.8237,0,59.5308-26.6978,59.5308-59.521C449.6314,389.7363,422.9243,363.0298,390.1006,363.0298z M390.1006,445.6655
			c-12.7485,0-23.1148-10.3662-23.1148-23.1059c0-12.7486,10.3663-23.1148,23.1148-23.1148
			c12.7495,0,23.1147,10.3662,23.1147,23.1148C413.2153,435.2993,402.8501,445.6655,390.1006,445.6655z"/>
		<path fill="#43525B" d="M390.1006,225.2822c-32.8232,0-59.5298,26.7066-59.5298,59.5298
			c0,32.8325,26.7066,59.5391,59.5298,59.5391c32.8237,0,59.5308-26.7066,59.5308-59.5391
			C449.6314,251.9888,422.9243,225.2822,390.1006,225.2822z M390.1006,307.936c-12.7485,0-23.1148-10.375-23.1148-23.124
			c0-12.7485,10.3663-23.1147,23.1148-23.1147c12.7495,0,23.1147,10.3662,23.1147,23.1147
			C413.2153,297.561,402.8501,307.936,390.1006,307.936z"/>
		<path fill="#43525B" d="M390.1006,500.7505c-32.8232,0-59.5298,26.7065-59.5298,59.5386c0,32.832,26.7066,59.539,59.5298,59.539
			c32.8237,0,59.5308-26.707,59.5308-59.539C449.6314,527.457,422.9243,500.7505,390.1006,500.7505z M390.1006,583.4131
			c-12.7485,0-23.1148-10.375-23.1148-23.124c0-12.7481,10.3663-23.1231,23.1148-23.1231c12.7495,0,23.1147,10.375,23.1147,23.1231
			C413.2153,573.0381,402.8501,583.4131,390.1006,583.4131z"/>
		<path fill="#43525B" d="M780.1919,534.4453L561.7212,332.1802v-1.8404c0-117.5488-123.0801-230.3764-153.4141-256.3984V18.2075
			C408.3071,8.1523,400.1548,0,390.1006,0c-10.0547,0-18.2075,8.1523-18.2075,18.2075v55.7339
			c-30.3247,26.022-153.4033,138.8589-153.4033,256.3984v1.7872L0,534.4453v150.1309h218.4898v51.5294h84.5385v140.5918h174.1265
			V736.1055h84.5664v-51.5294h218.4707V534.4453z M36.415,648.1621v-97.8027l182.0748-168.5977v266.4004H36.415z M440.7407,840.2832
			h-32.4336v-82.0234h-36.414v82.0234h-32.4497V736.1055h101.2973V840.2832z M254.9048,699.6904V353.9971h56.6675V317.582h-55.8496
			c7.0766-77.2216,75.5683-154.5766,116.1704-194.0678v35.8901c0,10.0552,8.1528,18.2075,18.2075,18.2075
			c10.0542,0,18.2065-8.1523,18.2065-18.2075v-35.8901c40.6114,39.4912,109.1036,116.8462,116.1797,194.0678h-55.8672v36.4151
			h56.6856v345.6933H254.9048z M743.7778,648.1621H561.7212V381.7974l182.0566,168.562V648.1621z"/>
	</g>
</g>
</svg>
