<?xml version="1.0" encoding="utf-8"?>
<!-- Generator: Adobe Illustrator 17.1.0, SVG Export Plug-In . SVG Version: 6.00 Build 0)  -->
<!DOCTYPE svg PUBLIC "-//W3C//DTD SVG 1.1//EN" "http://www.w3.org/Graphics/SVG/1.1/DTD/svg11.dtd">
<svg version="1.1" id="satellite" xmlns="http://www.w3.org/2000/svg"  x="0px" y="0px"
	 viewBox="0 0 1010 1010.0001" enable-background="new 0 0 1010 1010.0001" xml:space="preserve">
<g id="satellite-satellite">
	<g id="satellite-fill">
		<path fill="#AEBCC4" d="M676.502,787.9474l-42.7813,42.7597c-56.9883-57.0273-51.4883-147.4306,3.4473-202.3457
			c54.8954-54.9765,145.3387-60.4355,202.3867-3.4082l-48.9776,48.9785L676.502,787.9474z"/>
		<path fill="#78909C" d="M326.166,326.1559c54.9155-54.9756,143.2666-56.2608,198.2422-1.315l206.1719,206.1621L531.1035,730.5606
			L326.8232,526.4005C272.127,471.6144,271.27,381.0515,326.166,326.1559z"/>
		<polygon fill="#FFAB00" points="989.5957,167.8849 757.8389,399.6422 610.3281,252.1715 842.1055,20.4039 		"/>
		
			<rect x="46.1472" y="695.6703" transform="matrix(-0.7071 0.7071 -0.7071 -0.7071 924.217 1217.1002)" fill="#FFAB00" width="327.7823" height="208.5834"/>
	</g>
	<g>
		<path fill="#43525B" d="M734.4863,872.5724c0.836,0,1.6934-0.0606,2.5498-0.1602c37.501-4.6826,72.6104-21.6592,98.8321-47.8223
			c24.7275-24.7275,40.9277-56.4101,46.8457-91.6777c1.8525-11.1191-5.6397-21.6406-16.7569-23.5137
			c-11.1386-1.873-21.6406,5.6396-23.4931,16.7383c-4.503,26.8594-16.7578,50.9297-35.4287,69.5811
			c-19.8456,19.7861-46.4864,32.6377-75.0605,36.2051c-11.1777,1.3955-19.1084,11.5771-17.7129,22.7753
			C715.5361,865.0197,724.3438,872.5724,734.4863,872.5724z"/>
		<path fill="#43525B" d="M941.5742,709.1603c-11.0781-0.5586-21.001,7.6308-21.8183,18.8496
			c-3.5469,48.6582-23.9102,92.8545-58.8809,127.8632c-34.5117,34.4922-79.9424,55.4141-127.8838,58.8809
			c-11.2383,0.8379-19.6865,10.6016-18.8701,21.8399c0.7773,10.7392,9.7246,18.9296,20.3242,18.9296
			c0.498,0,0.9971-0.0205,1.4951-0.041c57.7256-4.2236,112.3418-29.3301,153.7881-70.7363
			c41.4053-41.4453,66.5313-96.043,70.7158-153.7481C961.2617,719.7404,952.8125,709.9572,941.5742,709.1603z"/>
		<path fill="#43525B" d="M1004.0225,153.4586L856.5313,5.9776c-7.9708-7.9702-20.8829-7.9702-28.8526,0L595.9023,237.7448
			c-3.8261,3.8262-5.9785,9.0166-5.9785,14.4268c0,5.4097,2.1524,10.6001,5.9785,14.4263l59.3379,59.3188l-50.4716,50.4321
			l-65.9346-65.9443c-30.0283-30.0083-69.9194-46.5366-112.3018-46.5366c-43.1992,0-83.9673,16.9966-114.7925,47.8618
			c-62.9257,62.9355-62.6469,165.6929,0.6573,229.0967l63.9819,63.9629l-50.4722,50.4121l-59.2993-59.2998
			c-7.9702-7.9698-20.8823-7.9698-28.8525,0L5.978,827.6788C2.1519,831.504,0,836.6856,0,842.1057
			c0,5.3994,2.1519,10.5996,5.978,14.4258l147.4907,147.4902c3.8257,3.8262,9.0064,5.9785,14.4263,5.9785
			c5.4199,0,10.6006-2.1523,14.4263-5.9785l231.7773-231.7764c3.8257-3.8252,5.9776-9.0264,5.9776-14.4268
			c0-5.4199-2.1519-10.5996-5.9776-14.4257l-59.3193-59.3399l50.4722-50.4316L516.6768,745.006
			c3.9853,3.9658,9.206,5.959,14.4267,5.959c5.2197,0,10.4404-1.9932,14.4258-5.9785l28.4541-28.4541
			c-0.3789,3.8457-0.7773,7.6914-0.8975,11.5967c-1.3545,44.2754,15.045,85.8408,46.209,117.0049
			c3.9844,3.9853,9.2051,5.9775,14.4258,5.9775s10.4414-1.9922,14.4258-5.9775L853.9805,639.38
			c3.8261-3.8262,5.9785-9.0069,5.9785-14.4268c0-5.4199-2.1524-10.5996-5.9785-14.4258
			c-29.8887-29.8885-69.7002-46.3476-112.0821-46.3476c-5.5195,0-11.0195,0.2793-16.4785,0.8369l19.586-19.5869
			c7.9707-7.9707,7.9707-20.8926,0-28.8535L633.6406,405.2018l50.4532-50.4327l59.3183,59.2994
			c3.9854,3.9853,9.2061,5.978,14.4268,5.978s10.4404-1.9927,14.4267-5.978l231.7569-231.7574
			c3.8252-3.8256,5.9775-9.0161,5.9775-14.4262C1010,162.4753,1007.8477,157.2843,1004.0225,153.4586z M167.895,960.7433
			L49.2568,842.1057l202.9243-202.9258l118.6386,118.6387L167.895,960.7433z M809.4473,626.1896L634.9561,800.5997
			c-14.4854-20.6035-21.8781-45.291-21.0811-71.2344c0.9766-32.5,14.3867-63.2451,37.7393-86.5976
			c23.9707-23.9912,56.868-37.7793,90.2841-37.7793C766.4473,604.9885,789.8203,612.42,809.4473,626.1896z M531.1035,701.7072
			l-189.834-189.7324c-47.4033-47.4741-47.7021-124.3579-0.6772-171.4023c23.1338-23.1441,53.6601-35.8965,85.9399-35.8965
			c31.5025,0,61.1324,12.2842,83.4492,34.5913l191.7461,191.7358L531.1035,701.7072z M757.8389,370.7897L639.1807,252.1715
			L842.1055,49.2565l118.6386,118.6285L757.8389,370.7897z"/>
		<polygon fill="#43525B" points="479.8535,504.1832 503.4858,527.795 532.3379,498.9527 508.7061,475.3307 		"/>
		<polygon fill="#43525B" points="550.71,575.0587 579.6025,546.2462 555.9902,522.5938 527.0977,551.4279 		"/>
		<polygon fill="#43525B" points="461.4424,428.0266 432.5898,456.879 456.2217,480.5313 485.0742,451.6783 		"/>
	</g>
</g>
</svg>
