<?xml version="1.0" encoding="utf-8"?>
<!-- Generator: Adobe Illustrator 17.1.0, SVG Export Plug-In . SVG Version: 6.00 Build 0)  -->
<!DOCTYPE svg PUBLIC "-//W3C//DTD SVG 1.1//EN" "http://www.w3.org/Graphics/SVG/1.1/DTD/svg11.dtd">
<svg version="1.1" id="syringe" xmlns="http://www.w3.org/2000/svg"  x="0px" y="0px"
	 viewBox="0 0 1000.5347 1010.0001" enable-background="new 0 0 1000.5347 1010.0001" xml:space="preserve">
<g id="syringe-syringe">
	<g id="syringe-fill">
		<path fill="#FFC44C" d="M334.903,858.2053c-4.583,4.623-10.7099,7.1533-17.2353,7.1533h-0.0108
			c-6.5253,0-12.6728-2.5303-17.2851-7.1533l-74.2041-74.2031c-0.0293-0.0411-0.0293-0.0801-0.0693-0.0801
			c-0.0401-0.0401-0.0596-0.0401-0.0997-0.0801l-74.1943-74.1836c-9.5342-9.5449-9.5342-25.0469-0.0098-34.5918L481.119,345.733
			l183.1582,183.1382L334.903,858.2053z"/>
		<path fill="#FFAB00" d="M612.4998,605.5861l-265.123,265.0928c-16.419,16.4385-43.0498,16.419-59.4688,0L139.3309,722.1115
			c-16.4385-16.459-16.4385-43.039,0-59.498l68.4551-57.0273"/>
		<g>
			<path fill="#43525B" d="M436.993,630.3341c-9.8135,9.7637-9.8135,25.664,0,35.4277c9.7842,9.8028,25.6543,9.8028,35.4287,0
				c9.793-9.7637,9.793-25.664,0-35.4277C462.6472,620.5499,446.7771,620.5499,436.993,630.3341"/>
			<path fill="#43525B" d="M354.2614,713.0255c-9.7841,9.8037-9.7841,25.6641,0,35.4482c9.793,9.7842,25.6739,9.7842,35.458,0
				c9.793-9.7841,9.793-25.6445,0-35.4482C379.9354,703.2228,364.0544,703.2228,354.2614,713.0255"/>
			<path fill="#43525B" d="M377.903,524.0099c-9.7832,9.7832-9.7832,25.624,0,35.4277c9.794,9.8027,25.6748,9.8027,35.4483,0
				c9.7832-9.8037,9.7832-25.6445,0-35.4277C403.5779,514.2062,387.6971,514.2062,377.903,524.0099"/>
			<path fill="#43525B" d="M330.6394,618.4981c-9.7842,9.8029-9.7842,25.6837,0,35.4668c9.7929,9.7842,25.6738,9.7842,35.458,0
				c9.7929-9.7831,9.7929-25.6639,0-35.4668C356.3132,608.7346,340.4323,608.7346,330.6394,618.4981"/>
			<path fill="#43525B" d="M247.9373,677.5782c-9.7939,9.8028-9.7939,25.6836,0,35.4473c9.793,9.8037,25.6543,9.8037,35.4375,0
				c9.7842-9.7637,9.7842-25.6445,0-35.4473C273.5916,667.794,257.7303,667.794,247.9373,677.5782"/>
		</g>
		<path fill="#AEBCC4" d="M629.7849,444.545l-64.3495-64.3603c0.0693-0.0401,0.1786-0.0796,0.2383-0.1592l168.1347-168.0547
			l64.2207,64.2407L629.9354,444.3458C629.8651,444.3858,629.8455,444.4855,629.7849,444.545z"/>
		<path fill="#EBEEF0" d="M708.8903,187.0436L540.7567,355.1178c-0.0694,0.0801-0.0997,0.1797-0.1592,0.2392l-34.5615-34.5512
			l168.3134-168.3135L708.8903,187.0436z"/>
		<path fill="#EBEEF0" d="M689.2039,503.9641l-34.581-34.5713c0.0703-0.0601,0.1591-0.0796,0.2295-0.1397l168.1132-168.1538
			l34.5616,34.5513L689.2039,503.9641z"/>
		<path fill="#AEBCC4" d="M908.6569,165.5836l-85.6611,85.7007l-64.2705-64.2608l85.6807-85.7207
			c0.3789-0.3784,0.498-0.8764,0.8369-1.2754l64.6895,64.7193C909.5438,165.0656,909.0359,165.2052,908.6569,165.5836z"/>
	</g>
	<path fill="#43525B" d="M994.5574,195.5719L804.9734,5.9776c-7.9707-7.9702-20.8829-7.9702-28.8526,0
		c-7.9707,7.9703-7.9707,20.8824,0,28.8526l40.4893,40.4892l-82.8018,82.8819L629.3171,53.7198
		c-7.9707-7.9702-20.8818-7.9702-28.8525,0c-7.9707,7.9707-7.9707,20.8824,0,28.8526l45.0224,45.0127L124.8952,648.1974
		c-24.33,24.3496-24.33,63.9814,0.0098,88.3408l59.8574,59.8467L5.9774,975.17c-7.9698,7.9707-7.9698,20.8819,0,28.8516
		c3.9853,3.9863,9.206,5.9785,14.4267,5.9785s10.4414-1.9922,14.4258-5.9785l178.7852-178.7832l59.8671,59.8672
		c11.7959,11.7949,27.4776,18.291,44.1553,18.3008c0.0098,0,0.0098,0,0.0195,0c16.6788,0,32.3702-6.5059,44.1465-18.3008
		l520.6309-520.6026l45.0127,45.0122c3.9854,3.9854,9.206,5.9781,14.4267,5.9781c5.2198,0,10.4405-1.9927,14.4258-5.9781
		c7.9706-7.9702,7.9706-20.8818,0-28.8525L851.8386,276.2115l82.8213-82.8413l31.0449,31.0542
		c3.9854,3.9854,9.2051,5.978,14.4258,5.978c5.2208,0,10.4414-1.9926,14.4268-5.978
		C1002.5272,216.4542,1002.5272,203.5421,994.5574,195.5719z M569.4099,380.2442l164.3984-164.3281l60.2852,60.2954
		L629.7458,440.5699L569.4099,380.2442z M704.9548,187.0538L540.5574,351.402l-30.5859-30.5865l164.3682-164.3779L704.9548,187.0538
		z M332.9402,856.2618c-4.085,4.086-9.5147,6.3369-15.293,6.3369s-11.2178-2.2617-15.3125-6.3466L228.2,782.1183
		c-0.0596-0.0498-0.0693-0.1299-0.1289-0.1885c-0.0596-0.0606-0.1396-0.0703-0.1894-0.1309l-74.1143-74.1035
		c-8.4385-8.459-8.4385-22.207-0.0098-30.6562L481.119,349.6681l179.2324,179.2031L332.9402,856.2618z M689.2039,500.0187
		l-30.6054-30.5962l164.3671-164.378l30.6065,30.606L689.2039,500.0187z M822.9861,247.359l-30.1583-30.1475l-30.1669-30.1577
		l82.791-82.8818l60.3554,60.3457L822.9861,247.359z"/>
</g>
</svg>
