<?xml version="1.0" encoding="utf-8"?>
<!-- Generator: Adobe Illustrator 17.1.0, SVG Export Plug-In . SVG Version: 6.00 Build 0)  -->
<!DOCTYPE svg PUBLIC "-//W3C//DTD SVG 1.1//EN" "http://www.w3.org/Graphics/SVG/1.1/DTD/svg11.dtd">
<svg version="1.1" id="syringe-2" xmlns="http://www.w3.org/2000/svg"  x="0px" y="0px"
	 viewBox="0 0 1000.2764 1010.0001" enable-background="new 0 0 1000.2764 1010.0001" xml:space="preserve">
<g id="syringe-2-syringe">
	<g id="syringe-2-fill">
		<polygon fill="#E5E5E5" points="747.4175,191.4669 841.5874,97.0983 912.8413,168.2936 818.5933,262.6022 		"/>
		<path fill="#FFAB00" d="M299.7344,891.3224c-7.4824,0-14.6856-3.0098-20.125-8.4493L127.1069,730.42
			c-5.4594-5.459-8.4584-12.7119-8.4384-20.4433c0.0097-7.711,3.0185-14.9444,8.4785-20.3643l60.0962-60.0967l82.2138,82.1748
			l20.3042-20.2842l-82.2436-82.1738l75.3496-75.3398l82.1841,82.2129l20.2842-20.2832l-82.1939-82.2139l75.3496-75.3403
			l193.2603,193.2407L320.3076,882.9532c-5.3896,5.3994-12.5732,8.3692-20.2148,8.3692H299.7344z"/>
		<polygon fill="#E5E5E5" points="378.4014,438.4278 474.0855,342.6241 556.2691,424.8185 576.5933,404.5338 494.4195,322.3399 
			569.7593,247.0001 651.9732,329.1744 672.2378,308.9099 589.9839,226.7555 666.0405,150.7188 859.3218,343.9791 571.6323,631.629 
					"/>
	</g>
	<path fill="#43525B" d="M994.2984,200.5929L799.7027,5.9776c-7.9698-7.9702-20.8819-7.9702-28.8516,0
		c-7.9707,7.9703-7.9707,20.8824,0,28.8526l41.9238,41.9238l-85.7012,85.8208l-107.58-107.5796
		c-7.9707-7.9702-20.8819-7.9702-28.8526,0c-7.9697,7.9702-7.9697,20.8823,0,28.8526l46.5469,46.5468l-534.6597,534.67
		c-24.7378,24.7373-24.7778,65.0566-0.0395,89.914l61.8594,61.8008L5.978,975.17c-7.9707,7.9697-7.9707,20.8819,0,28.8516
		c3.9849,3.9863,9.2056,5.9785,14.4263,5.9785c5.2202,0,10.4409-1.9922,14.4263-5.9785L193.211,845.6212l61.8495,61.8008
		c12.0151,12.0156,27.9858,18.6406,44.963,18.6406c0.0097,0,0.0195,0,0.0395,0c16.957-0.0098,32.8975-6.6357,44.8731-18.6406
		L879.605,372.7921l46.588,46.5864c3.9844,3.9854,9.2051,5.978,14.4258,5.978s10.4414-1.9926,14.4258-5.978
		c7.9707-7.9702,7.9707-20.8823,0-28.8525L847.4448,282.9265l85.7207-85.7608l32.2803,32.2803
		c3.9854,3.9849,9.2061,5.9775,14.4268,5.9775s10.4414-1.9926,14.4258-5.9775
		C1002.2691,221.4753,1002.2691,208.5636,994.2984,200.5929z M316.0635,878.5891c-4.2842,4.2939-9.9727,6.6552-16.0303,6.665
		h-0.0097c-6.0777,0-11.7964-2.3809-16.1104-6.6953l-76.1265-76.0664c-0.0498-0.0498-0.0698-0.1289-0.1196-0.1797
		c-0.0498-0.0488-0.1196-0.0693-0.1792-0.1191l-76.1069-76.0469c-8.8667-8.9062-8.8667-23.3633,0-32.2305l55.8423-55.8418
		l92.3862,92.3164l28.8525-28.873L216.086,609.212l66.771-66.7715l92.3266,92.3565l28.8525-28.8535L311.71,513.588l65.3764-65.3867
		l184.6827,184.6924L316.0635,878.5891z M590.6411,604.0411L405.939,419.3487l68.166-68.166l92.3262,92.3462l28.8535-28.8525
		l-92.3272-92.3467l66.8018-66.791l92.3359,92.3261l28.8526-28.8525l-92.336-92.3262l67.4287-67.4389l46.6065,46.6064
		c0.0205,0,0.0205,0.0098,0.0205,0.02l45.75,45.7398l92.3359,92.3262L590.6411,604.0411z M818.5933,254.0738l-62.6475-62.6367
		l85.6807-85.8203l62.6875,62.6963L818.5933,254.0738z"/>
</g>
</svg>
