<?xml version="1.0" encoding="utf-8"?>
<!-- Generator: Adobe Illustrator 17.1.0, SVG Export Plug-In . SVG Version: 6.00 Build 0)  -->
<!DOCTYPE svg PUBLIC "-//W3C//DTD SVG 1.1//EN" "http://www.w3.org/Graphics/SVG/1.1/DTD/svg11.dtd">
<svg version="1.1" id="telescope" xmlns="http://www.w3.org/2000/svg"  x="0px" y="0px"
	 viewBox="0 0 1009.9996 854.2696" enable-background="new 0 0 1009.9996 854.2696" xml:space="preserve">
<g id="telescope-telescope">
	<g id="telescope-fill">
		<path fill="#78909C" d="M432.5704,626.4512v2.2412H292.7989v-2.2412c0-19.4316,15.8071-35.2305,35.2295-35.2305h69.3296
			C416.7716,591.2207,432.5704,607.0196,432.5704,626.4512z"/>
		<path fill="#78909C" d="M204.108,442.2207L66.9,497.0547c-0.3477,0.1221-1.0859,2.0342-2.2852-0.9902L35.7462,423.815
			l0.9731-2.2764l136.9126-54.5913c0.1216,0,1.1905,0.0347,1.6421,1.0952l30.4155,73.3443L204.108,442.2207z"/>
		<path fill="#AEBCC4" d="M402.0421,413.5088L259.151,472.793c-0.3389,0.1387-1.0688,2.0684-2.3115-0.957l-18.8404-45.4488
			c-0.0171-0.0346-0.0171-0.0693-0.0347-0.104l-29.8154-71.9018c-0.0088-0.0171-0.0264-0.0347-0.0351-0.0694l-20.2652-48.873
			c-0.313-0.7476,0.1914-1.9468,0.9561-2.2593l143.9946-59.5796c0.1128,0,1.1558,0.0176,1.5991,1.0606l68.5908,166.5713
			C403.3541,412.1358,402.9459,413.1436,402.0421,413.5088z"/>
		<path fill="#EBEEF0" d="M702.5103,331.8394l-255.1669,89.3169c-0.8082,0.2602-1.7295,0.0693-2.1724-0.9907l-49.7681-120.8443
			l-28.0952-68.2348c0,0,0,0-0.0088-0.0171l-10.3061-25.0279c-0.3565-0.8686,0.0083-1.8593,0.8515-2.2592L601.0094,88.7779
			c0.1914,0,1.1826,0.0522,1.6172,1.0776l100.8915,239.6548L702.5103,331.8394z"/>
		<path fill="#FFAB00" d="M740.9205,79.0972c36.3418,0,65.7666,29.4595,65.7666,65.7666c0-36.3071,29.459-65.7666,65.7656-65.7666
			c-36.3066,0-65.7656-29.4419-65.7656-65.7495C806.6871,49.6553,777.2623,79.0972,740.9205,79.0972z"/>
		<path fill="#FFAB00" d="M865.1363,239.8286c36.3418,0,65.7666,29.4771,65.7666,65.7842c0-36.3071,29.46-65.7842,65.749-65.7842
			c-36.289,0-65.749-29.4243-65.749-65.7314C930.9029,210.4043,901.4781,239.8286,865.1363,239.8286z"/>
		<path fill="#FFAB00" d="M740.9205,426.3526c36.3418,0,65.7666,29.4599,65.7666,65.7842c0-36.3243,29.459-65.7842,65.7656-65.7842
			c-36.3066,0-65.7656-29.4243-65.7656-65.7491C806.6871,396.9283,777.2623,426.3526,740.9205,426.3526z"/>
	</g>
	<g>
		<path fill="#43525B" d="M736.3316,315.7105L635.44,76.0381c-8.0127-19.0137-31.7353-28.1035-50.4023-19.2397L342.6104,171.6119
			c-14.8598,7.0385-22.8374,22.6811-20.917,38.288c-1.0688,0.3306-2.164,0.5215-3.2153,0.9561L175.17,270.2964
			c-9.2202,3.8233-16.3984,11.0015-20.2046,20.2129c-3.8149,9.229-3.8149,19.3789,0.0088,28.5733l6.0483,14.5815
			c-0.3999,0.1567-0.8168,0.1914-1.2167,0.3477L23.5279,388.4815c-9.2724,3.6845-16.5459,10.7754-20.4824,19.9521
			c-3.9365,9.1768-4.0586,19.3267-0.3564,28.5899l28.8686,72.25c5.7095,14.2871,19.3267,23.498,34.6997,23.498
			c4.7529,0,9.4111-0.8867,13.8428-2.6592l137.2168-54.8349c0.7036-0.2774,1.312-0.7119,1.9897-1.0254l4.6494,11.2109
			c5.8047,14.0078,19.3614,23.0625,34.5259,23.0625c4.9009,0,9.6978-0.9551,14.2862-2.8496l72.1191-29.9111v79.8623h-16.8589
			c-39.0532,0-70.8242,31.7704-70.8242,70.8242v14.9981L142.9469,827.1387c-5.1529,8.3779-2.5459,19.3447,5.831,24.4893
			c2.9029,1.79,6.127,2.6416,9.3071,2.6416c5.9791,0,11.8101-3.0069,15.1734-8.4639l111.6933-181.5186h59.9356v172.1855
			c0,9.8369,7.9687,17.7969,17.7974,17.7969c9.8286,0,17.7973-7.96,17.7973-17.7969V664.2871h59.9356l111.6845,181.5186
			c3.3721,5.457,9.1944,8.4639,15.1729,8.4639c3.1807,0,6.4141-0.8516,9.3164-2.6416c8.377-5.1446,10.9844-16.1114,5.8223-24.4893
			L468.1646,641.4493v-14.9981c0-39.0537-31.7622-70.8242-70.8066-70.8242h-16.876v-94.6358l35.2119-14.5986
			c1.2774-0.5391,2.3897-1.2695,3.5806-1.9297c6.9434,7.6641,16.7368,12.3926,27.5039,12.3926
			c4.2061,0,8.3599-0.7129,12.3399-2.1035l255.1411-89.2993c9.6972-3.4068,17.6582-10.7237,21.8125-20.1265
			C740.2252,335.941,740.3297,325.1309,736.3316,315.7105z M432.5704,626.4512v2.2412H292.7989v-2.2412
			c0-19.4316,15.8071-35.2305,35.2295-35.2305h69.3296C416.7716,591.2207,432.5704,607.0196,432.5704,626.4512z M204.108,442.2207
			L66.9,497.0547c-0.3477,0.1221-1.0859,2.0342-2.2852-0.9902L35.7462,423.815l0.9731-2.2764l136.9126-54.5913
			c0.1216,0,1.1905,0.0347,1.6421,1.0952l30.4155,73.3443L204.108,442.2207z M402.0421,413.5088L259.151,472.793
			c-0.3389,0.1387-1.0688,2.085-2.3115-0.957l-18.8404-45.4488c-0.0171-0.0346-0.0171-0.0693-0.0347-0.104l-29.8154-71.9018
			c-0.0088-0.0171-0.0264-0.0347-0.0351-0.0694l-20.2652-48.873c-0.313-0.7476,0.1914-1.9468,0.9561-2.2593l143.9946-59.5796
			c0.1128,0,1.1558,0.0176,1.5991,1.0606l68.5908,166.5713C403.3541,412.1358,402.9459,413.1436,402.0421,413.5088z
			 M702.5103,331.8394l-255.1669,89.3169c-0.8169,0.2602-1.7466,0.0693-2.1724-0.9907l-49.7681-120.8443l-28.0952-68.2348
			c0,0,0,0-0.0088-0.0171l-10.3061-25.0279c-0.3565-0.8686,0.0083-1.8593,0.8515-2.2592L601.0269,88.7779
			c0.1915,0,1.1651,0.0522,1.5997,1.0776l100.8915,239.6548L702.5103,331.8394z"/>
		<path fill="#43525B" d="M740.9205,92.4449c28.9033,0,52.4189,23.5156,52.4189,52.4189c0,7.3691,5.9786,13.3477,13.3477,13.3477
			c7.3691,0,13.3477-5.9786,13.3477-13.3477c0-28.9033,23.5156-52.4189,52.4179-52.4189c7.3701,0,13.3487-5.9786,13.3487-13.3477
			s-5.9786-13.3481-13.3487-13.3481c-28.9023,0-52.4179-23.5152-52.4179-52.4014C820.0348,5.9785,814.0562,0,806.6871,0
			c-7.3691,0-13.3477,5.9785-13.3477,13.3477c0,28.8862-23.5156,52.4014-52.4189,52.4014c-7.3691,0-13.3486,5.979-13.3486,13.3481
			S733.5514,92.4449,740.9205,92.4449z M806.6871,57.2676c5.787,8.6206,13.209,16.0591,21.8291,21.8296
			c-8.6201,5.7876-16.0421,13.209-21.8291,21.8296c-5.7705-8.6206-13.209-16.042-21.8301-21.8296
			C793.4781,73.3267,800.9166,65.8882,806.6871,57.2676z"/>
		<path fill="#43525B" d="M996.6519,226.481c-28.8857,0-52.4003-23.4981-52.4003-52.3838c0-7.3691-5.9796-13.3481-13.3488-13.3481
			c-7.3691,0-13.3486,5.979-13.3486,13.3481c0,28.8857-23.5147,52.3838-52.418,52.3838c-7.3691,0-13.3476,5.9785-13.3476,13.3476
			c0,7.3692,5.9785,13.3482,13.3476,13.3482c28.9033,0,52.418,23.5151,52.418,52.436c0,7.3692,5.9795,13.3477,13.3486,13.3477
			c7.3692,0,13.3488-5.9785,13.3488-13.3477c0-28.9209,23.5145-52.436,52.4003-52.436c7.3692,0,13.3477-5.979,13.3477-13.3482
			C1009.9996,232.4595,1004.0211,226.481,996.6519,226.481z M930.9029,261.6758c-5.7705-8.6382-13.209-16.0596-21.8291-21.8472
			c8.6201-5.77,16.0586-13.1914,21.8291-21.812c5.7881,8.6206,13.209,16.042,21.8291,21.812
			C944.1119,245.6162,936.691,253.0376,930.9029,261.6758z"/>
		<path fill="#43525B" d="M872.4527,413.0049c-28.9023,0-52.4179-23.5156-52.4179-52.4014c0-7.3691-5.9786-13.3481-13.3477-13.3481
			c-7.3691,0-13.3477,5.979-13.3477,13.3481c0,28.8858-23.5156,52.4014-52.4189,52.4014c-7.3691,0-13.3486,5.9785-13.3486,13.3477
			c0,7.3691,5.9795,13.3486,13.3486,13.3486c28.9033,0,52.4189,23.5147,52.4189,52.4356c0,7.3691,5.9786,13.3476,13.3477,13.3476
			c7.3691,0,13.3477-5.9785,13.3477-13.3476c0-28.9209,23.5156-52.4356,52.4179-52.4356c7.3701,0,13.3487-5.9795,13.3487-13.3486
			C885.8014,418.9834,879.8228,413.0049,872.4527,413.0049z M806.6871,448.1993c-5.7705-8.6377-13.209-16.0586-21.8301-21.8467
			c8.6211-5.77,16.0596-13.209,21.8301-21.8291c5.787,8.6201,13.209,16.0591,21.8467,21.8291
			C819.8961,432.1407,812.4742,439.5616,806.6871,448.1993z"/>
	</g>
</g>
</svg>
